<?xml version="1.0" encoding="UTF-8"?>
<svg width="48px" height="48px" viewBox="0 0 48 48" version="1.1" xmlns="http://www.w3.org/2000/svg" xmlns:xlink="http://www.w3.org/1999/xlink">
    <defs>
        <rect id="path-1" x="0" y="0" width="48" height="48"></rect>
        <rect id="path-3" x="0.75" y="0.75" width="46.5" height="46.5"></rect>
    </defs>
    <g id="首页" stroke="none" stroke-width="1" fill="none" fill-rule="evenodd">
        <g id="首页1.4-Dark" transform="translate(-1334.000000, -516.000000)">
            <g id="编组-24" transform="translate(252.000000, 500.000000)">
                <g id="icon活动专区Dark" transform="translate(1082.000000, 16.000000)">
                    <mask id="mask-2" fill="white">
                        <use xlink:href="#path-1"></use>
                    </mask>
                    <g id="蒙版"></g>
                    <g id="编组" mask="url(#mask-2)">
                        <g transform="translate(5.046000, 4.128600)">
                            <g id="编组" opacity="0.2" stroke-width="1" fill="none">
                                <path d="M2.967,0 L35.604,0 C37.2435,0 38.571,1.32825 38.571,2.96715 L38.571,35.6046 C38.571,37.24305 37.2435,38.5716 35.604,38.5716 L2.967,38.5716 C1.329,38.5716 0,37.24305 0,35.6046 L0,2.96715 C0,1.32825 1.329,0 2.967,0 Z M12.195,16.9215 L15.165,19.8915 C15.516,20.2431 15.516,20.81295 15.165,21.1641 C14.814,21.5157 14.244,21.5157 13.8915,21.1641 L10.9215,18.19455 C10.5705,17.84295 10.5705,17.2731 10.9215,16.9215 C11.274,16.57005 11.844,16.57005 12.195,16.9215 Z" id="减去顶层" fill="#4374F2"></path>
                            </g>
                            <path d="M19.2855,27.53505 L12.054,31.3374 C11.0445,31.8678 9.8655,31.01115 10.059,29.88795 L11.439,21.8343 L5.589,16.13085 C4.773,15.33555 5.223,13.9494 6.351,13.78575 L14.4375,12.6105 L18.0525,5.28345 C18.558,4.26135 20.0145,4.26135 20.5185,5.28345 L24.135,12.6105 L32.2215,13.78575 C33.3495,13.9494 33.7995,15.33555 32.9835,16.13085 L27.132,21.8343 L28.5135,29.88795 C28.7055,31.01115 27.5265,31.8678 26.5185,31.3374 L19.2855,27.53505 Z" id="减去顶层" fill="#4374F2"></path>
                        </g>
                    </g>
                    <path d="M17.241,21.0498 L20.211,24.0198 C20.562,24.3714 20.562,24.9411 20.211,25.2924 C19.86,25.64385 19.29,25.64385 18.9375,25.2924 L15.969,22.3227 C15.6165,21.97125 15.6165,21.4014 15.969,21.0498 C16.32,20.6982 16.89,20.6982 17.241,21.0498 Z" id="减去顶层-path" fill="#FFFFFF" mask="url(#mask-2)"></path>
                    <mask id="mask-4" fill="white">
                        <use xlink:href="#path-3"></use>
                    </mask>
                    <g id="蒙版"></g>
                </g>
            </g>
        </g>
    </g>
</svg>