<?xml version="1.0" encoding="UTF-8"?>
<svg width="50px" height="50px" viewBox="0 0 50 50" version="1.1" xmlns="http://www.w3.org/2000/svg" xmlns:xlink="http://www.w3.org/1999/xlink">
    <g id="首页" stroke="none" stroke-width="1" fill="none" fill-rule="evenodd">
        <g id="首页1.4-Dark" transform="translate(-995.000000, -515.000000)">
            <g id="编组-24" transform="translate(252.000000, 500.000000)">
                <g id="icon迁移专区Dark" transform="translate(744.000000, 16.000000)">
                    <rect id="矩形备份-12" stroke-opacity="0" stroke="#979797" stroke-width="1.5483871" x="0" y="0" width="48" height="48"></rect>
                    <g id="编组-88" transform="translate(4.180645, 4.180955)">
                        <g id="编组" opacity="0.2" fill="#4374F2">
                            <path d="M3.04877419,0 L36.5899355,0 C38.2730323,0 39.6387097,1.36505806 39.6387097,3.04908387 L39.6387097,36.5897806 C39.6387097,38.2734968 38.2730323,39.6388645 36.5899355,39.6388645 L3.04877419,39.6388645 C1.36567742,39.6388645 0,38.2734968 0,36.5897806 L0,3.04908387 C0,1.36505806 1.36567742,0 3.04877419,0 Z" id="减去顶层"></path>
                        </g>
                        <path d="M20.1305806,15.4222452 L23.5014194,18.0868645 C23.5989677,18.164129 23.5989677,18.311071 23.5029677,18.3894194 L20.132129,21.1130323 C20.0051613,21.2155355 19.8178065,21.1251097 19.8178065,20.962529 L19.8178065,19.042529 L12.8562581,19.042529 C12.4227097,19.042529 12.0820645,18.7020387 12.0820645,18.2683355 C12.0820645,17.8347871 12.4227097,17.4941419 12.8562581,17.4941419 L19.8178065,17.4941419 L19.8178065,15.5738323 C19.8178065,15.4120258 20.0036129,15.3217548 20.1305806,15.4222452 Z" id="减去顶层-path" fill="#FFFFFF"></path>
                        <g id="编组" opacity="0.5" transform="translate(9.754839, 8.980645)" fill="#4374F2">
                            <path d="M0,21.6774194 C0,23.3876129 1.38735484,24.7741935 3.09677419,24.7741935 L20.1290323,24.7741935 C21.84,24.7741935 23.2258065,23.3876129 23.2258065,21.6774194 L23.2258065,3.09677419 C23.2258065,1.38673548 21.84,0 20.1290323,0 L20.1290323,18.5806452 C20.1290323,20.2908387 18.7432258,21.6774194 17.0322581,21.6774194 L0,21.6774194 Z" id="减去顶层"></path>
                        </g>
                        <path d="M26.7870968,5.88387097 L9.75483871,5.88387097 C8.04541935,5.88387097 6.65806452,7.27060645 6.65806452,8.98064516 L6.65806452,27.5612903 C6.65806452,29.2714839 8.04541935,30.6580645 9.75483871,30.6580645 L26.7870968,30.6580645 C28.4980645,30.6580645 29.883871,29.2714839 29.883871,27.5612903 L29.883871,8.98064516 C29.883871,7.27060645 28.4980645,5.88387097 26.7870968,5.88387097 Z M20.1305806,15.4222452 L23.5014194,18.0868645 C23.5989677,18.164129 23.5989677,18.3115355 23.5029677,18.3894194 L20.132129,21.1130323 C20.0067097,21.2155355 19.8178065,21.1255742 19.8178065,20.962529 L19.8178065,19.042529 L12.8562581,19.042529 C12.4227097,19.042529 12.0820645,18.7020387 12.0820645,18.2683355 C12.0820645,17.8347871 12.4227097,17.4941419 12.8562581,17.4941419 L19.8178065,17.4941419 L19.8178065,15.5738323 C19.8178065,15.4120258 20.0036129,15.3217548 20.1305806,15.4222452 Z" id="减去顶层" fill="#4374F2"></path>
                    </g>
                </g>
            </g>
        </g>
    </g>
</svg>