<?xml version="1.0" encoding="UTF-8"?>
<svg width="50px" height="50px" viewBox="0 0 50 50" version="1.1" xmlns="http://www.w3.org/2000/svg" xmlns:xlink="http://www.w3.org/1999/xlink">
    <g id="首页" stroke="none" stroke-width="1" fill="none" fill-rule="evenodd">
        <g id="首页1.4" transform="translate(-657.000000, -515.000000)">
            <g id="编组-24" transform="translate(252.000000, 500.000000)">
                <g id="icon安全中心" transform="translate(406.000000, 16.000000)">
                    <rect id="矩形备份-12" stroke-opacity="0" stroke="#979797" stroke-width="1.5483871" x="0" y="0" width="48" height="48"></rect>
                    <g id="编组-87" transform="translate(3.881806, 3.870968)" fill="#002FA7">
                        <g id="编组" opacity="0.2">
                            <path d="M3.04877419,0 L36.5899355,0 C38.2730323,0 39.6387097,1.36505806 39.6387097,3.04908387 L39.6387097,36.5897806 C39.6387097,38.2734968 38.2730323,39.6388645 36.5899355,39.6388645 L3.04877419,39.6388645 C1.36567742,39.6388645 0,38.2734968 0,36.5897806 L0,3.04908387 C0,1.36505806 1.36567742,0 3.04877419,0 Z M19.8193548,20.5935484 L17.1050323,22.0206968 C16.7256774,22.2198194 16.2828387,21.8982194 16.3556129,21.4767484 L16.8743226,18.4536774 L14.6771613,16.3128774 C14.372129,16.0141935 14.5409032,15.4940903 14.9636129,15.4324645 L17.9984516,14.991329 L19.3563871,12.2412387 C19.5452903,11.8575484 20.0934194,11.8575484 20.2823226,12.2412387 L21.6402581,14.991329 L24.6750968,15.4324645 C25.0978065,15.4940903 25.2665806,16.0141935 24.9615484,16.3128774 L22.7643871,18.4536774 L23.2830968,21.4767484 C23.355871,21.8982194 22.9130323,22.2198194 22.5336774,22.0206968 L19.8193548,20.5935484 Z M22.7612903,25.8580645 L16.8774194,25.8580645 C16.3649032,25.8580645 15.9483871,26.2738065 15.9483871,26.7867871 C15.9483871,27.3000774 16.3649032,27.7159742 16.8774194,27.7159742 L22.7612903,27.7159742 C23.2738065,27.7159742 23.6903226,27.3000774 23.6903226,26.7867871 C23.6903226,26.2738065 23.2738065,25.8580645 22.7612903,25.8580645 Z" id="减去顶层"></path>
                        </g>
                        <path d="M7.43225806,9.34854194 C14.0376774,9.34854194 19.8193548,5.10967742 19.8193548,5.10967742 C19.8193548,5.10967742 25.6010323,9.34854194 32.2064516,9.34854194 L32.2064516,22.1314065 C32.2064516,22.1314065 32.2064516,27.5790968 26.016,31.2168774 C19.8255484,34.8549677 19.8193548,34.5211355 19.8193548,34.5211355 C19.8193548,34.5211355 19.8131613,34.8549677 13.6227097,31.2168774 C7.43225806,27.5790968 7.43225806,22.1314065 7.43225806,22.1314065 L7.43225806,9.34854194 Z M19.8193548,20.5935484 L17.1050323,22.0210065 C16.7256774,22.2198194 16.2828387,21.898529 16.3556129,21.4767484 L16.8743226,18.4536774 L14.6771613,16.3128774 C14.372129,16.0141935 14.5409032,15.4940903 14.9636129,15.4324645 L17.9984516,14.9916387 L19.3563871,12.2412387 C19.5452903,11.8575484 20.0934194,11.8575484 20.2823226,12.2412387 L21.6402581,14.9916387 L24.6750968,15.4324645 C25.0978065,15.4940903 25.2665806,16.0141935 24.9615484,16.3128774 L22.7643871,18.4536774 L23.2830968,21.4767484 C23.355871,21.898529 22.9130323,22.2198194 22.5336774,22.0210065 L19.8193548,20.5935484 Z M23.6903226,26.7870968 C23.6903226,26.2738065 23.2738065,25.8580645 22.7612903,25.8580645 L16.8774194,25.8580645 C16.3649032,25.8580645 15.9483871,26.2738065 15.9483871,26.7870968 C15.9483871,27.3000774 16.3649032,27.7159742 16.8774194,27.7159742 L22.7612903,27.7159742 C23.2738065,27.7159742 23.6903226,27.3000774 23.6903226,26.7870968 Z" id="减去顶层"></path>
                    </g>
                </g>
            </g>
        </g>
    </g>
</svg>