<?xml version="1.0" encoding="UTF-8"?>
<svg width="48px" height="48px" viewBox="0 0 48 48" version="1.1" xmlns="http://www.w3.org/2000/svg" xmlns:xlink="http://www.w3.org/1999/xlink">
    <g id="首页" stroke="none" stroke-width="1" fill="none" fill-rule="evenodd">
        <g id="首页1.4" transform="translate(-320.000000, -516.000000)">
            <g id="编组-24" transform="translate(252.000000, 500.000000)">
                <g id="icon技术白皮书" transform="translate(68.000000, 16.000000)">
                    <rect id="矩形备份-12" fill-opacity="0" fill="#D8D8D8" fill-rule="nonzero" x="0" y="0" width="48" height="48"></rect>
                    <g id="编组-86" transform="translate(4.510650, 4.500000)" fill="#002FA7">
                        <g id="编组" opacity="0.2">
                            <path d="M35.44605,0 L2.9538,0 C1.3224,0 0,1.3224 0,2.9538 L0,35.44635 C0,37.07745 1.3224,38.40015 2.9538,38.40015 L35.44605,38.40015 C37.0776,38.40015 38.4,37.07745 38.4,35.44635 L38.4,2.9538 C38.4,1.3224 37.0776,0 35.44605,0 Z M26.7,7.2 L19.2,7.2 L19.2,15.5757 C19.2,15.82725 19.491,15.9672 19.6875,15.81 L22.95,13.2 L26.21265,15.81 C26.40885,15.9672 26.7,15.82725 26.7,15.5757 L26.7,7.2 Z M12.6,22.2 L24.29985,22.2 C24.7971,22.2 25.2,22.6032 25.2,23.10015 C25.2,23.5971 24.7971,24 24.29985,24 L12.6,24 C12.1029,24 11.7,23.5971 11.7,23.10015 C11.7,22.6032 12.1029,22.2 12.6,22.2 Z M18.29985,26.7 L12.6,26.7 C12.1029,26.7 11.7,27.1032 11.7,27.60015 C11.7,28.0971 12.1029,28.5 12.6,28.5 L18.29985,28.5 C18.7971,28.5 19.2,28.0971 19.2,27.60015 C19.2,27.1032 18.7971,26.7 18.29985,26.7 Z" id="减去顶层"></path>
                        </g>
                        <path d="M10.19985,5.7 L28.19985,5.7 C29.85675,5.7 31.19985,7.0434 31.19985,8.7 L31.19985,29.7 C31.19985,31.35675 29.85675,32.7 28.19985,32.7 L10.19985,32.7 C8.54295,32.7 7.19985,31.35675 7.19985,29.7 L7.19985,8.7 C7.19985,7.0434 8.54295,5.7 10.19985,5.7 Z M26.69985,7.2 L19.19985,7.2 L19.19985,15.576 C19.19985,15.82725 19.49085,15.9672 19.68735,15.81 L22.94985,13.2 L26.2125,15.81 C26.40885,15.9672 26.69985,15.82725 26.69985,15.576 L26.69985,7.2 Z M12.59985,22.2 L24.29985,22.2 C24.7968,22.2 25.19985,22.6032 25.19985,23.10015 C25.19985,23.5971 24.7968,24.0003 24.29985,24.0003 L12.59985,24.0003 C12.1029,24.0003 11.69985,23.5971 11.69985,23.10015 C11.69985,22.6032 12.1029,22.2 12.59985,22.2 Z M18.29985,26.7 L12.59985,26.7 C12.1029,26.7 11.69985,27.1032 11.69985,27.60015 C11.69985,28.0971 12.1029,28.5003 12.59985,28.5003 L18.29985,28.5003 C18.7968,28.5003 19.19985,28.0971 19.19985,27.60015 C19.19985,27.1032 18.7968,26.7 18.29985,26.7 Z" id="减去顶层"></path>
                    </g>
                </g>
            </g>
        </g>
    </g>
</svg>