<!-- Generated by IcoMoon.io -->
<svg version="1.1" xmlns="http://www.w3.org/2000/svg" width="32" height="32" viewBox="0 0 32 32">
    <path fill="currentColor"
        d="M28 21.084c0.315 0 0.573 0.242 0.598 0.551l0.002 0.049v5.053c0 1.005-0.795 1.823-1.79 1.862l-0.073 0.001h-5.053c-0.331 0-0.6-0.269-0.6-0.6 0-0.315 0.242-0.573 0.551-0.598l0.049-0.002h5.053c0.35 0 0.636-0.271 0.661-0.614l0.002-0.049v-5.053c0-0.331 0.269-0.6 0.6-0.6zM4 21.084c0.315 0 0.573 0.242 0.598 0.551l0.002 0.049v5.053c0 0.35 0.271 0.636 0.614 0.661l0.050 0.002h5.053c0.331 0 0.6 0.269 0.6 0.6 0 0.315-0.242 0.573-0.551 0.598l-0.049 0.002h-5.053c-1.005 0-1.823-0.795-1.862-1.79l-0.001-0.073v-5.053c0-0.331 0.269-0.6 0.6-0.6zM17.153 9.286c0.114 0.234 0.18 0.489 0.193 0.749l0.002 0.098-0 2.701 3.693 1.473c0.71 0.283 1.184 0.956 1.216 1.714l0.002 0.082-0 6.631 1.738 0.001c0.331 0 0.6 0.269 0.6 0.6 0 0.315-0.242 0.573-0.551 0.598l-0.049 0.002-7.18 0c-0.022 0.003-0.045 0.004-0.068 0.004l-0.061-0.005-6.286 0.001c-0.022 0.003-0.045 0.004-0.068 0.004l-0.061-0.005-2.273 0.001c-0.331 0-0.6-0.269-0.6-0.6 0-0.315 0.242-0.573 0.551-0.598l0.049-0.002 1.733-0.001 0.001-10.776c0-0.712 0.391-1.364 1.014-1.701l0.073-0.037 3.748-1.825c0.96-0.467 2.117-0.068 2.585 0.892zM15.142 9.452l-0.048 0.021-3.748 1.825c-0.235 0.115-0.391 0.345-0.41 0.604l-0.002 0.056-0.001 10.776h5.215l0-12.601c0-0.111-0.025-0.221-0.074-0.321-0.17-0.348-0.579-0.502-0.932-0.36zM17.348 14.126v8.607h3.71l0-6.631c0-0.281-0.161-0.536-0.411-0.659l-0.051-0.023-3.248-1.295zM14.524 12.496c0.26 0 0.473 0.198 0.498 0.452l0.002 0.048v3.009c0 0.276-0.224 0.5-0.5 0.5-0.26 0-0.473-0.198-0.498-0.452l-0.002-0.048v-3.009c0-0.276 0.224-0.5 0.5-0.5zM26.737 3.4c1.005 0 1.823 0.795 1.862 1.79l0.001 0.073v5.053c0 0.331-0.269 0.6-0.6 0.6-0.315 0-0.573-0.242-0.598-0.551l-0.002-0.049v-5.053c0-0.35-0.271-0.636-0.614-0.661l-0.049-0.002h-5.053c-0.331 0-0.6-0.269-0.6-0.6 0-0.315 0.242-0.573 0.551-0.598l0.049-0.002h5.053zM10.316 3.4c0.331 0 0.6 0.269 0.6 0.6 0 0.315-0.242 0.573-0.551 0.598l-0.049 0.002h-5.053c-0.35 0-0.636 0.271-0.661 0.614l-0.002 0.050v5.053c0 0.331-0.269 0.6-0.6 0.6-0.315 0-0.573-0.242-0.598-0.551l-0.002-0.049v-5.053c0-1.005 0.795-1.823 1.79-1.862l0.073-0.001h5.053z">
    </path>
</svg>