<!-- Generated by IcoMoon.io -->
<svg version="1.1" xmlns="http://www.w3.org/2000/svg" width="32" height="32" viewBox="0 0 32 32">
    <path fill="currentColor"
        d="M16.167 2.067l0.027 0.001c7.606 0.104 13.739 6.302 13.739 13.932 0 7.695-6.238 13.933-13.933 13.933l0.193-0.001c-0.009 0-0.017 0.001-0.026 0.001l-0.018-0.002-0.148 0.002c-7.608 0-13.791-6.097-13.931-13.672l-0.002-0.262c0-7.695 6.238-13.933 13.933-13.933 0.048 0 0.096 0 0.144 0.001l0.022-0.001zM8.407 16.6l-5.082-0c0.344 1.764 2.192 3.426 5.124 4.531 0.31 0.117 0.467 0.463 0.35 0.773s-0.463 0.467-0.773 0.35c-1.748-0.658-3.181-1.519-4.203-2.519 1.235 4.030 4.414 7.209 8.444 8.443-0.813-0.83-1.534-1.933-2.131-3.259-0.136-0.302-0.001-0.657 0.301-0.793s0.657-0.001 0.793 0.301c1.135 2.523 2.7 4.047 4.336 4.277l-0-5.108-0.106-0c-1.077-0.022-2.135-0.11-3.159-0.261-0.328-0.048-0.554-0.353-0.506-0.681s0.353-0.554 0.681-0.506c1 0.147 2.036 0.232 3.091 0.25l-0-5.797-5.959 0c0.031 1.296 0.162 2.561 0.386 3.763 0.061 0.326-0.154 0.639-0.48 0.7s-0.639-0.154-0.7-0.48c-0.238-1.274-0.376-2.613-0.407-3.983zM21.314 23.038l-0.044 0.010c-1.404 0.308-2.92 0.495-4.503 0.541l0 5.050c1.86-0.461 3.519-2.57 4.547-5.601zM28.177 19.734l-0.059 0.057c-1.28 1.227-3.167 2.227-5.433 2.895-0.678 2.301-1.699 4.211-2.952 5.492 4.030-1.234 7.209-4.414 8.443-8.444zM22.393 16.6l-5.627-0 0.001 5.789c1.773-0.054 3.443-0.295 4.942-0.68 0.397-1.545 0.64-3.274 0.684-5.108zM28.675 16.6l-5.082-0c-0.038 1.661-0.231 3.25-0.555 4.715 3.121-1.059 5.265-2.787 5.638-4.715zM16.767 3.362l-0 5.049c1.158 0.034 2.293 0.144 3.384 0.326 0.327 0.055 0.547 0.364 0.493 0.691s-0.364 0.547-0.691 0.493c-1.027-0.172-2.095-0.276-3.186-0.309l-0.001 5.788 5.627-0c-0.023-0.967-0.102-1.917-0.234-2.837-0.047-0.328 0.181-0.632 0.509-0.679s0.632 0.181 0.679 0.509c0.14 0.977 0.223 1.984 0.246 3.008l5.082-0c-0.324-1.661-1.981-3.234-4.64-4.339-0.306-0.127-0.451-0.478-0.324-0.784s0.478-0.451 0.784-0.324c1.515 0.629 2.765 1.416 3.683 2.314-1.235-4.029-4.413-7.208-8.442-8.443 0.985 1.008 1.835 2.413 2.49 4.127 0.118 0.31-0.037 0.656-0.346 0.775s-0.656-0.037-0.775-0.346c-1.070-2.801-2.65-4.595-4.337-5.017zM10.493 10.241l-0.202 0.050c-0.397 1.546-0.641 3.274-0.685 5.109l5.959-0.001 0-5.796c-1.816 0.031-3.532 0.258-5.073 0.637zM8.962 10.686l-0.22 0.076c-3.002 1.064-5.054 2.756-5.418 4.638l5.082-0.001c0.038-1.66 0.231-3.249 0.555-4.713zM12.267 3.822l-0.154 0.049c-3.957 1.267-7.072 4.417-8.29 8.396 1.281-1.253 3.191-2.274 5.492-2.952 0.678-2.301 1.699-4.212 2.952-5.492zM10.686 8.962l0.044-0.010c1.501-0.329 3.132-0.521 4.836-0.549l0-5.107c-1.994 0.278-3.791 2.455-4.88 5.665z">
    </path>
    <path fill="currentColor"
        d="M22 7.833c-1.381 0-2.5 1.119-2.5 2.5s1.119 2.5 2.5 2.5c1.381 0 2.5-1.119 2.5-2.5s-1.119-2.5-2.5-2.5zM22 8.833c0.828 0 1.5 0.672 1.5 1.5s-0.672 1.5-1.5 1.5c-0.828 0-1.5-0.672-1.5-1.5s0.672-1.5 1.5-1.5zM10.333 19.833c-1.381 0-2.5 1.119-2.5 2.5s1.119 2.5 2.5 2.5c1.381 0 2.5-1.119 2.5-2.5s-1.119-2.5-2.5-2.5zM10.333 20.833c0.828 0 1.5 0.672 1.5 1.5s-0.672 1.5-1.5 1.5c-0.828 0-1.5-0.672-1.5-1.5s0.672-1.5 1.5-1.5z">
    </path>
</svg>