<!-- Generated by IcoMoon.io -->
<svg version="1.1" xmlns="http://www.w3.org/2000/svg" width="32" height="32" viewBox="0 0 32 32">
    <path fill="currentColor"
        d="M25.333 2.733c1.043 0 1.893 0.826 1.932 1.859l0.001 0.074v16.762c0 0.331-0.269 0.6-0.6 0.6-0.315 0-0.573-0.242-0.598-0.551l-0.002-0.049v-16.762c0-0.387-0.3-0.705-0.681-0.732l-0.052-0.002h-18.815c-0.305 0-0.559 0.243-0.583 0.556l-0.002 0.050v22.794c0 0.387 0.3 0.705 0.681 0.732l0.052 0.002h13.272l4.549-4.073c0.233-0.209 0.584-0.202 0.809 0.008l0.038 0.039c0.209 0.233 0.202 0.584-0.008 0.809l-0.039 0.038-4.72 4.226c-0.096 0.086-0.217 0.139-0.345 0.15l-0.055 0.003h-13.502c-1.043 0-1.893-0.826-1.932-1.859l-0.001-0.074v-22.794c0-0.971 0.758-1.767 1.713-1.805l0.072-0.001h18.815z">
    </path>
    <path fill="currentColor"
        d="M26.667 21.067c0.331 0 0.6 0.269 0.6 0.6 0 0.315-0.242 0.573-0.551 0.598l-0.049 0.002h-5.333c-0.387 0-0.705 0.3-0.732 0.681l-0.002 0.052v5.667c0 0.331-0.269 0.6-0.6 0.6-0.315 0-0.573-0.242-0.598-0.551l-0.002-0.049v-5.667c0-1.043 0.826-1.893 1.859-1.932l0.074-0.001h5.333z">
    </path>
    <path fill="currentColor"
        d="M22.667 6.733h-13.333c-0.331 0-0.6 0.269-0.6 0.6v4c0 0.331 0.269 0.6 0.6 0.6h13.333c0.331 0 0.6-0.269 0.6-0.6v-4c0-0.331-0.269-0.6-0.6-0.6zM22.067 7.933v2.8h-12.133v-2.8h12.133z">
    </path>
    <path fill="currentColor"
        d="M22.833 16.233c0.331 0 0.6 0.269 0.6 0.6 0 0.315-0.242 0.573-0.551 0.598l-0.049 0.002h-13.333c-0.331 0-0.6-0.269-0.6-0.6 0-0.315 0.242-0.573 0.551-0.598l0.049-0.002h13.333z">
    </path>
    <path fill="currentColor"
        d="M15.667 21.114c0.331 0 0.6 0.269 0.6 0.6 0 0.315-0.242 0.573-0.551 0.598l-0.049 0.002h-6c-0.331 0-0.6-0.269-0.6-0.6 0-0.315 0.242-0.573 0.551-0.598l0.049-0.002h6z">
    </path>
</svg>