<!-- Generated by IcoMoon.io -->
<svg version="1.1" xmlns="http://www.w3.org/2000/svg" width="32" height="32" viewBox="0 0 32 32">
<path fill="currentColor" d="M6.245 15.733c0.331 0 0.6 0.269 0.6 0.6 0 0.315-0.242 0.573-0.551 0.598l-0.049 0.002h-1.343c-0.399 0-0.726 0.31-0.752 0.703l-0.002 0.052v8.6c0 0.399 0.31 0.726 0.703 0.752l0.052 0.002h0.7c0.123 0 0.242 0.038 0.343 0.107l0.042 0.032 1.054 0.879 0.918-0.856c0.097-0.091 0.221-0.146 0.353-0.159l0.057-0.003h9.657c0.399 0 0.726-0.31 0.752-0.703l0.002-0.052v-5.289c0-0.331 0.269-0.6 0.6-0.6 0.315 0 0.573 0.242 0.598 0.551l0.002 0.049v5.289c0 1.055-0.836 1.914-1.881 1.953l-0.073 0.001-9.421-0-1.132 1.057c-0.207 0.193-0.519 0.214-0.749 0.056l-0.045-0.034-1.294-1.079-0.483 0c-1.055 0-1.914-0.836-1.953-1.881l-0.001-0.073v-8.6c0-1.055 0.836-1.914 1.881-1.953l0.073-0.001h1.343zM16.31 23.184l0.049 0.002c0.308 0.025 0.551 0.283 0.551 0.598 0 0.331-0.269 0.6-0.6 0.6l-10.036-0.002c-0.308-0.025-0.551-0.283-0.551-0.598 0-0.331 0.269-0.6 0.6-0.6h9.987zM16.31 19.851l0.049 0.002c0.308 0.025 0.551 0.283 0.551 0.598 0 0.331-0.269 0.6-0.6 0.6l-10.036-0.002c-0.308-0.025-0.551-0.283-0.551-0.598 0-0.331 0.269-0.6 0.6-0.6h9.987zM27.313 2.4c1.079 0 1.954 0.875 1.954 1.954v12.526l-0.001 0.073c-0.039 1.045-0.898 1.881-1.953 1.881l-1.196-0-1.8 1.501-0.045 0.034c-0.23 0.158-0.541 0.137-0.749-0.056l-1.585-1.479-12.225 0c-1.079 0-1.954-0.875-1.954-1.954v-12.526c0-1.079 0.875-1.954 1.954-1.954h17.601zM27.313 3.6h-17.601c-0.416 0-0.754 0.338-0.754 0.754v12.526c0 0.416 0.338 0.754 0.754 0.754l12.518 0.003c0.131 0.012 0.255 0.068 0.353 0.159l1.371 1.279 1.561-1.301c0.108-0.090 0.244-0.139 0.384-0.139h1.414c0.416 0 0.754-0.338 0.754-0.754v-12.526c0-0.417-0.338-0.754-0.754-0.754z"></path>
<path fill="currentColor" d="M18.373 5.5c1.955 0 3.539 1.585 3.539 3.539 0 1.14-0.656 2.193-1.685 2.878l-0.098 0.063c-0.938 0.59-1.271 1.027-1.265 1.696 0.003 0.276-0.219 0.502-0.495 0.505s-0.502-0.219-0.505-0.495c-0.011-1.056 0.499-1.754 1.628-2.486l0.104-0.067c0.813-0.511 1.315-1.291 1.315-2.095 0-1.402-1.137-2.539-2.539-2.539s-2.539 1.137-2.539 2.539c0 0.276-0.224 0.5-0.5 0.5s-0.5-0.224-0.5-0.5c0-1.955 1.585-3.539 3.539-3.539zM18.383 14.915c-0.368 0-0.667 0.298-0.667 0.667s0.298 0.667 0.667 0.667c0.368 0 0.667-0.298 0.667-0.667s-0.298-0.667-0.667-0.667z"></path>
</svg>
