<!-- Generated by IcoMoon.io -->
<svg version="1.1" xmlns="http://www.w3.org/2000/svg" width="32" height="32" viewBox="0 0 32 32">
<path fill="currentColor" d="M6.444 7.443l0.049 0.002c0.308 0.025 0.551 0.283 0.551 0.598 0 0.331-0.269 0.6-0.6 0.6h-1.266l-0.050 0.002c-0.348 0.026-0.623 0.316-0.623 0.671v12.731l0.002 0.050c0.026 0.348 0.316 0.623 0.671 0.623h1.917l0.049 0.002c0.308 0.025 0.551 0.283 0.551 0.598l0 3.679 4.298-4.149c0.106-0.084 0.237-0.13 0.373-0.13l8.77 0.002c0.308 0.025 0.551 0.283 0.551 0.598l-0.002 0.049c-0.025 0.308-0.283 0.551-0.598 0.551l-8.478-0-4.61 4.451c-0.164 0.136-0.371 0.21-0.585 0.21l-0.056-0.002c-0.481-0.029-0.862-0.428-0.862-0.917l0-3.743-1.317 0-0.074-0.001c-1-0.039-1.8-0.862-1.8-1.872v-12.731l0.001-0.074c0.039-1 0.862-1.8 1.872-1.8h1.266zM26.822 3.305c1.035 0 1.873 0.839 1.873 1.873v12.731c0 1.035-0.839 1.873-1.873 1.873l-1.317-0 0 3.744c0 0.488-0.381 0.888-0.862 0.917l-0.056 0.002c-0.238 0-0.467-0.092-0.638-0.258l-4.557-4.404-9.12 0c-1.010 0-1.833-0.799-1.872-1.8l-0.001-0.074v-12.731c0-1.034 0.839-1.873 1.873-1.873zM26.822 4.505h-16.551c-0.372 0-0.673 0.301-0.673 0.673v12.731c0 0.372 0.301 0.673 0.673 0.673h9.363c0.156 0 0.305 0.060 0.417 0.169l4.254 4.111 0-3.679c0-0.315 0.242-0.573 0.551-0.598l0.049-0.002h1.917c0.372 0 0.673-0.301 0.673-0.673v-12.731c0-0.372-0.301-0.673-0.673-0.673zM16.996 12.695c0.331 0 0.6 0.269 0.6 0.6 0 0.315-0.242 0.573-0.551 0.598l-0.049 0.002h-4.816c-0.331 0-0.6-0.269-0.6-0.6 0-0.315 0.242-0.573 0.551-0.598l0.049-0.002h4.816zM24.794 8.557c0.331 0 0.6 0.269 0.6 0.6 0 0.315-0.242 0.573-0.551 0.598l-0.049 0.002h-12.614c-0.331 0-0.6-0.269-0.6-0.6 0-0.315 0.242-0.573 0.551-0.598l0.049-0.002h12.614z"></path>
</svg>
