<!-- Generated by IcoMoon.io -->
<svg version="1.1" xmlns="http://www.w3.org/2000/svg" width="32" height="32" viewBox="0 0 32 32">
<path fill="currentColor" d="M15.972 3.4c0.315 0 0.573 0.242 0.598 0.551l0.002 0.049v24.054c0 0.331-0.269 0.6-0.6 0.6-0.315 0-0.573-0.242-0.598-0.551l-0.002-0.049v-24.054c0-0.331 0.269-0.6 0.6-0.6zM26.802 3.909c1.027-0.293 2.097 0.301 2.39 1.328 0.049 0.173 0.074 0.351 0.074 0.531v20.465c0 1.068-0.866 1.933-1.933 1.933-0.18 0-0.358-0.025-0.531-0.074l-6.667-1.905c-0.83-0.237-1.402-0.996-1.402-1.859v-16.655c0-0.863 0.572-1.622 1.402-1.859zM28.022 5.516c-0.13-0.359-0.518-0.56-0.89-0.454l-6.667 1.905c-0.315 0.090-0.532 0.378-0.532 0.705v16.655c0 0.327 0.217 0.615 0.532 0.705l6.667 1.905c0.066 0.019 0.133 0.028 0.201 0.028 0.405 0 0.733-0.328 0.733-0.733v-20.465c0-0.068-0.009-0.136-0.028-0.201zM22.5 13.4c0.315 0 0.573 0.242 0.598 0.551l0.002 0.049v4.204c0 0.331-0.269 0.6-0.6 0.6-0.315 0-0.573-0.242-0.598-0.551l-0.002-0.049v-4.204c0-0.331 0.269-0.6 0.6-0.6zM5.198 3.909l6.667 1.905c0.83 0.237 1.402 0.996 1.402 1.859v16.655c0 0.863-0.572 1.622-1.402 1.859l-6.667 1.905c-0.173 0.049-0.351 0.074-0.531 0.074-1.068 0-1.933-0.866-1.933-1.933v-20.465c0-0.18 0.025-0.358 0.074-0.531 0.293-1.027 1.363-1.621 2.39-1.328zM3.978 5.516l-0.016 0.050c-0.019 0.066-0.028 0.133-0.028 0.201v20.465c0 0.405 0.328 0.733 0.733 0.733 0.068 0 0.136-0.009 0.201-0.028l6.667-1.905c0.315-0.090 0.532-0.378 0.532-0.705v-16.655c0-0.327-0.217-0.615-0.532-0.705l-6.667-1.905c-0.372-0.106-0.76 0.095-0.89 0.454zM9.5 13.4c0.315 0 0.573 0.242 0.598 0.551l0.002 0.049v4.204c0 0.331-0.269 0.6-0.6 0.6-0.315 0-0.573-0.242-0.598-0.551l-0.002-0.049v-4.204c0-0.331 0.269-0.6 0.6-0.6z"></path>
</svg>
