<!-- Generated by IcoMoon.io -->
<svg version="1.1" xmlns="http://www.w3.org/2000/svg" width="32" height="32" viewBox="0 0 32 32">
    <path fill="currentColor"
        d="M6 10.962v10.487l3.33 2.116 1.46-1.461v-3.617l-1.819 1.819-0.413-0.262v-7.778l0.497-0.361 1.735 1.597v-3.477l-1.544-1.421z">
    </path>
    <path fill="currentColor"
        d="M16.204 5l-4.684 3.044v16.913l4.684 3.044 4.684-3.044v-2.877l1.657 1.484 3.33-2.116v-10.487l-3.246-2.358-1.011 0.93v3.476l1.202-1.106 0.497 0.361v7.778l-0.413 0.262-2.016-1.834v-10.428l-4.684-3.044zM14.078 23.568v-14.136l2.126-1.381 2.126 1.381v6.712l-3.616-3.291 0.094 3.78 3.522 3.155v3.78l-2.126 1.382-2.126-1.382z">
    </path>
</svg>