<!-- Generated by IcoMoon.io -->
<svg version="1.1" xmlns="http://www.w3.org/2000/svg" width="24" height="24" viewBox="0 0 24 24">
<path fill="currentColor" d="M17.077 5.538c0-0.51 0.413-0.923 0.923-0.923s0.923 0.413 0.923 0.923c0 0.51-0.413 0.923-0.923 0.923s-0.923-0.413-0.923-0.923zM17.077 12c0-0.51 0.413-0.923 0.923-0.923s0.923 0.413 0.923 0.923c0 0.51-0.413 0.923-0.923 0.923s-0.923-0.413-0.923-0.923zM18 17.538c-0.51 0-0.923 0.413-0.923 0.923s0.413 0.923 0.923 0.923c0.51 0 0.923-0.413 0.923-0.923s-0.413-0.923-0.923-0.923z"></path>
<path fill="currentColor" d="M21.185 6.923c0 0.097-0.010 0.193-0.030 0.286-0.017 0.080-0.042 0.159-0.075 0.236s-0.071 0.149-0.116 0.217c-0.049 0.074-0.106 0.144-0.17 0.208s-0.134 0.121-0.208 0.17c-0.068 0.045-0.141 0.084-0.217 0.117s-0.155 0.057-0.236 0.075c-0.093 0.020-0.188 0.030-0.286 0.030h-15.692c-0.097 0-0.193-0.010-0.286-0.030-0.080-0.017-0.159-0.042-0.236-0.075s-0.149-0.071-0.217-0.116c-0.074-0.049-0.144-0.106-0.208-0.17s-0.121-0.134-0.17-0.208h-0c-0.045-0.068-0.084-0.141-0.116-0.217s-0.058-0.155-0.075-0.236v0c-0.020-0.093-0.030-0.188-0.030-0.286v-2.769c0-0.097 0.010-0.193 0.030-0.286v0c0.017-0.080 0.042-0.159 0.075-0.236s0.071-0.149 0.116-0.217c0.049-0.074 0.106-0.144 0.17-0.208s0.134-0.121 0.208-0.17c0.068-0.045 0.141-0.084 0.217-0.116s0.155-0.058 0.235-0.075v0 0h0c0.093-0.020 0.188-0.030 0.286-0.030h15.692c0.097 0 0.193 0.010 0.286 0.030 0.080 0.017 0.159 0.042 0.236 0.075s0.149 0.071 0.217 0.116v0l0 0c0.074 0.049 0.144 0.106 0.208 0.17s0.121 0.134 0.17 0.208c0.045 0.068 0.084 0.141 0.116 0.217s0.057 0.154 0.075 0.234l0 0.001c0.020 0.093 0.030 0.188 0.030 0.285v2.769zM20.354 6.923v-2.769c0-0.041-0.005-0.081-0.014-0.12-0.006-0.026-0.015-0.052-0.026-0.077-0.011-0.027-0.025-0.053-0.040-0.077h-0c-0.020-0.030-0.042-0.059-0.068-0.085s-0.054-0.049-0.085-0.068c-0.024-0.016-0.050-0.029-0.077-0.041-0.025-0.011-0.051-0.019-0.077-0.025h-0c-0.039-0.009-0.079-0.014-0.12-0.014h-15.692c-0.041 0-0.081 0.005-0.12 0.014-0.026 0.006-0.052 0.015-0.077 0.025-0.027 0.011-0.053 0.025-0.077 0.041-0.030 0.019-0.059 0.042-0.085 0.068s-0.049 0.054-0.068 0.085c-0.016 0.024-0.029 0.050-0.040 0.077-0.011 0.025-0.019 0.051-0.026 0.077-0.009 0.039-0.014 0.079-0.014 0.12v2.769c0 0.041 0.005 0.081 0.014 0.12 0.006 0.026 0.015 0.052 0.026 0.077 0.011 0.027 0.025 0.053 0.040 0.077 0.020 0.030 0.042 0.059 0.068 0.085s0.054 0.049 0.085 0.069c0.024 0.016 0.050 0.029 0.077 0.040 0.025 0.011 0.051 0.019 0.077 0.026 0.039 0.009 0.079 0.014 0.12 0.014h15.692c0.041 0 0.081-0.005 0.12-0.014 0.026-0.006 0.052-0.015 0.077-0.026 0.027-0.011 0.053-0.025 0.077-0.040l0.001-0c0.030-0.019 0.058-0.042 0.084-0.068s0.049-0.054 0.068-0.085c0.016-0.024 0.029-0.050 0.041-0.077 0.011-0.025 0.019-0.051 0.026-0.077 0.009-0.039 0.014-0.079 0.014-0.12zM10.385 5.954h-3.692c-0.233 0-0.415-0.183-0.415-0.415s0.183-0.415 0.415-0.415h3.692c0.233 0 0.415 0.183 0.415 0.415s-0.183 0.415-0.415 0.415zM4.154 14.723h0.577c0.233 0 0.415-0.183 0.415-0.415s-0.183-0.415-0.415-0.415h-0.577c-0.041 0-0.081-0.005-0.12-0.014-0.026-0.006-0.052-0.015-0.077-0.026-0.027-0.011-0.053-0.025-0.077-0.040-0.030-0.019-0.059-0.042-0.085-0.069s-0.049-0.054-0.068-0.085c-0.016-0.024-0.029-0.050-0.040-0.077-0.011-0.025-0.019-0.051-0.026-0.077-0.009-0.039-0.014-0.079-0.014-0.12v-2.769c0-0.041 0.005-0.081 0.014-0.12 0.006-0.026 0.015-0.052 0.026-0.077 0.011-0.027 0.025-0.053 0.040-0.077 0.020-0.030 0.042-0.059 0.068-0.085s0.054-0.049 0.085-0.068c0.024-0.016 0.050-0.029 0.077-0.041 0.025-0.011 0.051-0.019 0.077-0.025h0c0.039-0.009 0.079-0.014 0.12-0.014h15.692c0.041 0 0.081 0.005 0.12 0.014l0 0c0.026 0.006 0.052 0.015 0.077 0.025 0.027 0.011 0.053 0.025 0.077 0.041 0.030 0.020 0.059 0.042 0.085 0.068s0.049 0.054 0.068 0.085h0c0.016 0.024 0.029 0.050 0.041 0.077 0.011 0.025 0.019 0.051 0.025 0.077l0 0c0.009 0.039 0.014 0.079 0.014 0.12v2.769c0 0.041-0.005 0.081-0.014 0.12-0.006 0.026-0.015 0.052-0.026 0.077-0.011 0.027-0.025 0.052-0.040 0.076l-0 0.001c-0.020 0.030-0.042 0.059-0.068 0.085s-0.054 0.049-0.084 0.068l-0.001 0c-0.024 0.016-0.050 0.029-0.077 0.040-0.025 0.011-0.051 0.019-0.077 0.026-0.039 0.009-0.079 0.014-0.12 0.014h-7.385c-0.233 0-0.415 0.183-0.415 0.415s0.183 0.415 0.415 0.415h7.385c0.097 0 0.193-0.010 0.286-0.030 0.080-0.017 0.159-0.042 0.236-0.075s0.149-0.071 0.217-0.117c0.074-0.049 0.144-0.106 0.208-0.17s0.121-0.134 0.17-0.208c0.045-0.068 0.084-0.141 0.116-0.217s0.058-0.155 0.075-0.236c0.020-0.093 0.030-0.188 0.030-0.286v-2.769c0-0.097-0.010-0.192-0.030-0.285l-0-0.001c-0.017-0.080-0.042-0.158-0.075-0.235s-0.071-0.149-0.116-0.217c-0.049-0.074-0.106-0.144-0.17-0.208s-0.134-0.121-0.208-0.17c-0.068-0.045-0.141-0.084-0.217-0.116s-0.155-0.057-0.236-0.075c-0.093-0.020-0.188-0.030-0.286-0.030h-15.692c-0.097 0-0.193 0.010-0.286 0.030h-0c-0.080 0.017-0.159 0.042-0.236 0.075s-0.149 0.071-0.217 0.116c-0.074 0.049-0.144 0.106-0.208 0.17s-0.121 0.134-0.17 0.208c-0.045 0.068-0.084 0.141-0.116 0.217s-0.058 0.155-0.075 0.236c-0.020 0.093-0.030 0.188-0.030 0.286v2.769c0 0.097 0.010 0.193 0.030 0.286h0c0.017 0.080 0.042 0.159 0.075 0.236s0.071 0.149 0.116 0.217c0.049 0.074 0.106 0.144 0.17 0.208s0.134 0.121 0.208 0.17c0.068 0.045 0.141 0.084 0.217 0.116s0.155 0.057 0.236 0.075c0.093 0.020 0.188 0.030 0.286 0.030zM6.692 12.415h3.692c0.233 0 0.415-0.183 0.415-0.415s-0.183-0.415-0.415-0.415h-3.692c-0.233 0-0.415 0.183-0.415 0.415s0.183 0.415 0.415 0.415zM15.462 15.738h4.385c0.097 0 0.193 0.010 0.286 0.030 0.080 0.017 0.159 0.042 0.236 0.075s0.149 0.071 0.217 0.116c0.074 0.049 0.144 0.106 0.208 0.17s0.121 0.134 0.17 0.208c0.045 0.068 0.084 0.141 0.116 0.217s0.058 0.155 0.075 0.235c0.020 0.093 0.030 0.188 0.030 0.286v2.769c0 0.097-0.010 0.193-0.030 0.286-0.017 0.080-0.042 0.159-0.075 0.236s-0.071 0.149-0.116 0.217c-0.049 0.074-0.106 0.144-0.17 0.208s-0.134 0.121-0.208 0.17c-0.068 0.045-0.141 0.084-0.217 0.116s-0.155 0.057-0.236 0.075c-0.093 0.020-0.188 0.030-0.286 0.030h-4.846c-0.233 0-0.415-0.183-0.415-0.415s0.183-0.415 0.415-0.415h4.846c0.041 0 0.081-0.005 0.12-0.014h0c0.026-0.006 0.052-0.015 0.077-0.026 0.027-0.011 0.052-0.025 0.077-0.040 0.030-0.020 0.059-0.042 0.085-0.069s0.049-0.054 0.068-0.085c0.016-0.024 0.029-0.050 0.040-0.077 0.011-0.025 0.019-0.051 0.026-0.077 0.009-0.039 0.014-0.079 0.014-0.12v-2.769c0-0.041-0.005-0.081-0.014-0.12-0.006-0.026-0.015-0.052-0.026-0.077-0.011-0.027-0.025-0.052-0.040-0.077-0.020-0.030-0.042-0.059-0.068-0.085s-0.054-0.049-0.085-0.068c-0.024-0.016-0.050-0.029-0.077-0.041-0.025-0.011-0.051-0.019-0.077-0.025h-0c-0.039-0.009-0.079-0.014-0.12-0.014h-4.385c-0.233 0-0.415-0.183-0.415-0.415s0.183-0.415 0.415-0.415z"></path>
<path fill="currentColor" d="M10.633 15.852c0.007 0.233 0.195 0.41 0.428 0.402 0.072-0.002 0.139-0.022 0.197-0.055 0.059-0.017 0.118-0.031 0.178-0.043 0.134-0.026 0.271-0.039 0.41-0.039 0.162 0 0.32 0.018 0.475 0.053 0.119 0.027 0.236 0.065 0.35 0.113 0.117 0.050 0.229 0.109 0.333 0.177 0.122 0.080 0.235 0.172 0.34 0.277s0.197 0.218 0.277 0.34c0.069 0.105 0.128 0.216 0.177 0.333 0.048 0.114 0.086 0.231 0.113 0.35 0.035 0.154 0.053 0.312 0.053 0.475s-0.018 0.32-0.053 0.475c-0.027 0.119-0.065 0.236-0.113 0.35-0.050 0.117-0.109 0.229-0.177 0.333-0.080 0.122-0.172 0.235-0.277 0.34s-0.218 0.197-0.34 0.277c-0.105 0.069-0.216 0.128-0.333 0.177-0.114 0.048-0.231 0.086-0.35 0.113-0.154 0.035-0.311 0.053-0.473 0.053h-6.3c-0.241 0-0.47-0.036-0.686-0.108-0.023-0.008-0.047-0.016-0.070-0.025-0.19-0.071-0.36-0.167-0.511-0.287-0.031-0.025-0.061-0.051-0.091-0.078-0.105-0.096-0.196-0.202-0.271-0.318-0.048-0.073-0.090-0.15-0.126-0.231-0.016-0.036-0.031-0.073-0.045-0.111-0.068-0.188-0.102-0.388-0.102-0.6 0-0.146 0.016-0.288 0.048-0.427 0.024-0.107 0.058-0.211 0.102-0.313 0.044-0.105 0.097-0.205 0.159-0.299 0.071-0.109 0.154-0.211 0.249-0.306s0.196-0.177 0.306-0.249c0.094-0.061 0.194-0.114 0.299-0.159 0.102-0.043 0.207-0.077 0.313-0.102 0.139-0.032 0.281-0.048 0.427-0.048s0.288 0.016 0.427 0.048c0.107 0.024 0.211 0.058 0.313 0.102 0.105 0.044 0.205 0.097 0.299 0.159 0.109 0.071 0.211 0.154 0.306 0.249s0.177 0.196 0.249 0.306c0.061 0.094 0.114 0.194 0.159 0.299 0.043 0.102 0.077 0.207 0.102 0.313 0.032 0.139 0.048 0.281 0.048 0.427 0 0.233 0.183 0.415 0.415 0.415s0.415-0.183 0.415-0.415c0-0.202-0.021-0.399-0.064-0.592-0.036-0.16-0.086-0.318-0.151-0.472-0.066-0.155-0.144-0.301-0.235-0.439-0.101-0.153-0.218-0.296-0.35-0.429s-0.276-0.249-0.429-0.351c-0.138-0.091-0.285-0.169-0.439-0.235-0.070-0.030-0.141-0.056-0.212-0.080-0.001-0.028-0.002-0.056-0.002-0.082 0-0.162 0.018-0.32 0.053-0.475v0c0.027-0.119 0.065-0.236 0.113-0.35 0.050-0.117 0.109-0.228 0.177-0.333l0-0c0.080-0.122 0.172-0.235 0.277-0.34s0.218-0.197 0.34-0.277h0c0.105-0.069 0.216-0.128 0.333-0.177 0.114-0.048 0.231-0.086 0.35-0.113 0.154-0.035 0.312-0.053 0.475-0.053 0.16 0 0.316 0.017 0.469 0.052 0.116 0.026 0.23 0.062 0.341 0.109 0.115 0.048 0.224 0.104 0.327 0.17 0.121 0.077 0.234 0.166 0.338 0.268s0.196 0.21 0.276 0.328c0.069 0.102 0.13 0.21 0.181 0.324s0.092 0.232 0.122 0.352c0.036 0.146 0.057 0.295 0.062 0.449zM11.846 21.184c0.218 0 0.432-0.023 0.64-0.069 0.173-0.038 0.342-0.093 0.508-0.163 0.167-0.071 0.325-0.155 0.474-0.253 0.166-0.109 0.32-0.235 0.463-0.378s0.269-0.298 0.379-0.463c0.098-0.149 0.183-0.307 0.253-0.474 0.070-0.166 0.124-0.335 0.163-0.508 0.046-0.208 0.069-0.421 0.069-0.64s-0.023-0.432-0.069-0.64c-0.038-0.173-0.093-0.342-0.163-0.508-0.071-0.167-0.155-0.325-0.253-0.474-0.109-0.166-0.235-0.32-0.379-0.463s-0.298-0.269-0.463-0.379c-0.149-0.098-0.307-0.183-0.474-0.253-0.166-0.070-0.335-0.125-0.508-0.163-0.208-0.046-0.421-0.069-0.64-0.069-0.149 0-0.296 0.011-0.442 0.033-0.007-0.034-0.015-0.069-0.023-0.102-0.042-0.173-0.1-0.341-0.174-0.506-0.073-0.162-0.159-0.316-0.258-0.46-0.11-0.16-0.236-0.309-0.378-0.447s-0.296-0.261-0.461-0.367c-0.147-0.094-0.302-0.176-0.466-0.243-0.162-0.067-0.328-0.119-0.497-0.156h-0c-0.205-0.045-0.416-0.067-0.631-0.067-0.218 0-0.432 0.023-0.64 0.069-0.173 0.038-0.342 0.093-0.508 0.163-0.167 0.071-0.325 0.155-0.474 0.253l-0 0c-0.166 0.109-0.32 0.235-0.463 0.379s-0.269 0.298-0.379 0.463c-0.098 0.149-0.183 0.307-0.253 0.474-0.070 0.166-0.124 0.335-0.163 0.508-0.042 0.191-0.065 0.387-0.069 0.586-0.006-0-0.013-0-0.019-0-0.202 0-0.399 0.021-0.592 0.064v0c-0.16 0.035-0.318 0.086-0.472 0.151s-0.301 0.144-0.439 0.235v0c-0.153 0.101-0.296 0.218-0.429 0.35s-0.249 0.276-0.35 0.429h-0c-0.091 0.138-0.169 0.285-0.235 0.439s-0.115 0.311-0.151 0.472c-0.043 0.193-0.064 0.39-0.064 0.592 0 0.271 0.039 0.53 0.116 0.777 0.029 0.092 0.063 0.182 0.102 0.271 0.059 0.134 0.13 0.26 0.21 0.38 0.109 0.161 0.238 0.31 0.386 0.445 0.068 0.062 0.139 0.12 0.213 0.175l0 0c0.199 0.146 0.418 0.264 0.658 0.354 0.068 0.026 0.138 0.049 0.207 0.069 0.269 0.078 0.549 0.117 0.84 0.117h6.299z"></path>
</svg>
