<!-- Generated by IcoMoon.io -->
<svg version="1.1" xmlns="http://www.w3.org/2000/svg" width="24" height="24" viewBox="0 0 24 24">
<path fill="currentColor" d="M11.734 2.177c0.18-0.064 0.374-0.062 0.553 0.005l10.033 3.595c0.475 0.177 0.714 0.743 0.602 1.269-0.074 0.346-0.293 0.634-0.605 0.75l-1.993 0.731 0 4.973c0 0.249-0.201 0.45-0.45 0.45-0.236 0-0.43-0.182-0.448-0.413l-0.002-0.037-0-4.643-1.79 0.657 0.002 2.19c0.042 0.041 0.080 0.088 0.113 0.143l0.050 0.1 0.019 0.047 0.069 0.177 0.095 0.255 0.069 0.192 0.111 0.319 0.122 0.358 0.177 0.536 0.095 0.294c0.079 0.245 0.023 0.519-0.152 0.709-0.711 0.77-1.633 0.778-2.494 0.062-0.237-0.197-0.315-0.531-0.201-0.816l0.849-2.126c0.042-0.106 0.103-0.192 0.176-0.259l-0.001-1.848-4.449 1.634c-0.143 0.053-0.294 0.065-0.444 0.034l-0.112-0.031-7.28-2.672 0 10.302 0.105 0.057c2.28 1.226 4.568 1.851 6.867 1.88l0.168 0.001c2.363 0 4.888-0.629 7.577-1.892l0.133-0.063v-2.894c0-0.236 0.182-0.43 0.413-0.448l0.037-0.002c0.236 0 0.43 0.182 0.448 0.413l0.002 0.037v3.177c0 0.172-0.098 0.329-0.252 0.404-2.95 1.444-5.736 2.168-8.358 2.168-2.628 0-5.234-0.729-7.811-2.18-0.13-0.073-0.214-0.205-0.227-0.352l-0.002-0.040v-10.878l0.002-0.019-1.859-0.681c-0.442-0.156-0.686-0.647-0.637-1.138l0.018-0.122c0.072-0.356 0.297-0.653 0.616-0.767zM17.174 12.838l-0.579 1.449 0.035 0.026c0.391 0.275 0.704 0.275 1.005 0.014l0.032-0.029-0.061-0.188-0.175-0.53-0.119-0.351-0.109-0.311-0.029-0.080zM12.005 3.036l-10.012 3.584-0.009 0.017c-0.008 0.016-0.019 0.042-0.027 0.080-0.025 0.122 0.022 0.229 0.041 0.236l10.006 3.671 4.091-1.503-4.994-1.613c-0.225-0.073-0.353-0.305-0.3-0.531l0.010-0.036c0.073-0.225 0.305-0.353 0.531-0.3l0.036 0.010 5.946 1.921c0.041 0.013 0.079 0.032 0.113 0.055l4.569-1.677 0.010-0.017c0.006-0.011 0.014-0.029 0.020-0.052l0.006-0.025c0.026-0.122-0.020-0.232-0.031-0.236l-10.007-3.586z"></path>
<path fill="currentColor" d="M10.714 17.125c0.207 0 0.375 0.168 0.375 0.375 0 0.195-0.149 0.355-0.339 0.373l-0.036 0.002h-3.5c-0.207 0-0.375-0.168-0.375-0.375 0-0.195 0.149-0.355 0.339-0.373l0.036-0.002h3.5z"></path>
</svg>
