<!-- Generated by IcoMoon.io -->
<svg version="1.1" xmlns="http://www.w3.org/2000/svg" width="24" height="24" viewBox="0 0 24 24">
<path fill="currentColor" d="M15 2.050c0.782 0 1.42 0.619 1.449 1.394l0.001 0.056 0.001 0.111c0.011 0.006 0.022 0.013 0.032 0.021 4.362 3.053 6.395 6.379 6.029 9.952l-0.012 0.111c-0.205 2.181-1.72 3.356-4.418 3.54l-0.205 0.012c-0.172 0.008-0.349 0.013-0.531 0.014l-0.22-0.001c-0.111-0.001-0.224-0.004-0.338-0.008l-0.231-0.010-0.108-0.006-0 3.816h5.265c0.249 0 0.45 0.201 0.45 0.45 0 0.236-0.182 0.43-0.413 0.448l-0.037 0.002h-19.214c-0.249 0-0.45-0.201-0.45-0.45 0-0.236 0.182-0.43 0.413-0.448l0.037-0.002h1.050v-17.55c0-0.782 0.619-1.42 1.394-1.449l0.056-0.001h10zM15 2.95h-10c-0.291 0-0.528 0.225-0.549 0.511l-0.001 0.039v17.55h11.1v-7.593c0-0.249 0.201-0.45 0.45-0.45 0.236 0 0.43 0.182 0.448 0.413l0.002 0.037-0.001 2.875 0.172 0.011 0.112 0.006 0.221 0.008c2.945 0.088 4.433-0.814 4.643-2.687l0.007-0.070c0.18-1.543-0.145-3.047-0.982-4.512l-1.474 1.65c-0.211 0.236-0.588 0.185-0.732-0.088l-0.016-0.034-0.884-2.047c-0.035-0.081-0.045-0.171-0.030-0.257l0.010-0.043 0.617-2.199-0.227-0.204c-0.439-0.386-0.917-0.768-1.434-1.148l-0.002 6.25c0 0.249-0.201 0.45-0.45 0.45-0.236 0-0.43-0.182-0.448-0.413l-0.001-0.037v-7.466c0-0.291-0.225-0.528-0.511-0.549l-0.039-0.001zM18.85 6.779l-0.445 1.579 0.542 1.254 1.174-1.312c-0.36-0.512-0.783-1.018-1.271-1.521zM12.5 4.55c0.801 0 1.45 0.649 1.45 1.45v2c0 0.801-0.649 1.45-1.45 1.45h-5c-0.801 0-1.45-0.649-1.45-1.45v-2c0-0.801 0.649-1.45 1.45-1.45h5zM12.5 5.45h-5c-0.304 0-0.55 0.246-0.55 0.55v2c0 0.304 0.246 0.55 0.55 0.55h5c0.304 0 0.55-0.246 0.55-0.55v-2c0-0.304-0.246-0.55-0.55-0.55z"></path>
<path fill="currentColor" d="M10 19.409c-1.312 0-2.375-1.063-2.375-2.375 0-0.111 0.012-0.239 0.037-0.383l0.021-0.111c0.004-0.019 0.008-0.038 0.012-0.058l0.028-0.12c0.005-0.021 0.010-0.041 0.016-0.063l0.035-0.13 0.040-0.136 0.044-0.142c0.008-0.024 0.016-0.049 0.024-0.073l0.051-0.152 0.056-0.158 0.061-0.164 0.066-0.171 0.070-0.177 0.075-0.184 0.121-0.288 0.087-0.2 0.139-0.312 0.099-0.216 0.103-0.223 0.108-0.229 0.171-0.356 0.181-0.371 0.192-0.386 0.203-0.401c0.139-0.273 0.529-0.273 0.668 0l0.136 0.269 0.196 0.391 0.244 0.498 0.171 0.356 0.108 0.229 0.103 0.223 0.099 0.216 0.094 0.21 0.089 0.203 0.125 0.292 0.077 0.187 0.073 0.18 0.068 0.174 0.063 0.168 0.059 0.161c0.009 0.026 0.019 0.052 0.027 0.078l0.051 0.152c0.008 0.025 0.016 0.049 0.024 0.073l0.044 0.142 0.040 0.136 0.035 0.13c0.005 0.021 0.011 0.042 0.016 0.063l0.028 0.12c0.004 0.020 0.008 0.039 0.012 0.058l0.021 0.111c0.025 0.144 0.037 0.271 0.037 0.383 0 1.312-1.063 2.375-2.375 2.375zM10 18.659c0.897 0 1.625-0.728 1.625-1.625l-0.001-0.034c-0.003-0.081-0.015-0.177-0.036-0.286l-0.020-0.097c-0.008-0.034-0.016-0.068-0.025-0.104l-0.029-0.111c-0.005-0.019-0.011-0.038-0.016-0.058l-0.036-0.121-0.041-0.128-0.045-0.134-0.050-0.141-0.054-0.148-0.059-0.154-0.063-0.161-0.068-0.167-0.072-0.174-0.117-0.273-0.127-0.288-0.090-0.2-0.095-0.206-0.099-0.213-0.103-0.219-0.164-0.341-0.115-0.235-0.102-0.207-0.102 0.207-0.17 0.35-0.108 0.226-0.103 0.219-0.099 0.213-0.095 0.206-0.090 0.2-0.086 0.193-0.12 0.278-0.11 0.263-0.068 0.167-0.063 0.161-0.059 0.154-0.054 0.148-0.050 0.141-0.045 0.134-0.041 0.128-0.036 0.121-0.032 0.114c-0.010 0.037-0.019 0.073-0.027 0.107l-0.023 0.101c-0.031 0.146-0.046 0.268-0.046 0.368 0 0.897 0.728 1.625 1.625 1.625z"></path>
</svg>
