<!-- Generated by IcoMoon.io -->
<svg version="1.1" xmlns="http://www.w3.org/2000/svg" width="24" height="24" viewBox="0 0 24 24">
<path fill="#303030" d="M11.849 2.089l-9.532 4.25c-0.162 0.072-0.267 0.233-0.267 0.411v2c0 0.249 0.201 0.45 0.45 0.45h19c0.249 0 0.45-0.201 0.45-0.45v-2c0-0.177-0.104-0.338-0.266-0.411l-9.468-4.25c-0.117-0.052-0.251-0.053-0.368-0zM12.032 2.993l9.018 4.048v1.259h-18.1v-1.258l9.082-4.049zM3.375 10.3c0.236 0 0.43 0.182 0.449 0.413l0.001 0.037v8.75c0 0.249-0.201 0.45-0.45 0.45-0.236 0-0.43-0.182-0.449-0.413l-0.001-0.037v-8.75c0-0.249 0.201-0.45 0.45-0.45zM16.313 10.3c0.236 0 0.43 0.182 0.448 0.413l0.002 0.037v8.75c0 0.249-0.201 0.45-0.45 0.45-0.236 0-0.43-0.182-0.448-0.413l-0.001-0.037v-8.75c0-0.249 0.201-0.45 0.45-0.45zM7.688 10.3c0.236 0 0.43 0.182 0.449 0.413l0.002 0.037v8.75c0 0.249-0.201 0.45-0.45 0.45-0.236 0-0.43-0.182-0.449-0.413l-0.002-0.037v-8.75c0-0.249 0.201-0.45 0.45-0.45zM12 10.3c0.236 0 0.43 0.182 0.448 0.413l0.002 0.037v8.75c0 0.249-0.201 0.45-0.45 0.45-0.236 0-0.43-0.182-0.449-0.413l-0.002-0.037v-8.75c0-0.249 0.201-0.45 0.45-0.45zM20.625 10.3c0.236 0 0.43 0.182 0.448 0.413l0.002 0.037v8.75c0 0.249-0.201 0.45-0.45 0.45-0.236 0-0.43-0.182-0.448-0.413l-0.002-0.037v-8.75c0-0.249 0.201-0.45 0.45-0.45zM2.503 20.948l19 0.128c0.249 0.002 0.449 0.204 0.447 0.453-0.002 0.236-0.185 0.429-0.416 0.446l-0.037 0.001-19-0.128c-0.249-0.002-0.449-0.204-0.447-0.453 0.002-0.236 0.185-0.429 0.416-0.446l0.037-0.001z"></path>
<path fill="#002fa7" d="M8.753 6.478l6.5 0.044c0.207 0.001 0.374 0.17 0.372 0.378-0.001 0.195-0.151 0.354-0.341 0.371l-0.036 0.001-6.5-0.044c-0.207-0.001-0.374-0.17-0.372-0.378 0.001-0.195 0.151-0.354 0.341-0.371l0.036-0.001z"></path>
</svg>
