<!-- Generated by IcoMoon.io -->
<svg version="1.1" xmlns="http://www.w3.org/2000/svg" width="24" height="24" viewBox="0 0 24 24">
<path fill="currentColor" d="M14.107 3.136l0.009 0.035 1.478 6.896c0.015 0.071 0.025 0.143 0.029 0.216l0.002 0.073v6.894c0 0.741-0.586 1.345-1.32 1.374l-0.055 0.001h-4.5c-0.741 0-1.345-0.586-1.374-1.32l-0.001-0.055v-6.898c0-0.073 0.006-0.145 0.017-0.217l0.013-0.071 1.478-6.892c0.043-0.203 0.243-0.331 0.445-0.288 0.191 0.041 0.316 0.22 0.294 0.41l-0.006 0.036-1.478 6.893c-0.006 0.029-0.010 0.058-0.012 0.087l-0.002 0.044v6.898c0 0.331 0.258 0.603 0.584 0.624l0.041 0.001h4.5c0.331 0 0.603-0.258 0.624-0.584l0.001-0.041v-6.894c0-0.029-0.002-0.059-0.006-0.088l-0.008-0.043-1.478-6.896c-0.043-0.202 0.086-0.402 0.288-0.445 0.191-0.041 0.378 0.071 0.436 0.253zM14.011 13.654c0.14 0.135 0.152 0.352 0.034 0.501l-0.025 0.029-2.178 2.25c-0.127 0.131-0.328 0.151-0.477 0.052l-0.031-0.023-1.072-0.883c-0.16-0.132-0.183-0.368-0.051-0.528 0.123-0.15 0.339-0.179 0.497-0.074l0.031 0.023 0.805 0.663 1.937-2.001c0.144-0.149 0.381-0.153 0.53-0.009zM13.711 9.871c0.207-0 0.375 0.167 0.375 0.375 0 0.195-0.148 0.355-0.338 0.374l-0.036 0.002-3.442 0.004c-0.207 0-0.375-0.167-0.375-0.375-0-0.195 0.148-0.355 0.338-0.374l0.036-0.002 3.442-0.004z"></path>
<path fill="currentColor" d="M17.23 2.8c0.525 0 1.009 0.284 1.265 0.742l3.52 6.29c0.121 0.216 0.185 0.46 0.185 0.708v9.21c0 0.801-0.649 1.45-1.45 1.45h-17.5c-0.801 0-1.45-0.649-1.45-1.45v-9.225c0-0.234 0.057-0.465 0.165-0.673l3.286-6.275c0.25-0.478 0.745-0.777 1.285-0.777zM17.23 3.7h-10.694c-0.205 0-0.392 0.114-0.487 0.295l-3.039 5.801 4.379 0c0.249 0 0.45 0.201 0.45 0.45 0 0.236-0.182 0.43-0.413 0.449l-0.037 0.002-4.689-0v9.054c0 0.273 0.199 0.5 0.461 0.543l0.089 0.007h17.5c0.304 0 0.55-0.246 0.55-0.55v-9.052l-4.8 0c-0.249 0-0.45-0.201-0.45-0.45 0-0.236 0.182-0.43 0.413-0.449l0.037-0.002 4.464-0-3.254-5.817c-0.081-0.145-0.222-0.244-0.382-0.273l-0.098-0.009z"></path>
</svg>
