<!-- Generated by IcoMoon.io -->
<svg version="1.1" xmlns="http://www.w3.org/2000/svg" width="24" height="24" viewBox="0 0 24 24">
<path fill="currentColor" d="M12 2.3c3.7 0 6.917 2.072 8.552 5.119 0.091 0.080 0.148 0.199 0.148 0.331l-0.005-0.054c0.643 1.297 1.005 2.758 1.005 4.304 0 0.072-0.001 0.144-0.002 0.216l0.002 0.034c0 0.019-0.001 0.037-0.003 0.055-0.12 3.826-2.474 7.196-5.967 8.652-0.451 0.188-0.916 0.342-1.393 0.46-0.241 0.060-0.485-0.087-0.545-0.329s0.087-0.485 0.329-0.545c0.432-0.107 0.854-0.246 1.262-0.417 1.51-0.629 2.784-1.652 3.717-2.927l-2.277 0.001c-0.312 0.845-0.702 1.608-1.16 2.259-0.143 0.203-0.424 0.252-0.627 0.109s-0.252-0.424-0.109-0.627c0.356-0.506 0.668-1.093 0.931-1.741l-3.659-0.002v1.335l-0.002 0.037c-0.019 0.231-0.212 0.413-0.449 0.413-0.249 0-0.45-0.201-0.45-0.45v-1.335l-0.876 0.001-0.037-0.002c-0.231-0.019-0.413-0.212-0.413-0.448 0-0.249 0.201-0.45 0.45-0.45h0.876v-3.601h-4.101l0.001 0.579-0.002 0.037c-0.019 0.231-0.212 0.413-0.449 0.413-0.249 0-0.45-0.201-0.45-0.45l-0.001-0.579-3.586-0c-0.231-0.019-0.413-0.212-0.413-0.448 0-0.043 0.006-0.085 0.018-0.125-0.011-0.039-0.018-0.081-0.018-0.125 0-1.546 0.362-3.007 1.005-4.304 0.012-0.111 0.065-0.209 0.143-0.279 1.594-2.966 4.687-5.009 8.265-5.113l0.037-0.004c0.009 0 0.019 0 0.028 0.001l0.22-0.001zM16.785 12.7l-4.585-0.001v3.601l3.979 0.001c0.339-1.093 0.549-2.317 0.606-3.601zM20.772 12.7l-3.087 0c-0.053 1.271-0.248 2.491-0.568 3.602l2.561-0.001c0.61-1.088 0.992-2.311 1.094-3.601zM6.748 8.199l-2.687 0.001c-0.552 1.15-0.861 2.439-0.861 3.8l0.002-0.2 3.099 0c0.015-1.274 0.172-2.49 0.447-3.602zM11.3 8.199l-3.623-0c-0.305 1.148-0.477 2.436-0.477 3.801l0.001-0.2h4.099v-3.601zM16.323 8.199l-4.123 0v3.601l4.599 0c-0.016-1.291-0.186-2.509-0.476-3.601zM19.939 8.2l-2.687-0c0.289 1.169 0.448 2.455 0.448 3.801l-0.002-0.2 3.1 0c-0.029-1.287-0.334-2.507-0.858-3.601zM9.001 3.725l-0.199 0.074c-1.76 0.687-3.245 1.925-4.243 3.501l2.444-0c0.472-1.464 1.16-2.699 1.998-3.575zM11.301 3.296c-1.385 0.383-2.606 1.883-3.348 4.004l3.347 0zM12.201 3.208l-0.001 4.092 3.847-0c-0.83-2.372-2.259-3.967-3.846-4.092zM14.997 3.723l0.099 0.106c0.794 0.869 1.448 2.064 1.901 3.471l2.444-0c-1.036-1.636-2.596-2.907-4.444-3.577z"></path>
<path fill="currentColor" d="M3.479 13.391l-1.554 3.743c-0.122 0.295 0.156 0.598 0.46 0.501l1.485-0.473 0.078 0.107c0.564 0.758 1.168 1.407 1.809 1.952 2.157 1.836 4.419 2.346 6.311 2.127l0.092-0.011 0.111-0.017 0.078-0.015c0.348-0.074 0.407-0.545 0.089-0.703l-0.152-0.076c-2.714-1.368-4.458-2.827-5.245-4.357l-0.039-0.078 1.314-0.494c0.321-0.121 0.325-0.575 0.005-0.7l-4.358-1.712c-0.19-0.075-0.405 0.017-0.483 0.205zM4.031 14.019l3.108 1.221-0.772 0.291c-0.196 0.074-0.294 0.294-0.217 0.489l0.038 0.094c0.667 1.601 2.196 3.079 4.576 4.448l0.133 0.076-0.054-0.003c-1.441-0.088-3.044-0.658-4.6-1.983-0.683-0.581-1.325-1.292-1.919-2.143-0.094-0.135-0.265-0.192-0.421-0.143l-0.976 0.311 1.103-2.657z"></path>
</svg>
