<!-- Generated by IcoMoon.io -->
<svg version="1.1" xmlns="http://www.w3.org/2000/svg" width="24" height="24" viewBox="0 0 24 24">
<path fill="currentColor" d="M10.185 3.231h-5.601c-0.748 0-1.354 0.606-1.354 1.354v5.601c0 0.748 0.606 1.354 1.354 1.354h5.601c0.748 0 1.354-0.606 1.354-1.354v-5.601c0-0.748-0.606-1.354-1.354-1.354zM4.584 4.071h5.601c0.284 0 0.513 0.23 0.513 0.513v5.601c0 0.284-0.23 0.513-0.513 0.513h-5.601c-0.284 0-0.513-0.23-0.513-0.513v-5.601c0-0.284 0.23-0.513 0.513-0.513zM4.584 12.462h5.601c0.748 0 1.354 0.606 1.354 1.354v5.601c0 0.748-0.606 1.354-1.354 1.354h-5.601c-0.748 0-1.354-0.606-1.354-1.354v-5.601c0-0.748 0.606-1.354 1.354-1.354zM19.416 12.462h-5.601c-0.748 0-1.354 0.606-1.354 1.354v5.601c0 0.748 0.606 1.354 1.354 1.354h5.601c0.748 0 1.354-0.606 1.354-1.354v-5.601c0-0.748-0.606-1.354-1.354-1.354zM10.185 13.302h-5.601c-0.284 0-0.513 0.23-0.513 0.513v5.601c0 0.284 0.23 0.513 0.513 0.513h5.601c0.284 0 0.513-0.23 0.513-0.513v-5.601c0-0.284-0.23-0.513-0.513-0.513zM13.815 13.302h5.601c0.284 0 0.513 0.23 0.513 0.513v5.601c0 0.284-0.23 0.513-0.513 0.513h-5.601c-0.284 0-0.513-0.23-0.513-0.513v-5.601c0-0.284 0.23-0.513 0.513-0.513z"></path>
<path fill="currentColor" d="M15.669 4.049c0.522-0.522 1.369-0.522 1.891 0l2.388 2.388c0.522 0.522 0.522 1.369 0 1.891l-2.388 2.388c-0.522 0.522-1.369 0.522-1.891 0l-2.388-2.388c-0.522-0.522-0.522-1.369 0-1.891l2.388-2.388zM16.972 4.637c-0.198-0.198-0.519-0.198-0.716 0l-2.388 2.388c-0.198 0.198-0.198 0.519 0 0.716l2.388 2.388c0.198 0.198 0.519 0.198 0.716 0l2.388-2.388c0.198-0.198 0.198-0.519 0-0.716l-2.388-2.388z"></path>
</svg>
