<!-- Generated by IcoMoon.io -->
<svg version="1.1" xmlns="http://www.w3.org/2000/svg" width="24" height="24" viewBox="0 0 24 24">
<path fill="#002fa7" d="M11.907 3.15c0.575 0 1.103 0.257 1.388 0.676 0.109 0.16 0.067 0.378-0.093 0.486-0.145 0.099-0.338 0.074-0.454-0.052l-0.032-0.041c-0.149-0.22-0.458-0.37-0.809-0.37-0.328 0-0.618 0.131-0.777 0.326l-0.040 0.055c-0.105 0.162-0.322 0.208-0.484 0.103s-0.208-0.322-0.103-0.484c0.281-0.433 0.818-0.7 1.404-0.7zM12 18.625c0.195 0 0.355 0.149 0.373 0.339l0.002 0.036v3c0 0.207-0.168 0.375-0.375 0.375-0.195 0-0.355-0.149-0.373-0.339l-0.002-0.036v-3c0-0.207 0.168-0.375 0.375-0.375z"></path>
<path fill="#303030" d="M12.1 0.764c1.567 0 3.066 2.192 3.347 4.729 0.003 0.023 0.003 0.047 0.002 0.070l-0.049 1.036-0.025 0.462 6.851 4.178c0.255 0.177 0.409 0.468 0.409 0.781v1.846l-0.001 0.049c-0.025 0.502-0.44 0.901-0.949 0.901-0.074 0-0.149-0.009-0.221-0.026l-6.465-1.546-0.042 0.624-0.119 1.671-0.046 0.614 0.019 0.013 2.824 2.53c0.177 0.178 0.277 0.419 0.277 0.671v1.114l-0.001 0.049c-0.025 0.502-0.44 0.901-0.949 0.901-0.199 0-0.394-0.063-0.555-0.179l-1.907-1.374c-0.129 0.676-0.722 1.178-1.424 1.178-0.249 0-0.45-0.201-0.45-0.45 0-0.236 0.182-0.43 0.413-0.448l0.037-0.002c0.287 0 0.526-0.221 0.548-0.507l0.165-2.136 0.109-1.465 0.102-1.415 0.114-1.632 0.070-1.048 0.066-1.015 0.076-1.224 0.069-1.174 0.062-1.123 0-0.023c-0.018-0.079-0.015-0.163 0.012-0.243l0.032-0.597 0.040-0.83 0.007-0.166-0.007-0.063c-0.258-2.062-1.428-3.777-2.396-3.829l-0.045-0.001c-1.032 0-2.396 1.797-2.642 3.832l-0.008 0.070 0.001 0.375 0.003 0.407 0.007 0.625 0.007 0.426 0.009 0.434 0.010 0.442 0.012 0.449 0.014 0.457 0.024 0.7 0.018 0.477 0.031 0.73 0.035 0.747 0.039 0.765 0.043 0.782 0.047 0.799 0.050 0.817 0.054 0.834 0.058 0.852 0.041 0.578 0.065 0.881 0.069 0.899 0.048 0.609c0.022 0.273 0.24 0.486 0.509 0.505l0.039 0.001c0.249 0 0.45 0.201 0.45 0.45s-0.201 0.45-0.45 0.45c-0.713 0-1.313-0.517-1.43-1.208l-1.948 1.404c-0.162 0.116-0.356 0.179-0.555 0.179-0.508 0-0.923-0.399-0.949-0.901l-0.001-0.049v-1.114c0-0.252 0.1-0.493 0.277-0.671l0.039-0.037 2.785-2.493 0.069-0.051-0.034-0.508-0.036-0.557-0.051-0.821-0.032-0.537-0.024-0.43-6.388 1.528c-0.072 0.017-0.146 0.026-0.221 0.026-0.508 0-0.923-0.399-0.949-0.901l-0.001-0.049v-1.846c0-0.313 0.154-0.604 0.409-0.781l0.046-0.030 6.87-4.189-0.004-0.249c-0.001-0.070-0.002-0.14-0.002-0.21l-0.004-0.413-0.002-0.406-0-0.2 0.002-0.046c0.257-2.478 1.948-4.732 3.548-4.732zM9.049 17.24l-2.332 2.089c-0.007 0.006-0.012 0.014-0.015 0.023l-0.002 0.014v1.114c0 0.028 0.022 0.050 0.050 0.050 0.007 0 0.014-0.001 0.020-0.004l0.009-0.005 2.386-1.719-0.067-0.891-0.043-0.588-0.007-0.083zM14.709 17.28l-0.091 1.204-0.027 0.349 2.352 1.693c0.006 0.003 0.013 0.004 0.020 0.004 0.028 0 0.050-0.022 0.050-0.050v-1.114l-0.002-0.014c-0.003-0.009-0.008-0.017-0.015-0.023l-2.288-2.049zM8.582 8.060l-6.422 3.916c-0.011 0.007-0.019 0.018-0.022 0.030l-0.002 0.013v1.846c0 0.028 0.022 0.050 0.050 0.050l0.012-0.001 6.548-1.566-0.011-0.222-0.025-0.506-0.034-0.745-0.030-0.728-0.018-0.475-0.016-0.468-0.014-0.46-0.012-0.452-0.005-0.232zM15.322 8.080l-0.041 0.74-0.056 0.945-0.092 1.478-0.072 1.090 6.625 1.582c0.028 0 0.050-0.022 0.050-0.050v-1.846l-0.002-0.013c-0.003-0.012-0.011-0.023-0.022-0.030l-6.39-3.896z"></path>
</svg>
