<svg xmlns="http://www.w3.org/2000/svg" viewBox="0 0 939.08 225.88"><defs><style>.cls-1{fill:#002fa7;}.cls-2{fill:#fff;}</style></defs><g id="图层_2" data-name="图层 2"><g id="图层_1-2" data-name="图层 1"><path d="M395.9,79.22a40.9,40.9,0,0,0-24.49,8.14V80.5a1.28,1.28,0,0,0-1.28-1.28H354.27A1.28,1.28,0,0,0,353,80.5V186.21a1.29,1.29,0,0,0,1.29,1.29h15.86a1.28,1.28,0,0,0,1.28-1.29V153.13A41,41,0,1,0,395.9,79.22Zm0,63.14a22.12,22.12,0,1,1,22.15-22.12A22.13,22.13,0,0,1,395.9,142.36Z"/><path d="M504.4,135.7c-.14.16-.28.33-.43.48a21.36,21.36,0,0,1-15.58,6.09,21.14,21.14,0,0,1-15.47-6,19.24,19.24,0,0,1-4.17-6.12,21.48,21.48,0,0,1-1.07-3.14.57.57,0,0,1,0-.48.48.48,0,0,1,.39-.26h59.95s1.16,0,1.28-1a41.9,41.9,0,0,0-1.2-15.75,40.89,40.89,0,0,0-4-9.48,40,40,0,0,0-15.24-15A41.53,41.53,0,0,0,488,79.46a41,41,0,0,0-40.64,41.23,39.72,39.72,0,0,0,11.92,29.1,39.17,39.17,0,0,0,28.79,12,41.55,41.55,0,0,0,21-5.43,39.54,39.54,0,0,0,13.37-12.57.33.33,0,0,0-.14-.48c-1.84-.88-3.72-1.67-5.59-2.51l-9-4-2.24-1C505.15,135.6,504.74,135.3,504.4,135.7ZM473,105A21.21,21.21,0,0,1,488.46,99q9.51,0,15.62,6a17.19,17.19,0,0,1,3.39,4.49,5.8,5.8,0,0,1,.42.87c.19.6-.27.6-.27.6H469.44s-.55,0-.29-.55.56-1.07.88-1.58A18.85,18.85,0,0,1,473,105Z"/><path d="M575.55,79.51a34.24,34.24,0,0,0-34.26,34.21V160a1.38,1.38,0,0,0,1.38,1.38h17a1.38,1.38,0,0,0,1.38-1.38V113.72a14.46,14.46,0,0,1,28.92,0V160a1.38,1.38,0,0,0,1.38,1.38h17a1.38,1.38,0,0,0,1.38-1.38V113.72A34.24,34.24,0,0,0,575.55,79.51Z"/><path d="M687.47,75a1.38,1.38,0,0,0,1.38-1.38v-17a1.38,1.38,0,0,0-1.38-1.39H622.29a1.38,1.38,0,0,0-1.38,1.39V160.11a1.38,1.38,0,0,0,1.38,1.38h65.18a1.38,1.38,0,0,0,1.38-1.38v-17a1.38,1.38,0,0,0-1.38-1.39H641.74V113.85h43.38a1.39,1.39,0,0,0,1.39-1.38v-17a1.39,1.39,0,0,0-1.39-1.39H641.74V75Z"/><path d="M730.6,161.17A34.23,34.23,0,0,1,696.33,127V80.68a1.38,1.38,0,0,1,1.39-1.38h17a1.38,1.38,0,0,1,1.39,1.38V127a14.46,14.46,0,0,0,28.92,0V80.68a1.38,1.38,0,0,1,1.38-1.38h17a1.38,1.38,0,0,1,1.38,1.38V127A34.23,34.23,0,0,1,730.6,161.17Z"/><rect x="775.32" y="55.18" width="19.76" height="105.84" rx="0.5"/><path d="M933.55,82.75A32.41,32.41,0,0,0,917.4,91V80.65A1.38,1.38,0,0,0,916,79.27h-15.9a1.38,1.38,0,0,0-1.39,1.38v79.51a1.38,1.38,0,0,0,1.39,1.38H916a1.38,1.38,0,0,0,1.38-1.38V118.79a15.14,15.14,0,0,1,4.32-10c4-4.76,9.48-7.63,16.19-9,.3-.06.61-.09.61-.09a.56.56,0,0,0,.56-.58c0-10.19,0-13.89,0-14.1,0-.5,0-2.2,0-2.61,0-.25-.05-.38-.43-.35A38.29,38.29,0,0,0,933.55,82.75Z"/><path d="M862.49,135.33c-.14.16-.28.33-.43.48a21.38,21.38,0,0,1-15.58,6.09,21.14,21.14,0,0,1-15.47-6,19.08,19.08,0,0,1-4.17-6.12,21.48,21.48,0,0,1-1.07-3.14.62.62,0,0,1,0-.48.5.5,0,0,1,.4-.26h59.95s1.16,0,1.28-1c0,0,.27-2.35.27-4.73a46.51,46.51,0,0,0-1.48-11,40.43,40.43,0,0,0-4-9.48,40,40,0,0,0-15.24-15,41.55,41.55,0,0,0-20.86-5.54,41,41,0,0,0-40.64,41.23,39.72,39.72,0,0,0,11.92,29.1,39.17,39.17,0,0,0,28.79,12,41.55,41.55,0,0,0,21-5.43,39.54,39.54,0,0,0,13.37-12.57.33.33,0,0,0-.14-.48c-1.84-.88-3.73-1.68-5.59-2.51l-9-4-2.24-1C863.24,135.23,862.83,134.93,862.49,135.33Zm-31.41-30.68a21.21,21.21,0,0,1,15.47-6.06q9.51,0,15.61,6a17.23,17.23,0,0,1,3.4,4.49,7,7,0,0,1,.42.87c.19.6-.27.6-.27.6H827.53s-.56,0-.29-.55.56-1.07.87-1.58A19.27,19.27,0,0,1,831.08,104.65Z"/><path d="M336.91,78.42,298.65,56.36a8.81,8.81,0,0,0-8.8,0L251.59,78.42a8.77,8.77,0,0,0-4.4,7.61v44.11a8.79,8.79,0,0,0,4.4,7.61l38.26,22.06a8.81,8.81,0,0,0,8.8,0l38.26-22.06a8.79,8.79,0,0,0,4.4-7.61V86A8.79,8.79,0,0,0,336.91,78.42Zm-18.1,41.69a3.71,3.71,0,0,1-1.85,3.21l-20.86,12a3.72,3.72,0,0,1-3.71,0l-20.85-12a3.72,3.72,0,0,1-1.86-3.21v-24a3.72,3.72,0,0,1,1.86-3.21l20.85-12a3.72,3.72,0,0,1,3.71,0l20.86,12a3.71,3.71,0,0,1,1.85,3.21Z"/><path class="cls-1" d="M192.42,51.43,106.53,1.84a13.8,13.8,0,0,0-13.76,0L6.88,51.43A13.76,13.76,0,0,0,0,63.35v99.18a13.74,13.74,0,0,0,6.88,11.91L92.77,224a13.75,13.75,0,0,0,13.76,0l85.89-49.59a13.74,13.74,0,0,0,6.88-11.91V63.35A13.76,13.76,0,0,0,192.42,51.43Z"/><path class="cls-2" d="M122.22,161.51c-7.16,9.11-21.46,11.75-31,5.77-9-5.63-9.81-16.51-2.56-24.26,6.91-7.39,19.19-9.77,28.13-5.4C126.21,142.23,129,152.86,122.22,161.51Z"/><path class="cls-2" d="M139.18,76.71c-4.68,4.78-14.74,6.84-22,4.52-4-1.29-6.27-4-6.39-6.22-.09-1.73-2.7-3.31-5.57-4.17a23.9,23.9,0,0,0-9.59-.38,24.55,24.55,0,0,0-3.79.88,23.74,23.74,0,0,0-8,4,11.3,11.3,0,0,0-3.62,7.9c.09,2.12,2,3.94,5,5.06a20.44,20.44,0,0,0,10.22.73,23.07,23.07,0,0,1,13.29.17c7.31,2.57,9.15,9.14,3.63,14.79-5.76,5.87-16.83,8.08-24.19,4.84a9.16,9.16,0,0,1-5.74-8.1c-.17-2.36-2.29-4.26-5.17-5.44S71,94.17,67.24,94.5a40.81,40.81,0,0,0-4.14.86A19.75,19.75,0,0,0,54,100.18a20.3,20.3,0,0,0-4.41,6.41,13.2,13.2,0,0,0-.86,3.36c-.08,2.66,1.43,5.07,4.37,6.62a17.89,17.89,0,0,0,10.71,1.35c4.94-1.34,10.12-1.2,14.12.76,7.36,3.59,8.22,12.13,1.31,19.18-7.24,7.39-19.56,9.76-26.86,5.21-4-2.5-5.15-6.26-4.59-10.64v0a10,10,0,0,0-.15-1.6,6.9,6.9,0,0,0-.66-2,8.78,8.78,0,0,0-3.64-3.69c-2.84-1.65-6.59-2.07-10.51-1.48-4.91,1.33-9.71,1.14-12.87-.83-5.37-3.36-3.77-10.49,3.14-15.87a27.58,27.58,0,0,1,12-5.31h0a26.49,26.49,0,0,0,11.06-5.08c3.09-2.48,4.7-5.17,4.84-7.5h0a12.62,12.62,0,0,0-.17-2.53,7.79,7.79,0,0,1,1.8-6.18,11.9,11.9,0,0,1,6.48-3.25,42.46,42.46,0,0,1,5.73-.35,24.92,24.92,0,0,0,4-.53,17.25,17.25,0,0,0,6.55-3.44c2.12-1.7,3.43-3.48,3.66-5.1,0-.35.16-1.94.13-2.13-.71-3.81,4.6-8,11.86-9.34a20.53,20.53,0,0,1,9.77.33,2.3,2.3,0,0,1,.28.06c2.66.68,4.35,2,5,3.52h0s0,.08,0,.11a3.47,3.47,0,0,1,.22.87c.63,1.68,2.46,3.12,5.42,3.93a23.24,23.24,0,0,0,9.73.3,25.48,25.48,0,0,1,12.53-.25C141.24,66.93,143.7,72.1,139.18,76.71Z"/><path class="cls-2" d="M178.78,88.07c-4.4,5.56-15.69,7.82-24.67,5-8.56-2.73-11.32-9-6.68-13.94,4.47-4.76,14.47-6.82,22.8-4.67C178.94,76.66,183,82.73,178.78,88.07Z"/></g></g></svg>