<?xml version="1.0" encoding="UTF-8"?>
<svg id="_图层_1" data-name="图层 1" xmlns="http://www.w3.org/2000/svg" viewBox="0 0 252.82 252.82">
  <defs>
    <style>
      .cls-1 {
        fill: #fff;
      }
    </style>
  </defs>
  <path class="cls-1" d="m170.54,69.83l-42.27-24.4c-1.13-.65-2.53-.65-3.66.02l-42.28,24.4c-1.12.65-1.82,1.85-1.83,3.15v48.82c0,1.31.69,2.52,1.83,3.18l42.28,24.41c1.13.65,2.53.65,3.66,0l42.27-24.41c1.14-.65,1.83-1.86,1.83-3.17v-48.83c0-1.31-.7-2.52-1.83-3.17Zm-33.72,49.99c-3.3,4.2-9.89,5.42-14.3,2.66-4.19-2.59-4.52-7.61-1.19-11.18,3.39-3.46,8.57-4.45,13-2.49.65.28,1.26.67,1.8,1.13,2.92,2.54,3.23,6.96.69,9.88Zm7.89-39.11c-2.14,2.21-6.79,3.15-10.14,2.09-1.92-.6-2.94-1.87-3-2.87-.04-.8-1.24-1.53-2.57-1.93-1.45-.34-2.94-.39-4.41-.15-.59.09-1.18.22-1.75.4-1.33.39-2.58,1.02-3.68,1.86-1.02.95-1.62,2.25-1.67,3.64.05.98.95,1.82,2.33,2.34,1.52.51,3.14.62,4.71.34,2.01-.58,4.14-.55,6.13.07,3.36,1.19,4.22,4.22,1.67,6.82-3,2.77-7.31,3.64-11.15,2.23-1.54-.61-2.58-2.07-2.65-3.73-.08-1.09-1.05-1.96-2.38-2.51-1.5-.49-3.09-.62-4.65-.38-.23.02-1.27.23-1.91.4-1.57.35-3.02,1.12-4.19,2.22-.85.87-1.53,1.88-2,3-.2.5-.33,1.02-.4,1.55.02,1.31.8,2.48,2,3,1.55.73,3.28.95,4.96.65,2.14-.66,4.45-.53,6.51.35,3.39,1.65,3.79,5.59.6,8.84-3.38,3.4-9.02,4.5-12.38,2.4-1.68-1.02-2.53-2.98-2.12-4.9,0-.25-.03-.5-.07-.74-.05-.32-.15-.62-.3-.91-.38-.72-.97-1.32-1.68-1.71-1.5-.76-3.2-1-4.85-.68-1.95.67-4.08.53-5.93-.38-2.48-1.55-1.73-4.83,1.45-7.31,1.62-1.25,3.52-2.09,5.53-2.45,1.86-.37,3.61-1.17,5.1-2.34,1.19-.79,2-2.05,2.23-3.46.01-.39-.01-.78-.08-1.17-.14-1.02.16-2.06.83-2.84.82-.8,1.87-1.33,3-1.5.88-.12,1.76-.17,2.64-.16.63-.03,1.25-.12,1.86-.25,1.1-.31,2.12-.85,3-1.58.83-.55,1.43-1.39,1.69-2.36.04-.33.06-.67.06-1-.32-1.75,2.13-3.68,5.47-4.3,1.49-.32,3.04-.26,4.51.15h.12c.98.15,1.83.75,2.3,1.63v.06c.05.13.09.26.1.4.5.96,1.43,1.63,2.5,1.81,1.47.36,3,.41,4.49.13,1.89-.51,3.87-.55,5.77-.11,3.3.85,4.54,3.13,2.4,5.34Zm18.23,5.26c-2.02,2.56-7.23,3.6-11.37,2.28-3.94-1.26-5.14-4.28-3.08-6.43,2.06-2.15,6.67-3.15,10.51-2.15,4,1.04,5.96,3.74,3.94,6.3Z"/>
  <g>
    <path class="cls-1" d="m190.51,165.47h-4.93c-.35,0-.64.29-.64.64v32.34s0,0,0,.01c0,.35.29.63.64.62h4.93c.35,0,.63-.28.64-.63v-32.34c0-.35-.29-.64-.64-.64Z"/>
    <path class="cls-1" d="m157.36,165.45h-20.51c-.35,0-.64.29-.64.64v32.33c0,.35.29.64.64.64h20.48c.35,0,.63-.27.64-.62,0,0,0-.01,0-.02v-5c0-.35-.29-.64-.64-.64h-13.86c-.35,0-.64-.29-.64-.64v-7.54c0-.35.29-.64.64-.64h12.53c.35,0,.64-.29.64-.64v-4.87c0-.35-.29-.64-.64-.64h-12.53c-.35,0-.64-.29-.64-.64v-4.8c0-.35.29-.64.64-.64h13.86c.35.02.65-.26.67-.61,0-.01,0-.02,0-.03v-5c0-.35-.29-.64-.64-.64Z"/>
    <path class="cls-1" d="m236.49,178.91v-4.91c0-.18-.14-.32-.32-.32,0,0-.01,0-.02,0-.48.03-.97.1-1.44.21-1.87.36-3.6,1.23-5,2.52-.03.03-.08.04-.11,0-.02-.02-.03-.04-.03-.07v-2.56c0-.35-.29-.64-.64-.64h-4.59c-.35,0-.64.29-.64.64v24.78c0,.35.29.64.64.64h4.66c.35,0,.64-.29.64-.64v-12.5c-.11-1.45.4-2.87,1.4-3.93,1.31-1.51,3.11-2.52,5.08-2.84.2,0,.37-.17.37-.37,0,0,0-.01,0-.02Z"/>
    <path class="cls-1" d="m71.69,174.94c-2-1.16-4.27-1.76-6.58-1.76-2.5-.01-4.95.74-7,2.17-.15.1-.36.06-.46-.1-.03-.05-.05-.11-.05-.17v-.54c0-.35-.28-.63-.63-.63h-4.97c-.35,0-.63.28-.63.63v32.7c0,.35.28.63.63.63h4.9c.35,0,.63-.28.63-.63v-9.79c0-.17.13-.31.3-.32.07,0,.13.02.19.06,2.08,1.42,4.55,2.16,7.07,2.13,2.32.03,4.61-.57,6.62-1.72,1.99-1.14,3.62-2.79,4.74-4.79,1.15-2,1.75-4.27,1.74-6.58.03-2.28-.56-4.53-1.69-6.51-1.14-2-2.8-3.65-4.81-4.78Zm-1.5,16.26h-.05c-1.31,1.29-3.09,1.99-4.92,1.93-1.82.06-3.58-.63-4.88-1.91-1.3-1.33-2-3.14-1.93-5-.05-1.85.67-3.63,2-4.92,3.03-2.4,7.43-1.89,9.83,1.14,2.04,2.57,2.01,6.21-.05,8.76Z"/>
    <path class="cls-1" d="m100.81,174.81c-2-1.16-4.28-1.76-6.59-1.76-3.18-.02-6.25,1.19-8.57,3.38-5.38,4.93-5.74,13.29-.81,18.66.1.11.21.23.32.34,2.37,2.47,5.66,3.85,9.08,3.8,2.32.03,4.61-.57,6.62-1.72,1.59-.92,2.96-2.19,4-3.7.12-.18.08-.43-.11-.56-.02-.01-.04-.02-.06-.03l-5-2.24c-.14-.04-.29,0-.39.1-1.31,1.28-3.09,1.98-4.92,1.92-1.82.06-3.58-.63-4.88-1.91-.77-.77-1.32-1.72-1.6-2.77-.05-.17.05-.35.22-.4.03,0,.05-.01.08-.01h18.5c.33,0,.61-.25.64-.58v-1.23c.01-2.28-.58-4.53-1.72-6.51-1.14-2-2.8-3.65-4.81-4.78Zm-.57,8.22s-.09.03-.13.03h-11.36c-.18,0-.32-.14-.32-.32,0-.06.01-.11.04-.16.28-.51.64-.98,1.06-1.39,1.29-1.28,3.06-1.98,4.88-1.93,1.83-.06,3.61.63,4.93,1.9.42.42.78.91,1.06,1.43.08.17,0,.36-.16.44Z"/>
    <path class="cls-1" d="m122,173.2c-5.96-.02-10.8,4.8-10.82,10.76,0,.01,0,.03,0,.04v14.42c0,.36.29.65.65.65h4.92c.36,0,.65-.29.65-.65v-14.42c-.12-2.51,1.82-4.64,4.33-4.76,2.51-.12,4.64,1.82,4.76,4.33,0,.14,0,.28,0,.43v14.42c0,.36.29.65.65.65h4.92c.36,0,.65-.29.65-.65v-14.42c0-5.93-4.78-10.76-10.71-10.8Z"/>
    <path class="cls-1" d="m180.87,173.2h-4.87c-.36,0-.65.29-.66.65v14.42c0,2.51-2.03,4.54-4.54,4.54s-4.54-2.03-4.54-4.54v-14.42c0-.36-.3-.65-.66-.65h-4.91c-.36,0-.65.29-.65.65v14.42c-.01,5.94,4.78,10.77,10.72,10.81,5.96-.01,10.78-4.85,10.77-10.81v-14.42c0-.36-.3-.65-.66-.65Z"/>
    <path class="cls-1" d="m46.06,172.99l-13.49-7.79c-.56-.32-1.24-.32-1.8,0l-13.5,7.8c-.55.32-.9.92-.9,1.56v15.58c0,.64.35,1.24.9,1.56l13.5,7.79c.56.32,1.24.32,1.8,0l13.49-7.79c.56-.32.9-.92.9-1.56v-15.59c0-.64-.34-1.24-.9-1.56Zm-5.46,14.14c0,.23-.13.45-.33.56l-8.27,4.78c-.2.12-.46.12-.66,0l-8.28-4.78c-.21-.11-.33-.33-.33-.57v-9.56c0-.24.12-.45.33-.57l8.28-4.78c.2-.12.46-.12.66,0l8.27,4.79c.21.12.33.33.33.57v9.56Z"/>
    <path class="cls-1" d="m213.86,174.83c-2-1.16-4.27-1.76-6.58-1.76-3.18-.02-6.25,1.19-8.57,3.38-5.38,4.93-5.74,13.29-.81,18.66.1.11.21.23.32.34,2.37,2.47,5.66,3.85,9.08,3.8,2.32.03,4.61-.57,6.62-1.72,1.59-.93,2.95-2.19,4-3.7.12-.18.08-.43-.11-.56-.02-.01-.04-.02-.06-.03l-5-2.24c-.15-.06-.32-.03-.44.08-1.31,1.29-3.08,1.99-4.92,1.94-1.82.06-3.58-.63-4.88-1.91-.77-.77-1.32-1.72-1.6-2.77-.05-.17.05-.35.22-.4.03,0,.05-.01.08-.01h18.5c.33,0,.6-.25.63-.58.04-.41.06-.82.06-1.23.02-2.29-.58-4.53-1.73-6.51-1.13-2-2.8-3.66-4.81-4.78Zm-.59,8.22s-.1.04-.15.04h-11.36c-.18,0-.32-.14-.32-.32,0-.06.01-.11.04-.16.28-.52.64-1,1.05-1.42,2.77-2.55,7.04-2.55,9.81,0,.42.42.78.9,1.06,1.43.08.16.02.35-.13.43Z"/>
  </g>
</svg>