<svg xmlns="http://www.w3.org/2000/svg" viewBox="0 0 643.54 539.36"><defs><style>.cls-1{fill:#002fa7;}.cls-2{fill:#fff;}</style></defs><g id="图层_2" data-name="图层 2"><g id="图层_1-2" data-name="图层 1"><path class="cls-1" d="M475.1,85l-142-82a22.7,22.7,0,0,0-22.74,0l-142,82a22.74,22.74,0,0,0-11.38,19.7V268.63a22.77,22.77,0,0,0,11.38,19.7l142,82a22.75,22.75,0,0,0,22.74,0l142-82a22.76,22.76,0,0,0,11.37-19.7V104.71A22.73,22.73,0,0,0,475.1,85Z"/><path class="cls-2" d="M359.07,266.94c-11.83,15.07-35.46,19.42-51.28,9.55-14.9-9.31-16.22-27.3-4.24-40.11,11.42-12.21,31.72-16.14,46.5-8.93C365.67,235.08,370.3,252.65,359.07,266.94Z"/><path class="cls-2" d="M387.11,126.79c-7.75,7.9-24.37,11.3-36.37,7.47-6.68-2.13-10.37-6.57-10.56-10.28-.15-2.86-4.47-5.48-9.21-6.9s-10.3-1.29-15.84-.62a40.75,40.75,0,0,0-6.27,1.45c-5.09,1.69-9.5,3.61-13.18,6.66-4.57,3.8-6.09,10.55-6,13.06.15,3.51,3.39,6.51,8.33,8.37s10.88,2.16,16.89,1.21c7.35-2,15.38-2.06,22,.26,12.07,4.25,15.12,15.13,6,24.45-9.52,9.71-27.82,13.35-40,8a15.13,15.13,0,0,1-9.47-13.39c-.28-3.91-3.79-7-8.56-9s-10.4-1.9-16.66-1.36a69.6,69.6,0,0,0-6.85,1.43c-3.14.82-9.59,2.63-15,8a33.73,33.73,0,0,0-7.29,10.58,22.2,22.2,0,0,0-1.42,5.56c-.14,4.4,2.36,8.38,7.23,10.94s11.14,3.19,17.7,2.23c8.15-2.21,16.72-2,23.34,1.25,12.17,5.94,13.59,20,2.16,31.72-12,12.2-32.34,16.12-44.39,8.59-6.61-4.12-8.52-10.33-7.59-17.58,0,0,0,0,0,0a15.67,15.67,0,0,0-.24-2.64,11.26,11.26,0,0,0-1.1-3.27,14.53,14.53,0,0,0-6-6.1c-4.7-2.72-10.9-3.41-17.38-2.44-8.11,2.19-16.05,1.88-21.27-1.38-8.88-5.55-6.23-17.32,5.18-26.22A45.69,45.69,0,0,1,215.1,168l0,0a43.71,43.71,0,0,0,18.29-8.39c5.1-4.09,7.76-8.54,8-12.39l0,0a19.61,19.61,0,0,0-.27-4.18c-.23-3.33-.06-6.62,3-10.2,1.93-2.3,6.13-4.52,10.72-5.38,3.14-.59,7.19-.46,9.48-.58A41.9,41.9,0,0,0,271,126a28.45,28.45,0,0,0,10.81-5.68c3.5-2.81,5.67-5.76,6.05-8.44a33.31,33.31,0,0,0,.22-3.51c-1.17-6.3,7.61-13.22,19.61-15.45a34.19,34.19,0,0,1,16.15.55l.45.1c4.4,1.13,7.19,3.24,8.25,5.82l.05,0c0,.06,0,.12,0,.19a5.88,5.88,0,0,1,.36,1.43c1,2.77,4.06,5.15,9,6.5A38.42,38.42,0,0,0,358,108a42,42,0,0,1,20.71-.41C390.5,110.62,394.58,119.16,387.11,126.79Z"/><path class="cls-2" d="M452.55,145.56c-7.26,9.2-25.93,12.93-40.76,8.19-14.15-4.51-18.72-14.88-11.05-23.05,7.39-7.87,23.92-11.26,37.69-7.71C452.82,126.7,459.52,136.74,452.55,145.56Z"/><path d="M494.77,415.38H509.2a1.87,1.87,0,0,1,1.87,1.86v94.57a1.87,1.87,0,0,1-1.87,1.86H494.77a1.86,1.86,0,0,1-1.86-1.86V417.24A1.86,1.86,0,0,1,494.77,415.38Z"/><path d="M414.06,431.81V417.26a1.88,1.88,0,0,0-1.88-1.88H352.3a1.88,1.88,0,0,0-1.87,1.88V511.8a1.87,1.87,0,0,0,1.87,1.87h59.88a1.88,1.88,0,0,0,1.88-1.87V497.17a1.88,1.88,0,0,0-1.88-1.87H371.66a1.88,1.88,0,0,1-1.87-1.88V471.31a1.87,1.87,0,0,1,1.87-1.87h36.52a1.88,1.88,0,0,0,1.88-1.88V453.34a1.88,1.88,0,0,0-1.88-1.88H371.66a1.87,1.87,0,0,1-1.87-1.87v-14a1.87,1.87,0,0,1,1.87-1.87h40.52A1.88,1.88,0,0,0,414.06,431.81Z"/><path d="M638.46,440a29.69,29.69,0,0,0-14.55,7.38.24.24,0,0,1-.41-.18v-7.49a1.86,1.86,0,0,0-1.87-1.86H608.21a1.87,1.87,0,0,0-1.87,1.86v72.47a1.87,1.87,0,0,0,1.87,1.87h13.42a1.87,1.87,0,0,0,1.87-1.87V494.4c0-.9-.07-14.29,0-18.79.08-5.05,1-8.23,4.09-11.49,3.64-4.4,8.71-7.05,14.88-8.28a1.12,1.12,0,0,0,1.07-1.16V440.41a.94.94,0,0,0-1-.94A30.33,30.33,0,0,0,638.46,440Z"/><path d="M175.83,457a37.11,37.11,0,0,0-14.06-14,38.27,38.27,0,0,0-19.26-5.15A35.63,35.63,0,0,0,122,444.26a1,1,0,0,1-1.48-.78v-1.56a1.84,1.84,0,0,0-1.85-1.85H104.3a1.85,1.85,0,0,0-1.85,1.85v95.59a1.85,1.85,0,0,0,1.85,1.85h14.32a1.85,1.85,0,0,0,1.85-1.85V508.88a.91.91,0,0,1,1.42-.75,35.78,35.78,0,0,0,20.69,6.25,38.17,38.17,0,0,0,19.35-5.05,36.86,36.86,0,0,0,13.87-14,38.32,38.32,0,0,0,5.08-19.24A37.66,37.66,0,0,0,175.83,457Zm-18.61,33.57a19.65,19.65,0,0,1-14.38,5.65,19.39,19.39,0,0,1-14.27-5.59q-5.64-5.58-5.64-14.61a19.38,19.38,0,0,1,20-20,19.69,19.69,0,0,1,14.41,5.56q5.64,5.56,5.64,14.46T157.22,490.61Z"/><path d="M242.5,490.28a19.66,19.66,0,0,1-14.38,5.65,19.43,19.43,0,0,1-14.28-5.59,18.19,18.19,0,0,1-4.69-8.07.94.94,0,0,1,.9-1.21h54.07a1.88,1.88,0,0,0,1.87-1.71c.11-1.18.17-2.38.17-3.59a37.57,37.57,0,0,0-5.06-19.05,37,37,0,0,0-14.06-14,38.23,38.23,0,0,0-19.25-5.15,36.23,36.23,0,0,0-25.07,9.89,38.67,38.67,0,0,0-1.44,55.43,36,36,0,0,0,26.57,11.13,38.21,38.21,0,0,0,19.36-5A36.41,36.41,0,0,0,259,498.19a1.17,1.17,0,0,0-.49-1.73l-14.54-6.56A1.26,1.26,0,0,0,242.5,490.28Zm-28.59-28.94a21.19,21.19,0,0,1,28.69-.07,17.71,17.71,0,0,1,3.09,4.16.94.94,0,0,1-.82,1.38H211.65a.94.94,0,0,1-.82-1.39A17.88,17.88,0,0,1,213.91,461.34Z"/><path d="M308.71,438a31.57,31.57,0,0,0-31.48,31.64v42.16a1.9,1.9,0,0,0,1.9,1.9h14.4a1.9,1.9,0,0,0,1.9-1.9V469.61a13.29,13.29,0,1,1,26.57,0v42.16a1.9,1.9,0,0,0,1.9,1.9h14.39a1.9,1.9,0,0,0,1.9-1.9V469.61A31.56,31.56,0,0,0,308.71,438Z"/><path d="M451.45,513.67A31.56,31.56,0,0,0,482.94,482V439.9A1.93,1.93,0,0,0,481,438H466.66a1.93,1.93,0,0,0-1.92,1.93V482a13.29,13.29,0,1,1-26.57,0V439.9a1.93,1.93,0,0,0-1.92-1.93H421.9A1.93,1.93,0,0,0,420,439.9V482A31.56,31.56,0,0,0,451.45,513.67Z"/><path d="M42.09,414.59,2.63,437.38A5.25,5.25,0,0,0,0,441.93V487.5a5.25,5.25,0,0,0,2.63,4.55l39.46,22.78a5.26,5.26,0,0,0,5.26,0l39.46-22.78a5.25,5.25,0,0,0,2.63-4.55V441.93a5.25,5.25,0,0,0-2.63-4.55L47.35,414.59A5.26,5.26,0,0,0,42.09,414.59Zm27.8,65.77-24.21,14a1.89,1.89,0,0,1-1.92,0l-24.21-14a1.92,1.92,0,0,1-1-1.67V450.74a1.91,1.91,0,0,1,1-1.67l24.21-14a1.93,1.93,0,0,1,1.92,0l24.21,14a1.91,1.91,0,0,1,1,1.67v27.95A1.92,1.92,0,0,1,69.89,480.36Z"/><path d="M573,490.28a19.66,19.66,0,0,1-14.38,5.65,19.39,19.39,0,0,1-14.27-5.59,18.21,18.21,0,0,1-4.7-8.07.94.94,0,0,1,.9-1.21h54.09a1.87,1.87,0,0,0,1.85-1.7c.11-1.19.17-2.39.17-3.6a37.66,37.66,0,0,0-5.05-19.05,37.06,37.06,0,0,0-14.07-14,38.21,38.21,0,0,0-19.25-5.15,36.25,36.25,0,0,0-25.07,9.89,38.66,38.66,0,0,0-1.43,55.43,36,36,0,0,0,26.57,11.13,38.2,38.2,0,0,0,19.35-5,36.31,36.31,0,0,0,11.75-10.81,1.17,1.17,0,0,0-.49-1.73l-14.54-6.56A1.26,1.26,0,0,0,573,490.28Zm-28.59-28.94a21.19,21.19,0,0,1,28.69-.07,17.75,17.75,0,0,1,3.1,4.16.94.94,0,0,1-.83,1.38H542.11a.94.94,0,0,1-.83-1.39A18.17,18.17,0,0,1,544.36,461.34Z"/></g></g></svg>