<svg version="1.1" xmlns="http://www.w3.org/2000/svg" width="24" height="24" viewBox="0 0 24 24">
<path opacity="0.8" d="M7.258 2.833c0.249 0 0.45 0.201 0.45 0.45s-0.201 0.45-0.45 0.45h-2.8c-0.414 0-0.75 0.336-0.75 0.75v2.8c0 0.249-0.201 0.45-0.45 0.45s-0.45-0.202-0.45-0.45v-2.8c0-0.911 0.739-1.65 1.65-1.65h2.8zM7.469 8.385c-1.353 0-2.45 1.097-2.45 2.45 0 0.738 0.326 1.4 0.843 1.849-1.663 0.645-2.843 2.26-2.843 4.151 0 0.249 0.201 0.45 0.45 0.45s0.45-0.201 0.45-0.45c0-1.961 1.59-3.55 3.55-3.55v0l1.607-0.601c0.516-0.449 0.843-1.111 0.843-1.849 0-1.353-1.097-2.45-2.45-2.45zM7.469 9.286c0.856 0 1.55 0.694 1.55 1.55s-0.694 1.55-1.55 1.55c-0.856 0-1.55-0.694-1.55-1.55s0.694-1.55 1.55-1.55zM16.336 20.501c0 0.249 0.201 0.45 0.45 0.45h2.8c0.911 0 1.65-0.739 1.65-1.65v-2.8c0-0.249-0.202-0.45-0.45-0.45s-0.45 0.202-0.45 0.45v2.8c0 0.414-0.336 0.75-0.75 0.75h-2.8c-0.249 0-0.45 0.202-0.45 0.45z"></path>
<path opacity="0.8" d="M12.25 8.953c0 1.164 0.577 2.194 1.46 2.819-3.148 0.87-5.46 3.756-5.46 7.181 0 0.249 0.201 0.45 0.45 0.45s0.45-0.201 0.45-0.45c0-3.612 2.924-6.541 6.533-6.55l0.017 0 0.017-0c1.183 0.003 2.319 0.32 3.315 0.91 0.214 0.127 0.49 0.056 0.616-0.158s0.056-0.49-0.158-0.616c-0.565-0.335-1.17-0.592-1.801-0.767 0.884-0.625 1.46-1.654 1.46-2.819 0-1.905-1.544-3.45-3.45-3.45s-3.45 1.545-3.45 3.45zM15.719 11.503h-0.038c-1.399-0.010-2.531-1.148-2.531-2.55 0-1.408 1.142-2.55 2.55-2.55s2.55 1.142 2.55 2.55c0 1.402-1.132 2.54-2.531 2.55z"></path>
</svg>
