<svg version="1.1" xmlns="http://www.w3.org/2000/svg" width="20" height="20" viewBox="0 0 20 20">
<path d="M18.083 15c0 0.102-0.011 0.202-0.032 0.299-0.019 0.086-0.045 0.17-0.080 0.252s-0.076 0.159-0.124 0.232c-0.052 0.078-0.112 0.151-0.179 0.219s-0.141 0.127-0.219 0.179c-0.073 0.048-0.15 0.090-0.232 0.124s-0.167 0.062-0.252 0.080c-0.097 0.021-0.197 0.032-0.299 0.032h-13.333c-0.102 0-0.202-0.011-0.299-0.032-0.086-0.018-0.17-0.045-0.252-0.080s-0.159-0.076-0.232-0.124l-0-0c-0.078-0.052-0.151-0.112-0.219-0.179s-0.127-0.14-0.179-0.219v0c-0.048-0.073-0.090-0.15-0.124-0.232s-0.062-0.167-0.080-0.252l-0-0c-0.021-0.097-0.032-0.197-0.032-0.299v-9.948c-0.003-0.037-0.003-0.075 0.001-0.112 0.003-0.081 0.013-0.161 0.030-0.239v0c0.019-0.086 0.045-0.17 0.080-0.252s0.076-0.159 0.124-0.232v0c0.052-0.078 0.112-0.151 0.179-0.219s0.141-0.127 0.219-0.179c0.073-0.048 0.15-0.090 0.232-0.124s0.167-0.062 0.252-0.080v0c0.097-0.021 0.197-0.032 0.299-0.032h13.333c0.102 0 0.202 0.010 0.299 0.032 0.086 0.019 0.17 0.045 0.252 0.080s0.159 0.076 0.232 0.124c0.078 0.052 0.151 0.111 0.219 0.179s0.127 0.14 0.179 0.219c0.048 0.073 0.090 0.15 0.124 0.232s0.062 0.167 0.080 0.252c0.017 0.078 0.027 0.158 0.030 0.239 0.004 0.037 0.004 0.075 0.001 0.112v5.907c0 0.327-0.257 0.583-0.583 0.583s-0.583-0.257-0.583-0.583v-4.848l-6.133 4.232c-0.092 0.064-0.19 0.115-0.292 0.153-0.153 0.058-0.317 0.086-0.492 0.086s-0.339-0.029-0.492-0.086c-0.102-0.038-0.199-0.089-0.292-0.153l-6.133-4.232v8.889c0 0.035 0.006 0.067 0.018 0.096s0.111 0.111 0.136 0.136c0.029 0.012 0.061 0.018 0.096 0.018h13.333c0.034 0 0.067-0.006 0.096-0.018s0.111-0.111 0.136-0.136l0-0c0.012-0.029 0.018-0.061 0.018-0.096v-1.802c0-0.327 0.257-0.583 0.583-0.583s0.583 0.257 0.583 0.583v1.802zM3.215 4.784l6.664 4.599c0.032 0.022 0.072 0.033 0.121 0.033s0.089-0.011 0.121-0.033l6.661-4.597c-0.008-0.008-0.015-0.014-0.020-0.018-0.029-0.012-0.061-0.018-0.096-0.018h-13.333c-0.035 0-0.067 0.006-0.096 0.018v0c-0.006 0.002-0.014 0.008-0.023 0.016z"></path>
</svg>
