<svg version="1.1" xmlns="http://www.w3.org/2000/svg" width="20" height="20" viewBox="0 0 20 20">
<path d="M18.108 5.027c0-0.921-0.746-1.667-1.667-1.667h-12.833c-0.92 0-1.667 0.746-1.667 1.667v7.977l0.005 0.124c0.064 0.862 0.783 1.542 1.662 1.542l0.965-0.001 0.001 1.773c0 0.453 0.494 0.733 0.883 0.501l3.94-2.356c0.277-0.165 0.367-0.524 0.201-0.8l-0.050-0.071c-0.18-0.22-0.499-0.281-0.75-0.131l-3.058 1.828 0.001-1.175c0-0.407-0.33-0.736-0.736-0.736h-1.396c-0.276 0-0.5-0.224-0.5-0.5v-7.977c0-0.276 0.224-0.5 0.5-0.5h12.833c0.276 0 0.5 0.224 0.5 0.5v7.977c0 0.276-0.224 0.5-0.5 0.5h-5.292c-0.322 0-0.583 0.261-0.583 0.583s0.261 0.583 0.583 0.583h5.292c0.921 0 1.667-0.746 1.667-1.667v-7.977zM9.548 6.361c-0-0.23-0.187-0.416-0.417-0.416l-4.383 0.005c-0.23 0-0.416 0.187-0.416 0.417s0.187 0.416 0.417 0.416l4.383-0.005c0.23-0 0.417-0.187 0.416-0.417zM7.932 8.863c0-0.23-0.187-0.417-0.417-0.417h-2.767c-0.23 0-0.417 0.187-0.417 0.417s0.187 0.417 0.417 0.417h2.767c0.23 0 0.417-0.187 0.417-0.417zM12.046 10.947c0.23 0 0.417 0.187 0.417 0.417s-0.187 0.417-0.417 0.417h-7.297c-0.23 0-0.417-0.187-0.417-0.417s0.187-0.417 0.417-0.417h7.297z"></path>
</svg>
