<svg version="1.1" xmlns="http://www.w3.org/2000/svg" width="24" height="24" viewBox="0 0 24 24">
	<path fill="currentColor" d="M5.993 7.167c0.387 0 0.7 0.313 0.7 0.7s-0.313 0.7-0.7 0.7h-0.693c-0.331 0-0.6 0.269-0.6 0.6v6.499c0 0.331 0.269 0.6 0.6 0.6h0.582l0.095 0.006c0.342 0.046 0.605 0.339 0.605 0.694l0 1.373 1.921-1.874c0.131-0.128 0.306-0.199 0.489-0.199h5.44c0.387 0 0.7 0.313 0.7 0.7l-0.006 0.095c-0.046 0.342-0.339 0.605-0.694 0.605l-5.155-0-2.906 2.835-0.077 0.065c-0.447 0.331-1.112 0.019-1.112-0.566l0-2.339-0.031-0c-1.035-0.076-1.851-0.94-1.851-1.995v-6.499c0-1.105 0.895-2 2-2zM18.7 3.3c1.105 0 2 0.895 2 2v6.807c0 1.105-0.895 2-2 2l0.034-0.002 0.001 2.438c0 0.554-0.597 0.865-1.041 0.613l-0.069-0.045-0.077-0.065-3.043-2.941-4.966 0.001c-1.054 0-1.918-0.816-1.995-1.851l-0.005-0.149v-6.807c0-1.105 0.895-2 2-2zM18.7 4.7h-9.16c-0.331 0-0.6 0.269-0.6 0.6v6.807c0 0.331 0.269 0.6 0.6 0.6h5.25c0.182 0 0.356 0.070 0.486 0.197l2.059 1.99 0.001-1.486c0-0.354 0.263-0.647 0.605-0.694l0.095-0.006h0.664c0.331 0 0.6-0.269 0.6-0.6v-6.807c0-0.331-0.269-0.6-0.6-0.6zM14.112 11.101c0.34 0 0.616 0.276 0.616 0.616s-0.276 0.616-0.616 0.616c-0.34 0-0.616-0.276-0.616-0.616s0.276-0.616 0.616-0.616zM14.11 5.301c1.232 0 2.233 0.99 2.233 2.214 0 0.746-0.441 1.423-1.119 1.845-0.477 0.297-0.622 0.484-0.619 0.769 0.003 0.276-0.219 0.502-0.495 0.505s-0.502-0.219-0.505-0.495c-0.007-0.707 0.347-1.165 1.090-1.628 0.404-0.251 0.647-0.625 0.647-0.996 0-0.669-0.551-1.214-1.233-1.214s-1.233 0.545-1.233 1.214c0 0.276-0.224 0.5-0.5 0.5s-0.5-0.224-0.5-0.5c0-1.224 1.001-2.214 2.233-2.214z">
	</path>
</svg>
