<svg version="1.1" xmlns="http://www.w3.org/2000/svg" width="24" height="24" viewBox="0 0 24 24">
	<path fill="currentColor" d="M15.071 2.576c0.223 0 0.439 0.077 0.611 0.215l0.098 0.090 3.963 4.192c0.143 0.151 0.233 0.343 0.259 0.546l0.008 0.124v6.786c0 0.387-0.313 0.7-0.7 0.7-0.354 0-0.647-0.263-0.694-0.605l-0.006-0.095-0.001-6.302-2.137 0.001c-0.999 0-1.819-0.772-1.894-1.752l-0.006-0.148-0.001-2.352-8.781 0.013c-0.194 0-0.355 0.138-0.392 0.32l-0.008 0.081v15.233c0 0.194 0.138 0.355 0.321 0.392l0.081 0.008 12.419-0.018c0.194-0 0.355-0.138 0.392-0.32l0.008-0.081v-2.446c0-0.387 0.313-0.7 0.7-0.7 0.354 0 0.647 0.263 0.694 0.605l0.006 0.095v2.446c0 0.944-0.726 1.718-1.651 1.795l-0.148 0.006-12.419 0.018c-0.945 0.001-1.721-0.725-1.797-1.652l-0.006-0.148v-15.234c0-0.944 0.726-1.718 1.651-1.795l0.148-0.006 9.283-0.013zM15.436 15.335c0.387 0 0.7 0.313 0.7 0.7 0 0.354-0.263 0.647-0.605 0.694l-0.095 0.006h-6.873c-0.387 0-0.7-0.313-0.7-0.7 0-0.354 0.263-0.647 0.605-0.694l0.095-0.006h6.873zM15.436 11.3c0.387 0 0.7 0.313 0.7 0.7 0 0.354-0.263 0.647-0.605 0.694l-0.095 0.006h-6.873c-0.387 0-0.7-0.313-0.7-0.7 0-0.354 0.263-0.647 0.605-0.694l0.095-0.006h6.873zM12.004 7.265c0.387 0 0.7 0.313 0.7 0.7 0 0.354-0.263 0.647-0.605 0.694l-0.095 0.006h-3.441c-0.387 0-0.7-0.313-0.7-0.7 0-0.354 0.263-0.647 0.605-0.694l0.095-0.006h3.441zM17.585 6.829l-1.614-1.707 0 1.207c0 0.245 0.177 0.45 0.41 0.492l0.090 0.008 1.114-0z">
	</path>
</svg>
