<svg version="1.1" xmlns="http://www.w3.org/2000/svg" width="24" height="24" viewBox="0 0 24 24">
	<path opacity="0.8" fill="currentColor" d="M5.784 17.185c0.273 0.273 0.717 0.273 0.99 0l4.804-4.804c0.234-0.234 0.614-0.234 0.849 0l4.85 4.85c0.273 0.273 0.717 0.273 0.99 0s0.273-0.717 0-0.99l-4.85-4.85c-0.781-0.781-2.047-0.781-2.828 0l-4.804 4.804c-0.273 0.273-0.273 0.717 0 0.99zM17.788 7.552c0.387 0 0.7 0.313 0.7 0.7s-0.313 0.7-0.7 0.7h-11.487c-0.387 0-0.7-0.313-0.7-0.7s0.313-0.7 0.7-0.7h11.487z">
	</path>
</svg>
