<svg version="1.1" xmlns="http://www.w3.org/2000/svg" width="24" height="24" viewBox="0 0 24 24">
	<path fill="currentColor" d="M6.375 5.398l0.087 0.074 5.537 5.538 5.54-5.538c0.273-0.273 0.717-0.273 0.99 0 0.246 0.246 0.271 0.63 0.074 0.903l-0.074 0.087-5.54 5.538-0.983 0.995-0.006-0.005-5.538 5.538c-0.273 0.273-0.717 0.273-0.99 0-0.246-0.246-0.271-0.63-0.074-0.903l0.074-0.087 5.538-5.538-5.538-5.538-0.074-0.087c-0.197-0.274-0.172-0.657 0.074-0.903s0.63-0.271 0.903-0.074zM14.551 13.561l3.978 3.978 0.074 0.087c0.197 0.274 0.172 0.657-0.074 0.903s-0.63 0.271-0.903 0.074l-0.087-0.074-3.978-3.978c-0.243-0.243-0.27-0.62-0.081-0.893l0.081-0.097c0.273-0.273 0.717-0.273 0.99 0z">
	</path>
</svg>
