<svg version="1.1" xmlns="http://www.w3.org/2000/svg" width="24" height="24" viewBox="0 0 24 24">
	<path fill="currentColor" d="M4.5 8.221v7.865l2.497 1.587 1.095-1.095v-2.713l-1.364 1.364-0.31-0.197v-5.834l0.373-0.271 1.301 1.197v-2.607l-1.158-1.066z">
	</path>
	<path fill="currentColor" d="M12.153 3.75l-3.513 2.283v12.685l3.513 2.283 3.513-2.283v-2.157l1.243 1.113 2.497-1.587v-7.865l-2.434-1.769-0.758 0.698v2.607l0.901-0.829 0.372 0.271v5.834l-0.31 0.197-1.512-1.376v-7.821l-3.513-2.283zM10.558 17.676v-10.602l1.595-1.036 1.595 1.036v5.034l-2.712-2.468 0.070 2.835 2.642 2.367v2.835l-1.595 1.036-1.595-1.036z">
	</path>
</svg>
