<svg version="1.1" xmlns="http://www.w3.org/2000/svg" width="24" height="24" viewBox="0 0 24 24">
<path opacity="0.8" fill="currentColor" d="M12 2.3c5.357 0 9.7 4.343 9.7 9.7 0 2.436-0.902 4.732-2.502 6.503-1.827 2.021-4.419 3.197-7.198 3.197-5.357 0-9.7-4.343-9.7-9.7s4.343-9.7 9.7-9.7zM12 3.7c-4.584 0-8.3 3.716-8.3 8.3s3.716 8.3 8.3 8.3c2.379 0 4.595-1.005 6.159-2.736 1.37-1.515 2.141-3.479 2.141-5.564 0-4.584-3.716-8.3-8.3-8.3zM17.326 13.329c0.342 0.18 0.474 0.603 0.294 0.945-1.082 2.057-3.236 3.374-5.626 3.374-2.378 0-4.524-1.305-5.611-3.346-0.182-0.341-0.052-0.765 0.289-0.947s0.765-0.052 0.947 0.289c0.845 1.587 2.517 2.604 4.375 2.604 1.867 0 3.546-1.027 4.387-2.626 0.18-0.342 0.603-0.474 0.945-0.294zM7.25 8c0.69 0 1.25 0.56 1.25 1.25s-0.56 1.25-1.25 1.25c-0.69 0-1.25-0.56-1.25-1.25s0.56-1.25 1.25-1.25zM16.75 8c0.69 0 1.25 0.56 1.25 1.25s-0.56 1.25-1.25 1.25c-0.69 0-1.25-0.56-1.25-1.25s0.56-1.25 1.25-1.25z"></path>
</svg>
