<svg version="1.1" xmlns="http://www.w3.org/2000/svg" width="24" height="24" viewBox="0 0 24 24">
<path fill="#002fa7" d="M24 12c0 6.627-5.373 12-12 12s-12-5.373-12-12c0-6.627 5.373-12 12-12s12 5.373 12 12z"></path>
<path fill="#fff" d="M8.761 6.582v-0.605c0-0.102 0.010-0.201 0.031-0.298 0.018-0.086 0.045-0.17 0.080-0.253s0.076-0.159 0.124-0.231c0.052-0.078 0.111-0.151 0.179-0.218s0.14-0.127 0.218-0.179c0.073-0.048 0.15-0.090 0.231-0.124s0.167-0.062 0.253-0.080c0.097-0.021 0.197-0.031 0.298-0.031h8.896c0.102 0 0.201 0.010 0.298 0.031 0.086 0.018 0.17 0.045 0.253 0.080s0.159 0.076 0.231 0.124l0 0c0.078 0.052 0.15 0.111 0.218 0.179s0.127 0.14 0.179 0.218c0.048 0.073 0.090 0.15 0.124 0.231s0.062 0.167 0.080 0.253c0.021 0.097 0.031 0.196 0.031 0.298v6.271c0 0.102-0.010 0.201-0.031 0.298-0.018 0.086-0.045 0.17-0.080 0.253s-0.076 0.159-0.124 0.231c-0.052 0.078-0.111 0.15-0.179 0.218s-0.14 0.127-0.218 0.179c-0.073 0.048-0.15 0.090-0.231 0.124s-0.167 0.062-0.253 0.080c-0.097 0.021-0.197 0.031-0.298 0.031h-0.293c-0.343 0-0.613-0.27-0.613-0.613s0.27-0.612 0.613-0.612h0.293c0.026 0 0.112-0.046 0.134-0.056 0.019-0.018 0.046-0.112 0.056-0.134v-6.271c0-0.026-0.046-0.112-0.056-0.134-0.018-0.018-0.112-0.046-0.134-0.056h-8.896c-0.026 0-0.112 0.046-0.134 0.056-0.018 0.019-0.046 0.112-0.056 0.134v0.605c0 0.343-0.269 0.612-0.612 0.612s-0.612-0.27-0.612-0.612zM6.136 9.040v0.183c0 0.343 0.269 0.612 0.612 0.612s0.612-0.27 0.612-0.612v-0.183c0.009-0.022 0.037-0.116 0.056-0.134 0.022-0.009 0.108-0.055 0.134-0.055h8.896c0.022 0.009 0.115 0.037 0.134 0.055 0.009 0.022 0.056 0.108 0.056 0.134v6.271c-0.009 0.022-0.037 0.115-0.056 0.134-0.022 0.009-0.108 0.056-0.134 0.056h-0.332c-0.343 0-0.612 0.27-0.612 0.612s0.269 0.613 0.612 0.613h0.332c0.102 0 0.201-0.011 0.298-0.031 0.086-0.018 0.17-0.045 0.253-0.080s0.159-0.076 0.231-0.124c0.078-0.052 0.15-0.111 0.218-0.179s0.127-0.14 0.179-0.218c0.048-0.073 0.090-0.15 0.124-0.231s0.062-0.167 0.080-0.253c0.021-0.097 0.031-0.197 0.031-0.298v-6.271c0-0.102-0.010-0.201-0.031-0.298-0.018-0.086-0.045-0.17-0.080-0.253s-0.076-0.159-0.124-0.231c-0.052-0.078-0.111-0.151-0.179-0.218s-0.14-0.127-0.218-0.179c-0.073-0.048-0.15-0.090-0.231-0.124s-0.167-0.062-0.253-0.080c-0.097-0.021-0.197-0.031-0.298-0.031h-8.896c-0.102 0-0.201 0.010-0.298 0.031-0.086 0.018-0.17 0.045-0.253 0.080s-0.159 0.076-0.231 0.124c-0.078 0.052-0.151 0.111-0.218 0.179s-0.127 0.14-0.179 0.218c-0.048 0.073-0.090 0.15-0.124 0.231s-0.062 0.167-0.080 0.253c-0.021 0.097-0.031 0.197-0.031 0.298zM13.822 10.25c0.102 0 0.201 0.011 0.298 0.031 0.086 0.018 0.17 0.045 0.253 0.080s0.159 0.076 0.231 0.124c0.078 0.052 0.151 0.111 0.218 0.179s0.127 0.14 0.179 0.218c0.048 0.073 0.090 0.15 0.124 0.231s0.062 0.167 0.080 0.253c0.021 0.097 0.031 0.197 0.031 0.298v6.271c0 0.102-0.010 0.201-0.031 0.298-0.018 0.086-0.045 0.17-0.080 0.253s-0.076 0.159-0.124 0.231c-0.052 0.078-0.111 0.15-0.179 0.218s-0.14 0.127-0.218 0.179c-0.073 0.048-0.15 0.090-0.231 0.124s-0.167 0.062-0.253 0.080c-0.097 0.021-0.197 0.031-0.298 0.031h-8.896c-0.102 0-0.201-0.011-0.298-0.031h-0c-0.086-0.018-0.17-0.045-0.253-0.080s-0.159-0.076-0.231-0.124c-0.078-0.052-0.151-0.111-0.218-0.179s-0.127-0.14-0.179-0.218c-0.048-0.073-0.090-0.15-0.124-0.231s-0.062-0.167-0.080-0.253c-0.021-0.097-0.031-0.197-0.031-0.298v-6.271c0-0.102 0.010-0.201 0.031-0.298 0.018-0.086 0.045-0.17 0.080-0.253s0.076-0.159 0.124-0.231c0.052-0.078 0.111-0.151 0.179-0.218s0.14-0.127 0.218-0.179c0.073-0.048 0.15-0.090 0.231-0.124s0.167-0.062 0.253-0.080c0.097-0.021 0.197-0.031 0.298-0.031h8.896zM13.956 11.531c-0.018-0.018-0.112-0.046-0.134-0.056h-8.896c-0.022 0.009-0.116 0.037-0.134 0.056s-0.046 0.112-0.056 0.134v6.271c0 0.026 0.046 0.112 0.056 0.134 0.018 0.018 0.112 0.046 0.134 0.056h8.896c0.026 0 0.112-0.046 0.134-0.056 0.019-0.018 0.046-0.112 0.056-0.134v-6.271c0-0.026-0.046-0.112-0.056-0.134z"></path>
<path fill="none" stroke="#fff" stroke-linejoin="round" stroke-linecap="round" stroke-miterlimit="4" stroke-width="1.0500" d="M10.56 13.17l1.6 1.64-1.6 1.61"></path>
<path fill="none" stroke="#fff" stroke-linejoin="round" stroke-linecap="round" stroke-miterlimit="4" stroke-width="1.0500" d="M8.14 14.83h3.21M6.58 13.77v2.39"></path>
</svg>
