<svg version="1.1" xmlns="http://www.w3.org/2000/svg" width="24" height="24" viewBox="0 0 24 24">
<path opacity="0.8" fill="currentColor" d="M18.816 10.662l-0.639 0.586c-0.289 0.265-0.308 0.7-0.043 0.989s0.7 0.308 0.989 0.043l1.587-1.454c0.145-0.133 0.261-0.28 0.35-0.443 0.069-0.127 0.121-0.264 0.156-0.409 0.034-0.142 0.050-0.283 0.048-0.424-0.003-0.167-0.031-0.333-0.084-0.499s-0.128-0.317-0.223-0.454c-0.081-0.116-0.176-0.221-0.287-0.316-0.114-0.098-0.236-0.178-0.366-0.241-0.167-0.081-0.348-0.132-0.543-0.155l-4.201-0.496c-0.024-0.009-0.119-0.040-0.14-0.055-0.016-0.019-0.085-0.093-0.096-0.116l-1.783-3.815c-0.082-0.176-0.187-0.331-0.315-0.463v0c-0.1-0.104-0.213-0.194-0.341-0.271-0.124-0.075-0.253-0.133-0.388-0.174v-0c-0.159-0.048-0.324-0.072-0.497-0.072s-0.338 0.024-0.497 0.072v0c-0.135 0.041-0.264 0.099-0.388 0.174-0.127 0.077-0.241 0.168-0.341 0.271-0.128 0.133-0.233 0.287-0.315 0.463l-1.783 3.815c-0.016 0.019-0.075 0.101-0.096 0.116-0.023 0.009-0.115 0.052-0.14 0.055l-4.201 0.496c-0.195 0.023-0.376 0.075-0.543 0.155v0c-0.13 0.063-0.252 0.143-0.366 0.241-0.11 0.095-0.206 0.201-0.287 0.316-0.095 0.137-0.169 0.288-0.223 0.454s-0.082 0.332-0.084 0.499c-0.002 0.141 0.013 0.283 0.048 0.424 0.035 0.146 0.087 0.282 0.156 0.409 0.089 0.163 0.205 0.311 0.35 0.443l3.089 2.83c0.014 0.021 0.074 0.103 0.083 0.128 0 0.007 0.001 0.019 0.003 0.033 0.004 0.040 0.010 0.1 0.006 0.119l-0.82 4.096c-0.038 0.191-0.045 0.379-0.021 0.562 0.019 0.143 0.057 0.284 0.114 0.421 0.056 0.134 0.126 0.258 0.21 0.37 0.1 0.133 0.219 0.25 0.359 0.352s0.288 0.181 0.445 0.236c0.133 0.047 0.271 0.076 0.416 0.089 0.149 0.013 0.294 0.007 0.436-0.018l0.001-0c0.182-0.032 0.358-0.096 0.529-0.19l3.714-2.053c0.024-0.006 0.119-0.037 0.145-0.037 0.024 0.006 0.123 0.025 0.145 0.037l3.623 2.002c0.175 0.096 0.354 0.16 0.54 0.192l0.001 0c0.144 0.024 0.291 0.030 0.441 0.015 0.146-0.014 0.286-0.045 0.42-0.094v0c0.158-0.058 0.308-0.14 0.448-0.247s0.26-0.229 0.358-0.366c0.083-0.116 0.151-0.242 0.204-0.379 0.054-0.141 0.089-0.284 0.104-0.429 0.019-0.187 0.006-0.378-0.040-0.572l-1.563-6.584c-0.091-0.381-0.462-0.61-0.843-0.519s-0.61 0.461-0.52 0.843l1.563 6.584c0.015 0.063 0.013 0.121-0.005 0.172s-0.054 0.097-0.105 0.136c-0.052 0.039-0.105 0.061-0.159 0.065s-0.11-0.010-0.167-0.041l-3.623-2.002c-0.128-0.071-0.26-0.124-0.397-0.159l-0-0c-0.137-0.035-0.279-0.053-0.425-0.053s-0.288 0.018-0.425 0.053c-0.137 0.035-0.27 0.088-0.397 0.159l-3.715 2.053c-0.056 0.031-0.111 0.045-0.164 0.041s-0.106-0.024-0.158-0.062c-0.052-0.038-0.087-0.082-0.106-0.132s-0.023-0.107-0.010-0.169l0.82-4.096c0.029-0.146 0.039-0.291 0.031-0.434s-0.036-0.286-0.082-0.427c-0.046-0.141-0.108-0.273-0.186-0.393s-0.172-0.232-0.281-0.332l-3.089-2.83c-0.047-0.043-0.078-0.091-0.092-0.143s-0.011-0.109 0.009-0.17c0.020-0.061 0.050-0.109 0.092-0.143s0.094-0.055 0.158-0.063l4.201-0.496c0.146-0.017 0.286-0.052 0.418-0.103s0.259-0.121 0.378-0.207c0.119-0.086 0.224-0.184 0.315-0.294s0.167-0.231 0.229-0.365l1.783-3.815c0.027-0.058 0.063-0.101 0.108-0.13s0.1-0.043 0.163-0.043c0.064 0 0.118 0.014 0.164 0.043s0.081 0.072 0.108 0.13l1.783 3.815c0.062 0.133 0.139 0.255 0.23 0.364s0.196 0.208 0.315 0.294c0.119 0.086 0.245 0.155 0.378 0.207s0.272 0.086 0.418 0.103l4.201 0.496c0.064 0.008 0.117 0.028 0.158 0.063s0.072 0.082 0.092 0.143 0.023 0.118 0.009 0.17c-0.014 0.052-0.045 0.1-0.092 0.143l-0.948 0.868zM7.505 11.495l1.5 1.5c0.277 0.277 0.713 0.277 0.99 0s0.277-0.713 0-0.99l-1.5-1.5c-0.277-0.277-0.713-0.277-0.99-0s-0.277 0.713 0 0.99z"></path>
</svg>
