<svg version="1.1" xmlns="http://www.w3.org/2000/svg" width="24" height="24" viewBox="0 0 24 24">
<path fill="#00a7b3" d="M24 12c0 6.627-5.373 12-12 12s-12-5.373-12-12c0-6.627 5.373-12 12-12s12 5.373 12 12z"></path>
<path fill="#fff" d="M16.418 15.469c0 0.552-0.448 1-1 1s-1-0.448-1-1c0-0.552 0.448-1 1-1s1 0.448 1 1z"></path>
<path fill="#fff" d="M11.69 4.13c0.113-0.040 0.227-0.060 0.34-0.060 0.12 0 3.093 1.147 0.35 0.070l8.57 3.37c0.107 0.040 0.197 0.097 0.27 0.17 0.073 0.053 0.133 0.12 0.18 0.2 0.1 0.15 0.15 0.32 0.16 0.51 0 0.19-0.050 0.36-0.15 0.51-0.1 0.17-0.25 0.3-0.44 0.38l-1.52 0.63v2.38c0 0.36-0.29 0.65-0.65 0.65s-0.65-0.29-0.65-0.65v-1.84l-2.080 0.86v3.62h-1.3v-3.080l-2.37 0.99c-0.12 0.050-0.24 0.070-0.37 0.070-0.12 0-0.24-0.020-0.36-0.070l-6.040-2.49-0.020 7.33c0 0.1 0.030 0.18 0.1 0.25 0.033 0.033 0.070 0.057 0.11 0.070 0.047 0.020 4.033 0.030 0.14 0.030h11.82c0.047 0 0.090-0.010 0.13-0.030 0.040-0.013 0.077-0.037 0.11-0.070 0.040-0.033 0.067-0.073 0.080-0.12 0.020-0.040 0.030-1.263 0.030-0.13v-3.54c0-0.37 0.28-0.65 0.65-0.65 0.36 0 0.65 0.28 0.65 0.65v3.54c0 0.12-0.013 0.237-0.040 0.35-0.020 0.1-0.050 0.197-0.090 0.29-0.090 0.2-0.2 0.37-0.36 0.53-0.080 0.073-0.163 0.143-0.25 0.21-0.087 0.053-0.177 0.1-0.27 0.14s-0.19 0.070-0.29 0.090c-0.12 0.027-4.177 0.040-0.35 0.040h-11.82c-0.23 0-0.44-0.040-0.64-0.13-0.2-0.080-0.38-0.2-0.53-0.36-0.15-0.15-0.27-0.32-0.35-0.52-0.090-0.21-0.13-0.42-0.13-0.64l0.020-7.87-1.3-0.53c-0.19-0.080-0.34-0.2-0.45-0.38-0.047-0.073-0.080-0.15-0.1-0.23-0.027-0.087-0.040-0.18-0.040-0.28s0.013-0.193 0.040-0.28c0.027-0.080 0.063-0.157 0.11-0.23 0.053-0.080 0.113-0.15 0.18-0.21 0.080-0.067-0.843-2.623 0.27-0.16l8.65-3.38zM15.45 10.16l3.1-1.29 1.12-0.46-7.64-3.010-7.7 3.010 7.7 3.17 1.87-0.77-3.020-1.61c-0.32-0.18-0.44-0.56-0.27-0.88 0.17-0.33 0.56-0.44 0.88-0.27l3.96 2.11z"></path>
</svg>
