<svg version="1.1" xmlns="http://www.w3.org/2000/svg" width="24" height="24" viewBox="0 0 24 24">
<path fill="#3422ff" d="M24 12c0 6.627-5.373 12-12 12s-12-5.373-12-12c0-6.627 5.373-12 12-12s12 5.373 12 12z"></path>
<path fill="#fff" d="M8.478 5.081v0c0.178-0.073 0.358-0.14 0.54-0.202 0.495-0.168 0.998-0.293 1.507-0.375h0c0.485-0.078 0.977-0.117 1.475-0.117s0.99 0.039 1.475 0.117c0.509 0.082 1.012 0.207 1.507 0.375 0.182 0.062 0.362 0.129 0.54 0.202 0.734 0.3 1.431 0.691 2.090 1.175 0.277 0.203 0.335 0.579 0.132 0.856s-0.58 0.335-0.856 0.132c-0.608-0.446-1.252-0.802-1.931-1.069-0.122-0.048-0.245-0.093-0.369-0.135-0.432-0.146-0.869-0.255-1.313-0.326h-0c-0.42-0.067-0.845-0.101-1.275-0.101-0.425 0-0.846 0.033-1.261 0.099v0c-0.005 0.001-0.010 0.002-0.015 0.002-0.444 0.071-0.881 0.18-1.313 0.326-0.124 0.042-0.247 0.087-0.368 0.135-0.679 0.267-1.323 0.623-1.931 1.069-0.277 0.203-0.653 0.145-0.856-0.132s-0.145-0.653 0.132-0.856c0.659-0.483 1.355-0.874 2.088-1.173l0.003-0.001zM20.487 14.625c0 0.107-0.011 0.212-0.033 0.314-0.019 0.090-0.047 0.179-0.084 0.265s-0.080 0.167-0.13 0.243c-0.054 0.082-0.117 0.159-0.188 0.23s-0.148 0.134-0.23 0.188c-0.076 0.051-0.157 0.094-0.243 0.13s-0.175 0.065-0.265 0.084c-0.102 0.022-0.207 0.033-0.314 0.033h-14c-0.107 0-0.212-0.011-0.314-0.033-0.090-0.020-0.179-0.048-0.265-0.084s-0.167-0.080-0.243-0.13c-0.082-0.054-0.159-0.117-0.23-0.188s-0.134-0.148-0.188-0.23c-0.051-0.076-0.094-0.157-0.13-0.243s-0.065-0.175-0.084-0.265c-0.022-0.102-0.033-0.207-0.033-0.314v-5.25c0-0.107 0.011-0.212 0.033-0.314 0.019-0.090 0.047-0.179 0.084-0.265 0.036-0.085 0.079-0.165 0.129-0.241 0-0.001 0.001-0.001 0.001-0.002 0.054-0.082 0.117-0.159 0.188-0.23s0.148-0.134 0.23-0.188c0.076-0.051 0.157-0.094 0.243-0.13s0.175-0.065 0.265-0.084h0c0.001-0 0.002-0 0.004-0.001h0c0.101-0.022 0.205-0.032 0.31-0.032h14c0.107 0 0.212 0.011 0.314 0.033 0.090 0.019 0.178 0.047 0.265 0.084s0.167 0.080 0.243 0.13c0.082 0.054 0.158 0.117 0.23 0.188s0.134 0.148 0.188 0.23c0.051 0.076 0.094 0.157 0.13 0.243s0.065 0.175 0.084 0.265l0 0 0 0.001c0.022 0.102 0.033 0.206 0.033 0.313v2.625c0 0.343-0.27 0.612-0.613 0.612s-0.612-0.27-0.612-0.612v-2.625c0-0.036-0.006-0.070-0.019-0.101s-0.117-0.117-0.143-0.143c-0.031-0.013-0.064-0.019-0.101-0.019h-14c-0.036 0-0.070 0.006-0.101 0.019v0c-0.031 0.013-0.117 0.117-0.142 0.143-0.013 0.031-0.019 0.065-0.019 0.101v5.25c0 0.036 0.006 0.070 0.019 0.101s0.117 0.117 0.142 0.143c0.031 0.013 0.064 0.019 0.101 0.019h14c0.036 0 0.070-0.006 0.101-0.019s0.117-0.117 0.143-0.143l0-0c0.013-0.031 0.019-0.064 0.019-0.101v-0.875c0-0.343 0.269-0.612 0.612-0.612s0.613 0.27 0.613 0.612v0.875zM14.939 16.671c-0.102-0.022-0.207-0.033-0.314-0.033h-5.25c-0.107 0-0.212 0.011-0.314 0.033-0.090 0.019-0.179 0.047-0.265 0.084s-0.167 0.080-0.243 0.13c-0.082 0.055-0.159 0.117-0.23 0.188s-0.134 0.147-0.188 0.23c-0.051 0.076-0.094 0.157-0.13 0.243s-0.065 0.175-0.084 0.265c-0.022 0.102-0.033 0.207-0.033 0.314s0.011 0.212 0.033 0.314c0.019 0.090 0.047 0.179 0.084 0.265s0.080 0.167 0.13 0.243c0.054 0.082 0.117 0.159 0.188 0.23s0.148 0.134 0.23 0.188c0.076 0.051 0.157 0.094 0.243 0.13s0.175 0.065 0.265 0.084c0.102 0.022 0.207 0.033 0.314 0.033h5.25c0.107 0 0.212-0.011 0.314-0.033 0.090-0.019 0.178-0.047 0.265-0.084s0.167-0.080 0.243-0.13c0.082-0.054 0.158-0.117 0.229-0.188s0.134-0.148 0.188-0.23c0.051-0.076 0.094-0.157 0.13-0.243s0.065-0.175 0.084-0.265c0.022-0.102 0.033-0.207 0.033-0.314s-0.011-0.212-0.033-0.314c-0.019-0.090-0.047-0.178-0.084-0.265s-0.080-0.167-0.13-0.243c-0.054-0.082-0.117-0.159-0.188-0.23s-0.148-0.134-0.229-0.188c-0.076-0.051-0.157-0.094-0.243-0.13s-0.175-0.065-0.265-0.084h-0zM9.375 17.862h5.25c0.036 0 0.070 0.006 0.101 0.019 0.026 0.026 0.13 0.112 0.143 0.143s0.019 0.064 0.019 0.101-0.006 0.070-0.019 0.101c-0.026 0.026-0.112 0.13-0.143 0.143s-0.064 0.019-0.101 0.019h-5.25c-0.036 0-0.070-0.006-0.101-0.019-0.026-0.026-0.13-0.111-0.143-0.143s-0.019-0.064-0.019-0.101 0.006-0.070 0.019-0.101c0.026-0.026 0.112-0.13 0.143-0.143s0.064-0.019 0.101-0.019z"></path>
</svg>
