<svg version="1.1" xmlns="http://www.w3.org/2000/svg" width="24" height="24" viewBox="0 0 24 24">
<path fill="#ffa122" d="M24 12c0 6.627-5.373 12-12 12s-12-5.373-12-12c0-6.627 5.373-12 12-12s12 5.373 12 12z"></path>
<path fill="#fff" d="M18.248 10.774l-0.586 0.537c-0.265 0.243-0.282 0.642-0.040 0.907s0.642 0.282 0.907 0.040l1.455-1.333c0.133-0.122 0.24-0.257 0.321-0.407 0.063-0.117 0.111-0.242 0.143-0.375 0.031-0.13 0.046-0.26 0.044-0.389-0.003-0.153-0.028-0.305-0.077-0.457s-0.117-0.291-0.204-0.416c-0.074-0.106-0.161-0.203-0.263-0.29-0.104-0.090-0.216-0.163-0.335-0.221-0.153-0.074-0.319-0.121-0.498-0.142l-3.851-0.455c-0.021-0.008-0.11-0.036-0.129-0.050-0.015-0.018-0.078-0.085-0.088-0.106l-1.634-3.497c-0.075-0.162-0.172-0.303-0.289-0.425-0.091-0.095-0.196-0.178-0.312-0.249-0.114-0.069-0.232-0.122-0.355-0.159-0.145-0.044-0.297-0.066-0.455-0.066s-0.31 0.022-0.455 0.066v0l-0 0c-0.123 0.037-0.242 0.090-0.355 0.159-0.117 0.071-0.221 0.154-0.312 0.249-0.117 0.122-0.213 0.263-0.289 0.425l-1.634 3.497c-0.015 0.018-0.069 0.093-0.088 0.106-0.021 0.008-0.105 0.047-0.129 0.050l-3.851 0.455c-0.179 0.021-0.345 0.069-0.498 0.142-0.12 0.058-0.231 0.131-0.335 0.221-0.101 0.087-0.189 0.184-0.263 0.29-0.087 0.125-0.155 0.264-0.204 0.416s-0.075 0.304-0.077 0.457c-0.002 0.129 0.012 0.259 0.044 0.389 0.032 0.134 0.080 0.258 0.143 0.375 0.081 0.149 0.188 0.285 0.321 0.406l2.831 2.594c0.013 0.020 0.068 0.094 0.076 0.117 0 0.006 0.001 0.017 0.003 0.030 0.004 0.037 0.009 0.092 0.006 0.109l-0.751 3.755c-0.035 0.175-0.042 0.347-0.019 0.515 0.017 0.131 0.052 0.26 0.105 0.386 0.051 0.123 0.115 0.236 0.193 0.339 0.091 0.121 0.201 0.229 0.329 0.323s0.264 0.166 0.408 0.216c0.122 0.043 0.249 0.070 0.382 0.081 0.136 0.012 0.27 0.006 0.4-0.017 0.167-0.030 0.328-0.087 0.485-0.174l3.405-1.882c0.022-0.006 0.109-0.034 0.133-0.034 0.022 0.006 0.112 0.023 0.133 0.034l3.321 1.835c0.16 0.088 0.325 0.147 0.495 0.176 0.132 0.023 0.267 0.027 0.405 0.014 0.134-0.013 0.263-0.042 0.385-0.087 0.145-0.053 0.282-0.129 0.411-0.226s0.238-0.21 0.328-0.335l0-0c0.076-0.106 0.138-0.222 0.187-0.348 0.050-0.129 0.082-0.261 0.095-0.394 0.018-0.172 0.006-0.346-0.037-0.524l-1.433-6.036c-0.083-0.35-0.423-0.559-0.773-0.476s-0.559 0.423-0.476 0.772l1.433 6.036c0.014 0.058 0.012 0.111-0.005 0.158s-0.049 0.089-0.097 0.125-0.096 0.056-0.146 0.060c-0.050 0.004-0.101-0.009-0.153-0.038l-3.321-1.835c-0.117-0.065-0.239-0.113-0.364-0.146s-0.255-0.049-0.389-0.049c-0.134 0-0.264 0.016-0.389 0.049h-0c-0.126 0.032-0.247 0.081-0.364 0.146l-3.405 1.882c-0.051 0.028-0.102 0.041-0.151 0.038s-0.097-0.022-0.145-0.057c-0.047-0.035-0.080-0.075-0.098-0.121s-0.021-0.098-0.010-0.155l0.751-3.755c0.027-0.134 0.036-0.266 0.028-0.398s-0.033-0.262-0.075-0.392c-0.042-0.13-0.099-0.25-0.171-0.361s-0.157-0.212-0.258-0.304l-2.831-2.594c-0.043-0.040-0.071-0.084-0.084-0.131s-0.010-0.1 0.008-0.156c0.018-0.056 0.046-0.1 0.084-0.131s0.087-0.051 0.145-0.057l3.851-0.455c0.134-0.016 0.262-0.047 0.383-0.095s0.237-0.111 0.346-0.19c0.109-0.079 0.206-0.169 0.289-0.269s0.153-0.212 0.21-0.334l1.634-3.497c0.025-0.053 0.058-0.093 0.099-0.119s0.091-0.040 0.15-0.040c0.058 0 0.108 0.013 0.15 0.040s0.075 0.066 0.099 0.119l1.634 3.497c0.057 0.122 0.127 0.234 0.21 0.334s0.18 0.19 0.289 0.269 0.225 0.142 0.346 0.19c0.122 0.047 0.249 0.079 0.383 0.095l3.851 0.455c0.058 0.007 0.107 0.026 0.145 0.057s0.066 0.075 0.084 0.131 0.021 0.108 0.008 0.156c-0.013 0.048-0.041 0.092-0.084 0.131l-0.869 0.796zM7.88 11.537l1.375 1.375c0.254 0.254 0.653 0.254 0.907 0s0.254-0.653 0-0.907l-1.375-1.375c-0.254-0.254-0.653-0.254-0.907-0s-0.254 0.653-0 0.908z"></path>
</svg>
