<svg version="1.1" xmlns="http://www.w3.org/2000/svg" width="24" height="24" viewBox="0 0 24 24">
<path id="epkg-icon" d="M17.692 16.313v0.75h0.83v0.712q-0.035 0.035-0.072 0.063-0.252 0.198-0.66 0.198-0.378 0-0.668-0.157-0.020-0.010-0.038-0.023-0.098-0.057-0.18-0.13-0.177-0.158-0.29-0.385-0.162-0.337-0.162-0.792 0-0.445 0.16-0.78 0.14-0.293 0.372-0.465 0.035-0.027 0.072-0.053 0.095-0.060 0.198-0.1 0.202-0.080 0.438-0.080 0.305 0 0.535 0.132 0.025 0.012 0.048 0.027 0.085 0.055 0.155 0.123 0.138 0.132 0.222 0.312l0.72-0.415q-0.027-0.078-0.068-0.15-0.17-0.325-0.535-0.548-0.020-0.012-0.040-0.025-0.435-0.25-1.012-0.25-0.435 0-0.815 0.145-0.15 0.057-0.29 0.138-0.2 0.115-0.365 0.265-0.247 0.225-0.417 0.535-0.285 0.515-0.285 1.188 0 0.665 0.275 1.182 0.155 0.285 0.375 0.502 0.177 0.173 0.4 0.3 0.053 0.033 0.108 0.057 0.457 0.23 1.032 0.23 0.54 0 0.987-0.195 0.445-0.195 0.65-0.522v-1.79h-1.68zM5.080 16.895h1.782v-0.75h-1.782v-1.032h1.992v-0.755h-2.862v4.392h2.928v-0.762h-2.058v-1.092zM10.283 14.538q-0.39-0.18-0.91-0.18h-1.515v4.392h0.87v-1.5h0.645q0.52 0 0.91-0.177 0.307-0.143 0.505-0.375 0.053-0.063 0.098-0.13 0.042-0.065 0.075-0.132v0q0.138-0.28 0.138-0.625 0-0.367-0.15-0.657-0.027-0.055-0.063-0.108-0.045-0.070-0.098-0.132v0q-0.198-0.235-0.505-0.375zM13.775 16.15l1.865 2.6h-1.12l-1.37-1.932-0.6 0.64v1.293h-0.87v-4.392h0.87v2.045l1.825-2.045h1.085l-1.685 1.793zM9.927 16.335q-0.245 0.175-0.652 0.175h-0.548v-1.415h0.548q0.408 0 0.652 0.183 0.085 0.063 0.14 0.145v0q0.108 0.158 0.108 0.387t-0.11 0.387q-0.055 0.078-0.138 0.138z"></path>
<path d="M17.45 5.050v-2.018c0-0.182-0.044-0.355-0.133-0.519-0.080-0.148-0.191-0.278-0.333-0.389-0.133-0.104-0.285-0.184-0.454-0.24s-0.347-0.084-0.53-0.084h-8.75c-0.144 0-0.283 0.017-0.418 0.051h-0c-0.038 0.010-0.075 0.021-0.112 0.033-0.157 0.052-0.299 0.125-0.425 0.218-0.010 0.007-0.019 0.015-0.029 0.022-0.122 0.095-0.222 0.205-0.298 0.329-0.012 0.020-0.024 0.040-0.035 0.060-0.052 0.097-0.089 0.197-0.111 0.3-0.015 0.071-0.876 0.817-0.022 0.219v2.018h-2.563c-0.187 0-0.362 0.033-0.523 0.098-0.185 0.074-0.352 0.192-0.503 0.351-0.127 0.135-0.224 0.282-0.292 0.441-0.079 0.186-0.119 5.023-0.119 0.609v13.902c0 0.22 0.040 0.423 0.119 0.609 0.068 0.159 0.166 0.307 0.292 0.441 0.282 0.299 0.623 0.449 1.026 0.449h17.026c0.402 0 0.744-0.15 1.026-0.449 0.127-0.135 0.224-0.282 0.292-0.441 0.079-0.186 0.119-0.389 0.119-0.609v-5.784c0-0.252-0.198-0.45-0.45-0.45s-0.45 0.198-0.45 0.45v5.784c0 0.101-0.020 0.193-0.059 0.276h-0c-0.027 0.057-0.063 0.109-0.108 0.157-0.104 0.11-0.227 0.166-0.37 0.166h-17.026c-0.143 0-0.266-0.055-0.37-0.166-0.045-0.048-0.081-0.101-0.108-0.157l-0-0c-0.039-0.083 2.064-3.883-0.059-0.276v-11.126h6.369c0.010 0.087 0.025 0.174 0.044 0.259 0.035 0.159 0.085 0.315 0.149 0.467s0.142 0.298 0.232 0.435c0.1 0.151 0.215 0.293 0.346 0.424s0.272 0.246 0.423 0.346c0.137 0.090 0.281 0.167 0.435 0.232s0.308 0.114 0.467 0.149c0.19 0.042 0.385 0.063 0.584 0.063 0.366 0 0.716-0.071 1.051-0.212 0.153-0.065 0.298-0.142 0.435-0.232 0.151-0.1 0.293-0.215 0.423-0.346 0.249-0.249 0.442-0.535 0.578-0.858 0.064-0.152 0.114-0.308 0.149-0.467 0.019-0.085 0.034-0.172 0.044-0.259h6.369v3.326c0 0.252 0.198 0.45 0.45 0.45s0.45-0.198 0.45-0.45v-6.102c0-0.22-0.040-0.423-0.119-0.609l-0-0c-0.068-0.159-0.165-0.306-0.292-0.441-0.282-0.299-0.623-0.449-1.026-0.449h-2.813zM9.979 9.325h3.542c-0.005 0.027-0.010 0.053-0.017 0.080-0.023 0.101-0.055 0.199-0.096 0.295-0.042 0.099-0.092 0.193-0.15 0.282-0.068 0.104-0.146 0.2-0.236 0.29-0.166 0.166-0.357 0.295-0.572 0.386-0.096 0.041-0.195 0.073-0.295 0.096-0.132 0.030-0.267 0.045-0.405 0.045s-0.274-0.015-0.405-0.045c-0.1-0.023-0.199-0.055-0.295-0.096-0.099-0.042-0.193-0.092-0.282-0.15h-0c-0.104-0.068-0.2-0.146-0.29-0.236s-0.168-0.186-0.236-0.29c-0.058-0.089-0.108-0.183-0.15-0.282-0.041-0.096-0.073-0.195-0.096-0.295-0.006-0.027-0.012-0.053-0.017-0.080zM6.7 5.050v-2.018c0-0.030 0.008-0.060 0.024-0.090 0.021-0.038 0.053-0.074 0.096-0.108 0.051-0.040 0.112-0.072 0.182-0.095 0.078-0.026 0.161-0.039 0.248-0.039h8.75c0.087 0 0.17 0.013 0.248 0.039 0.070 0.023 0.131 0.055 0.182 0.095 0.043 0.033 0.075 0.070 0.096 0.108 0.016 0.030 0.024 0.060 0.024 0.090v2.018h-9.85zM20.8 6.549v1.876h-18.1v-1.876c0-0.101 0.020-0.193 0.059-0.276v0h0q0.040-0.085 0.108-0.157c0.062-0.065 0.13-0.112 0.206-0.138 0.052-0.018 0.106-0.027 0.165-0.027h17.026c0.143 0 0.266 0.055 0.37 0.166 0.045 0.048 0.081 0.101 0.108 0.157 0.039 0.083 0.059 0.175 0.059 0.276z"></path>
</svg>
