<svg version="1.1" xmlns="http://www.w3.org/2000/svg" width="24" height="24" viewBox="0 0 24 24">
<path d="M2.55 9.75v-2.094c0-0.278 0.061-0.52 0.183-0.725h0c0.12-0.203 0.3-0.37 0.539-0.502l8.055-4.455c0.448-0.248 0.897-0.248 1.345 0l8.055 4.455c0.481 0.266 0.722 0.676 0.722 1.228v1.704c0.72 0.198 1.25 0.857 1.25 1.64 0 0.938-0.762 1.7-1.7 1.7s-1.7-0.762-1.7-1.7c0-0.782 0.53-1.442 1.25-1.64v-1.704c0-0.198-0.086-0.345-0.258-0.44l-8.055-4.455c-0.079-0.044-0.158-0.066-0.237-0.066s-0.158 0.022-0.237 0.066l-8.055 4.455c-0.172 0.095-0.258 0.242-0.258 0.44v2.094c0 0.252-0.198 0.45-0.45 0.45s-0.45-0.198-0.45-0.45zM21 11.8c0.441 0 0.8-0.359 0.8-0.8s-0.359-0.8-0.8-0.8c-0.441 0-0.8 0.358-0.8 0.8s0.359 0.8 0.8 0.8zM4.7 13c0-0.938-0.762-1.7-1.7-1.7s-1.7 0.762-1.7 1.7c0 0.782 0.53 1.442 1.25 1.64v1.703c0 0.278 0.061 0.52 0.183 0.726 0.12 0.203 0.3 0.37 0.539 0.502l8.055 4.456c0.448 0.248 0.897 0.248 1.345 0l8.055-4.456c0.481-0.266 0.722-0.676 0.722-1.228v-2.093c0-0.252-0.198-0.45-0.45-0.45s-0.45 0.198-0.45 0.45v2.093c0 0.198-0.086 0.345-0.258 0.44l-8.055 4.456c-0.158 0.087-0.316 0.087-0.474 0l-8.055-4.456c-0.084-0.046-0.148-0.105-0.191-0.177-0.045-0.074-0.067-0.162-0.067-0.263v-1.703c0.72-0.198 1.25-0.857 1.25-1.64zM3.8 13c0 0.441-0.359 0.8-0.8 0.8s-0.8-0.359-0.8-0.8c0-0.441 0.359-0.8 0.8-0.8s0.8 0.358 0.8 0.8z"></path>
<path id="image-icon" d="M14.75 8.125c0.044 0 0.087 0.004 0.13 0.013 0.039 0.008 0.077 0.020 0.114 0.036s0.071 0.034 0.103 0.055l0 0c0.034 0.022 0.066 0.049 0.095 0.078s0.056 0.061 0.078 0.095v0c0.022 0.032 0.040 0.067 0.056 0.103s0.028 0.075 0.036 0.114c0.009 0.042 0.013 0.085 0.013 0.13v3.625h1.625c0.044 0 0.087 0.004 0.129 0.013 0.039 0.008 0.077 0.020 0.114 0.036s0.071 0.034 0.103 0.055c0.034 0.023 0.066 0.049 0.095 0.078s0.056 0.061 0.078 0.095c0.022 0.032 0.040 0.067 0.056 0.103s0.028 0.075 0.036 0.114v0 0l0 0c0.009 0.042 0.013 0.085 0.013 0.129v1.5c0 0.044-0.004 0.087-0.013 0.129-0.008 0.039-0.020 0.077-0.036 0.114s-0.034 0.071-0.056 0.103c-0.023 0.034-0.049 0.066-0.078 0.095s-0.061 0.056-0.095 0.078c-0.032 0.021-0.067 0.040-0.103 0.055s-0.075 0.028-0.114 0.036h-0c-0.042 0.009-0.085 0.013-0.129 0.013h-10c-0.044 0-0.087-0.004-0.129-0.013h-0c-0.039-0.008-0.077-0.020-0.114-0.036s-0.071-0.034-0.103-0.055h-0c-0.034-0.023-0.066-0.049-0.095-0.078s-0.056-0.061-0.078-0.095h-0c-0.022-0.032-0.040-0.067-0.056-0.103s-0.028-0.075-0.036-0.114v0 0c-0.009-0.042-0.013-0.085-0.013-0.13v-1.5c0-0.044 0.004-0.087 0.013-0.13 0.008-0.039 0.020-0.077 0.036-0.114s0.034-0.071 0.056-0.103c0.023-0.034 0.049-0.066 0.078-0.095s0.061-0.056 0.095-0.078c0.032-0.021 0.067-0.040 0.103-0.055s0.075-0.028 0.114-0.036h0c0.042-0.009 0.085-0.013 0.129-0.013h1.625v-1.375c0-0.044 0.004-0.087 0.013-0.13 0.008-0.039 0.020-0.077 0.036-0.114s0.034-0.071 0.056-0.103c0.023-0.034 0.049-0.066 0.078-0.095s0.061-0.056 0.095-0.078c0.032-0.021 0.067-0.040 0.103-0.055s0.075-0.028 0.114-0.036c0.042-0.009 0.085-0.013 0.13-0.013h3.375v-1.625c0-0.044 0.004-0.087 0.013-0.13 0.008-0.039 0.020-0.077 0.036-0.114s0.034-0.071 0.056-0.103h0c0.023-0.034 0.049-0.066 0.078-0.095s0.061-0.056 0.095-0.078c0.032-0.021 0.067-0.040 0.103-0.055s0.075-0.028 0.114-0.036c0.042-0.009 0.085-0.013 0.13-0.013h1.5zM12.625 11.125h-1.25v1.25h1.25v-1.25zM13.375 12.375h1.25v-1.25h-1.25v1.25zM12.625 13.125h-1.25v1.25h1.25v-1.25zM13.375 14.375h1.25v-1.25h-1.25v1.25zM14.625 10.375v-1.5h-1.25v1.5h1.25zM15.375 14.375h1.5v-1.25h-1.5v1.25zM10.625 12.375v-1.25h-1.25v1.25h1.25zM8.625 13.125h-1.5v1.25h1.5v-1.25zM10.625 14.375v-1.25h-1.25v1.25h1.25z"></path>
</svg>
