<svg version="1.1" xmlns="http://www.w3.org/2000/svg" width="24" height="24" viewBox="0 0 24 24">
<path d="M10.775 3.050c0.17 0 0.329 0.025 0.477 0.076l0.074 0.028c0.169 0.069 0.325 0.173 0.466 0.312l0.398 0.391c0.013-0.001 0.026-0.002 0.039-0.002h7.25c0.105 0 0.209 0.011 0.309 0.033 0.087 0.019 0.172 0.046 0.255 0.081 0.062 0.026 0.122 0.057 0.179 0.091l0.056 0.035c0.081 0.053 0.156 0.115 0.225 0.184s0.131 0.145 0.184 0.225c0.049 0.074 0.091 0.152 0.126 0.236s0.062 0.168 0.081 0.255c0.022 0.101 0.033 0.204 0.033 0.309v0.664h0.071c0.2 0 0.386 0.035 0.557 0.106s0.327 0.177 0.469 0.319c0.142 0.142 0.248 0.298 0.319 0.469s0.106 0.356 0.106 0.557v12.081c0 0.2-0.035 0.386-0.106 0.557s-0.177 0.327-0.319 0.469-0.298 0.248-0.469 0.319c-0.171 0.071-0.356 0.106-0.557 0.106h-18c-0.2 0-0.386-0.035-0.557-0.106s-0.327-0.177-0.469-0.319c-0.142-0.142-0.248-0.298-0.319-0.469s-0.106-0.356-0.106-0.557v-15c0-0.2 0.035-0.386 0.106-0.557s0.177-0.327 0.319-0.469c0.124-0.124 0.259-0.221 0.405-0.29l0.063-0.028c0.171-0.071 0.356-0.106 0.557-0.106h7.775zM10.775 3.95h-7.775c-0.183 0-0.321 0.046-0.412 0.138s-0.138 0.229-0.138 0.412v15c0 0.183 0.046 0.321 0.138 0.412s0.229 0.138 0.412 0.138h18c0.183 0 0.321-0.046 0.412-0.138s0.138-0.229 0.138-0.412v-12.081c0-0.183-0.046-0.321-0.138-0.413s-0.229-0.138-0.412-0.138h-6.437c-0.198 0-0.381-0.035-0.551-0.104s-0.325-0.173-0.466-0.312l-2.387-2.346c-0.054-0.053-0.112-0.092-0.177-0.118s-0.134-0.039-0.209-0.039zM19.479 4.756h-6.375l1.074 1.056c0.043 0.042 0.089 0.076 0.139 0.101l0.038 0.017c0.064 0.026 0.134 0.039 0.209 0.039h5.465v-0.664c0-0.045-0.005-0.088-0.015-0.13-0.007-0.028-0.016-0.056-0.028-0.084-0.012-0.029-0.027-0.057-0.044-0.083-0.021-0.033-0.046-0.063-0.074-0.092s-0.059-0.053-0.092-0.074c-0.026-0.017-0.054-0.031-0.083-0.044-0.027-0.012-0.055-0.021-0.084-0.028-0.042-0.010-0.086-0.015-0.13-0.015z"></path>
<path id="oepkg-icon" d="M7.362 11.111l4.783-2.826c0.121-0.071 0.271-0.032 0.342 0.088 0.024 0.041 0.036 0.085 0.036 0.129 0 0.085-0.044 0.167-0.124 0.214l-4.783 2.826c-0.121 0.071-0.271 0.032-0.342-0.088-0.024-0.041-0.036-0.085-0.036-0.129 0-0.085 0.044-0.167 0.124-0.214zM14.276 9.322l1.537 1.537c0.074 0.074 0.111 0.17 0.111 0.265s-0.037 0.191-0.111 0.265c-0.149 0.148-0.382 0.148-0.53 0l-1.537-1.537c-0.074-0.074-0.111-0.17-0.111-0.265s0.037-0.191 0.111-0.265c0.148-0.149 0.382-0.149 0.53 0zM11.837 11.761l1.318 0.87v1.739l-1.318 0.87-1.318-0.87v-1.739l1.318-0.87zM16.885 11.931l1.537 1.537c0.074 0.074 0.111 0.17 0.111 0.265s-0.037 0.191-0.111 0.265c-0.148 0.148-0.382 0.148-0.53 0l-1.537-1.537c-0.074-0.074-0.111-0.17-0.111-0.265s0.037-0.191 0.111-0.265c0.148-0.148 0.382-0.148 0.53 0zM6.015 12.8l1.537 1.537c0.074 0.074 0.111 0.17 0.111 0.265s-0.037 0.191-0.111 0.265c-0.149 0.148-0.382 0.148-0.53 0l-1.537-1.537c-0.074-0.074-0.111-0.17-0.111-0.265s0.037-0.191 0.111-0.265c0.148-0.149 0.382-0.149 0.53 0zM8.406 15.191l1.537 1.537c0.074 0.074 0.111 0.17 0.111 0.265s-0.037 0.191-0.111 0.265c-0.149 0.148-0.382 0.148-0.53 0l-1.537-1.537c-0.074-0.074-0.111-0.17-0.111-0.265s0.037-0.191 0.111-0.265c0.148-0.149 0.382-0.149 0.53 0zM11.71 18.285l4.783-2.826c0.12-0.071 0.271-0.032 0.342 0.088 0.024 0.041 0.036 0.085 0.036 0.129 0 0.085-0.044 0.167-0.124 0.214l-4.783 2.826c-0.121 0.071-0.271 0.032-0.342-0.088-0.024-0.041-0.036-0.085-0.036-0.129 0-0.085 0.044-0.167 0.124-0.214z"></path>
</svg>
