<svg version="1.1" xmlns="http://www.w3.org/2000/svg" width="24" height="24" viewBox="0 0 24 24">
<path id="rpm-icon" d="M8.235 16.25l-1.040-0.008-1.068-1.578h-0.672v1.585h-0.87v-4.392h1.52q0.515 0 0.905 0.175 0.315 0.14 0.513 0.378v0q0.048 0.055 0.085 0.117 0.060 0.090 0.102 0.188 0.11 0.247 0.11 0.545 0 0.315-0.123 0.573-0.040 0.087-0.095 0.168-0.040 0.060-0.087 0.112-0.2 0.235-0.517 0.372l1.237 1.765zM10.207 11.857q0.522 0 0.912 0.18 0.308 0.14 0.502 0.375 0.055 0.063 0.1 0.132 0.033 0.053 0.063 0.108 0.15 0.29 0.15 0.657 0 0.345-0.138 0.625v0q-0.033 0.067-0.075 0.132-0.045 0.068-0.098 0.13-0.198 0.232-0.505 0.375-0.39 0.177-0.912 0.177h-0.642v1.5h-0.87v-4.392h1.512zM16.863 11.857h-0.66l-1.495 2.272-1.5-2.272h-0.69v4.392h0.822v-2.845l1.12 1.673h0.457l1.117-1.66v2.832h0.828v-4.392zM5.455 12.595v1.332h0.548q0.382 0 0.637-0.165 0.1-0.065 0.16-0.155 0.095-0.14 0.095-0.348 0-0.218-0.102-0.363-0.057-0.082-0.15-0.14-0.25-0.162-0.64-0.162h-0.548zM10.113 14.010q0.408 0 0.652-0.175 0.082-0.060 0.138-0.138 0.108-0.158 0.108-0.387t-0.105-0.387q-0.055-0.082-0.14-0.145-0.245-0.183-0.652-0.183h-0.548v1.415h0.548z"></path>
<path d="M4.704 9.807c0.030 0.006 0.061 0.010 0.092 0.010l12.834 0.109c0.364 0.003 0.545 0.186 0.545 0.55v7.134c0 0.076-0.014 0.147-0.041 0.212s-0.068 0.125-0.122 0.178c-0.108 0.108-0.239 0.161-0.392 0.16l-13.75-0.102c-0.182-0.001-0.318-0.048-0.409-0.139s-0.136-2.887-0.136-0.411v-7.976c0.080 0.049 0.163 0.092 0.25 0.128 0.107 0.045 0.217 0.080 0.329 0.104 0.131 0.028-1.171-3.226 0.402 0.043h0.398zM4.675 6.95v1.957h-0.369c-0.076 0-0.151-0.008-0.223-0.025-0.054-0.013-0.106-0.030-0.158-0.051-0.117-0.049-0.221-0.119-0.311-0.209-0.050-0.050-0.094-0.104-0.131-0.162-0.030-0.047-0.056-0.096-0.078-0.148q-0.033-0.077-0.051-0.157c-0.017-0.072-0.025-0.147-0.025-0.223 0-0.077 0.009-0.153 0.026-0.227 0.012-0.053 0.029-0.105 0.051-0.155 0.023-0.054 0.050-0.106 0.082-0.155 0.037-0.056 0.079-0.109 0.128-0.157 0.050-0.050 0.103-0.093 0.161-0.131 0.047-0.031 0.097-0.057 0.15-0.079 0.050-0.021 0.102-0.038 0.155-0.051q0.11-0.026 0.226-0.026h0.369zM4.675 6.050h-0.369q-0.208 0-0.406 0.044v0q-0.167 0.037-0.326 0.105c-0.107 0.045-0.207 0.099-0.302 0.162-0.105 0.070-0.204 0.15-0.295 0.241-0.090 0.090-0.169 0.187-0.238 0.291-0.064 0.096-0.118 0.199-0.164 0.307-0.045 0.107-0.080 0.216-0.104 0.327-0.029 0.132-0.043 0.267-0.043 0.405 0 0.007 0 0.013 0 0.020-0.002 0.016-0.003 0.033-0.003 0.049v9.507c0 0.199 0.035 0.384 0.105 0.554q0.105 0.255 0.316 0.467c0.281 0.283 0.62 0.426 1.018 0.428l0.811 0.006v1.587c0 0.193 0.034 0.373 0.103 0.537s0.171 0.316 0.308 0.453c0.137 0.137 0.288 0.239 0.453 0.308s0.344 0.102 0.537 0.102h14.049c0.401 0 0.743-0.142 1.026-0.425s0.424-0.625 0.424-1.026l-0.003-2.749c-0-0.252-0.198-0.45-0.45-0.449s-0.45 0.198-0.45 0.45l0.003 2.749c0 0.367-0.183 0.551-0.55 0.551h-14.049c-0.333 0-0.5-0.167-0.5-0.5v-1.58l12.039 0.089q0.302 0.002 0.56-0.103t0.472-0.318c0.286-0.284 0.429-0.627 0.429-1.029v-7.134q0-0.298-0.105-0.554t-0.315-0.467c-0.28-0.283-0.619-0.426-1.017-0.429l-12.062-0.102v-5.474q0-0.104 0.037-0.192v0c0.024-0.059 0.061-0.113 0.11-0.162q0.073-0.073 0.162-0.11c0.059-0.024 0.123-0.037 0.192-0.037h9.85v3.35c0 0.102 0.011 0.201 0.032 0.298 0.018 0.084 0.044 0.166 0.078 0.247s0.075 0.156 0.122 0.228c0.051 0.078 0.111 0.15 0.178 0.217s0.14 0.126 0.217 0.178c0.071 0.047 0.147 0.088 0.228 0.122 0.174 0.073 0.355 0.11 0.545 0.11h3.35l-0.003 8.040c-0 0.252 0.198 0.45 0.45 0.45s0.45-0.198 0.45-0.45l0.003-8.48c0-0.003 0-0.007 0-0.010s-0-0.006-0-0.010l0-0.233c0-0.129-0.047-0.238-0.14-0.326l-4.721-4.48c-0.042-0.048-0.095-0.087-0.155-0.113-0.056-0.025-0.118-0.038-0.184-0.038h-10.3q-0.29 0-0.537 0.103c-0.165 0.068-0.316 0.171-0.453 0.308s-0.239 0.287-0.308 0.452q-0.102 0.248-0.102 0.537v2.6zM16.825 3.547l3.427 3.253h-2.927c-0.041 0-0.081-0.005-0.119-0.014-0.026-0.006-0.051-0.015-0.075-0.025-0.060-0.025-0.113-0.061-0.159-0.107s-0.082-0.099-0.107-0.159c-0.010-0.025-0.019-0.050-0.025-0.075-0.009-0.039-0.014-0.078-0.014-0.119v-2.753z"></path>
</svg>
