<svg id="icon-1" viewBox="0 0 32 32">
    <path fill="currentColor"
        d="M27.513 15.275c0.364 0.364 0.364 0.955 0 1.32l-4 4c-0.364 0.364-0.955 0.364-1.32 0s-0.364-0.955 0-1.32l3.341-3.34-3.341-3.34c-0.328-0.328-0.361-0.84-0.098-1.204l0.098-0.116c0.364-0.364 0.955-0.364 1.32 0l4 4zM4.966 25.107c-0.515 0-0.933 0.418-0.933 0.933s0.418 0.933 0.933 0.933h22.074c0.515 0 0.933-0.418 0.933-0.933s-0.418-0.933-0.933-0.933h-22.074zM4.966 18.44c-0.515 0-0.933 0.418-0.933 0.933s0.418 0.933 0.933 0.933h11.407c0.515 0 0.933-0.418 0.933-0.933s-0.418-0.933-0.933-0.933h-11.407zM4.966 11.774c-0.515 0-0.933 0.418-0.933 0.933s0.418 0.933 0.933 0.933h11.407c0.515 0 0.933-0.418 0.933-0.933s-0.418-0.933-0.933-0.933h-11.407zM4.966 5.107c-0.515 0-0.933 0.418-0.933 0.933s0.418 0.933 0.933 0.933h22.074c0.515 0 0.933-0.418 0.933-0.933s-0.418-0.933-0.933-0.933h-22.074z">
    </path>
</svg>