<!-- Generated by IcoMoon.io -->
<svg version="1.1" xmlns="http://www.w3.org/2000/svg" width="32" height="32" viewBox="0 0 32 32">
<path fill="currentColor" d="M17.796 3.75v24.5c0 0.966-0.797 1.75-1.78 1.75h-1.050c-0.467-0.002-0.914-0.184-1.246-0.508l-6.816-6.703c-1-0.985-2.357-1.539-3.773-1.54v0c-1.73 0-3.132-1.379-3.132-3.080v-4.34c0-1.701 1.402-3.080 3.132-3.080 1.415-0.001 2.773-0.555 3.773-1.54l6.816-6.702c0.331-0.323 0.779-0.506 1.246-0.507h1.050c0.983 0 1.78 0.784 1.78 1.75zM28.474 6.777c-0.171-0.17-0.398-0.276-0.641-0.298-0.247-0.006-0.486 0.089-0.658 0.263l-1.264 1.242c-0.317 0.336-0.317 0.854 0 1.19 3.418 3.929 3.418 9.721 0 13.65-0.317 0.336-0.317 0.854 0 1.19l1.264 1.242c0.173 0.174 0.411 0.269 0.658 0.262 0.243-0.019 0.471-0.125 0.641-0.297 4.701-5.279 4.701-13.166 0-18.445zM22.851 11.45c-0.258-0.010-0.509 0.085-0.694 0.262l-1.264 1.26c-0.303 0.291-0.356 0.753-0.125 1.103 0.782 1.168 0.782 2.682 0 3.85-0.231 0.35-0.179 0.811 0.125 1.102l1.264 1.26c0.187 0.173 0.438 0.261 0.694 0.245 0.257-0.016 0.496-0.136 0.658-0.332 1.898-2.489 1.898-5.911 0-8.4-0.166-0.195-0.402-0.32-0.658-0.35z"></path>
</svg>
