<!-- Generated by IcoMoon.io -->
<svg version="1.1" xmlns="http://www.w3.org/2000/svg" width="36" height="32" viewBox="0 0 36 32">
<path fill="currentColor" d="M7.935 3.512c0.687 0 1.244 0.557 1.244 1.244 0 0.63-0.468 1.151-1.076 1.233l-0.169 0.011h-3.541c-0.107 0-0.198 0.070-0.23 0.166l-0.012 0.077v3.299h27.252l0.001-3.3c0-0.107-0.070-0.198-0.166-0.23l-0.077-0.012h-3.653c-0.687 0-1.244-0.557-1.244-1.244 0-0.63 0.468-1.151 1.076-1.233l0.169-0.011h3.653c1.425 0 2.595 1.091 2.72 2.483l0.011 0.249v21.972c0 1.425-1.091 2.595-2.483 2.72l-0.249 0.011h-26.767c-1.425 0-2.595-1.091-2.72-2.483l-0.011-0.249v-21.972c0-1.425 1.091-2.595 2.483-2.72l0.249-0.011h3.541zM31.403 12.032h-27.252v16.183c0 0.107 0.070 0.198 0.166 0.23l0.077 0.012h26.767c0.107 0 0.198-0.070 0.23-0.166l0.012-0.077-0.001-16.183zM25.213 22.1c0.687 0 1.244 0.557 1.244 1.244 0 0.63-0.468 1.151-1.076 1.233l-0.169 0.011h-14.871c-0.687 0-1.244-0.557-1.244-1.244 0-0.63 0.468-1.151 1.076-1.233l0.169-0.011h14.871zM25.213 16.152c0.687 0 1.244 0.557 1.244 1.244 0 0.63-0.468 1.151-1.076 1.233l-0.169 0.011h-14.871c-0.687 0-1.244-0.557-1.244-1.244 0-0.63 0.468-1.151 1.076-1.233l0.169-0.011h14.871zM23.975 1.098c0.63 0 1.151 0.468 1.233 1.076l0.011 0.169v4.985c0 0.687-0.557 1.244-1.244 1.244-0.63 0-1.151-0.468-1.233-1.076l-0.011-0.169v-4.985c0-0.687 0.557-1.244 1.244-1.244zM11.642 1.053c0.63 0 1.151 0.468 1.233 1.076l0.011 0.169v4.985c0 0.687-0.557 1.244-1.244 1.244-0.63 0-1.151-0.468-1.233-1.076l-0.011-0.169v-4.985c0-0.687 0.557-1.244 1.244-1.244zM20.435 3.512c0.687 0 1.244 0.557 1.244 1.244 0 0.63-0.468 1.151-1.076 1.233l-0.169 0.011h-5.271c-0.687 0-1.244-0.557-1.244-1.244 0-0.63 0.468-1.151 1.076-1.233l0.169-0.011h5.271z"></path>
</svg>
