<?xml version="1.0" encoding="UTF-8"?>
<svg width="32px" height="32px" viewBox="0 0 32 32" version="1.1" xmlns="http://www.w3.org/2000/svg" xmlns:xlink="http://www.w3.org/1999/xlink">
    <g id="页面-1" stroke="none" stroke-width="1" fill="none" fill-rule="evenodd">
        <g id="点赞后" fill="#002FA7" fill-rule="nonzero">
            <g id="点赞-(1)" transform="translate(1.000000, 0.000000)">
                <path d="M19.2992016,12.0891217 C19.9211577,9.31067863 20.355489,7.30109779 20.602994,6.05638724 C21.2257485,2.92265468 19.6085828,0.0124750374 16.4033932,0.0124750374 C13.5131737,0.0124750374 12.0616766,1.4488024 11.2057884,4.31986029 L11.1838323,4.40369263 C10.6700599,6.72624753 9.88443114,8.52664671 8.84451097,9.81487025 C7.74921785,11.1751197 6.10944695,11.9826612 4.36347305,12.0216567 L3.54351299,12.0392216 C1.58822354,12.0811377 0.0249501123,13.6907186 0.0249501123,15.6623753 L0.0249501123,27.5573852 C0.0249501123,29.9825349 1.97504993,31.9486028 4.38103791,31.9486028 L19.8197605,31.9486028 C22.991018,31.9486028 25.8217565,29.9438124 26.8976048,26.9366268 L30.1047904,17.9701597 C30.9207585,15.6887226 29.7479042,13.1721557 27.4848304,12.3494012 C27.011147,12.1771843 26.5110044,12.0890986 26.006986,12.0891217 L19.2992016,12.0891217 Z" id="路径"></path>
            </g>
        </g>
    </g>
</svg>