<svg id="icon-wechat" viewBox="0 0 39 32">
    <path fill="#51b233" style="fill: var(--color1, #51b233)"
        d="M25.721 9.278c0.437 0 0.868 0.032 1.295 0.078-1.163-5.361-6.956-9.345-13.568-9.345-7.392 0-13.448 4.986-13.448 11.318 0 3.654 2.015 6.655 5.381 8.983l-1.345 4.004 4.701-2.333c1.683 0.329 3.032 0.668 4.711 0.668 0.422 0 0.839-0.021 1.255-0.053-0.263-0.889-0.416-1.821-0.416-2.788 0-5.813 5.045-10.532 11.433-10.532zM18.492 5.669c1.013 0 1.683 0.66 1.683 1.661 0 0.997-0.67 1.666-1.683 1.666-1.009 0-2.019-0.668-2.019-1.666 0-1.001 1.011-1.661 2.019-1.661zM9.080 8.996c-1.009 0-2.026-0.668-2.026-1.666 0-1.001 1.017-1.661 2.026-1.661 1.008 0 1.679 0.66 1.679 1.661 0 0.997-0.671 1.666-1.679 1.666zM37.996 19.649c0-5.32-5.38-9.657-11.423-9.657-6.398 0-11.437 4.337-11.437 9.657 0 5.328 5.039 9.656 11.437 9.656 1.339 0 2.69-0.332 4.034-0.666l3.689 1.999-1.012-3.325c2.7-2.005 4.711-4.662 4.711-7.663zM22.864 17.984c-0.669 0-1.345-0.659-1.345-1.331 0-0.663 0.676-1.33 1.345-1.33 1.017 0 1.683 0.667 1.683 1.33 0 0.672-0.666 1.331-1.683 1.331zM30.261 17.984c-0.664 0-1.335-0.659-1.335-1.331 0-0.663 0.671-1.33 1.335-1.33 1.009 0 1.683 0.667 1.683 1.33 0 0.672-0.674 1.331-1.683 1.331z">
    </path>
</svg>