<svg width="32px" height="32px" viewBox="0 0 32 32">
<g fill="currentColor">
    <path d="M20.2742515,12.0766467 C20.8962076,9.29820359 21.3305389,7.28862275 21.5780439,6.0439122 C22.2007984,2.91017964 20.5836327,1.42108547e-14 17.3784431,1.42108547e-14 C14.4882235,1.42108547e-14 13.0367265,1.43632736 12.1808383,4.30738525 L12.1588822,4.39121759 C11.6451098,6.71377249 10.859481,8.51417167 9.81956085,9.80239521 C8.72426774,11.1626446 7.08449684,11.9701862 5.33852294,12.0091817 L4.51856287,12.0267465 C2.56327343,12.0686627 1,13.6782435 1,15.6499002 L1,27.5449102 C1,29.9700599 2.95009981,31.9361278 5.3560878,31.9361278 L20.7948104,31.9361278 C23.9660679,31.9361278 26.7968064,29.9313374 27.8726547,26.9241517 L31.0798403,17.9576847 C31.8958084,15.6762475 30.7229541,13.1596807 28.4598802,12.3369262 C27.9861969,12.1647092 27.4860543,12.0766236 26.9820359,12.0766467 L20.2742515,12.0766467 Z M17.3768463,2.39520958 C18.8459082,2.39520958 19.6035928,3.76047904 19.2439122,5.57365269 C18.960479,7.0011976 18.4211577,9.48183634 17.6263473,13.0087824 C17.457485,13.7580838 18.0215569,14.4718563 18.7832335,14.4718563 L26.9668662,14.4718563 C27.1952095,14.4718563 27.4219561,14.5117765 27.6371257,14.5904192 C28.6642714,14.9640719 29.1968064,16.1081836 28.8263473,17.1453094 L25.6239521,26.1113772 C24.8890219,28.1696607 22.9548902,29.5409182 20.788024,29.5409182 L5.37245509,29.5409182 C4.28023952,29.5409182 3.39520958,28.6471058 3.39520958,27.5449102 L3.39520958,15.6499002 C3.39520958,14.9812375 3.9245509,14.435529 4.58642713,14.4215569 L5.40479042,14.403992 C7.8465274,14.3489112 10.1392328,13.2180458 11.6690619,11.3141717 C12.954491,9.71976048 13.8826347,7.59760479 14.4710579,4.95648705 C15.0506986,3.03153694 15.7037924,2.39520958 17.3772455,2.39520958 L17.3768463,2.39520958 Z"></path>
</g>
</svg>