<!-- Generated by IcoMoon.io -->
<svg version="1.1" xmlns="http://www.w3.org/2000/svg" width="32" height="32" viewBox="0 0 32 32">
<path fill="currentColor" d="M28.444 22.603l0.1 0.155 2.387 4.389c0.797 1.466 0.255 3.301-1.211 4.099-0.354 0.193-0.743 0.312-1.143 0.352l-0.301 0.015h-24.541c-1.669 0-3.022-1.353-3.022-3.022 0-0.404 0.081-0.802 0.236-1.172l0.131-0.272 2.387-4.389c0.328-0.604 1.084-0.827 1.688-0.499 0.549 0.299 0.783 0.95 0.575 1.52l-0.076 0.168-2.387 4.389c-0.043 0.078-0.065 0.166-0.065 0.255 0 0.252 0.175 0.464 0.411 0.519l0.122 0.014h24.541c0.089 0 0.177-0.022 0.255-0.065 0.222-0.121 0.324-0.376 0.26-0.609l-0.046-0.114-2.387-4.389c-0.328-0.604-0.105-1.359 0.499-1.688 0.549-0.299 1.223-0.141 1.588 0.344zM16.005 0.483c5.936 0 10.751 4.783 10.751 10.688 0 1.88-1.285 4.653-2.991 7.331l-0.524 0.799-0.544 0.788c-0.184 0.26-0.37 0.517-0.559 0.77l-0.568 0.747c-0.095 0.122-0.191 0.243-0.286 0.363l-0.573 0.7c-0.286 0.341-0.571 0.668-0.852 0.976l-0.555 0.593-0.539 0.54c-1.147 1.108-2.144 1.799-2.753 1.803-0.703 0.004-1.923-0.912-3.296-2.329l-0.556-0.593c-0.281-0.309-0.567-0.635-0.853-0.976l-0.574-0.7c-0.287-0.359-0.573-0.73-0.856-1.11l-0.559-0.771-0.544-0.789c-0.446-0.663-0.871-1.338-1.262-2.010l-0.451-0.804c-1.083-2.001-1.807-3.916-1.807-5.328 0-5.905 4.815-10.688 10.751-10.688zM16.005 2.972c-4.565 0-8.263 3.673-8.263 8.199 0 1.947 1.605 4.994 4.185 8.27 1.028 1.306 2.148 2.561 3.129 3.533 0.086 0.085 0.17 0.167 0.251 0.245l0.457 0.426 0.236 0.207 0.243-0.21 0.458-0.427 0.251-0.245c0.982-0.973 2.101-2.229 3.129-3.533 2.581-3.275 4.185-6.32 4.185-8.267 0-4.526-3.697-8.199-8.263-8.199zM16.005 7.047c2.334 0 4.236 1.858 4.236 4.163s-1.902 4.163-4.236 4.163c-2.334 0-4.236-1.858-4.236-4.163s1.902-4.163 4.236-4.163zM16.005 9.181c-1.167 0-2.102 0.914-2.102 2.030s0.936 2.030 2.102 2.030c1.167 0 2.102-0.914 2.102-2.030s-0.936-2.030-2.102-2.030z"></path>
</svg>
