<svg version="1.1" xmlns="http://www.w3.org/2000/svg" width="24" height="24" viewBox="0 0 24 24">
<path opacity="0.8" fill="currentColor" d="M9.174 11.184c0.174-0.18 0.456-0.186 0.636-0.012 0.168 0.162 0.18 0.426 0.036 0.606l-0.024 0.030-6.498 6.75c-0.174 0.18-0.462 0.186-0.636 0.012-0.174-0.162-0.186-0.426-0.042-0.606l0.024-0.030 6.504-6.75z"></path>
<path opacity="0.8" fill="currentColor" d="M14.82 11.184c-0.174-0.18-0.456-0.186-0.636-0.012-0.168 0.162-0.18 0.426-0.036 0.606l0.024 0.030 6.498 6.75c0.174 0.18 0.462 0.186 0.636 0.012 0.174-0.162 0.186-0.426 0.042-0.606l-0.024-0.030-6.504-6.75z"></path>
<path opacity="0.8" fill="currentColor" d="M2.658 5.196c0.162-0.174 0.42-0.198 0.606-0.060l0.036 0.024 8.31 7.416c0.198 0.174 0.486 0.186 0.696 0.030l0.036-0.030 8.358-7.398c0.186-0.162 0.468-0.144 0.636 0.042 0.156 0.174 0.144 0.438-0.012 0.606l-0.030 0.030-8.352 7.398c-0.534 0.468-1.332 0.48-1.878 0.036l-0.054-0.042-8.31-7.416c-0.186-0.162-0.204-0.45-0.042-0.636z"></path>
<path opacity="0.8" fill="currentColor" d="M20.748 4.8c0.78 0 1.416 0.618 1.446 1.392l0.006 0.054v7.092c0 0.246-0.204 0.45-0.45 0.45-0.24 0-0.432-0.186-0.45-0.414v-7.128c0-0.288-0.228-0.528-0.516-0.546h-17.538c-0.288 0-0.528 0.222-0.546 0.51v11.538c0 0.288 0.222 0.528 0.51 0.546l0.036 0.006h17.502c0.288 0 0.528-0.228 0.546-0.516l0.006-0.036v-1.842c0-0.246 0.198-0.45 0.45-0.45 0.234 0 0.426 0.186 0.444 0.414l0.006 0.036v1.842c0 0.78-0.624 1.416-1.398 1.446l-0.054 0.006h-17.502c-0.78 0-1.416-0.624-1.446-1.398v-11.556c0-0.78 0.618-1.416 1.392-1.446h17.556z"></path>
</svg>
