<svg version="1.1" xmlns="http://www.w3.org/2000/svg" width="24" height="24" viewBox="0 0 24 24">
<path fill="currentColor" d="M4.902 3.048c-0.732 0-1.326 0.576-1.356 1.302v3.024c0 0.252 0.204 0.45 0.45 0.45 0.234 0 0.432-0.18 0.45-0.414v-3.006c0-0.24 0.186-0.438 0.42-0.456h14.724c0.24 0 0.438 0.18 0.456 0.414v5.73c0 0.24-0.186 0.432-0.414 0.456h-14.73c-0.24 0-0.438-0.186-0.456-0.42v-1.008c0-0.246-0.198-0.45-0.45-0.45-0.234 0-0.432 0.186-0.45 0.414v1.008c0 0.732 0.576 1.326 1.302 1.356h14.742c0.732 0 1.326-0.576 1.356-1.302v-5.742c0-0.732-0.576-1.326-1.302-1.356h-14.742z"></path>
<path fill="currentColor" d="M10.362 10.764c0.126-0.21 0.402-0.282 0.618-0.15 0.198 0.12 0.27 0.372 0.168 0.582l-0.018 0.030-1.5 2.502c-0.126 0.216-0.402 0.282-0.618 0.156-0.198-0.12-0.27-0.378-0.168-0.582l0.018-0.036 1.5-2.502z"></path>
<path fill="currentColor" d="M13.884 10.764c-0.132-0.21-0.408-0.282-0.618-0.15-0.204 0.12-0.276 0.372-0.174 0.582l0.018 0.030 1.5 2.502c0.132 0.216 0.408 0.282 0.618 0.156 0.204-0.12 0.276-0.378 0.174-0.582l-0.018-0.036-1.5-2.502z"></path>
<path fill="currentColor" d="M20.259 17.050c0.398 0 0.749 0.261 0.864 0.642l0.632 2.095c0.144 0.477-0.125 0.981-0.603 1.125-0.084 0.025-0.172 0.038-0.26 0.038h-17.782c-0.498 0-0.902-0.404-0.902-0.902 0-0.088 0.013-0.176 0.039-0.261l0.632-2.095c0.115-0.381 0.466-0.642 0.864-0.642h16.519zM20.259 17.95l-16.521 0.002-0.632 2.095 0.001 0.002 0.001 0.001 17.784-0.003-0.632-2.095c0-0.001-0.001-0.002-0.002-0.002z"></path>
<path fill="currentColor" d="M7.542 14.796c0.486 0 0.876 0.378 0.906 0.858v1.842c0 0.252-0.204 0.45-0.45 0.45-0.24 0-0.432-0.18-0.45-0.414v-1.836h-1.602v1.8c0 0.252-0.198 0.45-0.45 0.45-0.234 0-0.432-0.18-0.45-0.414v-1.83c0-0.486 0.378-0.876 0.852-0.906h1.644z"></path>
<path fill="currentColor" d="M12.792 14.796c0.486 0 0.876 0.378 0.906 0.858v1.842c0 0.252-0.204 0.45-0.45 0.45-0.24 0-0.432-0.18-0.45-0.414v-1.836h-1.602v1.8c0 0.252-0.198 0.45-0.45 0.45-0.234 0-0.432-0.18-0.45-0.414v-1.83c0-0.486 0.378-0.876 0.852-0.906h1.644z"></path>
<path fill="currentColor" d="M18.042 14.796c0.486 0 0.876 0.378 0.906 0.858v1.842c0 0.252-0.204 0.45-0.45 0.45-0.24 0-0.432-0.18-0.45-0.414v-1.836h-1.602v1.8c0 0.252-0.198 0.45-0.45 0.45-0.234 0-0.432-0.18-0.45-0.414v-1.83c0-0.486 0.378-0.876 0.852-0.906h1.644z"></path>
<path fill="currentColor" opacity="0.8" d="M9.372 5.022c0.15-0.204 0.45-0.198 0.6 0l0.018 0.030 1.992 3.24 1.254-1.95c0.12-0.192 0.372-0.228 0.546-0.096l0.030 0.024 1.26 1.218 0.324-0.438c0.060-0.084 0.156-0.138 0.258-0.15h1.596c0.204 0 0.372 0.168 0.372 0.372 0 0.198-0.15 0.354-0.336 0.372l-0.036 0.006h-1.368l-0.462 0.63c-0.126 0.168-0.366 0.198-0.534 0.072l-0.024-0.024-1.242-1.2-1.326 2.070c-0.144 0.222-0.462 0.228-0.618 0.024l-0.018-0.030-2.016-3.282-1.044 1.386c-0.060 0.084-0.156 0.138-0.258 0.15h-1.59c-0.21 0-0.378-0.168-0.378-0.378 0-0.192 0.15-0.354 0.336-0.372h1.404l1.26-1.674z"></path>
</svg>
