<svg version="1.1" xmlns="http://www.w3.org/2000/svg" width="24" height="24" viewBox="0 0 24 24">
<path opacity="0.8" fill="currentColor" d="M11.85 16.83c0.066-0.030 0.126-0.066 0.186-0.108l3.006-2.238c0.066-0.054 0.132-0.114 0.186-0.18 0.042-0.060 0.084-0.12 0.114-0.186 0.036-0.066 0.060-0.138 0.078-0.204 0.018-0.078 0.024-0.156 0.024-0.24s-0.006-0.162-0.024-0.24c-0.018-0.066-0.042-0.138-0.078-0.204-0.030-0.066-0.072-0.126-0.114-0.186-0.054-0.066-0.12-0.126-0.186-0.18l-3.006-2.238c-0.060-0.042-0.12-0.078-0.186-0.108-0.024-0.012-0.048-0.024-0.078-0.036-0.042-0.012-0.090-0.024-0.132-0.036-0.048-0.012-0.096-0.018-0.138-0.018-0.096-0.006-0.186 0-0.276 0.018-0.084 0.018-0.168 0.048-0.246 0.084-0.048 0.024-0.090 0.048-0.126 0.078-0.036 0.024-0.066 0.048-0.096 0.072-0.042 0.036-0.078 0.072-0.108 0.114-0.024 0.030-0.048 0.060-0.066 0.096-0.054 0.078-0.096 0.162-0.12 0.252-0.030 0.096-0.042 0.192-0.042 0.294v4.476c0 0.102 0.012 0.198 0.042 0.294 0.024 0.090 0.066 0.174 0.12 0.252 0.048 0.078 0.108 0.15 0.174 0.21s0.138 0.108 0.222 0.144c0.078 0.042 0.162 0.072 0.246 0.090 0.090 0.018 0.18 0.024 0.276 0.018 0.090-0.006 0.186-0.024 0.27-0.060 0.030-0.006 0.054-0.018 0.078-0.030zM14.502 13.758l-3.006 2.244c-0.036 0.024-0.072 0.030-0.114 0.006-0.042-0.018-0.060-0.048-0.060-0.096v-4.476c0-0.024 0.006-0.042 0.012-0.060 0.012-0.018 0.030-0.030 0.048-0.042 0.042-0.018 0.078-0.012 0.114 0.012l3.006 2.238c0.030 0.024 0.042 0.054 0.042 0.090s-0.012 0.066-0.042 0.084z"></path>
<path opacity="0.8" fill="currentColor" d="M12.691 5.8l3.001-2.981c0.179-0.178 0.18-0.458 0.002-0.636s-0.458-0.18-0.636-0.002l-3.058 3.038-3.058-3.038c-0.179-0.178-0.459-0.177-0.636 0.002s-0.177 0.459 0.002 0.636l3.001 2.981h-7.308c-0.2 0-0.386 0.035-0.557 0.106v0c-0.171 0.071-0.328 0.177-0.469 0.319s-0.248 0.298-0.319 0.469v0c-0.071 0.171-0.106 0.356-0.106 0.557v13.647c0 0.2 0.035 0.386 0.106 0.557s0.177 0.327 0.319 0.469c0.141 0.142 0.298 0.248 0.469 0.318s0.356 0.106 0.557 0.106h16c0.2 0 0.386-0.035 0.557-0.106s0.328-0.177 0.469-0.318c0.142-0.142 0.248-0.298 0.319-0.469s0.106-0.356 0.106-0.557v-3c0-0.252-0.198-0.45-0.45-0.45s-0.45 0.198-0.45 0.45v3c0 0.152-0.054 0.281-0.161 0.389s-0.237 0.161-0.389 0.161h-16c-0.183 0-0.321-0.046-0.412-0.137s-0.138-0.229-0.138-0.413v-13.647c0-0.183 0.046-0.321 0.138-0.413s0.229-0.137 0.412-0.137h16c0.367 0 0.55 0.183 0.55 0.55v8.647c0 0.252 0.198 0.45 0.45 0.45s0.45-0.198 0.45-0.45v-8.647c0-0.2-0.035-0.386-0.106-0.557s-0.177-0.327-0.319-0.469c-0.141-0.142-0.298-0.248-0.469-0.319s-0.356-0.106-0.557-0.106h-7.308z"></path>
</svg>
