<svg version="1.1" xmlns="http://www.w3.org/2000/svg" width="24" height="24" viewBox="0 0 24 24">
<path opacity="0.8" fill="currentColor" d="M10.766 1.684c0.73-0.73 1.914-0.73 2.644 0 0.365 0.365 0.548 0.843 0.548 1.322v0.006c1.69 0.398 3.245 1.255 4.502 2.513 0.892 0.892 1.585 1.935 2.055 3.077 0.023 0.056 0.034 0.114 0.034 0.171 0 0.177-0.105 0.345-0.279 0.416-0.23 0.095-0.493-0.015-0.587-0.245-0.425-1.032-1.052-1.976-1.859-2.783-1.141-1.141-2.551-1.918-4.085-2.276-0.085 0.159-0.195 0.309-0.329 0.443-0.73 0.73-1.914 0.73-2.644 0-0.365-0.365-0.547-0.843-0.547-1.322s0.182-0.957 0.547-1.322zM12.773 3.692c0.189-0.189 0.284-0.437 0.284-0.685s-0.095-0.496-0.284-0.685c-0.379-0.379-0.992-0.379-1.371 0-0.189 0.189-0.284 0.437-0.284 0.685s0.095 0.496 0.284 0.685c0.378 0.379 0.992 0.379 1.371 0zM8.623 3.303c0.234-0.083 0.491 0.039 0.574 0.274 0.018 0.050 0.026 0.101 0.026 0.15 0 0.185-0.115 0.359-0.3 0.424-1.185 0.42-2.267 1.1-3.176 2.010-1.16 1.159-1.899 2.543-2.238 4.125 0.301 0.083 0.584 0.243 0.82 0.479 0.365 0.365 0.548 0.843 0.548 1.322s-0.183 0.957-0.548 1.322c-0.73 0.73-1.914 0.73-2.644 0-0.365-0.365-0.547-0.843-0.547-1.322s0.182-0.957 0.547-1.322c0.26-0.26 0.577-0.427 0.91-0.502 0.358-1.817 1.191-3.413 2.516-4.738 1.005-1.005 2.201-1.756 3.512-2.221zM3.097 11.122c-0.060 0.017-0.126 0.021-0.192 0.011-0.010-0.002-0.020-0.004-0.029-0.006-0.203 0.028-0.398 0.119-0.554 0.275-0.189 0.189-0.284 0.437-0.284 0.686s0.095 0.496 0.284 0.685c0.379 0.379 0.992 0.379 1.371 0 0.189-0.189 0.284-0.437 0.284-0.685s-0.095-0.496-0.284-0.685c-0.166-0.166-0.379-0.26-0.596-0.28zM8.375 10.125c0-1.381 1.119-2.5 2.5-2.5s2.5 1.119 2.5 2.5c0 1.381-1.119 2.5-2.5 2.5-0.030 0-0.062-0-0.092-0.002-0.011 0.001-0.022 0.001-0.033 0.001-1.726 0-3.125 1.399-3.125 3.125 0 0.207-0.168 0.375-0.375 0.375s-0.375-0.168-0.375-0.375c0-1.656 1.039-3.069 2.5-3.624-0.608-0.456-1-1.182-1-2.001zM12.625 10.125c0-0.966-0.783-1.75-1.75-1.75s-1.75 0.783-1.75 1.75c0 0.967 0.783 1.75 1.75 1.75s1.75-0.783 1.75-1.75zM19.544 10.463c0.73-0.73 1.914-0.73 2.644 0 0.365 0.365 0.548 0.843 0.548 1.322s-0.183 0.957-0.548 1.322c-0.301 0.301-0.68 0.478-1.072 0.531-0.302 1.969-1.215 3.797-2.655 5.237-0.948 0.948-2.067 1.671-3.293 2.141-0.232 0.089-0.492-0.027-0.581-0.259-0.020-0.053-0.030-0.107-0.030-0.161 0-0.181 0.11-0.352 0.289-0.42 1.109-0.424 2.12-1.078 2.978-1.937 1.294-1.294 2.118-2.932 2.396-4.699-0.246-0.091-0.478-0.235-0.676-0.433-0.365-0.365-0.547-0.843-0.547-1.322s0.182-0.957 0.547-1.322zM21.551 12.47c0.189-0.189 0.284-0.437 0.284-0.685s-0.095-0.496-0.284-0.685c-0.378-0.379-0.992-0.379-1.371 0-0.189 0.189-0.284 0.437-0.284 0.685s0.094 0.496 0.284 0.685c0.379 0.379 0.993 0.379 1.371 0zM12.056 12.48c-0.030 0.056-0.044 0.116-0.044 0.175 0 0.134 0.073 0.264 0.2 0.332 1.015 0.538 1.664 1.593 1.664 2.763 0 0.207 0.168 0.375 0.375 0.375s0.375-0.168 0.375-0.375c0-1.45-0.804-2.758-2.063-3.426-0.183-0.097-0.41-0.027-0.507 0.156zM3.24 15.030c0.232-0.090 0.492 0.025 0.582 0.257 0.425 1.097 1.074 2.099 1.925 2.95 1.207 1.207 2.638 2.001 4.191 2.337 0.059-0.378 0.234-0.741 0.525-1.032 0.73-0.73 1.914-0.73 2.644 0 0.365 0.365 0.548 0.843 0.548 1.322s-0.183 0.957-0.548 1.322c-0.73 0.73-1.914 0.73-2.644 0-0.197-0.198-0.342-0.429-0.432-0.676-1.834-0.335-3.52-1.237-4.92-2.637-0.94-0.94-1.659-2.048-2.129-3.261-0.021-0.053-0.030-0.108-0.030-0.162 0-0.18 0.11-0.351 0.288-0.42zM12.471 21.55c0.189-0.189 0.284-0.437 0.284-0.686s-0.095-0.496-0.284-0.685c-0.379-0.379-0.992-0.379-1.371 0-0.189 0.189-0.284 0.437-0.284 0.685s0.095 0.496 0.284 0.686c0.378 0.378 0.992 0.378 1.371 0z"></path>
<path opacity="0.8" fill="currentColor" d="M13.75 8.375c1.042 0 1.875 0.902 1.875 2 0 0.606-0.254 1.152-0.656 1.52 0.979 0.459 1.656 1.452 1.656 2.605 0 0.207-0.168 0.375-0.375 0.375s-0.375-0.168-0.375-0.375c0-1.174-0.952-2.125-2.125-2.125-0.013 0-0.026-0.001-0.038-0.002-0.189-0.019-0.337-0.179-0.337-0.373s0.149-0.355 0.339-0.373c0.012-0.001 0.024-0.002 0.036-0.002 0.614 0 1.125-0.553 1.125-1.25s-0.511-1.25-1.125-1.25c-0.207 0-0.375-0.168-0.375-0.375s0.168-0.375 0.375-0.375z"></path>
</svg>
