<!-- Generated by IcoMoon.io -->
<svg version="1.1" xmlns="http://www.w3.org/2000/svg" width="32" height="32" viewBox="0 0 32 32">
<path d="M8.618 6.634c0.515 0 0.933 0.418 0.933 0.933 0 0.472-0.351 0.863-0.807 0.925l-0.127 0.009h-2.656c-0.080 0-0.149 0.052-0.173 0.124l-0.009 0.058v2.475h20.439l0.001-2.475c0-0.080-0.052-0.149-0.124-0.173l-0.058-0.009h-2.74c-0.515 0-0.933-0.418-0.933-0.933 0-0.473 0.351-0.863 0.807-0.925l0.127-0.009h2.74c1.069 0 1.946 0.818 2.040 1.862l0.008 0.186v16.479c0 1.069-0.818 1.946-1.862 2.040l-0.186 0.008h-20.076c-1.069 0-1.946-0.818-2.040-1.862l-0.008-0.186v-16.479c0-1.069 0.818-1.946 1.862-2.040l0.186-0.008h2.656zM26.219 13.024h-20.439v12.138c0 0.080 0.052 0.149 0.124 0.173l0.058 0.009h20.076c0.080 0 0.149-0.052 0.173-0.124l0.009-0.058-0.001-12.138zM21.577 20.575c0.515 0 0.933 0.418 0.933 0.933 0 0.473-0.351 0.863-0.807 0.925l-0.127 0.009h-11.153c-0.515 0-0.933-0.418-0.933-0.933 0-0.473 0.351-0.863 0.807-0.925l0.127-0.009h11.153zM21.577 16.114c0.515 0 0.933 0.418 0.933 0.933 0 0.473-0.351 0.863-0.807 0.925l-0.127 0.009h-11.153c-0.515 0-0.933-0.418-0.933-0.933 0-0.473 0.351-0.863 0.807-0.925l0.127-0.009h11.153zM20.648 4.824c0.473 0 0.863 0.351 0.925 0.807l0.009 0.127v3.738c0 0.515-0.418 0.933-0.933 0.933-0.473 0-0.863-0.351-0.925-0.807l-0.009-0.127v-3.738c0-0.515 0.418-0.933 0.933-0.933zM11.398 4.79c0.473 0 0.863 0.351 0.925 0.807l0.009 0.127v3.738c0 0.515-0.418 0.933-0.933 0.933-0.473 0-0.863-0.351-0.925-0.807l-0.009-0.127v-3.738c0-0.515 0.418-0.933 0.933-0.933zM17.993 6.634c0.515 0 0.933 0.418 0.933 0.933 0 0.472-0.351 0.863-0.807 0.925l-0.127 0.009h-3.953c-0.515 0-0.933-0.418-0.933-0.933 0-0.473 0.351-0.863 0.807-0.925l0.127-0.009h3.953z"></path>
</svg>
