<?xml version="1.0" encoding="UTF-8"?>
<svg width="56px" height="56px" viewBox="0 0 56 56" version="1.1" xmlns="http://www.w3.org/2000/svg" xmlns:xlink="http://www.w3.org/1999/xlink">
    <title>icon活力</title>
    <g id="首页" stroke="none" stroke-width="1" fill="none" fill-rule="evenodd">
        <g id="首页1.4" transform="translate(-576.000000, -1808.000000)">
            <g id="编组-13" transform="translate(252.000000, 1778.000000)">
                <g id="icon活力" transform="translate(324.000000, 30.000000)">
                    <rect id="矩形" x="0" y="0" width="56" height="56"></rect>
                    <g id="星星" transform="translate(7.393520, 7.757511)">
                        <path d="M15.2327489,14.7360174 C15.2102505,14.7990128 15.163004,14.8462594 15.1000086,14.8687577 L1.15328149,20.032129 C0.957545843,20.1041237 0.957545843,20.3808534 1.15328149,20.4528482 L15.1000086,25.6139696 C15.163004,25.6387178 15.2102505,25.6859644 15.2327489,25.7489597 L20.3961202,39.6956869 C20.4681149,39.8914225 20.7448446,39.8914225 20.8168393,39.6956869 L25.9779608,25.7489597 C26.002709,25.6859644 26.0499555,25.6387178 26.1129509,25.6139696 L40.059678,20.4528482 C40.2554137,20.3808534 40.2554137,20.1041237 40.059678,20.032129 L26.1129509,14.8687577 C26.0499555,14.8462594 26.002709,14.7990128 25.9779608,14.7360174 L20.8168393,0.789290326 C20.7448446,0.593554682 20.4681149,0.593554682 20.3961202,0.789290326 L15.2327489,14.7360174 Z" id="星形-2" stroke="#5383FE" stroke-width="2.69980199" stroke-linejoin="round"></path>
                        <line x1="0" y1="5.09105518" x2="10.1821104" y2="5.09105518" id="矢量-148" stroke="#FFA816" stroke-width="2.89264499" stroke-linecap="round"></line>
                        <line x1="31.151376" y1="35.87844" x2="41.3334864" y2="35.87844" id="矢量-149" stroke="#FFA816" stroke-width="2.89264499" stroke-linecap="round"></line>
                        <line x1="5.2139926" y1="10.1821104" x2="5.2139926" y2="0" id="矢量-148" stroke="#FFA816" stroke-width="2.89264499" stroke-linecap="round"></line>
                        <line x1="36.3629581" y1="40.9694952" x2="36.3629581" y2="30.7873849" id="矢量-150" stroke="#FFA816" stroke-width="2.89264499" stroke-linecap="round"></line>
                    </g>
                </g>
            </g>
        </g>
    </g>
</svg>