<svg version="1.1" xmlns="http://www.w3.org/2000/svg" width="24" height="24" viewBox="0 0 24 24">
<path d="M18.5 2.050c0.782 0 1.42 0.619 1.449 1.394l0.001 0.055v5.26c0 0.248-0.202 0.45-0.45 0.45-0.236 0-0.43-0.182-0.448-0.413l-0.002-0.037v-5.26c0-0.29-0.225-0.529-0.511-0.549l-0.039-0.001h-14.111c-0.229 0-0.419 0.182-0.437 0.417l-0.001 0.037v17.096c0 0.29 0.225 0.529 0.511 0.549l0.039 0.001h4.256c0.248 0 0.45 0.202 0.45 0.45 0 0.236-0.181 0.43-0.413 0.448l-0.037 0.002h-4.256c-0.782 0-1.42-0.62-1.449-1.394l-0.001-0.056v-17.096c0-0.728 0.568-1.325 1.285-1.354l0.054-0.001h14.111z"></path>
<path d="M16.5 5.050h-10c-0.248 0-0.45 0.202-0.45 0.45v3c0 0.248 0.202 0.45 0.45 0.45h10c0.248 0 0.45-0.202 0.45-0.45v-3c0-0.248-0.202-0.45-0.45-0.45zM16.050 5.95v2.1h-9.1v-2.1h9.1z"></path>
<path d="M14.5 10.675c0.248 0 0.45 0.202 0.45 0.45 0 0.236-0.182 0.43-0.413 0.449l-0.037 0.002h-8c-0.248 0-0.45-0.202-0.45-0.45 0-0.236 0.182-0.43 0.413-0.449l0.037-0.002h8z"></path>
<path d="M11 13.425c0.248 0 0.45 0.202 0.45 0.45 0 0.236-0.182 0.43-0.413 0.448l-0.037 0.002h-4.5c-0.248 0-0.45-0.202-0.45-0.45 0-0.236 0.182-0.43 0.413-0.448l0.037-0.001h4.5z"></path>
<path d="M18.377 10.159c0.167-0.167 0.433-0.175 0.609-0.025l0.027 0.025 2.828 2.828c0.167 0.167 0.176 0.433 0.025 0.609l-0.025 0.027-1.462 1.462c-0.165 0.165-0.428 0.175-0.605 0.028l-0.027-0.025-2.549-2.48-4.812 4.812-0.662 2.947 2.847-0.748 4.093-4.093c0.167-0.167 0.433-0.176 0.609-0.025l0.027 0.025c0.167 0.167 0.176 0.433 0.025 0.609l-0.025 0.027-4.18 4.18c-0.045 0.045-0.099 0.080-0.158 0.103l-0.046 0.014-3.68 0.967c-0.313 0.082-0.604-0.183-0.56-0.496l0.007-0.037 0.852-3.796c0.016-0.069 0.047-0.134 0.092-0.188l0.029-0.032 6.718-6.718zM18.694 11.114l-0.859 0.859 2.222 2.162 0.829-0.829-2.192-2.192z"></path>
</svg>
