<svg version="1.1" xmlns="http://www.w3.org/2000/svg" width="24" height="24" viewBox="0 0 24 24">
<path d="M21 15.813c0.236 0 0.43 0.182 0.448 0.413l0.002 0.037v3.79c0 0.754-0.596 1.367-1.343 1.396l-0.055 0.001h-3.79c-0.248 0-0.45-0.202-0.45-0.45 0-0.236 0.182-0.43 0.413-0.448l0.037-0.002h3.79c0.263 0 0.477-0.203 0.496-0.46l0.002-0.037v-3.79c0-0.248 0.202-0.45 0.45-0.45zM3 15.813c0.236 0 0.43 0.182 0.449 0.413l0.001 0.037v3.79c0 0.262 0.203 0.477 0.461 0.496l0.037 0.001h3.79c0.248 0 0.45 0.202 0.45 0.45 0 0.236-0.181 0.43-0.413 0.448l-0.037 0.002h-3.79c-0.754 0-1.367-0.596-1.397-1.343l-0.001-0.055v-3.79c0-0.248 0.202-0.45 0.45-0.45zM15.79 17.471c0.248 0 0.45 0.202 0.45 0.45 0 0.236-0.181 0.43-0.413 0.449l-0.037 0.001h-7.579c-0.248 0-0.45-0.202-0.45-0.45 0-0.236 0.181-0.43 0.413-0.448l0.037-0.002h7.579zM12 5.55c1.906 0 3.45 1.544 3.45 3.45 0 1.049-0.472 2.020-1.262 2.668l-0.001 0.987h2.866c0.754 0 1.367 0.596 1.397 1.342l0.001 0.055v1.579c0 0.58-0.456 1.053-1.029 1.080l-0.053 0.002h-10.737c-0.58 0-1.053-0.456-1.080-1.029l-0.002-0.053v-1.579c0-0.754 0.596-1.367 1.343-1.396l0.055-0.001h2.866v-0.986c-0.791-0.648-1.263-1.619-1.263-2.668 0-1.905 1.544-3.45 3.45-3.45zM12 6.45c-1.409 0-2.55 1.142-2.55 2.55 0 0.841 0.409 1.613 1.085 2.087 0.155 0.11 0.22 0.3 0.178 0.474l0.001 1.528c0 0.005 0 0.011 0 0.016 0 0.17-0.095 0.318-0.234 0.394-0.005 0.002-0.008 0.004-0.013 0.006-0.012 0.007-0.025 0.013-0.038 0.017-0.002 0.001-0.005 0.001-0.007 0.002-0.012 0.005-0.025 0.009-0.037 0.013-0.008 0.001-0.014 0.004-0.022 0.005s-0.017 0.004-0.026 0.005-0.017 0.002-0.026 0.004c-0.003 0.001-0.006 0.001-0.010 0.001l-0.037 0.002h-3.316c-0.262 0-0.477 0.203-0.496 0.46l-0.002 0.037v1.579c0 0.092 0.068 0.168 0.157 0.18l0.025 0.001h10.737c0.092 0 0.168-0.068 0.18-0.157l0.002-0.025v-1.579c0-0.263-0.203-0.477-0.461-0.496l-0.037-0.002-3.374-0.004c-0.222-0.028-0.394-0.217-0.394-0.446l0.001-0.027v-1.552c0-0.023 0.001-0.044 0.005-0.066-0.006-0.146 0.060-0.293 0.188-0.383 0.667-0.476 1.070-1.242 1.070-2.077 0-1.409-1.141-2.55-2.55-2.55zM20.053 2.55c0.754 0 1.367 0.596 1.396 1.342l0.001 0.055v3.79c0 0.248-0.202 0.45-0.45 0.45-0.236 0-0.43-0.181-0.448-0.413l-0.002-0.037v-3.79c0-0.263-0.203-0.477-0.46-0.496l-0.037-0.001h-3.79c-0.248 0-0.45-0.202-0.45-0.45 0-0.236 0.182-0.43 0.413-0.449l0.037-0.001h3.79zM7.737 2.55c0.248 0 0.45 0.202 0.45 0.45 0 0.236-0.182 0.43-0.413 0.449l-0.037 0.001h-3.79c-0.262 0-0.477 0.203-0.496 0.461l-0.002 0.037v3.79c0 0.248-0.202 0.45-0.45 0.45-0.236 0-0.43-0.181-0.449-0.413l-0.002-0.037v-3.79c0-0.754 0.596-1.367 1.343-1.397l0.055-0.001h3.79z"></path>
</svg>
