<svg version="1.1" xmlns="http://www.w3.org/2000/svg" width="24" height="24" viewBox="0 0 24 24">
<path d="M12.072 20.17c-0.076 0.044-0.153 0.087-0.229 0.13l-0.229 0.124c-0.152 0.082-0.305 0.16-0.456 0.236l-0.226 0.11c-3.202 1.531-6.103 1.613-7.709 0.008-1.55-1.55-1.533-4.313-0.126-7.42l0.054-0.118 0.817 0.378c-1.319 2.85-1.352 5.28-0.109 6.523 1.417 1.418 4.366 1.163 7.652-0.688l0.113-0.064 0.448 0.781zM16.937 16.328l-0.15 0.154-0.152 0.153-0.637-0.637c0.098-0.097 0.194-0.197 0.29-0.295 4.317-4.472 5.951-9.748 3.854-11.846-2.15-2.15-7.621-0.376-12.14 4.144-0.962 0.962-1.818 1.985-2.543 3.032l-0.143 0.21-0.746-0.502c0.787-1.169 1.729-2.309 2.796-3.376 4.825-4.825 10.795-6.762 13.413-4.144 2.558 2.558 0.771 8.327-3.843 13.107z"></path>
<path d="M7.366 16.634c4.825 4.826 10.795 6.762 13.413 4.144 2.419-2.419 0.959-7.734-3.172-12.383-0.165-0.186-0.449-0.203-0.635-0.038s-0.203 0.449-0.038 0.635c3.855 4.338 5.184 9.174 3.209 11.149-2.15 2.15-7.621 0.376-12.14-4.144-0.175-0.176-0.46-0.176-0.637 0s-0.175 0.46 0 0.637zM3.162 10.787c0.105 0.225 0.373 0.323 0.598 0.218s0.323-0.373 0.218-0.598c-1.331-2.861-1.368-5.302-0.12-6.549 1.411-1.411 4.339-1.167 7.615 0.667 0.217 0.122 0.491 0.044 0.613-0.173s0.044-0.491-0.173-0.613c-0.155-0.086-0.308-0.17-0.461-0.25l-0.229-0.118c-0.115-0.058-0.229-0.113-0.343-0.167l-0.227-0.105c-0.038-0.017-0.076-0.034-0.113-0.051l-0.225-0.098c-0.225-0.095-0.448-0.184-0.668-0.264l-0.22-0.078c-2.592-0.895-4.857-0.737-6.206 0.612-1.574 1.574-1.531 4.4-0.059 7.565z"></path>
<path d="M16 15.625c-0.898 0-1.625 0.727-1.625 1.625s0.727 1.625 1.625 1.625c0.898 0 1.625-0.727 1.625-1.625s-0.727-1.625-1.625-1.625zM16 16.375c0.483 0 0.875 0.392 0.875 0.875s-0.392 0.875-0.875 0.875c-0.483 0-0.875-0.392-0.875-0.875s0.391-0.875 0.875-0.875z"></path>
<path d="M16.5 5.875c-0.898 0-1.625 0.728-1.625 1.625s0.727 1.625 1.625 1.625c0.898 0 1.625-0.728 1.625-1.625s-0.727-1.625-1.625-1.625zM16.5 6.625c0.483 0 0.875 0.391 0.875 0.875s-0.392 0.875-0.875 0.875c-0.483 0-0.875-0.391-0.875-0.875s0.392-0.875 0.875-0.875z"></path>
<path d="M4 10.375c-0.898 0-1.625 0.728-1.625 1.625s0.728 1.625 1.625 1.625c0.898 0 1.625-0.727 1.625-1.625s-0.728-1.625-1.625-1.625zM4 11.125c0.483 0 0.875 0.391 0.875 0.875s-0.392 0.875-0.875 0.875c-0.483 0-0.875-0.391-0.875-0.875s0.392-0.875 0.875-0.875z"></path>
<path d="M10.96 9.5h-0.919c-0.437 0-0.791 0.354-0.791 0.79v0.919c0 0.437 0.354 0.79 0.791 0.79h0.919c0.437 0 0.79-0.354 0.79-0.79v-0.919c0-0.436-0.354-0.79-0.79-0.79zM10.040 10h0.919c0.161 0 0.29 0.13 0.29 0.29v0.919c0 0.161-0.13 0.29-0.29 0.29h-0.919c-0.161 0-0.29-0.13-0.29-0.29v-0.919c0-0.161 0.13-0.29 0.29-0.29z"></path>
<path d="M13.96 12.25h-0.919c-0.437 0-0.79 0.354-0.79 0.79v0.919c0 0.436 0.354 0.79 0.79 0.79h0.919c0.437 0 0.79-0.354 0.79-0.79v-0.919c0-0.436-0.354-0.79-0.79-0.79zM13.040 12.75h0.919c0.16 0 0.29 0.13 0.29 0.29v0.919c0 0.16-0.13 0.29-0.29 0.29h-0.919c-0.16 0-0.29-0.13-0.29-0.29v-0.919c0-0.16 0.13-0.29 0.29-0.29z"></path>
<path d="M12.941 9.955l-0.361 0.361c-0.309 0.309-0.309 0.809 0 1.118l0.361 0.361c0.309 0.309 0.809 0.309 1.118 0l0.361-0.361c0.309-0.309 0.309-0.809 0-1.118l-0.361-0.361c-0.309-0.309-0.809-0.309-1.118 0zM13.706 10.309l0.361 0.361c0.113 0.113 0.113 0.298 0 0.411l-0.361 0.361c-0.113 0.113-0.298 0.113-0.411 0l-0.361-0.361c-0.113-0.113-0.113-0.298 0-0.411l0.361-0.361c0.113-0.113 0.298-0.113 0.411 0z"></path>
<path d="M10.96 12.25h-0.919c-0.437 0-0.791 0.354-0.791 0.79v0.919c0 0.436 0.354 0.79 0.791 0.79h0.919c0.437 0 0.79-0.354 0.79-0.79v-0.919c0-0.436-0.354-0.79-0.79-0.79zM10.040 12.75h0.919c0.161 0 0.29 0.13 0.29 0.29v0.919c0 0.16-0.13 0.29-0.29 0.29h-0.919c-0.161 0-0.29-0.13-0.29-0.29v-0.919c0-0.16 0.13-0.29 0.29-0.29z"></path>
</svg>
