<svg version="1.1" xmlns="http://www.w3.org/2000/svg" width="24" height="24" viewBox="0 0 24 24">
<path d="M20 2.55c0.782 0 1.42 0.62 1.449 1.394l0.001 0.055v10.012c0 0.248-0.202 0.45-0.45 0.45-0.236 0-0.43-0.182-0.448-0.413l-0.002-0.037v-10.012c0-0.29-0.225-0.529-0.511-0.549l-0.039-0.001h-16c-0.29 0-0.529 0.225-0.549 0.511l-0.001 0.039v16c0 0.29 0.225 0.529 0.511 0.549l0.039 0.002h16c0.29 0 0.529-0.225 0.549-0.511l0.001-0.039v-3.781c0-0.248 0.202-0.45 0.45-0.45 0.236 0 0.43 0.181 0.448 0.413l0.002 0.037v3.781c0 0.782-0.62 1.42-1.394 1.449l-0.056 0.001h-16c-0.782 0-1.42-0.62-1.449-1.394l-0.001-0.056v-16c0-0.782 0.619-1.42 1.394-1.449l0.055-0.001h16z"></path>
<path d="M2.682 4.903c0.167-0.166 0.43-0.175 0.606-0.027l0.030 0.028 10 10.029c0.176 0.176 0.175 0.461-0.001 0.637-0.167 0.166-0.43 0.175-0.606 0.027l-0.030-0.028-10-10.029c-0.175-0.176-0.175-0.461 0.001-0.637z"></path>
<path d="M15.048 17.191c0.161-0.17 0.425-0.187 0.605-0.044l0.031 0.027 3.472 3.287c0.181 0.171 0.188 0.456 0.017 0.636-0.161 0.17-0.424 0.187-0.605 0.044l-0.031-0.027-3.473-3.287c-0.181-0.171-0.188-0.456-0.017-0.636z"></path>
<path d="M12.815 17.174c0.18-0.171 0.465-0.164 0.636 0.016 0.162 0.17 0.164 0.434 0.012 0.607l-0.029 0.029-3.46 3.287c-0.18 0.171-0.465 0.163-0.636-0.017-0.162-0.17-0.164-0.433-0.012-0.607l0.028-0.029 3.461-3.287z"></path>
<path d="M18.54 2.671c0.181-0.17 0.466-0.16 0.636 0.021 0.16 0.171 0.161 0.435 0.008 0.607l-0.028 0.029-3.473 3.25c-0.182 0.17-0.466 0.161-0.636-0.021-0.16-0.172-0.161-0.435-0.008-0.607l0.028-0.029 3.473-3.25z"></path>
<path d="M12.688 8.176c0.179-0.173 0.464-0.167 0.636 0.013 0.163 0.17 0.167 0.433 0.016 0.607l-0.028 0.030-3.335 3.207c-0.179 0.173-0.464 0.167-0.636-0.013-0.163-0.17-0.166-0.433-0.016-0.607l0.029-0.030 3.335-3.207z"></path>
<path d="M10.395 3.745c0.159-0.173 0.421-0.194 0.605-0.054l0.031 0.026 2.398 2.2c0.183 0.168 0.196 0.453 0.028 0.636-0.159 0.173-0.422 0.193-0.605 0.054l-0.032-0.026-2.398-2.2c-0.183-0.168-0.196-0.453-0.028-0.636z"></path>
<path d="M15.145 8.245c0.159-0.173 0.421-0.194 0.604-0.054l0.032 0.026 2.399 2.2c0.183 0.168 0.196 0.453 0.028 0.636-0.159 0.173-0.421 0.194-0.604 0.054l-0.032-0.026-2.399-2.2c-0.183-0.168-0.196-0.453-0.028-0.636z"></path>
<path d="M14.875 14.8h-1.25c-0.525 0-0.95 0.425-0.95 0.95v1.25c0 0.525 0.425 0.95 0.95 0.95h1.25c0.525 0 0.95-0.425 0.95-0.95v-1.25c0-0.525-0.425-0.95-0.95-0.95zM13.625 15.7h1.25c0.028 0 0.050 0.023 0.050 0.050v1.25c0 0.028-0.023 0.050-0.050 0.050h-1.25c-0.028 0-0.050-0.023-0.050-0.050v-1.25c0-0.028 0.023-0.050 0.050-0.050z"></path>
<path d="M14.875 5.8h-1.25c-0.525 0-0.95 0.425-0.95 0.95v1.25c0 0.525 0.425 0.95 0.95 0.95h1.25c0.525 0 0.95-0.425 0.95-0.95v-1.25c0-0.525-0.425-0.95-0.95-0.95zM13.625 6.7h1.25c0.028 0 0.050 0.022 0.050 0.050v1.25c0 0.028-0.023 0.050-0.050 0.050h-1.25c-0.028 0-0.050-0.022-0.050-0.050v-1.25c0-0.028 0.023-0.050 0.050-0.050z"></path>
</svg>
