<svg version="1.1" xmlns="http://www.w3.org/2000/svg" width="24" height="24" viewBox="0 0 24 24">
<path d="M12.125 3.55c2.671 0 5.045 1.607 6.063 4.027 0.096 0.229-0.011 0.493-0.24 0.59s-0.493-0.011-0.59-0.24c-0.879-2.089-2.928-3.476-5.233-3.476-2.298 0-4.342 1.378-5.226 3.458l-0.019 0.035c-0.046 0.164-0.185 0.294-0.365 0.322l-0.050 0.008c-2.73 0.44-4.765 2.807-4.765 5.602 0 3.134 2.541 5.675 5.675 5.675 0.248 0 0.45 0.202 0.45 0.45s-0.202 0.45-0.45 0.45c-3.631 0-6.575-2.944-6.575-6.575 0-3.173 2.263-5.87 5.331-6.457l-0.060 0.139c1.023-2.409 3.392-4.006 6.054-4.006z"></path>
<path d="M17.722 19.784c0.443-0.459 1.175-0.472 1.634-0.029s0.472 1.175 0.029 1.634c-0.443 0.459-1.174 0.472-1.634 0.029s-0.472-1.174-0.029-1.634zM12.883 17.689c0.596 1.601 2.129 2.686 3.867 2.686 0.207 0 0.375 0.168 0.375 0.375s-0.168 0.375-0.375 0.375c-2.053 0-3.866-1.281-4.57-3.174-0.072-0.194 0.026-0.41 0.22-0.482s0.41 0.026 0.482 0.221zM18.834 20.295c-0.161-0.155-0.417-0.151-0.573 0.010s-0.151 0.417 0.010 0.573c0.161 0.155 0.417 0.151 0.573-0.010s0.151-0.417-0.010-0.573zM21.121 14.088c0.33 0.667 0.504 1.402 0.504 2.162 0 1.246-0.47 2.419-1.3 3.314-0.141 0.152-0.378 0.16-0.53 0.020s-0.16-0.378-0.020-0.53c0.703-0.758 1.1-1.75 1.1-2.804 0-0.644-0.147-1.265-0.427-1.829-0.092-0.185-0.016-0.41 0.169-0.503s0.41-0.016 0.503 0.169zM11.221 15.104c0.443-0.459 1.175-0.472 1.634-0.029s0.472 1.174 0.029 1.634c-0.443 0.459-1.175 0.472-1.634 0.028s-0.472-1.174-0.029-1.633zM12.334 15.615c-0.161-0.155-0.417-0.151-0.573 0.010s-0.151 0.417 0.010 0.573c0.161 0.155 0.417 0.151 0.573-0.010s0.151-0.417-0.010-0.573zM16.75 11.375c0.462 0 0.916 0.065 1.353 0.191 0.199 0.057 0.314 0.265 0.256 0.464s-0.265 0.313-0.464 0.256c-0.369-0.106-0.753-0.161-1.145-0.161-1.486 0-2.835 0.793-3.568 2.055-0.104 0.179-0.334 0.24-0.513 0.136s-0.24-0.334-0.136-0.513c0.867-1.491 2.461-2.428 4.217-2.428zM20.526 11.915c0.459 0.443 0.472 1.174 0.028 1.634s-1.174 0.472-1.633 0.028c-0.459-0.443-0.472-1.175-0.029-1.633s1.174-0.472 1.634-0.029zM19.433 12.465c-0.155 0.161-0.151 0.417 0.010 0.573s0.417 0.151 0.573-0.010c0.155-0.161 0.151-0.417-0.010-0.573s-0.417-0.151-0.573 0.010z"></path>
</svg>
