<svg version="1.1" xmlns="http://www.w3.org/2000/svg" width="24" height="24" viewBox="0 0 24 24">
<path d="M20.573 11.55l0.055 0.001c0.784 0.029 1.411 0.673 1.411 1.465v6.45l-0.001 0.055c-0.029 0.784-0.674 1.411-1.465 1.411h-0.362l-0.97 0.809-0.034 0.025c-0.172 0.119-0.406 0.103-0.562-0.042l-0.849-0.793-7.121-0.001c-0.784-0.029-1.411-0.674-1.411-1.465v-3.967l0.002-0.037c0.019-0.231 0.212-0.413 0.449-0.413 0.248 0 0.45 0.202 0.45 0.45v3.967l0.002 0.039c0.020 0.294 0.265 0.527 0.564 0.527l7.285 0.002c0.098 0.009 0.191 0.051 0.265 0.119l0.689 0.642 0.79-0.659 0.032-0.024c0.075-0.052 0.165-0.080 0.257-0.080h0.526l0.039-0.001c0.294-0.020 0.527-0.265 0.527-0.564v-6.45l-0.001-0.039c-0.020-0.294-0.265-0.527-0.564-0.527h-1.007l-0.037-0.001c-0.231-0.019-0.413-0.212-0.413-0.448 0-0.248 0.202-0.45 0.45-0.45h1.007zM13.015 16.063c0.421 0 0.762 0.341 0.762 0.762s-0.341 0.762-0.762 0.762c-0.421 0-0.762-0.341-0.762-0.762s0.341-0.762 0.762-0.762zM15.961 16.063c0.421 0 0.762 0.341 0.762 0.762s-0.341 0.762-0.762 0.762c-0.421 0-0.762-0.341-0.762-0.762s0.341-0.762 0.762-0.762zM18.906 16.063c0.421 0 0.762 0.341 0.762 0.762s-0.341 0.762-0.762 0.762c-0.421 0-0.762-0.341-0.762-0.762s0.341-0.762 0.762-0.762zM17.076 2.155c0.809 0 1.465 0.656 1.465 1.466v9.394c0 0.809-0.656 1.466-1.465 1.466h-9.169l-1.189 1.11c-0.155 0.145-0.389 0.16-0.562 0.042l-0.034-0.025-1.351-1.127h-0.897c-0.791 0-1.435-0.627-1.465-1.411l-0.001-0.055v-9.395c0-0.809 0.656-1.465 1.466-1.465h13.201zM17.076 3.055h-13.201c-0.313 0-0.565 0.254-0.565 0.565v9.395c0 0.312 0.254 0.566 0.565 0.566h1.060c0.105 0 0.207 0.037 0.288 0.104l1.171 0.976 1.029-0.959c0.073-0.068 0.166-0.11 0.265-0.119l0.043-0.002h9.346c0.312 0 0.566-0.254 0.566-0.566v-9.395c0-0.313-0.254-0.565-0.566-0.565zM12.381 9.138c0.248 0 0.45 0.202 0.45 0.45 0 0.236-0.181 0.43-0.413 0.449l-0.037 0.002h-7.49c-0.248 0-0.45-0.202-0.45-0.45 0-0.236 0.181-0.43 0.413-0.449l0.037-0.002h7.49zM15.174 6.345c0.248 0 0.45 0.202 0.45 0.45 0 0.236-0.182 0.43-0.413 0.449l-0.037 0.002h-10.283c-0.248 0-0.45-0.202-0.45-0.45 0-0.236 0.181-0.43 0.413-0.449l0.037-0.002h10.283z"></path>
</svg>
