<svg version="1.1" xmlns="http://www.w3.org/2000/svg" width="24" height="24" viewBox="0 0 24 24">
<path d="M13.117 2.050c0.731 0 1.348 0.545 1.438 1.27l0.185 1.482 0.032 0.012c0.692 0.267 1.34 0.633 1.927 1.085l0.031 0.025 1.061-0.448c0.655-0.277 1.411-0.037 1.788 0.559l0.032 0.052 1.367 2.368c0.366 0.633 0.203 1.44-0.38 1.881l-0.955 0.722 0.009 0.073c0.026 0.229 0.041 0.46 0.047 0.693l0.002 0.175c0 0.176-0.006 0.35-0.017 0.524-0.003 0.247-0.204 0.448-0.453 0.448s-0.45-0.202-0.45-0.45c0-0.009 0-0.017 0.001-0.026v0.026c0.009-0.12 0.015-0.241 0.018-0.362l0.002-0.161c0-0.361-0.028-0.718-0.084-1.070-0.026-0.164 0.041-0.329 0.173-0.429l1.165-0.882c0.221-0.167 0.283-0.473 0.144-0.713l-1.367-2.368c-0.139-0.24-0.434-0.34-0.69-0.232l-1.309 0.552c-0.155 0.065-0.335 0.039-0.464-0.070-0.645-0.542-1.385-0.959-2.183-1.23-0.164-0.056-0.28-0.2-0.302-0.37l-0.22-1.756c-0.035-0.275-0.269-0.482-0.546-0.482h-2.735c-0.277 0-0.511 0.206-0.546 0.482l-0.245 1.957c-0.019 0.158-0.122 0.295-0.269 0.358-0.612 0.262-1.181 0.614-1.691 1.041-0.129 0.109-0.308 0.136-0.464 0.070l-1.31-0.553c-0.256-0.108-0.551-0.008-0.69 0.232l-1.367 2.368c-0.139 0.24-0.077 0.546 0.144 0.713l1.165 0.882c0.132 0.101 0.199 0.265 0.173 0.429-0.055 0.352-0.083 0.709-0.083 1.069 0 0.5 0.054 0.994 0.16 1.474 0.038 0.172-0.028 0.35-0.168 0.456l-1.247 0.944c-0.221 0.167-0.283 0.473-0.144 0.713l1.367 2.368c0.139 0.24 0.434 0.34 0.69 0.232l1.72-0.725c0.145-0.061 0.311-0.042 0.439 0.050 0.406 0.294 0.845 0.543 1.306 0.741 0.147 0.063 0.249 0.199 0.269 0.358l0.245 1.957c0.034 0.275 0.269 0.482 0.546 0.482l1.317-0.001c0.226-0.001 0.405 0.147 0.451 0.346l0.012 0.104c0 0.248-0.202 0.45-0.45 0.45l-1.331 0.002c-0.675 0-1.252-0.464-1.409-1.106l-0.030-0.164-0.214-1.708-0.073-0.034c-0.307-0.148-0.604-0.316-0.888-0.504l-0.070-0.047-1.491 0.629c-0.655 0.277-1.411 0.037-1.788-0.559l-0.032-0.052-1.367-2.368c-0.365-0.633-0.203-1.44 0.38-1.881l1.022-0.774-0.014-0.079c-0.062-0.367-0.099-0.739-0.108-1.115l-0.002-0.188c0-0.292 0.016-0.581 0.048-0.868l0.009-0.073-0.955-0.723c-0.566-0.429-0.736-1.202-0.41-1.826l0.030-0.055 1.367-2.368c0.365-0.633 1.145-0.896 1.82-0.611l1.061 0.448 0.035-0.028c0.426-0.328 0.885-0.611 1.37-0.843l0.056-0.026 0.214-1.707c0.088-0.706 0.674-1.24 1.38-1.269l2.794-0.001zM12 8.050c2.182 0 3.95 1.769 3.95 3.95 0 0.486-0.088 0.961-0.258 1.406-0.088 0.232-0.349 0.349-0.581 0.26s-0.349-0.349-0.26-0.581c0.131-0.343 0.199-0.71 0.199-1.086 0-1.684-1.366-3.050-3.050-3.050s-3.050 1.366-3.050 3.050c0 1.602 1.239 2.928 2.827 3.042 0.248 0.018 0.434 0.233 0.416 0.481s-0.233 0.434-0.482 0.416c-2.058-0.148-3.663-1.865-3.663-3.94 0-2.182 1.769-3.95 3.95-3.95z"></path>
<path d="M20.5 14.625c0.76 0 1.375 0.616 1.375 1.375v4.5c0 0.76-0.616 1.375-1.375 1.375h-5.5c-0.76 0-1.375-0.616-1.375-1.375v-4.5c0-0.76 0.616-1.375 1.375-1.375zM20.5 15.375h-5.5c-0.345 0-0.625 0.28-0.625 0.625v4.5c0 0.345 0.28 0.625 0.625 0.625h5.5c0.345 0 0.625-0.28 0.625-0.625v-4.5c0-0.345-0.28-0.625-0.625-0.625zM17.213 16.582l1.312 2.628 0.454-0.961c0.057-0.12 0.173-0.2 0.303-0.213l0.036-0.001h0.932c0.207 0 0.375 0.168 0.375 0.375s-0.168 0.375-0.375 0.375h-0.695l-0.682 1.444c-0.128 0.271-0.503 0.287-0.656 0.040l-0.018-0.032-1.315-2.634-0.452 0.941c-0.057 0.119-0.173 0.198-0.302 0.211l-0.036 0.002h-0.844c-0.207 0-0.375-0.168-0.375-0.375s0.168-0.375 0.375-0.375h0.607l0.683-1.418c0.135-0.281 0.534-0.284 0.674-0.005z"></path>
</svg>
