<svg version="1.1" xmlns="http://www.w3.org/2000/svg" width="24" height="24" viewBox="0 0 24 24">
<path d="M14.115 4.125c2.464 0 4.46 1.997 4.46 4.46 0 2.306-1.759 4.229-4.048 4.442l-0.211 0.015-0.434 0.009c-3.355 0.121-6.039 2.881-6.039 6.267 0 0.308-0.25 0.558-0.558 0.558s-0.558-0.25-0.558-0.558c0-2.975 1.783-5.647 4.496-6.8l0.251-0.101 0.028-0.217-0.12-0.088c-0.963-0.745-1.582-1.854-1.705-3.073l-0.017-0.235-0.005-0.221c0-2.46 1.997-4.457 4.46-4.457zM20.22 18.143c0.304 0 0.55 0.246 0.55 0.55s-0.246 0.55-0.55 0.55h-5.4c-0.304 0-0.55-0.246-0.55-0.55s0.246-0.55 0.55-0.55zM8.749 5.418c0.268 0 0.485 0.217 0.485 0.484s-0.217 0.485-0.485 0.485c-1.483 0-2.686 1.202-2.686 2.686s1.202 2.686 2.686 2.686c0.268 0 0.485 0.217 0.485 0.484s-0.217 0.485-0.485 0.485c-2.426 0-4.393 1.967-4.393 4.393 0 0.268-0.217 0.485-0.485 0.485s-0.485-0.217-0.485-0.485c0-1.971 1.079-3.77 2.789-4.706l0.2-0.104 0.182-0.085 0.022-0.212-0.119-0.091c-0.748-0.599-1.233-1.472-1.343-2.431l-0.018-0.212-0.006-0.211c0-2.015 1.636-3.652 3.656-3.652zM20.22 15.143c0.304 0 0.55 0.246 0.55 0.55s-0.246 0.55-0.55 0.55h-3.4c-0.304 0-0.55-0.246-0.55-0.55s0.246-0.55 0.55-0.55zM14.115 5.241c-1.847 0-3.344 1.498-3.344 3.344s1.498 3.344 3.344 3.344c1.847 0 3.344-1.498 3.344-3.344s-1.498-3.344-3.344-3.344z"></path>
</svg>
