<svg version="1.1" xmlns="http://www.w3.org/2000/svg" width="24" height="24" viewBox="0 0 24 24">
<path d="M12.002 1.655c1.13 0 2.045 0.916 2.045 2.045 0 0.748-0.401 1.402-1 1.758v1.667l-0.010 0.056 2.673 1.544c0.369 0.213 0.614 0.584 0.67 1l0.012 0.181v3.502c0.172-0.090 0.343-0.105 0.461-0.030l0.030 0.022 1.061 0.888c0.683-0.284 1.495-0.186 2.101 0.322 0.866 0.726 0.978 2.016 0.252 2.881s-2.016 0.978-2.882 0.252c-0.716-0.601-0.917-1.588-0.553-2.401l-0.943-0.793-0.057-0.067c-0.048 0.037-0.099 0.071-0.152 0.102l-2.728 1.576c-0.085 0.115-0.246 0.205-0.445 0.246-0.392 0.167-0.844 0.143-1.218-0.073l-2.844-1.642-1.237 1.039c0.161 0.722-0.076 1.507-0.682 2.015-0.865 0.726-2.155 0.614-2.881-0.252s-0.613-2.155 0.252-2.881c0.716-0.601 1.724-0.627 2.462-0.128l1.224-1.027-0.003-0.053v-3.496c0-0.488 0.26-0.938 0.682-1.181l3.028-1.748c0.073-0.042 0.149-0.077 0.227-0.104l0.001-1.179c-0.911-0.207-1.59-1.022-1.59-1.994 0-1.13 0.916-2.045 2.045-2.045zM19.462 15.306c-0.319-0.268-0.741-0.33-1.107-0.202-0.040 0.115-0.107 0.232-0.198 0.342-0.146 0.175-0.325 0.291-0.487 0.334-0.167 0.436-0.047 0.949 0.332 1.267 0.481 0.404 1.198 0.34 1.601-0.14s0.34-1.198-0.14-1.601zM4.513 15.306c-0.481 0.404-0.544 1.12-0.14 1.601s1.12 0.544 1.601 0.14c0.481-0.404 0.544-1.12 0.14-1.601s-1.12-0.544-1.601-0.14zM8.52 10.334v3.069c0 0.163 0.087 0.313 0.227 0.394l2.8 1.616v-3.062l-3.027-2.017zM15.483 10.334l-2.467 1.646c0.015 0.030 0.024 0.061 0.028 0.093l0.002 0.038-0.001 2.962 2.21-1.274c0.112-0.065 0.191-0.174 0.217-0.298l0.011-0.095-0.001-3.069zM11.775 7.765l-2.932 1.691 3.16 2.107 3.158-2.107-2.931-1.691c-0.141-0.081-0.314-0.081-0.454 0zM12.002 2.564c-0.628 0-1.136 0.508-1.136 1.136s0.509 1.136 1.136 1.136c0.628 0 1.136-0.508 1.136-1.136s-0.509-1.136-1.136-1.136z"></path>
<path d="M2.996 5.971c0.537-0.796 1.618-1.006 2.413-0.47 0.606 0.409 0.872 1.133 0.728 1.805 0.168-0.151 0.35-0.215 0.473-0.154l0.031 0.019 1.352 0.997c0.167 0.123 0.12 0.486-0.104 0.811-0.212 0.305-0.505 0.468-0.677 0.384l-0.031-0.019-1.352-0.998c-0.067-0.049-0.099-0.136-0.1-0.244-0.567 0.638-1.534 0.772-2.264 0.281-0.796-0.537-1.006-1.618-0.469-2.413zM4.99 6.123c-0.453-0.305-1.067-0.186-1.373 0.267s-0.186 1.067 0.267 1.372c0.453 0.305 1.067 0.186 1.372-0.267s0.186-1.067-0.267-1.373zM21.007 5.971c0.537 0.796 0.327 1.877-0.47 2.413-0.559 0.377-1.258 0.386-1.811 0.082l-1.192 0.877-0.031 0.019c-0.172 0.085-0.466-0.078-0.677-0.384-0.224-0.325-0.271-0.688-0.104-0.811l1.146-0.847c-0.151-0.677 0.115-1.409 0.725-1.82 0.796-0.537 1.877-0.327 2.414 0.47zM19.013 6.123c-0.445 0.3-0.568 0.898-0.283 1.348l0.053 0.065c0.006 0.009 0.012 0.018 0.018 0.027l-0.055-0.067c0.305 0.453 0.919 0.572 1.372 0.267s0.572-0.919 0.267-1.373c-0.305-0.453-0.919-0.572-1.372-0.267zM12.427 16.85c0.371 0.005 0.671 0.157 0.697 0.347l0.001 0.036-0.071 1.679c-0.002 0.051-0.024 0.1-0.061 0.144 0.513 0.301 0.858 0.859 0.858 1.498 0 0.96-0.778 1.739-1.739 1.739s-1.739-0.779-1.739-1.739c0-0.791 0.528-1.458 1.25-1.669l0.072-1.669c0.009-0.207 0.336-0.371 0.731-0.367zM12.112 19.567c-0.546 0-0.989 0.442-0.989 0.989s0.443 0.989 0.989 0.989c0.546 0 0.989-0.443 0.989-0.989s-0.442-0.989-0.989-0.989z"></path>
</svg>
