<svg version="1.1" xmlns="http://www.w3.org/2000/svg" width="24" height="24" viewBox="0 0 24 24">
<path d="M10.027 2.55c0.786 0 1.423 0.637 1.423 1.423v6.054c0 0.786-0.637 1.423-1.423 1.423h-6.054c-0.786 0-1.423-0.637-1.423-1.423v-6.054c0-0.786 0.637-1.423 1.423-1.423zM4.726 8.241l-1.276 1.793c0.003 0.286 0.236 0.517 0.523 0.517l2.678-0.002-1.924-2.308zM7.123 7.464l-1.055 1.45 1.162 1.394c0.058 0.070 0.079 0.159 0.065 0.242h2.731c0.032 0 0.063-0.003 0.094-0.008l-2.998-3.078zM10.027 3.45h-6.054c-0.289 0-0.523 0.234-0.523 0.523v5.027l1.014-1.423c0.107-0.151 0.322-0.168 0.452-0.043l0.023 0.025 0.733 0.88 1.176-1.615c0.103-0.141 0.301-0.163 0.432-0.056l0.026 0.023 3.236 3.322 0.010-0.085v-6.054c0-0.289-0.234-0.523-0.523-0.523zM8.875 4.7c0.649 0 1.175 0.526 1.175 1.175s-0.526 1.175-1.175 1.175c-0.649 0-1.175-0.526-1.175-1.175s0.526-1.175 1.175-1.175zM8.875 5.3c-0.317 0-0.575 0.257-0.575 0.575s0.257 0.575 0.575 0.575c0.317 0 0.575-0.257 0.575-0.575s-0.257-0.575-0.575-0.575zM20.027 12.55h-6.054c-0.786 0-1.423 0.637-1.423 1.423v6.054c0 0.786 0.637 1.423 1.423 1.423h6.054c0.786 0 1.423-0.637 1.423-1.423v-6.054c0-0.786-0.637-1.423-1.423-1.423zM13.973 13.45h6.054c0.289 0 0.523 0.234 0.523 0.523v6.054c0 0.289-0.234 0.523-0.523 0.523h-6.054c-0.289 0-0.523-0.234-0.523-0.523v-6.054c0-0.289 0.234-0.523 0.523-0.523zM10.027 12.55h-6.054c-0.786 0-1.423 0.637-1.423 1.423v6.054c0 0.786 0.637 1.423 1.423 1.423h6.054c0.786 0 1.423-0.637 1.423-1.423v-6.054c0-0.786-0.637-1.423-1.423-1.423zM3.973 13.45h6.054c0.289 0 0.523 0.234 0.523 0.523v6.054c0 0.289-0.234 0.523-0.523 0.523h-6.054c-0.289 0-0.523-0.234-0.523-0.523v-6.054c0-0.289 0.234-0.523 0.523-0.523zM16.328 2.785l-3.293 3.293c-0.371 0.371-0.371 0.973 0 1.343l3.293 3.293c0.371 0.371 0.973 0.371 1.343 0l3.293-3.293c0.371-0.371 0.371-0.973 0-1.343l-3.293-3.293c-0.371-0.371-0.973-0.371-1.343 0zM17.035 3.421l3.293 3.293c0.019 0.019 0.019 0.051 0 0.071l-3.293 3.293c-0.020 0.020-0.051 0.020-0.071 0l-3.293-3.293c-0.020-0.020-0.020-0.051 0-0.071l3.293-3.293c0.020-0.019 0.051-0.019 0.071 0z"></path>
</svg>
