<svg version="1.1" xmlns="http://www.w3.org/2000/svg" width="24" height="24" viewBox="0 0 24 24">
<path d="M12.708 2.462l0.059 0.033 7.984 4.827c0.416 0.252 0.677 0.694 0.698 1.178l0.002 0.063v11.936c0 0.248-0.202 0.45-0.45 0.45-0.236 0-0.43-0.181-0.448-0.413l-0.002-0.037v-11.936c0-0.178-0.085-0.344-0.229-0.446l-0.037-0.024-7.984-4.827c-0.161-0.097-0.36-0.105-0.527-0.023l-0.041 0.022-8.016 4.828c-0.152 0.091-0.25 0.251-0.265 0.427l-0.002 0.044v11.935c0 0.248-0.202 0.45-0.45 0.45-0.236 0-0.43-0.181-0.449-0.413l-0.002-0.037v-11.935c0-0.488 0.245-0.941 0.648-1.208l0.053-0.034 8.016-4.828c0.442-0.266 0.99-0.277 1.44-0.032zM14.705 14.349c1.673 0.854 2.745 2.535 2.745 4.401 0 0.248-0.202 0.45-0.45 0.45s-0.45-0.202-0.45-0.45c0-1.521-0.877-2.896-2.255-3.599-0.221-0.113-0.309-0.384-0.196-0.605s0.384-0.309 0.605-0.196zM12.25 8.3c1.767 0 3.2 1.432 3.2 3.2s-1.433 3.2-3.2 3.2c-2.38 0-4.3 1.819-4.3 4.050 0 0.248-0.202 0.45-0.45 0.45s-0.45-0.202-0.45-0.45c0-2.121 1.399-3.925 3.361-4.631-0.824-0.578-1.361-1.535-1.361-2.618 0-1.767 1.433-3.2 3.2-3.2zM12.25 9.2c-1.27 0-2.3 1.030-2.3 2.3s1.030 2.3 2.3 2.3c1.27 0 2.3-1.030 2.3-2.3s-1.030-2.3-2.3-2.3z"></path>
<path d="M16 8.875c1.322 0 2.375 1.184 2.375 2.625 0 0.916-0.425 1.728-1.075 2.198 1.369 0.597 2.325 1.963 2.325 3.552 0 0.207-0.168 0.375-0.375 0.375s-0.375-0.168-0.375-0.375c0-1.726-1.399-3.125-3.125-3.125-0.207 0-0.375-0.168-0.375-0.375s0.168-0.375 0.375-0.375c0.064 0 0.128 0.002 0.191 0.005 0.020-0.003 0.039-0.005 0.060-0.005 0.887 0 1.625-0.83 1.625-1.875s-0.738-1.875-1.625-1.875c-0.207 0-0.375-0.168-0.375-0.375s0.168-0.375 0.375-0.375zM8.5 9.125c0.207 0 0.375 0.168 0.375 0.375s-0.168 0.375-0.375 0.375c-0.887 0-1.625 0.83-1.625 1.875s0.738 1.875 1.625 1.875c0.008 0 0.016 0 0.024 0.001l0.081-0.003 0.123-0.002c0.207 0 0.375 0.168 0.375 0.375s-0.168 0.375-0.375 0.375c-1.726 0-3.125 1.399-3.125 3.125 0 0.207-0.168 0.375-0.375 0.375s-0.375-0.168-0.375-0.375c0-1.593 0.961-2.961 2.335-3.556-0.643-0.471-1.063-1.279-1.063-2.189 0-1.441 1.053-2.625 2.375-2.625z"></path>
</svg>
