<svg version="1.1" xmlns="http://www.w3.org/2000/svg" width="24" height="24" viewBox="0 0 24 24">
<path fill="currentColor" d="M18.534 5.029c0.935 0 1.693 0.758 1.693 1.693v4.647c0 0.327-0.265 0.592-0.592 0.592s-0.592-0.265-0.592-0.592l-0-4.443-6.007 4.97c-0.634 0.524-1.552 0.517-2.178-0.016l-6.010-5.127 0.001 10.583c0 0.28 0.227 0.508 0.508 0.508h13.177c0.28 0 0.508-0.227 0.508-0.508v-3.425c0-0.327 0.265-0.592 0.592-0.592s0.592 0.265 0.592 0.592v3.425c0 0.935-0.758 1.693-1.693 1.693h-13.177c-0.935 0-1.693-0.758-1.693-1.693v-10.614c0-0.935 0.758-1.693 1.693-1.693h13.177zM18.045 6.213h-12.004l5.586 4.765c0.188 0.16 0.463 0.162 0.653 0.005l5.765-4.77z"></path>
</svg>
