<svg version="1.1" xmlns="http://www.w3.org/2000/svg" width="24" height="24" viewBox="0 0 24 24">
<path d="M11.625 1.8c2.941 0 5.325 2.384 5.325 5.325 0 2.069-1.18 3.862-2.903 4.744 0.937 0.251 1.828 0.647 2.645 1.177 0.208 0.135 0.268 0.414 0.133 0.622s-0.414 0.268-0.622 0.133c-1.352-0.877-2.929-1.351-4.577-1.351-4.653 0-8.425 3.772-8.425 8.425 0 0.248-0.202 0.45-0.45 0.45s-0.45-0.202-0.45-0.45c0-4.313 2.927-7.941 6.902-9.008-1.723-0.881-2.902-2.675-2.902-4.743 0-2.941 2.384-5.325 5.325-5.325zM11.625 2.7c-2.444 0-4.425 1.981-4.425 4.425s1.982 4.425 4.425 4.425c2.444 0 4.425-1.982 4.425-4.425s-1.981-4.425-4.425-4.425z"></path>
<path d="M19.291 15.658c-0.189-0.161-0.473-0.139-0.634 0.051-0.152 0.178-0.14 0.442 0.021 0.607l0.030 0.028 2.072 1.764-2.049 1.533c-0.188 0.14-0.235 0.4-0.114 0.596l0.023 0.034c0.14 0.188 0.4 0.235 0.596 0.114l0.034-0.023 2.5-1.87c0.221-0.165 0.241-0.485 0.051-0.677l-0.029-0.026-2.5-2.13zM13.708 15.658c0.189-0.161 0.473-0.139 0.635 0.051 0.152 0.178 0.14 0.442-0.021 0.607l-0.030 0.028-2.072 1.764 2.049 1.533c0.188 0.14 0.235 0.4 0.114 0.596l-0.023 0.034c-0.14 0.188-0.4 0.235-0.596 0.114l-0.034-0.023-2.5-1.87c-0.221-0.165-0.241-0.485-0.051-0.677l0.028-0.026 2.5-2.13zM17.332 14.833c0.092-0.231 0.354-0.343 0.585-0.25 0.218 0.088 0.331 0.327 0.263 0.548l-0.013 0.037-2.5 6.25c-0.092 0.231-0.354 0.343-0.585 0.251-0.218-0.088-0.331-0.327-0.263-0.548l0.013-0.037 2.5-6.25z"></path>
</svg>
