<svg version="1.1" xmlns="http://www.w3.org/2000/svg" width="24" height="24" viewBox="0 0 24 24">
<path d="M12.697 3v1.301h6.299c0.123 0 0.242 0.012 0.359 0.039 0.104 0.020 0.205 0.055 0.303 0.094 0.098 0.043 0.191 0.094 0.279 0.148 0.094 0.063 0.18 0.137 0.262 0.215 0.080 0.082 0.152 0.172 0.215 0.266 0.059 0.086 0.107 0.18 0.148 0.277 0.043 0.098 0.074 0.199 0.096 0.301q0.039 0.176 0.039 0.359v5.418c0 0.391-0.309 0.699-0.701 0.699-0.391 0-0.699-0.309-0.699-0.699v-5.418c0-0.039-0.008-0.078-0.021-0.113-0.016-0.035-0.135-0.133-0.164-0.164-0.035-0.016-0.072-0.023-0.115-0.023h-14c-0.041 0-0.078 0.008-0.115 0.023-0.035 0.016-0.133 0.133-0.162 0.164-0.014 0.035-0.021 0.074-0.021 0.113v10c0 0.043 0.008 0.082 0.021 0.117v0c0.016 0.035 0.133 0.133 0.162 0.16 0.037 0.016 0.074 0.024 0.115 0.024h14c0.043 0 0.080-0.008 0.115-0.024 0.035-0.012 0.135-0.133 0.164-0.16 0.014-0.035 0.021-0.074 0.021-0.117v-2.215c0-0.391 0.309-0.699 0.699-0.699 0.393 0 0.701 0.309 0.701 0.699v2.215c0 0.125-0.014 0.242-0.039 0.359-0.021 0.102-0.053 0.203-0.096 0.305-0.041 0.098-0.090 0.188-0.148 0.277-0.063 0.094-0.135 0.18-0.215 0.262-0.082 0.082-0.168 0.152-0.264 0.215-0.086 0.059-0.18 0.105-0.277 0.148s-0.199 0.074-0.303 0.098c-0.117 0.023-0.236 0.035-0.359 0.035h-0.33l1.816 1.816c0.277 0.277 0.277 0.715 0 0.988-0.277 0.277-0.713 0.277-0.99 0l-2.805-2.805h-9.381l-2.805 2.805c-0.277 0.277-0.713 0.277-0.99 0-0.277-0.273-0.277-0.711 0-0.988l1.814-1.816h-0.33q-0.182 0-0.355-0.035h-0.002c-0.103-0.024-0.205-0.055-0.303-0.098-0.1-0.039-0.191-0.090-0.279-0.148-0.094-0.063-0.182-0.133-0.262-0.215-0.082-0.082-0.152-0.168-0.215-0.262q-0.088-0.133-0.148-0.277c-0.043-0.102-0.074-0.203-0.098-0.305-0.025-0.117-0.037-0.234-0.037-0.359v-10q0-0.184 0.037-0.359v0 0c0.023-0.102 0.055-0.203 0.098-0.301 0.041-0.098 0.090-0.191 0.148-0.277 0.063-0.094 0.133-0.184 0.215-0.266 0.080-0.078 0.168-0.152 0.262-0.215 0.088-0.055 0.18-0.105 0.279-0.148 0.098-0.039 0.199-0.074 0.303-0.094v0q0.002 0 0.004-0.004v0q0.172-0.035 0.354-0.035h6.301v-1.301c0-0.391 0.309-0.699 0.699-0.699 0.393 0 0.701 0.309 0.701 0.699zM17.502 9.488l-3.463 3.555c-0.147 0.129-0.359 0.223-0.551 0.211-0.193-0.016-0.354-0.094-0.479-0.242l-2.549-2.941-2.932 3.387c-0.258 0.297-0.691 0.328-0.988 0.070-0.295-0.254-0.326-0.687-0.070-0.984l3.461-4c0.127-0.148 0.287-0.227 0.479-0.242 0.193-0.012 0.363 0.043 0.51 0.168l2.649 3.051 2.93-3.008c0.273-0.281 0.709-0.285 0.99-0.012s0.287 0.707 0.014 0.988z"></path>
</svg>
