<svg version="1.1" xmlns="http://www.w3.org/2000/svg" width="24" height="24" viewBox="0 0 24 24">
<path d="M3 21.404c-0.236 0-0.43-0.181-0.449-0.413l-0.001-0.037v-17.579c0-0.248 0.202-0.45 0.45-0.45 0.236 0 0.43 0.181 0.449 0.413l0.001 0.037v17.128h2.183v-5.299c0-0.5 0.385-0.909 0.876-0.947l0.074-0.003h1.5c0.525 0 0.95 0.425 0.95 0.95v5.299h1.934v-8.549c0-0.499 0.385-0.909 0.876-0.947l0.074-0.003h1.5c0.525 0 0.95 0.425 0.95 0.95v8.549h2.433l0.001-11.549c0-0.499 0.386-0.909 0.876-0.947l0.074-0.003h1.5c0.525 0 0.95 0.425 0.95 0.95l-0.001 11.549 0.804 0.001c0.236 0 0.43 0.181 0.448 0.413l0.001 0.037c0 0.236-0.181 0.43-0.413 0.448l-0.037 0.002h-18.003zM8.084 15.154h-1.5c-0.028 0-0.050 0.023-0.050 0.050v5.3h1.6v-5.3c0-0.023-0.016-0.043-0.037-0.048l-0.014-0.002zM19.25 8.904h-1.5c-0.028 0-0.050 0.022-0.050 0.050v11.55h1.6v-11.55c0-0.023-0.016-0.043-0.037-0.048l-0.014-0.002zM13.417 11.904h-1.5c-0.028 0-0.050 0.022-0.050 0.050v8.55h1.6v-8.55c0-0.023-0.016-0.043-0.037-0.048l-0.014-0.002z"></path>
<path d="M16.669 3.464l0.038 0.001 2.181 0.165c0.2 0.015 0.35 0.185 0.346 0.381l-0.002 0.037-0.252 2.134c-0.024 0.205-0.211 0.353-0.416 0.329-0.193-0.022-0.334-0.188-0.331-0.378l0.002-0.038 0.167-1.416-4.327 2.825c-0.119 0.078-0.271 0.081-0.392 0.011l-0.032-0.021-1.877-1.353-5.189 3.733c-0.158 0.114-0.375 0.087-0.501-0.057l-0.022-0.029c-0.114-0.158-0.086-0.375 0.057-0.501l0.029-0.022 5.408-3.89c0.121-0.087 0.28-0.094 0.407-0.019l0.031 0.020 1.887 1.361 3.748-2.447-0.978-0.073c-0.194-0.014-0.342-0.174-0.346-0.364l0.001-0.038c0.015-0.193 0.174-0.342 0.364-0.346z"></path>
</svg>
