<svg version="1.1" xmlns="http://www.w3.org/2000/svg" width="24" height="24" viewBox="0 0 24 24">
<path d="M21.178 3.55c0.772 0 1.392 0.634 1.42 1.417l0.001 0.056v8.009c0 0.248-0.202 0.45-0.45 0.45-0.236 0-0.43-0.182-0.448-0.413l-0.001-0.037v-8.009c0-0.308-0.218-0.551-0.485-0.572l-0.037-0.002h-18.457c-0.271 0-0.5 0.23-0.52 0.531l-0.001 0.041v12.527c0 0.308 0.218 0.55 0.484 0.572l0.037 0.002h18.457c0.27 0 0.5-0.23 0.52-0.531l0.002-0.041v-2.48c0-0.248 0.202-0.45 0.45-0.45 0.236 0 0.43 0.182 0.448 0.413l0.002 0.037v2.48c0 0.79-0.602 1.442-1.367 1.471l-0.055 0.001h-18.457c-0.772 0-1.392-0.634-1.42-1.417l-0.001-0.056v-12.527c0-0.79 0.602-1.441 1.367-1.471l0.055-0.001h18.457zM17.648 20.338c0.248 0 0.45 0.336 0.45 0.75 0 0.394-0.181 0.716-0.413 0.748l-0.037 0.002h-11.487c-0.248 0-0.45-0.336-0.45-0.75 0-0.394 0.181-0.716 0.413-0.748l0.037-0.002h11.487z"></path>
<path d="M10.722 5.875h-2.944c-0.499 0-0.903 0.404-0.903 0.903v2.944c0 0.499 0.404 0.903 0.903 0.903h2.944c0.499 0 0.903-0.404 0.903-0.903v-2.944c0-0.499-0.404-0.903-0.903-0.903zM7.777 6.625h2.944c0.085 0 0.153 0.068 0.153 0.153v2.944c0 0.085-0.068 0.153-0.153 0.153h-2.944c-0.085 0-0.153-0.068-0.153-0.153v-2.944c0-0.085 0.068-0.153 0.153-0.153zM10.722 11.375h-2.944c-0.499 0-0.903 0.404-0.903 0.903v2.944c0 0.499 0.404 0.903 0.903 0.903h2.944c0.499 0 0.903-0.404 0.903-0.903v-2.945c0-0.499-0.404-0.903-0.903-0.903zM7.777 12.125h2.944c0.085 0 0.153 0.068 0.153 0.153v2.945c0 0.085-0.068 0.153-0.153 0.153h-2.944c-0.085 0-0.153-0.068-0.153-0.153v-2.945c0-0.085 0.068-0.153 0.153-0.153zM16.223 11.375h-2.944c-0.499 0-0.903 0.404-0.903 0.903v2.944c0 0.499 0.404 0.903 0.903 0.903h2.945c0.499 0 0.903-0.404 0.903-0.903v-2.945c0-0.499-0.404-0.903-0.903-0.903zM13.278 12.125h2.945c0.085 0 0.153 0.068 0.153 0.153v2.945c0 0.085-0.068 0.153-0.153 0.153h-2.945c-0.085 0-0.153-0.068-0.153-0.153v-2.945c0-0.085 0.068-0.153 0.153-0.153zM13.797 5.923l-1.374 1.374c-0.527 0.526-0.527 1.38 0 1.906l1.374 1.374c0.526 0.527 1.38 0.527 1.907 0l1.374-1.374c0.526-0.527 0.526-1.38 0-1.906l-1.374-1.374c-0.526-0.526-1.38-0.526-1.907 0zM15.172 6.453l1.374 1.374c0.233 0.233 0.233 0.612 0 0.846l-1.374 1.374c-0.233 0.233-0.612 0.233-0.846 0l-1.374-1.374c-0.233-0.233-0.233-0.612 0-0.846l1.374-1.374c0.233-0.233 0.612-0.233 0.846 0z"></path>
</svg>
