<svg version="1.1" xmlns="http://www.w3.org/2000/svg" width="24" height="24" viewBox="0 0 24 24">
<path d="M10.875 3.3c1.037 0 2.048 0.178 3.003 0.524 0.234 0.085 0.355 0.343 0.27 0.576s-0.343 0.355-0.576 0.27c-0.857-0.31-1.765-0.47-2.697-0.47-4.377 0-7.925 3.548-7.925 7.925s3.548 7.925 7.925 7.925c4.377 0 7.925-3.548 7.925-7.925 0-2.58-1.241-4.952-3.296-6.433-0.202-0.145-0.247-0.427-0.102-0.628s0.427-0.247 0.628-0.102c2.286 1.649 3.669 4.29 3.669 7.163 0 1.691-0.476 3.27-1.299 4.612l3.251 2.534c0.196 0.153 0.231 0.436 0.079 0.631-0.144 0.185-0.404 0.227-0.598 0.102l-0.034-0.024-3.208-2.5c-1.612 2.11-4.155 3.47-7.015 3.47-4.874 0-8.825-3.951-8.825-8.825s3.951-8.825 8.825-8.825z"></path>
<path d="M11.123 8.375c1.122 0 2.106 0.744 2.607 1.805 1.251 0.341 2.144 1.477 2.144 2.795 0 1.602-1.308 2.899-2.92 2.899h-2.447c-0.002 0-0.005 0-0.007 0h-1.412c-1.638 0-2.962-1.351-2.962-3.015 0-1.444 1.004-2.675 2.374-2.956 0.5-0.928 1.506-1.529 2.625-1.529zM11.123 9.125c-0.896 0-1.69 0.509-2.031 1.271-0.059 0.131-0.183 0.212-0.317 0.221-0.007 0.002-0.015 0.003-0.022 0.005l-0.019 0.003c-1.063 0.175-1.859 1.119-1.859 2.236 0 1.252 0.992 2.265 2.212 2.265h1.405c0.002 0 0.005 0 0.008 0h2.455c1.199 0 2.17-0.963 2.17-2.149 0-1.001-0.696-1.861-1.661-2.090l-0.082-0.018c-0.152-0.030-0.265-0.149-0.295-0.293-0.002-0.003-0.005-0.008-0.006-0.011-0.377-0.852-1.133-1.439-1.958-1.439z"></path>
</svg>
