<svg version="1.1" xmlns="http://www.w3.org/2000/svg" width="24" height="24" viewBox="0 0 24 24">
<path fill="currentColor" d="M3.821 15.287c0.424 1.097 1.075 2.099 1.925 2.95 1.208 1.207 2.638 2.002 4.192 2.337 0.059-0.377 0.233-0.74 0.524-1.031 0.73-0.73 1.914-0.73 2.644 0s0.73 1.914 0 2.644c-0.73 0.73-1.914 0.73-2.644 0-0.199-0.199-0.343-0.431-0.433-0.677l0.152 0.027c-1.893-0.312-3.633-1.225-5.071-2.663-0.94-0.94-1.658-2.047-2.128-3.262-0.090-0.232 0.026-0.493 0.257-0.582s0.493 0.025 0.582 0.257zM12.47 20.18c-0.379-0.379-0.992-0.379-1.371 0s-0.379 0.992 0 1.371c0.379 0.379 0.992 0.379 1.371 0s0.379-0.992 0-1.371zM19.544 10.463c0.73-0.73 1.914-0.73 2.644 0s0.73 1.914 0 2.644c-0.302 0.302-0.681 0.479-1.073 0.531l0.021-0.142c-0.279 2.022-1.202 3.904-2.676 5.378-0.948 0.948-2.067 1.671-3.293 2.14-0.232 0.089-0.492-0.027-0.581-0.259s0.027-0.492 0.259-0.581c1.109-0.424 2.12-1.078 2.978-1.937 1.294-1.294 2.117-2.932 2.396-4.698-0.247-0.091-0.478-0.235-0.676-0.432-0.73-0.73-0.73-1.914 0-2.644zM12.563 12.325c1.259 0.668 2.062 1.976 2.062 3.425 0 0.207-0.168 0.375-0.375 0.375s-0.375-0.168-0.375-0.375c0-1.17-0.648-2.225-1.663-2.763-0.183-0.097-0.253-0.324-0.156-0.507s0.324-0.253 0.507-0.156zM10.875 7.625c1.381 0 2.5 1.119 2.5 2.5s-1.119 2.5-2.5 2.5c-0.031 0-0.063-0.001-0.094-0.002l-0.031 0.002c-1.726 0-3.125 1.399-3.125 3.125 0 0.207-0.168 0.375-0.375 0.375s-0.375-0.168-0.375-0.375c0-1.657 1.039-3.070 2.501-3.625-0.608-0.455-1.001-1.182-1.001-2 0-1.381 1.119-2.5 2.5-2.5zM13.615 11.65l0.014-0.005c0.010-0.003 0.020-0.006 0.030-0.009 0.008-0.002 0.015-0.004 0.023-0.005s0.014-0.002 0.022-0.003c0.004-0.001 0.007-0.001 0.011-0.002l0.036-0.002c0.614 0 1.125-0.553 1.125-1.25s-0.511-1.25-1.125-1.25c-0.207 0-0.375-0.168-0.375-0.375s0.168-0.375 0.375-0.375c1.043 0 1.875 0.902 1.875 2 0 0.606-0.253 1.153-0.656 1.521 0.979 0.458 1.657 1.452 1.657 2.604 0 0.207-0.168 0.375-0.375 0.375s-0.375-0.168-0.375-0.375c0-1.174-0.952-2.125-2.125-2.125-0.207 0-0.375-0.168-0.375-0.375v0c0-0.029 0.003-0.057 0.010-0.084 0.009-0.038 0.023-0.074 0.043-0.107 0.005-0.008 0.010-0.016 0.015-0.024 0.005-0.006 0.008-0.012 0.013-0.018 0.004-0.005 0.008-0.009 0.011-0.014 0.017-0.020 0.037-0.038 0.059-0.055 0.005-0.003 0.009-0.007 0.014-0.010 0.008-0.006 0.017-0.011 0.026-0.016s0.016-0.008 0.024-0.013c0.005-0.002 0.010-0.005 0.015-0.007l0.011-0.005zM9.197 3.577c0.083 0.234-0.040 0.491-0.274 0.575-1.185 0.421-2.267 1.099-3.176 2.009-1.159 1.159-1.899 2.543-2.238 4.126 0.301 0.083 0.584 0.243 0.821 0.479 0.73 0.73 0.73 1.914 0 2.644s-1.914 0.73-2.644 0c-0.73-0.73-0.73-1.914 0-2.644 0.26-0.259 0.576-0.427 0.91-0.502 0.357-1.817 1.19-3.414 2.516-4.739 1.005-1.005 2.201-1.756 3.512-2.222 0.234-0.083 0.491 0.040 0.575 0.274zM3.089 11.122l-0.019 0.006c-0.053 0.011-0.109 0.014-0.166 0.004l-0.023-0.005c-0.205 0.027-0.403 0.118-0.559 0.276-0.379 0.379-0.379 0.992 0 1.371s0.992 0.379 1.371 0c0.379-0.379 0.379-0.992 0-1.371-0.169-0.169-0.383-0.262-0.604-0.28zM21.551 11.1c-0.379-0.379-0.992-0.379-1.371 0s-0.379 0.992 0 1.371c0.379 0.379 0.992 0.379 1.371 0s0.379-0.992 0-1.371zM10.875 8.375c-0.967 0-1.75 0.784-1.75 1.75s0.784 1.75 1.75 1.75c0.967 0 1.75-0.784 1.75-1.75s-0.784-1.75-1.75-1.75zM10.766 1.685c0.73-0.73 1.914-0.73 2.644 0 0.367 0.367 0.549 0.847 0.547 1.327 1.691 0.397 3.245 1.255 4.502 2.512 0.892 0.892 1.585 1.935 2.055 3.076 0.095 0.229-0.015 0.493-0.244 0.587s-0.493-0.015-0.587-0.245c-0.425-1.033-1.052-1.976-1.858-2.783-1.142-1.142-2.552-1.918-4.085-2.276-0.085 0.16-0.194 0.31-0.328 0.444-0.73 0.73-1.914 0.73-2.644 0s-0.73-1.914 0-2.644zM12.773 2.322c-0.379-0.379-0.992-0.379-1.371 0s-0.379 0.992 0 1.371c0.379 0.379 0.992 0.379 1.371 0s0.379-0.992 0-1.371z"></path>
</svg>
