<svg version="1.1" xmlns="http://www.w3.org/2000/svg" width="24" height="24" viewBox="0 0 24 24">
<path fill="currentColor" d="M12 2.050c1.55 0 3.050 0.355 4.409 1.028 0.223 0.11 0.314 0.38 0.203 0.603s-0.38 0.314-0.603 0.203c-1.236-0.612-2.599-0.934-4.010-0.934-4.998 0-9.050 4.052-9.050 9.050s4.052 9.050 9.050 9.050c4.998 0 9.050-4.051 9.050-9.050 0-2.127-0.735-4.139-2.059-5.747-0.158-0.192-0.13-0.476 0.062-0.634s0.475-0.13 0.634 0.062c1.455 1.768 2.264 3.982 2.264 6.319 0 5.495-4.455 9.95-9.95 9.95s-9.95-4.455-9.95-9.95c0-5.495 4.455-9.95 9.95-9.95z"></path>
<path fill="currentColor" d="M6.796 7.648l0.029 0.026 3.852 3.951h6.939l-1.222-1.412c-0.127-0.147-0.12-0.364 0.011-0.502l0.028-0.026c0.147-0.127 0.364-0.12 0.502 0.010l0.026 0.028 1.759 2.032c0.067 0.078 0.095 0.169 0.092 0.257 0.004 0.088-0.025 0.18-0.092 0.257l-1.759 2.032-0.026 0.028c-0.138 0.131-0.355 0.137-0.502 0.011l-0.028-0.026c-0.131-0.138-0.137-0.355-0.011-0.503l1.222-1.412h-6.939l-3.881 3.977c-0.146 0.122-0.363 0.116-0.502-0.020-0.149-0.145-0.151-0.382-0.007-0.53l3.719-3.814-3.719-3.815c-0.145-0.149-0.142-0.385 0.007-0.53 0.139-0.136 0.356-0.141 0.502-0.019z"></path>
</svg>
