<svg version="1.1" xmlns="http://www.w3.org/2000/svg" width="24" height="24" viewBox="0 0 24 24">
<path d="M12.25 1.875c-1.036 0-1.875 0.839-1.875 1.875s0.839 1.875 1.875 1.875c1.036 0 1.875-0.839 1.875-1.875s-0.839-1.875-1.875-1.875zM12.25 2.625c0.621 0 1.125 0.504 1.125 1.125s-0.504 1.125-1.125 1.125c-0.621 0-1.125-0.504-1.125-1.125s0.504-1.125 1.125-1.125zM12 7.625c-2.692 0-4.875 2.183-4.875 4.875s2.183 4.875 4.875 4.875c2.692 0 4.875-2.183 4.875-4.875s-2.183-4.875-4.875-4.875zM12 8.375c2.279 0 4.125 1.847 4.125 4.125s-1.846 4.125-4.125 4.125c-2.279 0-4.125-1.846-4.125-4.125s1.846-4.125 4.125-4.125zM20 15.226c-1.036 0-1.875 0.839-1.875 1.875s0.839 1.875 1.875 1.875c1.036 0 1.875-0.839 1.875-1.875s-0.839-1.875-1.875-1.875zM20 15.976c0.621 0 1.125 0.504 1.125 1.125s-0.504 1.125-1.125 1.125c-0.621 0-1.125-0.504-1.125-1.125s0.504-1.125 1.125-1.125zM4 15.226c-1.036 0-1.875 0.839-1.875 1.875s0.839 1.875 1.875 1.875c1.036 0 1.875-0.839 1.875-1.875s-0.839-1.875-1.875-1.875zM4 15.976c0.621 0 1.125 0.504 1.125 1.125s-0.504 1.125-1.125 1.125c-0.621 0-1.125-0.504-1.125-1.125s0.504-1.125 1.125-1.125z"></path>
<path d="M18.631 19.212c0.162 0.188 0.142 0.473-0.046 0.634-1.748 1.509-3.977 2.353-6.334 2.353-2.217 0-4.321-0.747-6.023-2.096-0.104-0.082-0.205-0.166-0.306-0.253-0.188-0.162-0.209-0.446-0.047-0.635s0.446-0.209 0.635-0.047c0.091 0.079 0.184 0.155 0.277 0.23 1.544 1.224 3.452 1.901 5.464 1.901 2.14 0 4.16-0.766 5.746-2.134 0.188-0.162 0.473-0.142 0.634 0.046zM9.672 3.602c0.081 0.235-0.044 0.491-0.28 0.572-3.526 1.21-5.942 4.537-5.942 8.326 0 0.653 0.071 1.297 0.211 1.923 0.054 0.242-0.099 0.483-0.341 0.537s-0.483-0.099-0.537-0.341c-0.154-0.69-0.232-1.399-0.232-2.119 0-4.176 2.663-7.844 6.55-9.177 0.235-0.081 0.491 0.044 0.572 0.28zM15.423 3.331c3.875 1.341 6.527 5.002 6.527 9.169 0 0.717-0.078 1.423-0.231 2.112-0.054 0.242-0.294 0.395-0.537 0.342s-0.395-0.294-0.342-0.537c0.139-0.624 0.209-1.266 0.209-1.917 0-3.781-2.406-7.103-5.921-8.318-0.235-0.081-0.359-0.338-0.278-0.572s0.337-0.359 0.572-0.278z"></path>
</svg>
