<?xml version="1.0" encoding="UTF-8"?>
<svg width="48px" height="48px" viewBox="0 0 48 48" version="1.1" xmlns="http://www.w3.org/2000/svg" xmlns:xlink="http://www.w3.org/1999/xlink">
    <defs>
        <path d="M20.3441456,0.472503854 L35.3355543,9.08526609 C36.4446531,9.72245802 37.1284778,10.9039688 37.1284778,12.1830754 L37.1284778,29.3781736 C37.1284778,30.6572803 36.4446531,31.8387911 35.3355543,32.475983 L20.3441456,41.0887452 C19.2421192,41.721874 17.8867072,41.721874 16.7846808,41.0887452 L16.299,40.809 L17.6560624,40.0305707 C18.7035446,39.4287783 19.3716928,38.3414669 19.4426985,37.1449655 L19.4489859,36.9327613 L19.4489859,27.7366383 C19.4489859,26.4575316 18.7651612,25.2760208 17.6560624,24.6388289 L9.6261779,20.0255543 C8.52415149,19.3924255 7.16873954,19.3924255 6.06671314,20.0255543 L0,23.51 L0.000348610091,12.1830754 C0.000348610091,10.9039688 0.68417329,9.72245802 1.79327213,9.08526609 L16.7846808,0.472503854 C17.8867072,-0.160624864 19.2421192,-0.160624864 20.3441456,0.472503854 Z" id="path-1"></path>
        <linearGradient x1="50%" y1="0%" x2="50%" y2="100%" id="linearGradient-3">
            <stop stop-color="#6B9EF8" offset="0%"></stop>
            <stop stop-color="#5B5BFF" offset="100%"></stop>
        </linearGradient>
        <linearGradient x1="89.9558902%" y1="34.1462555%" x2="4.76986834%" y2="34.1462555%" id="linearGradient-4">
            <stop stop-color="#6B9EF8" offset="0%"></stop>
            <stop stop-color="#5B5BFF" stop-opacity="0" offset="100%"></stop>
        </linearGradient>
        <path d="M12.4977001,1.02247975 L18.2070765,4.30259187 C19.3161753,4.9397838 20,6.1212946 20,7.40040124 L20,13.9301992 C20,15.2093058 19.3161753,16.3908166 18.2070765,17.0280086 L12.4977001,20.3081207 C11.3956737,20.9412494 10.0402617,20.9412494 8.93823532,20.3081207 L3.22885892,17.0280086 C2.11976007,16.3908166 1.43593539,15.2093058 1.43593539,13.9301992 L1.43593539,7.40040124 C1.43593539,6.1212946 2.11976007,4.9397838 3.22885892,4.30259187 L8.93823532,1.02247975 C10.0402617,0.389351031 11.3956737,0.389351031 12.4977001,1.02247975 Z" id="path-5"></path>
    </defs>
    <g id="进行SIG交流" stroke="none" stroke-width="1" fill="none" fill-rule="evenodd">
        <g id="编组-6">
            <rect id="矩形" x="0" y="0" width="48" height="48"></rect>
            <g id="路径-16" transform="translate(6.871522, 3.000000)">
                <mask id="mask-2" fill="white">
                    <use xlink:href="#path-1"></use>
                </mask>
                <use id="蒙版" fill="#002FA7" xlink:href="#path-1"></use>
                <path d="M39.1071846,20.7806245 C31.3664302,14.8554578 24.5188397,14.8554578 18.5644132,20.7806245 C12.6099867,26.7057913 4.86923227,26.409533 -4.65785013,19.8918495 L-4.65785013,44.77755 L39.1071846,44.77755 L39.1071846,20.7806245 Z" fill="url(#linearGradient-3)" opacity="0.433349609" mask="url(#mask-2)"></path>
                <path d="M39.1071846,17.2255245 C31.3664302,11.3003577 24.5188397,11.3003577 18.5644132,17.2255245 C12.6099867,23.1506913 4.86923227,22.8544329 -4.65785013,16.3367495 L-4.65785013,41.22245 L39.1071846,41.22245 L39.1071846,17.2255245 Z" id="路径-16备份-2" fill="url(#linearGradient-4)" opacity="0.433349609" mask="url(#mask-2)" transform="translate(17.224667, 27.002050) scale(-1, 1) translate(-17.224667, -27.002050) "></path>
                <path d="M39.1071846,27.0020497 C31.3664302,21.0768829 24.5188397,21.0768829 18.5644132,27.0020497 C12.6099867,32.9272165 4.86923227,32.6309581 -4.65785013,26.1132747 L-4.65785013,50.9989752 L39.1071846,50.9989752 L39.1071846,27.0020497 Z" id="路径-16备份" fill="url(#linearGradient-3)" opacity="0.433349609" mask="url(#mask-2)" transform="translate(17.224667, 36.778575) scale(-1, 1) translate(-17.224667, -36.778575) "></path>
            </g>
            <g id="椭圆形" transform="translate(4.000000, 24.669400)">
                <mask id="mask-6" fill="white">
                    <use xlink:href="#path-5"></use>
                </mask>
                <use id="蒙版" fill="#002FA7" xlink:href="#path-5"></use>
                <path d="M16.9701155,8.88775018 C19.9298006,8.88775018 22.3290994,11.275259 22.3290994,14.2204003 C22.3290994,17.1655416 19.9298006,19.5530504 16.9701155,19.5530504 C16.3423035,19.5530504 15.7397064,19.4456235 15.1798755,19.2482348 L15.1837876,19.1086629 C15.1837876,21.8083758 12.9844303,23.9969255 10.2713857,23.9969255 C7.63166661,23.9969255 5.47824325,21.9250771 5.3637702,19.3264053 L5.363,19.3227502 L5.10791511,19.4045976 C4.76167954,19.5013198 4.39652971,19.5530504 4.01923789,19.5530504 C1.7994741,19.5530504 0,17.7624188 0,15.5535628 C0,14.6323016 0.31302307,13.7837916 0.839007377,13.107603 C0.593111964,12.8048274 0.446581987,12.4186729 0.446581987,11.9984627 C0.446581987,11.016749 1.24634825,10.2209127 2.23290994,10.2209127 C3.06564108,10.2209127 3.76528776,10.787915 3.96322777,11.5551089 L4.01923789,11.5540752 C5.97733509,11.5540752 7.60839016,12.9474284 7.96571963,14.7921032 C8.65244859,14.4270746 9.43766227,14.2204003 10.2713857,14.2204003 C10.73724,14.2204003 11.1879486,14.2849275 11.6149778,14.4054898 L11.6111317,14.2204003 C11.6111317,11.275259 14.0104305,8.88775018 16.9701155,8.88775018 Z" id="形状结合" fill="#81BCFF" opacity="0.352733794" mask="url(#mask-6)"></path>
            </g>
        </g>
    </g>
</svg>