<svg version="1.1" xmlns="http://www.w3.org/2000/svg" width="24" height="24" viewBox="0 0 24 24">
<path fill="#007af0" opacity="0.2" d="M19.978 2.25c0.816 0 1.477 0.661 1.477 1.477v16.246c0 0.816-0.661 1.477-1.477 1.477h-16.246c-0.816 0-1.477-0.661-1.477-1.477v-16.246c0-0.816 0.661-1.477 1.477-1.477h16.246zM9.092 12.396c-1.477 0-2.675 1.198-2.675 2.675 0 0.276 0.224 0.5 0.5 0.5s0.5-0.224 0.5-0.5c0-0.925 0.75-1.675 1.675-1.675s1.675 0.75 1.675 1.675c0 0.276 0.224 0.5 0.5 0.5s0.5-0.224 0.5-0.5c0-1.477-1.198-2.675-2.675-2.675zM16.804 12.083h-3c-0.276 0-0.5 0.224-0.5 0.5s0.224 0.5 0.5 0.5h3c0.276 0 0.5-0.224 0.5-0.5s-0.224-0.5-0.5-0.5zM9.092 8.13c-1.077 0-1.95 0.873-1.95 1.95s0.873 1.95 1.95 1.95c1.077 0 1.95-0.873 1.95-1.95s-0.873-1.95-1.95-1.95zM16.804 9.583h-3.5c-0.276 0-0.5 0.224-0.5 0.5s0.224 0.5 0.5 0.5h3.5c0.276 0 0.5-0.224 0.5-0.5s-0.224-0.5-0.5-0.5z"></path>
<path fill="#007af0" d="M17.39 5.687c0.873 0 1.581 0.69 1.581 1.541v9.244c0 0.851-0.708 1.541-1.581 1.541h-11.069c-0.873 0-1.581-0.69-1.581-1.541v-9.244c0-0.851 0.708-1.541 1.581-1.541h11.069zM9.092 12.396c-1.477 0-2.675 1.198-2.675 2.675 0 0.276 0.224 0.5 0.5 0.5s0.5-0.224 0.5-0.5c0-0.925 0.75-1.675 1.675-1.675s1.675 0.75 1.675 1.675c0 0.276 0.224 0.5 0.5 0.5s0.5-0.224 0.5-0.5c0-1.477-1.198-2.675-2.675-2.675zM16.804 12.083h-3c-0.276 0-0.5 0.224-0.5 0.5s0.224 0.5 0.5 0.5h3c0.276 0 0.5-0.224 0.5-0.5s-0.224-0.5-0.5-0.5zM9.092 8.13c-1.077 0-1.95 0.873-1.95 1.95s0.873 1.95 1.95 1.95c1.077 0 1.95-0.873 1.95-1.95s-0.873-1.95-1.95-1.95zM16.804 9.583h-3.5c-0.276 0-0.5 0.224-0.5 0.5s0.224 0.5 0.5 0.5h3.5c0.276 0 0.5-0.224 0.5-0.5s-0.224-0.5-0.5-0.5z"></path>
</svg>
