<svg version="1.1" xmlns="http://www.w3.org/2000/svg" width="23" height="24" viewBox="0 0 23 24">
<path fill="currentColor" d="M19.878 6.203l-0-0c-0.058-0.052-0.121-0.099-0.19-0.139l-4.679-2.741c-0.088-0.052-0.179-0.090-0.274-0.116s-0.193-0.039-0.295-0.039c-0.204-0-0.394 0.051-0.57 0.153l-2.35 1.368-2.35-1.368c-0.088-0.051-0.18-0.090-0.275-0.115v0c-0.095-0.026-0.193-0.038-0.295-0.038s-0.2 0.013-0.295 0.039-0.186 0.065-0.274 0.116l-4.679 2.741c-0.069 0.040-0.132 0.087-0.19 0.139v0c-0.053 0.048-0.101 0.102-0.145 0.16-0.043 0.057-0.080 0.118-0.11 0.181-0.032 0.067-0.058 0.136-0.077 0.209-0.037 0.142-0.046 0.286-0.027 0.432 0.020 0.151 0.068 0.293 0.145 0.425 0.049 0.084 0.107 0.159 0.173 0.226s0.141 0.125 0.225 0.175l1.221 0.725-1.249 0.727c-0.089 0.052-0.168 0.113-0.237 0.183v0c-0.069 0.071-0.129 0.151-0.18 0.24-0.075 0.133-0.121 0.276-0.138 0.427-0.016 0.146-0.005 0.29 0.035 0.431s0.105 0.271 0.194 0.387c0.093 0.121 0.207 0.218 0.34 0.293l1.845 1.038v3.956c0 0.138 0.017 0.272 0.052 0.401s0.087 0.253 0.156 0.373c0.069 0.12 0.152 0.226 0.246 0.321h0c0.095 0.094 0.202 0.175 0.322 0.244l4.8 2.742c0.118 0.068 0.241 0.118 0.368 0.152l0.001 0c0.127 0.034 0.259 0.051 0.396 0.051s0.268-0.017 0.396-0.051c0.127-0.034 0.25-0.085 0.369-0.152l2.608-1.49c0.327-0.187 0.437-0.59 0.25-0.917s-0.59-0.437-0.917-0.25l-2.034 1.162v-5.74l1.504 0.893c0.174 0.103 0.361 0.156 0.563 0.158s0.391-0.046 0.567-0.145l1.691-0.951v3.2c0 0.076-0.033 0.133-0.099 0.171l-0.313 0.179c-0.327 0.187-0.437 0.59-0.25 0.917s0.59 0.437 0.917 0.25l0.312-0.178c0.12-0.069 0.228-0.15 0.322-0.244s0.177-0.201 0.246-0.321c0.069-0.12 0.121-0.244 0.156-0.373s0.052-0.263 0.052-0.401v-3.956l1.845-1.038c0.070-0.039 0.134-0.084 0.192-0.136 0.054-0.047 0.103-0.1 0.148-0.157 0.090-0.116 0.155-0.245 0.194-0.387s0.051-0.285 0.035-0.431c-0.017-0.151-0.063-0.294-0.138-0.427-0.1-0.179-0.239-0.32-0.417-0.423l-1.248-0.727 1.221-0.725c0.167-0.099 0.3-0.233 0.398-0.401 0.077-0.132 0.126-0.274 0.145-0.425 0.019-0.146 0.010-0.29-0.027-0.432-0.019-0.073-0.045-0.143-0.077-0.209-0.031-0.063-0.067-0.123-0.11-0.181-0.044-0.058-0.092-0.112-0.145-0.16zM17.143 7.962l-4.287-2.495 1.582-0.921 4.258 2.494-1.553 0.922zM11.52 6.244l4.3 2.503-4.3 2.553-4.3-2.553 4.3-2.503zM10.184 5.467l-4.287 2.495-1.552-0.922 4.258-2.494 1.582 0.921zM5.89 9.521l4.313 2.561-1.439 0.854-4.446-2.5 1.572-0.915zM12.836 12.081l4.313-2.561 1.572 0.915-4.446 2.5-1.439-0.854zM6.523 16.417v-3.2l1.691 0.951c0.176 0.099 0.365 0.147 0.567 0.145s0.39-0.055 0.563-0.158l1.504-0.893v5.74l-4.226-2.414c-0.066-0.038-0.099-0.095-0.099-0.171z"></path>
</svg>
