<svg version="1.1" xmlns="http://www.w3.org/2000/svg" width="24" height="24" viewBox="0 0 24 24">
<path fill="#1f3fb3" opacity="0.2" d="M19.978 2.25c0.816 0 1.477 0.661 1.477 1.477v16.246c0 0.816-0.661 1.477-1.477 1.477h-16.246c-0.816 0-1.477-0.661-1.477-1.477v-16.246c0-0.816 0.661-1.477 1.477-1.477zM11.405 15.6h-2.85c-0.249 0-0.45 0.202-0.45 0.45s0.201 0.45 0.45 0.45h2.85c0.249 0 0.45-0.201 0.45-0.45s-0.201-0.45-0.45-0.45zM14.405 13.35h-5.85c-0.249 0-0.45 0.202-0.45 0.45s0.201 0.45 0.45 0.45h5.85c0.249 0 0.45-0.201 0.45-0.45s-0.201-0.45-0.45-0.45zM12.469 7.329c-0.146-0.146-0.404-0.125-0.577 0.048l-2.808 2.808c-0.083 0.083-0.135 0.191-0.143 0.299l-0.093 1.155c-0.018 0.224 0.149 0.391 0.373 0.373l1.155-0.093c0.108-0.009 0.216-0.060 0.299-0.143l2.808-2.808c0.172-0.172 0.194-0.431 0.048-0.577z"></path>
<path fill="#1f3fb3" d="M16.355 5.1c0.828 0 1.5 0.672 1.5 1.5v10.5c0 0.828-0.672 1.5-1.5 1.5h-9c-0.828 0-1.5-0.672-1.5-1.5v-10.5c0-0.828 0.672-1.5 1.5-1.5h9zM11.405 15.6h-2.85c-0.248 0-0.45 0.202-0.45 0.45s0.202 0.45 0.45 0.45h2.85c0.248 0 0.45-0.202 0.45-0.45s-0.202-0.45-0.45-0.45zM14.405 13.35h-5.85c-0.248 0-0.45 0.202-0.45 0.45s0.202 0.45 0.45 0.45h5.85c0.248 0 0.45-0.202 0.45-0.45s-0.202-0.45-0.45-0.45zM12.469 7.329c-0.146-0.146-0.404-0.125-0.577 0.048l-2.808 2.808c-0.083 0.083-0.135 0.191-0.143 0.299l-0.093 1.155c-0.018 0.224 0.149 0.391 0.373 0.373l1.155-0.093c0.108-0.009 0.216-0.060 0.299-0.143l2.808-2.808c0.172-0.172 0.194-0.431 0.048-0.577z"></path>
</svg>
