<svg version="1.1" xmlns="http://www.w3.org/2000/svg" width="24" height="24" viewBox="0 0 24 24">
<path fill="#2fb2ea" opacity="0.2" d="M19.978 2.25c0.816 0 1.477 0.661 1.477 1.477v16.246c0 0.816-0.661 1.477-1.477 1.477h-16.246c-0.816 0-1.477-0.661-1.477-1.477v-16.246c0-0.816 0.661-1.477 1.477-1.477zM12.238 11.342c-0.097-0.197-0.378-0.197-0.476 0l-0.698 1.414-1.561 0.227c-0.218 0.032-0.305 0.299-0.147 0.453l1.129 1.101-0.266 1.555c-0.037 0.217 0.19 0.382 0.385 0.28l1.396-0.734 1.396 0.734c0.195 0.102 0.422-0.063 0.385-0.28l-0.267-1.555 1.13-1.101c0.158-0.154 0.071-0.421-0.147-0.453l-1.561-0.227z"></path>
<path fill="#2fb2ea" d="M18.5 10v6.338c0 1.15-0.904 2.093-2.040 2.159l-0.127 0.004h-8.667c-1.152 0-2.097-0.902-2.163-2.036l-0.004-0.127v-6.338h13zM12.238 11.342c-0.097-0.197-0.378-0.197-0.476 0l-0.698 1.414-1.561 0.227c-0.218 0.032-0.305 0.299-0.147 0.453l1.129 1.101-0.266 1.555c-0.037 0.217 0.19 0.382 0.385 0.28l1.396-0.734 1.396 0.734c0.195 0.102 0.422-0.063 0.385-0.28l-0.267-1.555 1.13-1.101c0.158-0.154 0.071-0.421-0.147-0.453l-1.561-0.227zM14.528 5c0.299 0 0.542 0.244 0.542 0.545v0.697h1.264c0.49 0 0.938 0.17 1.301 0.449l0.118 0.097h0.070v0.058c0.388 0.371 0.643 0.883 0.675 1.455l0.003 0.123v0.576h-13v-0.576c0-0.58 0.228-1.106 0.597-1.496l0.081-0.082v-0.058h0.070c0.352-0.309 0.799-0.512 1.294-0.542l0.125-0.004h1.264v-0.697c0-0.301 0.243-0.545 0.542-0.545s0.542 0.244 0.542 0.545v0.697h3.972v-0.697c0-0.301 0.243-0.545 0.542-0.545z"></path>
</svg>
