<svg version="1.1" xmlns="http://www.w3.org/2000/svg" width="24" height="24" viewBox="0 0 24 24">
<path d="M20 2.55c0.782 0 1.42 0.62 1.449 1.394l0.001 0.055v10.012c0 0.248-0.202 0.45-0.45 0.45-0.236 0-0.43-0.182-0.448-0.413l-0.002-0.037v-10.012c0-0.29-0.225-0.529-0.511-0.549l-0.039-0.001h-16c-0.29 0-0.529 0.225-0.549 0.511l-0.001 0.039v16c0 0.29 0.225 0.529 0.511 0.549l0.039 0.002h16c0.29 0 0.529-0.225 0.549-0.511l0.001-0.039v-3.781c0-0.248 0.202-0.45 0.45-0.45 0.236 0 0.43 0.181 0.448 0.413l0.002 0.037v3.781c0 0.782-0.62 1.42-1.394 1.449l-0.056 0.001h-16c-0.782 0-1.42-0.62-1.449-1.394l-0.001-0.056v-16c0-0.782 0.619-1.42 1.394-1.449l0.055-0.001h16z"></path>
<path d="M15 10.147c0.195 0 0.355 0.149 0.373 0.339l0.002 0.036v6.978c0 0.741-0.586 1.345-1.32 1.374l-0.056 0.001h-4c-0.741 0-1.345-0.586-1.374-1.32l-0.001-0.056v-0.982c0-0.207 0.168-0.375 0.375-0.375 0.195 0 0.355 0.148 0.373 0.339l0.002 0.036v0.982c0 0.331 0.258 0.602 0.584 0.624l0.041 0.001h4c0.332 0 0.602-0.258 0.624-0.584l0.002-0.041v-6.978c0-0.207 0.168-0.375 0.375-0.375zM7.502 8.625c0.207 0 0.375 0.168 0.375 0.375 0 0.195-0.149 0.355-0.339 0.373l-0.036 0.002h-1.001c-0.332 0-0.602 0.258-0.624 0.584l-0.002 4.041c0 0.332 0.258 0.602 0.584 0.624l0.041 0.001h7.008c0.207 0 0.375 0.168 0.375 0.375 0 0.195-0.149 0.355-0.339 0.374l-0.036 0.001h-7.008c-0.741 0-1.345-0.586-1.374-1.32l-0.001-4.055c0-0.741 0.586-1.345 1.32-1.374l0.055-0.001h1.001zM17.5 8.625c0.741 0 1.345 0.586 1.374 1.32l0.001 0.055v4c0 0.741-0.586 1.345-1.32 1.374l-0.055 0.001h-0.968c-0.207 0-0.375-0.168-0.375-0.375 0-0.195 0.148-0.355 0.339-0.374l0.036-0.001h0.968c0.331 0 0.602-0.258 0.624-0.584l0.002-0.041v-4c0-0.332-0.258-0.602-0.584-0.624l-0.041-0.002h-6.973c-0.207 0-0.375-0.168-0.375-0.375 0-0.195 0.149-0.355 0.339-0.373l0.036-0.002h6.973zM14 5.125c0.741 0 1.345 0.586 1.374 1.32l0.001 0.055v1.037c0 0.207-0.168 0.375-0.375 0.375-0.195 0-0.355-0.149-0.374-0.339l-0.001-0.036v-1.037c0-0.332-0.258-0.602-0.584-0.624l-4.041-0.002c-0.332 0-0.602 0.258-0.624 0.584l-0.002 0.041v7.025c0 0.207-0.168 0.375-0.375 0.375-0.195 0-0.355-0.148-0.373-0.339l-0.002-0.036v-7.025c0-0.741 0.586-1.345 1.32-1.374l4.055-0.001z"></path>
</svg>
