<svg version="1.1" xmlns="http://www.w3.org/2000/svg" width="24" height="24" viewBox="0 0 24 24">
<path d="M22.135 5.718c0.266 1.068-0.298 2.149-1.282 2.561l-0.002 6.258c0 0.673-0.346 1.296-0.913 1.651l-0.062 0.037-3.938 2.274c-0.215 0.125-0.491 0.050-0.615-0.165-0.118-0.204-0.058-0.462 0.132-0.594l0.033-0.021 3.938-2.274c0.308-0.178 0.505-0.5 0.523-0.853l0.002-0.056v-6.523c0-0.072 0.017-0.14 0.047-0.201 0.043-0.145 0.16-0.262 0.317-0.301 0.697-0.174 1.12-0.879 0.947-1.576s-0.879-1.12-1.576-0.947c-0.676 0.169-1.095 0.837-0.961 1.513l1.040-0.635c0.212-0.13 0.489-0.064 0.619 0.149 0.123 0.201 0.070 0.46-0.116 0.597l-0.032 0.022-5.464 3.353c0.115 0.316 0.179 0.658 0.179 1.014 0 1.259-0.788 2.332-1.898 2.756l0.001 4.312c0.858 0.468 1.327 1.471 1.080 2.464-0.294 1.179-1.488 1.897-2.667 1.603-1.086-0.271-1.78-1.305-1.653-2.388l-5.916-3.213c-0.608-0.33-0.993-0.956-1.018-1.643l-0.002-0.071v-4.591c0-0.248 0.202-0.45 0.45-0.45 0.236 0 0.43 0.181 0.449 0.413l0.001 0.037v4.591c0 0.367 0.191 0.705 0.502 0.896l0.047 0.028 6.203 3.367c0.19 0.104 0.276 0.323 0.217 0.523-0.001 0.005-0.002 0.011-0.002 0.016l-0.008 0.036c-0.174 0.697 0.251 1.402 0.947 1.576s1.403-0.25 1.576-0.947c0.096-0.386 0.009-0.775-0.207-1.075l-0.002 0.76c0 0.248-0.336 0.45-0.75 0.45-0.394 0-0.716-0.181-0.748-0.413l-0.002-0.037v-6.083c-1.418-0.215-2.504-1.439-2.504-2.917 0-0.358 0.064-0.701 0.181-1.019l-5.465-3.347c-0.212-0.13-0.278-0.406-0.149-0.619s0.407-0.278 0.619-0.149l5.434 3.326c0.54-0.695 1.383-1.142 2.331-1.142 0.95 0 1.794 0.448 2.334 1.145l3.629-2.226c-0.046-0.052-0.080-0.115-0.098-0.188-0.294-1.179 0.424-2.373 1.603-2.667s2.373 0.424 2.667 1.603zM12 8.95c-1.133 0-2.050 0.918-2.050 2.050s0.918 2.050 2.050 2.050c1.133 0 2.050-0.918 2.050-2.050s-0.918-2.050-2.050-2.050zM12.822 2.212l0.067 0.034 0.064 0.035 3.296 1.903c0.215 0.125 0.289 0.4 0.165 0.615-0.118 0.204-0.371 0.28-0.581 0.183l-0.034-0.018-3.296-1.904c-0.298-0.172-0.662-0.187-0.972-0.041l-0.054 0.028-5.438 2.952-0.096 0.039-0.039 0.006c-0.031 0.014-0.064 0.026-0.098 0.033-0.243 0.052-0.482-0.103-0.534-0.346-0.149-0.702-0.839-1.151-1.542-1.001s-1.151 0.839-1.001 1.542c0.149 0.702 0.839 1.151 1.542 1.001 0.243-0.052 0.482 0.103 0.534 0.346s-0.104 0.482-0.346 0.534c-1.189 0.253-2.357-0.506-2.609-1.694s0.506-2.356 1.694-2.609c1-0.213 1.986 0.291 2.424 1.165l5.080-2.758c0.553-0.3 1.213-0.313 1.775-0.043z"></path>
</svg>
