<svg version="1.1" xmlns="http://www.w3.org/2000/svg" width="24" height="24" viewBox="0 0 24 24">
<path d="M5.414 5.825c0.113 0.207 0.046 0.463-0.148 0.59l-0.033 0.020-0.985 0.535c-0.323 0.175-0.529 0.505-0.548 0.868l-0.001 8.269c0 0.367 0.191 0.705 0.502 0.896l0.047 0.028 7.25 3.936c0.294 0.16 0.645 0.169 0.946 0.028l0.056-0.028 1.636-0.887c-0.057-0.183-0.087-0.377-0.087-0.578 0-1.077 0.873-1.95 1.95-1.95s1.95 0.873 1.95 1.95c0 1.077-0.873 1.95-1.95 1.95-0.552 0-1.050-0.229-1.405-0.597l-1.665 0.904c-0.558 0.303-1.227 0.314-1.793 0.035l-0.067-0.035-7.25-3.936c-0.608-0.33-0.993-0.956-1.018-1.643l-0.002-8.286c0-0.691 0.366-1.329 0.958-1.678l0.062-0.035 0.985-0.535c0.218-0.119 0.491-0.037 0.611 0.181zM16 18.45c-0.58 0-1.050 0.47-1.050 1.050s0.47 1.050 1.050 1.050c0.58 0 1.050-0.47 1.050-1.050s-0.47-1.050-1.050-1.050zM12.794 2.176l0.068 0.032 0.068 0.035 7.25 3.936c0.608 0.33 0.993 0.956 1.019 1.642l0.002 0.071v8.215c0 0.692-0.366 1.329-0.958 1.678l-0.062 0.035-0.957 0.52c-0.218 0.119-0.491 0.038-0.611-0.181-0.112-0.207-0.046-0.463 0.148-0.59l0.033-0.020 0.957-0.52c0.322-0.175 0.529-0.505 0.547-0.868l0.002-0.055v-8.215c0-0.367-0.191-0.705-0.502-0.895l-0.047-0.028-7.25-3.936c-0.294-0.16-0.645-0.169-0.946-0.029l-0.055 0.029-1.853 1.006c0.035 0.148 0.055 0.301 0.055 0.46 0 1.077-0.873 1.95-1.95 1.95s-1.95-0.873-1.95-1.95c0-1.077 0.873-1.95 1.95-1.95 0.596 0 1.129 0.267 1.486 0.688l1.833-0.995c0.536-0.291 1.174-0.313 1.725-0.067zM7.75 3.45c-0.58 0-1.050 0.47-1.050 1.050s0.47 1.050 1.050 1.050c0.58 0 1.050-0.47 1.050-1.050s-0.47-1.050-1.050-1.050z"></path>
<path d="M8.928 9.212c0.637-0.594 1.635-0.58 2.256 0.040l0.007 0.007 1.122-1.122c0.146-0.146 0.384-0.146 0.53 0l4.243 4.243c0.146 0.146 0.146 0.384 0 0.53l-4.243 4.243c-0.146 0.146-0.384 0.146-0.53 0l-0.979-0.98c-0.149-0.148-0.146-0.39 0.005-0.535l0.028-0.027c0.434-0.434 0.434-1.147-0.005-1.585-0.427-0.427-1.111-0.439-1.553-0.037l-0.059 0.058c-0.146 0.153-0.388 0.156-0.537 0.007l-1.142-1.143-0.024-0.027c-0.122-0.147-0.113-0.366 0.024-0.503l0.823-0.823-0.007-0.007c-0.635-0.635-0.635-1.664 0-2.298l0.042-0.041zM9.416 9.783c-0.342 0.342-0.342 0.895 0 1.237 0.053 0.053 0.11 0.098 0.173 0.134l0.076 0.042c0.202 0.126 0.238 0.411 0.066 0.583l-0.865 0.866 0.634 0.634 0.017-0.011c0.73-0.494 1.729-0.418 2.376 0.228l0.042 0.044c0.607 0.646 0.669 1.619 0.186 2.332l-0.011 0.016 0.47 0.47 3.712-3.712-3.712-3.713-1.165 1.165c-0.172 0.173-0.457 0.136-0.583-0.066l-0.017-0.028c-0.041-0.080-0.095-0.155-0.161-0.221-0.342-0.342-0.896-0.342-1.237 0z"></path>
</svg>
