<svg version="1.1" xmlns="http://www.w3.org/2000/svg" width="24" height="24" viewBox="0 0 24 24">
<path fill="#e78900" d="M18.5 4.050c0.801 0 1.45 0.649 1.45 1.45v15c0 0.801-0.65 1.45-1.45 1.45h-11.5c-0.248 0-0.45-0.202-0.45-0.45s0.202-0.45 0.45-0.45h11.5c0.304 0 0.55-0.246 0.55-0.55v-15c0-0.304-0.246-0.55-0.55-0.55h-1.246c-0.248 0-0.45-0.202-0.45-0.45s0.202-0.45 0.45-0.45zM13.289 2.050c0.125 0 0.245 0.052 0.33 0.144l3.711 3.994c0.077 0.083 0.12 0.193 0.12 0.306l-0.013-0.102c0.003 0.011 0.005 0.022 0.007 0.034l0.006 0.068v12.006c0 0.801-0.65 1.45-1.45 1.45h-10.5c-0.801 0-1.45-0.65-1.45-1.45v-15.050c0-0.773 0.627-1.4 1.4-1.4zM12.799 2.948l-7.349 0.002c-0.276 0-0.5 0.224-0.5 0.5v15.050c0 0.304 0.246 0.55 0.55 0.55h10.5c0.304 0 0.55-0.246 0.55-0.55l-0.001-11.551-2.35 0.001c-0.773 0-1.4-0.627-1.4-1.4l-0.001-2.602zM15.972 6.049l-2.273-2.447 0.001 1.948c0 0.276 0.223 0.5 0.5 0.5l1.772-0.001z"></path>
<path fill="#e78900" d="M14.75 10.25c0.414 0 0.75 0.336 0.75 0.75s-0.336 0.75-0.75 0.75c-0.085 0-0.167-0.014-0.243-0.040l-2.035 1.492c-0.088 0.316-0.378 0.547-0.722 0.547-0.414 0-0.75-0.336-0.75-0.75l0.005 0.061-1.672-1.388c-0.062 0.030-0.127 0.053-0.197 0.065l-0.135 0.012c-0.122 0-0.238-0.029-0.34-0.081l-1.411 0.826c0 0.373-0.265 0.679-0.615 0.742l-0.135 0.012c-0.414 0-0.75-0.336-0.75-0.75s0.336-0.75 0.75-0.75c0.135 0 0.262 0.036 0.371 0.098l1.381-0.812-0.002-0.036c0-0.368 0.265-0.674 0.615-0.738l0.135-0.012c0.414 0 0.75 0.336 0.75 0.75 0 0.014 0 0.027-0.001 0.040l1.596 1.329c0.117-0.075 0.256-0.119 0.405-0.119 0.189 0 0.362 0.071 0.494 0.186l1.769-1.295c-0.009-0.046-0.014-0.093-0.014-0.141 0-0.414 0.336-0.75 0.75-0.75z"></path>
</svg>
