<svg version="1.1" xmlns="http://www.w3.org/2000/svg" width="24" height="24" viewBox="0 0 24 24">
<path fill="currentColor" d="M5.797 14.634c0.269 0.277 0.263 0.721-0.015 0.99l-1.95 1.894 0.956 0.238c0.204 0.051 0.373 0.191 0.462 0.378l0.038 0.097 0.349 1.142 2.247-2.204c0.248-0.244 0.632-0.265 0.904-0.065l0.086 0.075c0.271 0.276 0.266 0.719-0.009 0.99l-3.070 3.011c-0.375 0.368-1.006 0.207-1.16-0.295l-0.57-1.866-1.793-0.446c-0.499-0.124-0.688-0.718-0.386-1.107l0.067-0.075 2.854-2.771c0.277-0.269 0.721-0.263 0.99 0.015zM18.203 14.634c0.269-0.277 0.712-0.284 0.99-0.015l2.854 2.771 0.067 0.075c0.303 0.389 0.114 0.982-0.386 1.107l-1.793 0.446-0.57 1.866c-0.153 0.502-0.785 0.663-1.16 0.295l-3.070-3.011c-0.276-0.271-0.28-0.714-0.009-0.99l0.086-0.075c0.272-0.199 0.655-0.178 0.904 0.065l2.247 2.204 0.349-1.142 0.038-0.097c0.089-0.187 0.258-0.327 0.462-0.378l0.956-0.238-1.95-1.894c-0.277-0.269-0.284-0.712-0.015-0.99zM11.997 2.54c4.042 0 7.318 3.276 7.318 7.318s-3.276 7.318-7.318 7.318c-4.042 0-7.318-3.276-7.318-7.318s3.276-7.318 7.318-7.318zM11.997 3.94c-3.269 0-5.918 2.65-5.918 5.918s2.65 5.918 5.918 5.918c3.269 0 5.918-2.65 5.918-5.918s-2.65-5.918-5.918-5.918zM11.997 7.031c1.561 0 2.827 1.266 2.827 2.827s-1.266 2.827-2.827 2.827c-1.561 0-2.827-1.266-2.827-2.827s1.266-2.827 2.827-2.827zM11.997 8.431c-0.788 0-1.427 0.639-1.427 1.427s0.639 1.427 1.427 1.427c0.788 0 1.427-0.639 1.427-1.427s-0.639-1.427-1.427-1.427z"></path>
</svg>
