<svg version="1.1" xmlns="http://www.w3.org/2000/svg" width="28" height="24" viewBox="0 0 28 24">
<path d="M25.031 0.986c1.559 0 2.824 1.244 2.824 2.778v7.627c0 0.537-0.442 0.972-0.988 0.972s-0.988-0.435-0.988-0.972l-0.001-7.291-10.018 8.156c-1.057 0.86-2.589 0.849-3.632-0.027l-10.022-8.413v17.368c0 0.46 0.379 0.833 0.847 0.833h21.98c0.468 0 0.847-0.373 0.847-0.833v-5.621c0-0.537 0.442-0.972 0.988-0.972s0.988 0.435 0.988 0.972v5.621c0 1.534-1.264 2.778-2.824 2.778h-21.98c-1.559 0-2.824-1.244-2.824-2.778v-17.42c0-1.534 1.264-2.778 2.824-2.778h21.98zM24.214 2.93h-20.020l9.316 7.82c0.313 0.263 0.773 0.266 1.090 0.008l9.615-7.828z"></path>
</svg>
