<?xml version="1.0" encoding="UTF-8"?>
<svg width="48px" height="48px" viewBox="0 0 48 48" version="1.1" xmlns="http://www.w3.org/2000/svg" xmlns:xlink="http://www.w3.org/1999/xlink">
    <title>进行SIG交流</title>
    <g id="进行SIG交流" stroke="none" stroke-width="1" fill="none" fill-rule="evenodd">
        <g id="icon技术白皮书备份-4">
            <rect id="矩形备份-12" fill-opacity="0" fill="#D8D8D8" fill-rule="nonzero" x="0" y="0" width="48" height="48"></rect>
            <g id="编组-86" transform="translate(4.510650, 4.500000)" fill="#007AF0">
                <g id="编组" opacity="0.2">
                    <path d="M35.44605,0 C37.0776,0 38.4,1.3224 38.4,2.9538 L38.4,35.44635 C38.4,37.07745 37.0776,38.40015 35.44605,38.40015 L2.9538,38.40015 C1.3224,38.40015 0,37.07745 0,35.44635 L0,2.9538 C0,1.3224 1.3224,0 2.9538,0 L35.44605,0 Z M13.6733494,20.2915176 C10.7188546,20.2915176 8.32375224,22.68662 8.32375224,25.6411148 C8.32375224,26.1933995 8.77146749,26.6411148 9.32375224,26.6411148 C9.87603699,26.6411148 10.3237522,26.1933995 10.3237522,25.6411148 C10.3237522,23.7911895 11.8234241,22.2915176 13.6733494,22.2915176 C15.5232747,22.2915176 17.0229466,23.7911895 17.0229466,25.6411148 C17.0229466,26.1933995 17.4706618,26.6411148 18.0229466,26.6411148 C18.5752313,26.6411148 19.0229466,26.1933995 19.0229466,25.6411148 C19.0229466,22.68662 16.6278442,20.2915176 13.6733494,20.2915176 Z M29.0973469,19.6663329 L23.0973469,19.6663329 C22.5450622,19.6663329 22.0973469,20.1140481 22.0973469,20.6663329 C22.0973469,21.2186176 22.5450622,21.6663329 23.0973469,21.6663329 L29.0973469,21.6663329 C29.6496317,21.6663329 30.0973469,21.2186176 30.0973469,20.6663329 C30.0973469,20.1140481 29.6496317,19.6663329 29.0973469,19.6663329 Z M13.6733494,11.7590352 C11.5196155,11.7590352 9.77361795,13.5050327 9.77361795,15.6587666 C9.77361795,17.8125006 11.5196155,19.5584981 13.6733494,19.5584981 C15.8270833,19.5584981 17.5730808,17.8125006 17.5730808,15.6587666 C17.5730808,13.5050327 15.8270833,11.7590352 13.6733494,11.7590352 Z M29.0973469,14.6663329 L22.0973469,14.6663329 C21.5450622,14.6663329 21.0973469,15.1140481 21.0973469,15.6663329 C21.0973469,16.2186176 21.5450622,16.6663329 22.0973469,16.6663329 L29.0973469,16.6663329 C29.6496317,16.6663329 30.0973469,16.2186176 30.0973469,15.6663329 C30.0973469,15.1140481 29.6496317,14.6663329 29.0973469,14.6663329 Z" id="形状结合"></path>
                </g>
                <path d="M30.2685672,6.87486806 C32.0150526,6.87486806 33.4310578,8.25436684 33.4310578,9.95616979 L33.4310578,28.4439802 C33.4310578,30.1457832 32.0150526,31.5252819 30.2685672,31.5252819 L8.13113281,31.5252819 C6.38480549,31.5252819 4.96864219,30.1457832 4.96864219,28.4439802 L4.96864219,9.95616979 C4.96864219,8.25436684 6.38480549,6.87486806 8.13113281,6.87486806 L30.2685672,6.87486806 Z M13.6733494,20.2915176 C10.7188546,20.2915176 8.32375224,22.68662 8.32375224,25.6411148 C8.32375224,26.1933995 8.77146749,26.6411148 9.32375224,26.6411148 C9.87603699,26.6411148 10.3237522,26.1933995 10.3237522,25.6411148 C10.3237522,23.7911895 11.8234241,22.2915176 13.6733494,22.2915176 C15.5232747,22.2915176 17.0229466,23.7911895 17.0229466,25.6411148 C17.0229466,26.1933995 17.4706618,26.6411148 18.0229466,26.6411148 C18.5752313,26.6411148 19.0229466,26.1933995 19.0229466,25.6411148 C19.0229466,22.68662 16.6278442,20.2915176 13.6733494,20.2915176 Z M29.0973469,19.6663329 L23.0973469,19.6663329 C22.5450622,19.6663329 22.0973469,20.1140481 22.0973469,20.6663329 C22.0973469,21.2186176 22.5450622,21.6663329 23.0973469,21.6663329 L29.0973469,21.6663329 C29.6496317,21.6663329 30.0973469,21.2186176 30.0973469,20.6663329 C30.0973469,20.1140481 29.6496317,19.6663329 29.0973469,19.6663329 Z M13.6733494,11.7590352 C11.5196155,11.7590352 9.77361795,13.5050327 9.77361795,15.6587666 C9.77361795,17.8125006 11.5196155,19.5584981 13.6733494,19.5584981 C15.8270833,19.5584981 17.5730808,17.8125006 17.5730808,15.6587666 C17.5730808,13.5050327 15.8270833,11.7590352 13.6733494,11.7590352 Z M29.0973469,14.6663329 L22.0973469,14.6663329 C21.5450622,14.6663329 21.0973469,15.1140481 21.0973469,15.6663329 C21.0973469,16.2186176 21.5450622,16.6663329 22.0973469,16.6663329 L29.0973469,16.6663329 C29.6496317,16.6663329 30.0973469,16.2186176 30.0973469,15.6663329 C30.0973469,15.1140481 29.6496317,14.6663329 29.0973469,14.6663329 Z" id="形状结合"></path>
            </g>
        </g>
    </g>
</svg>