<svg version="1.1" xmlns="http://www.w3.org/2000/svg" width="24" height="24" viewBox="0 0 24 24">
<path fill="currentColor" d="M19 2.050c0.782 0 1.42 0.619 1.449 1.394l0.001 0.056v12.571c0 0.249-0.201 0.45-0.45 0.45-0.236 0-0.43-0.182-0.448-0.413l-0.001-0.037v-12.571c0-0.291-0.225-0.528-0.511-0.549l-0.039-0.001h-14.111c-0.229 0-0.419 0.182-0.437 0.417l-0.001 0.038v17.095c0 0.291 0.225 0.528 0.511 0.549l0.039 0.001h9.954l3.412-3.055c0.175-0.157 0.438-0.151 0.607 0.006l0.029 0.029c0.157 0.175 0.151 0.438-0.006 0.607l-0.029 0.029-3.54 3.169c-0.072 0.065-0.163 0.104-0.259 0.113l-0.041 0.002h-10.126c-0.782 0-1.42-0.619-1.449-1.394l-0.001-0.056v-17.095c0-0.728 0.569-1.325 1.285-1.354l0.054-0.001h14.111z"></path>
<path fill="currentColor" d="M20 15.8c0.249 0 0.45 0.201 0.45 0.45 0 0.236-0.182 0.43-0.413 0.448l-0.037 0.002h-4c-0.291 0-0.528 0.225-0.549 0.511l-0.001 0.039v4.25c0 0.249-0.201 0.45-0.45 0.45-0.236 0-0.43-0.182-0.448-0.413l-0.001-0.037v-4.25c0-0.782 0.619-1.42 1.394-1.449l0.056-0.001h4z"></path>
<path fill="currentColor" d="M7 5.050h10c0.249 0 0.45 0.201 0.45 0.45v3c0 0.249-0.201 0.45-0.45 0.45h-10c-0.249 0-0.45-0.201-0.45-0.45v-3c0-0.249 0.201-0.45 0.45-0.45zM16.55 8.050v-2.1h-9.1v2.1h9.1z"></path>
<path fill="currentColor" d="M15.125 12.175c0.249 0 0.45 0.201 0.45 0.45 0 0.236-0.182 0.43-0.413 0.448l-0.037 0.002h-8c-0.249 0-0.45-0.201-0.45-0.45 0-0.236 0.182-0.43 0.413-0.448l0.037-0.001h8z"></path>
<path fill="currentColor" d="M11.75 15.836c0.249 0 0.45 0.201 0.45 0.45 0 0.236-0.182 0.43-0.413 0.448l-0.037 0.002h-4.5c-0.249 0-0.45-0.201-0.45-0.45 0-0.236 0.182-0.43 0.413-0.449l0.037-0.001h4.5z"></path>
</svg>
