<svg version="1.1" xmlns="http://www.w3.org/2000/svg" width="24" height="24" viewBox="0 0 24 24">
<path fill="currentColor" d="M2 12c0 5.523 4.477 10 10 10s10-4.477 10-10c0-5.523-4.477-10-10-10s-10 4.477-10 10zM11.383 10.889h5.679c0.273 0 0.494 0.221 0.494 0.494v2.84c0 1.841-1.492 3.333-3.333 3.333h-7.284c-0.273 0-0.494-0.221-0.494-0.494v-6.913c0-2.045 1.658-3.704 3.704-3.703l6.914-0c0.273 0 0.494 0.221 0.494 0.494l-0.001 1.234c-0 0.273-0.221 0.494-0.494 0.494l-6.912 0c-0.818 0-1.481 0.663-1.481 1.481v4.691c0 0.273 0.221 0.494 0.494 0.494h4.692c0.818 0 1.481-0.663 1.481-1.481v-0.247c0-0.273-0.221-0.494-0.494-0.494h-3.457c-0.273 0-0.494-0.221-0.494-0.494l0.001-1.235c0-0.272 0.221-0.494 0.494-0.494z"></path>
</svg>
