<svg version="1.1" xmlns="http://www.w3.org/2000/svg" width="24" height="24" viewBox="0 0 24 24">
<path fill="currentColor" d="M21.353 3.203h-18.861c-0.795 0-1.439 0.644-1.439 1.439v14.89c0 0.795 0.644 1.439 1.439 1.439h18.861c0.795 0 1.439-0.644 1.439-1.439v-7.666c0-0.247-0.2-0.447-0.447-0.447s-0.447 0.2-0.447 0.447v7.666c0 0.302-0.244 0.546-0.546 0.546l-18.9-0.001c-0.283-0.020-0.507-0.256-0.507-0.545v-9.712l0.005 0.001c0.024 0.004 0.048 0.006 0.072 0.006h20.323c0.247 0 0.447-0.2 0.447-0.447v-4.739c0-0.795-0.644-1.439-1.439-1.439zM2.491 4.097l18.9 0.001c0.283 0.020 0.507 0.256 0.507 0.545v4.292l-19.912 0.002c-0.012 0.001-0.024 0.002-0.036 0.004l-0.005 0.001v-4.299c0-0.302 0.244-0.546 0.546-0.546z"></path>
<path fill="currentColor" d="M13.564 12.245c-0.187-0.084-0.408-0.001-0.492 0.187l-2.234 4.963c-0.084 0.187-0.001 0.408 0.187 0.492s0.408 0.001 0.492-0.187l2.234-4.963c0.084-0.187 0.001-0.408-0.187-0.492zM10.206 13.033c0.163-0.125 0.397-0.095 0.522 0.068s0.095 0.397-0.068 0.522l-1.824 1.403 1.806 1.22c0.16 0.108 0.21 0.32 0.119 0.486l-0.019 0.031c-0.115 0.17-0.346 0.215-0.517 0.1l-2.234-1.508c-0.21-0.142-0.22-0.449-0.019-0.604l2.234-1.718zM14.357 13.102c0.125-0.163 0.359-0.193 0.522-0.068l2.234 1.718c0.201 0.155 0.192 0.461-0.019 0.604l-2.234 1.508c-0.17 0.115-0.402 0.070-0.517-0.1l-0.019-0.031c-0.091-0.167-0.042-0.378 0.119-0.486l1.806-1.22-1.824-1.403c-0.163-0.125-0.193-0.359-0.068-0.522z"></path>
<path fill="currentColor" d="M4.457 5.277c-0.16 0-0.285 0.042-0.368 0.132-0.087 0.087-0.129 0.208-0.129 0.361v0.191h-0.4v0.323h0.4v1.473h0.396v-1.473h0.459v-0.323h-0.459v-0.181c0-0.059 0.010-0.101 0.038-0.129s0.066-0.042 0.118-0.042h0.327v-0.334h-0.382zM5.664 6.656c0.039-0.107 0.092-0.208 0.164-0.305h0.141c-0.063 0.103-0.11 0.205-0.143 0.308-0.045 0.128-0.066 0.258-0.066 0.387 0 0.128 0.021 0.258 0.066 0.387 0.033 0.101 0.080 0.204 0.143 0.308h-0.141c-0.071-0.098-0.125-0.2-0.164-0.304-0.046-0.125-0.068-0.256-0.068-0.39 0-0.137 0.022-0.267 0.068-0.392zM7.646 6.659c-0.034-0.103-0.082-0.205-0.143-0.308h0.141c0.070 0.097 0.125 0.198 0.164 0.305 0.045 0.125 0.068 0.255 0.068 0.392 0 0.134-0.024 0.265-0.068 0.39-0.039 0.104-0.094 0.205-0.164 0.304h-0.141c0.061-0.104 0.109-0.207 0.143-0.308 0.043-0.13 0.066-0.259 0.066-0.387 0-0.13-0.022-0.259-0.066-0.387zM6.378 6.813l0.265 0.36-0.299 0.409h0.2l0.194-0.284 0.192 0.284h0.2l-0.299-0.409 0.265-0.36h-0.198l-0.159 0.235-0.161-0.235h-0.198z"></path>
<path fill="currentColor" stroke="currentColor" stroke-linejoin="round" stroke-linecap="butt" stroke-miterlimit="4" stroke-width="0.3971" d="M4.457 5.277c-0.16 0-0.285 0.042-0.368 0.132-0.087 0.087-0.129 0.208-0.129 0.361v0.191h-0.4v0.323h0.4v1.473h0.396v-1.473h0.459v-0.323h-0.459v-0.181c0-0.059 0.010-0.101 0.038-0.129s0.066-0.042 0.118-0.042h0.327v-0.334h-0.382zM5.664 6.656c0.039-0.107 0.092-0.208 0.164-0.305h0.141c-0.063 0.103-0.11 0.205-0.143 0.308-0.045 0.128-0.066 0.258-0.066 0.387 0 0.128 0.021 0.258 0.066 0.387 0.033 0.101 0.080 0.204 0.143 0.308h-0.141c-0.071-0.098-0.125-0.2-0.164-0.304-0.046-0.125-0.068-0.256-0.068-0.39 0-0.137 0.022-0.267 0.068-0.392zM7.646 6.659c-0.034-0.103-0.082-0.205-0.143-0.308h0.141c0.070 0.097 0.125 0.198 0.164 0.305 0.045 0.125 0.068 0.255 0.068 0.392 0 0.134-0.024 0.265-0.068 0.39-0.039 0.104-0.094 0.205-0.164 0.304h-0.141c0.061-0.104 0.109-0.207 0.143-0.308 0.043-0.13 0.066-0.259 0.066-0.387 0-0.13-0.022-0.259-0.066-0.387zM6.378 6.813l0.265 0.36-0.299 0.409h0.2l0.194-0.284 0.192 0.284h0.2l-0.299-0.409 0.265-0.36h-0.198l-0.159 0.235-0.161-0.235h-0.198z"></path>
</svg>
