<svg version="1.1" xmlns="http://www.w3.org/2000/svg" width="24" height="24" viewBox="0 0 24 24">
<path fill="currentColor" d="M18.75 2.050l-14.306 0.001c-0.775 0.029-1.394 0.667-1.394 1.449v14.75l0.001 0.056c0.029 0.775 0.667 1.394 1.449 1.394l1.968-0.002c0.231-0.019 0.413-0.212 0.413-0.448 0-0.249-0.201-0.45-0.45-0.45l-1.97-0.001c-0.285-0.020-0.511-0.258-0.511-0.549v-14.75l0.001-0.039c0.020-0.285 0.258-0.511 0.549-0.511l14.289 0.001c0.285 0.020 0.511 0.258 0.511 0.549v4.619l0.001 0.037c0.019 0.231 0.212 0.413 0.449 0.413 0.249 0 0.45-0.201 0.45-0.45v-4.619l-0.001-0.056c-0.029-0.775-0.667-1.394-1.449-1.394zM8.5 9.55h11c0.801 0 1.45 0.649 1.45 1.45v9.5c0 0.801-0.649 1.45-1.45 1.45h-11c-0.801 0-1.45-0.649-1.45-1.45v-7.614c-0-0.004-0-0.007-0-0.011s0-0.007 0-0.011v-1.864c0-0.801 0.649-1.45 1.45-1.45zM7.95 13.325v7.175c0 0.304 0.246 0.55 0.55 0.55h11c0.304 0 0.55-0.246 0.55-0.55v-7.175h-12.1zM20.050 12.425v-1.425c0-0.304-0.246-0.55-0.55-0.55h-11c-0.304 0-0.55 0.246-0.55 0.55v1.425h12.1zM10 11.412c0-0.276-0.224-0.5-0.5-0.5s-0.5 0.224-0.5 0.5c0 0.276 0.224 0.5 0.5 0.5s0.5-0.224 0.5-0.5zM11.5 10.912c0.276 0 0.5 0.224 0.5 0.5s-0.224 0.5-0.5 0.5c-0.276 0-0.5-0.224-0.5-0.5s0.224-0.5 0.5-0.5zM13.5 10.912c0.276 0 0.5 0.224 0.5 0.5s-0.224 0.5-0.5 0.5c-0.276 0-0.5-0.224-0.5-0.5s0.224-0.5 0.5-0.5z"></path>
<path fill="currentColor" d="M14.405 15.352c0.082-0.19 0.302-0.279 0.492-0.197 0.179 0.077 0.268 0.277 0.21 0.459l-0.013 0.034-1.5 3.5c-0.082 0.19-0.302 0.279-0.492 0.197-0.179-0.077-0.268-0.277-0.21-0.459l0.013-0.034 1.5-3.5zM12.543 15.766c-0.129-0.162-0.365-0.188-0.527-0.059l-1.5 1.198-0.028 0.024c-0.166 0.161-0.148 0.439 0.046 0.576l1.5 1.052 0.031 0.019c0.166 0.094 0.38 0.049 0.492-0.111l0.019-0.031c0.094-0.166 0.049-0.38-0.111-0.492l-1.090-0.765 1.109-0.885 0.029-0.025c0.136-0.133 0.151-0.35 0.030-0.502zM15.984 15.707c-0.162-0.129-0.398-0.103-0.527 0.059-0.121 0.152-0.106 0.369 0.030 0.502l0.029 0.025 1.109 0.885-1.090 0.765c-0.16 0.112-0.205 0.326-0.111 0.492l0.019 0.031c0.112 0.16 0.326 0.205 0.492 0.111l0.031-0.019 1.5-1.052c0.195-0.136 0.213-0.414 0.046-0.576l-0.028-0.024-1.5-1.198z"></path>
</svg>
