<svg version="1.1" xmlns="http://www.w3.org/2000/svg" width="24" height="24" viewBox="0 0 24 24">
<path fill="currentColor" d="M7.258 2.834h-2.8c-0.911 0-1.65 0.739-1.65 1.65v2.8c0 0.249 0.201 0.45 0.45 0.45s0.45-0.201 0.45-0.45v-2.8c0-0.414 0.336-0.75 0.75-0.75h2.8c0.249 0 0.45-0.201 0.45-0.45s-0.201-0.45-0.45-0.45zM5.019 10.836c0 0.738 0.326 1.4 0.843 1.849-1.663 0.645-2.843 2.26-2.843 4.151 0 0.249 0.201 0.45 0.45 0.45s0.45-0.201 0.45-0.45c0-1.961 1.589-3.55 3.55-3.55 1.020 0 1.969 0.432 2.639 1.175 0.166 0.185 0.451 0.2 0.636 0.033s0.2-0.451 0.033-0.636c-0.471-0.523-1.054-0.923-1.7-1.174 0.516-0.449 0.843-1.111 0.843-1.849 0-1.353-1.097-2.45-2.45-2.45s-2.45 1.097-2.45 2.45zM9.019 10.836c0 0.853-0.69 1.546-1.542 1.55h-0.016c-0.852-0.004-1.542-0.697-1.542-1.55 0-0.856 0.694-1.55 1.55-1.55s1.55 0.694 1.55 1.55zM16.786 20.951c-0.249 0-0.45-0.201-0.45-0.45s0.201-0.45 0.45-0.45h2.8c0.414 0 0.75-0.336 0.75-0.75v-2.8c0-0.249 0.201-0.45 0.45-0.45s0.45 0.201 0.45 0.45v2.8c0 0.911-0.739 1.65-1.65 1.65h-2.8z"></path>
<path fill="currentColor" d="M15.7 5.503c1.905 0 3.45 1.545 3.45 3.45 0 1.164-0.577 2.194-1.46 2.819 0.631 0.174 1.236 0.432 1.801 0.766 0.214 0.127 0.285 0.403 0.158 0.617s-0.403 0.285-0.616 0.158c-1.001-0.593-2.143-0.91-3.332-0.91-3.617 0-6.55 2.933-6.55 6.55 0 0.249-0.201 0.45-0.45 0.45s-0.45-0.201-0.45-0.45c0-3.425 2.312-6.311 5.46-7.181-0.883-0.625-1.46-1.654-1.46-2.819 0-1.905 1.545-3.45 3.45-3.45zM15.71 11.503c1.404-0.006 2.54-1.145 2.54-2.55 0-1.408-1.142-2.55-2.55-2.55s-2.55 1.142-2.55 2.55c0 1.405 1.136 2.544 2.54 2.55h0.021z"></path>
</svg>
