<svg version="1.1" xmlns="http://www.w3.org/2000/svg" width="24" height="24" viewBox="0 0 24 24">
<path fill="currentColor" d="M3.875 2.156c-0.809 0-1.466 0.656-1.466 1.466v9.395l0.001 0.055c0.029 0.784 0.674 1.411 1.465 1.411l0.897-0 1.351 1.126 0.034 0.025c0.172 0.118 0.406 0.103 0.562-0.042l1.189-1.11 9.169 0c0.81 0 1.466-0.656 1.466-1.466v-9.395c0-0.809-0.656-1.466-1.466-1.466h-13.201zM3.875 3.056h13.201c0.312 0 0.566 0.253 0.566 0.566v9.395c0 0.312-0.253 0.566-0.566 0.566l-9.389 0.002c-0.098 0.009-0.192 0.051-0.264 0.119l-1.029 0.96-1.17-0.976c-0.081-0.067-0.183-0.104-0.288-0.104h-1.060c-0.312 0-0.566-0.253-0.566-0.566v-9.395c0-0.312 0.253-0.566 0.566-0.566zM19.566 11.55c-0.249 0-0.45 0.201-0.45 0.45 0 0.236 0.182 0.43 0.413 0.448l0.037 0.002h1.007c0.299 0 0.544 0.233 0.564 0.527l0.001 0.039v6.45c0 0.299-0.233 0.544-0.527 0.564l-0.039 0.001h-0.525c-0.092 0-0.182 0.028-0.257 0.081l-0.031 0.024-0.79 0.659-0.689-0.642c-0.073-0.068-0.166-0.11-0.264-0.119l-0.042-0.002h-7.243c-0.299 0-0.544-0.232-0.564-0.527l-0.001-0.039v-3.967c0-0.249-0.202-0.45-0.45-0.45-0.236 0-0.43 0.182-0.449 0.413l-0.002 0.037v3.967c0 0.791 0.627 1.436 1.411 1.465l0.055 0.001 7.066-0 0.849 0.793c0.156 0.145 0.389 0.16 0.562 0.042l0.034-0.025 0.97-0.809 0.362 0c0.791 0 1.436-0.627 1.465-1.411l0.001-0.055v-6.45c0-0.791-0.627-1.436-1.411-1.465l-0.055-0.001h-1.007zM13.777 16.824c0-0.421-0.341-0.762-0.762-0.762s-0.762 0.341-0.762 0.762c0 0.421 0.341 0.762 0.762 0.762s0.762-0.341 0.762-0.762zM15.961 16.062c0.421 0 0.762 0.341 0.762 0.762s-0.341 0.762-0.762 0.762c-0.421 0-0.762-0.341-0.762-0.762s0.341-0.762 0.762-0.762zM19.668 16.824c0-0.421-0.341-0.762-0.762-0.762s-0.762 0.341-0.762 0.762c0 0.421 0.341 0.762 0.762 0.762s0.762-0.341 0.762-0.762z"></path>
<path fill="currentColor" d="M15.624 6.795c0-0.249-0.201-0.45-0.45-0.45l-10.32 0.002c-0.231 0.019-0.413 0.212-0.413 0.449 0 0.249 0.201 0.45 0.45 0.45l10.32-0.002c0.231-0.019 0.413-0.212 0.413-0.449zM12.831 9.588c0-0.249-0.201-0.45-0.45-0.45l-7.527 0.002c-0.231 0.019-0.413 0.212-0.413 0.449 0 0.249 0.201 0.45 0.45 0.45l7.527-0.002c0.231-0.019 0.413-0.212 0.413-0.448z"></path>
</svg>
