<svg version="1.1" xmlns="http://www.w3.org/2000/svg" width="24" height="24" viewBox="0 0 24 24">
<path fill="currentColor" d="M21.699 3.781c-0.030-0.823-0.706-1.481-1.536-1.481l-10.469 0.001c-0.775 0.029-1.394 0.667-1.394 1.449v0.297l0.002 0.037c0.019 0.231 0.212 0.413 0.449 0.413 0.249 0 0.45-0.201 0.45-0.45v-0.297l0.001-0.039c0.020-0.285 0.258-0.511 0.549-0.511l10.455 0.001c0.332 0.022 0.595 0.298 0.595 0.636v10.413l-0.001 0.039c-0.020 0.285-0.258 0.511-0.549 0.511h-0.268l-0.037 0.002c-0.231 0.019-0.413 0.212-0.413 0.448 0 0.249 0.201 0.45 0.45 0.45h0.268l0.056-0.001c0.775-0.029 1.394-0.667 1.394-1.449v-10.413l-0.001-0.056zM17.163 5.3c0.83 0 1.506 0.658 1.536 1.481l0.001 0.056v10.413c0 0.782-0.619 1.42-1.394 1.449l-0.056 0.001h-0.268c-0.249 0-0.45-0.201-0.45-0.45 0-0.236 0.182-0.43 0.413-0.448l0.037-0.001h0.268c0.291 0 0.528-0.225 0.549-0.511l0.001-0.039v-10.413c0-0.338-0.263-0.614-0.595-0.636l-0.042-0.001h-10.413c-0.291 0-0.528 0.225-0.549 0.511l-0.001 0.039v0.297c0 0.249-0.201 0.45-0.45 0.45-0.236 0-0.43-0.182-0.449-0.413l-0.002-0.037v-0.297c0-0.782 0.619-1.42 1.394-1.449l0.056-0.001h10.413zM14 8.55h-10.5c-0.801 0-1.45 0.649-1.45 1.45v10.5c0 0.801 0.649 1.45 1.45 1.45h10.5c0.801 0 1.45-0.649 1.45-1.45v-10.5c0-0.801-0.649-1.45-1.45-1.45zM3.5 9.45h10.5c0.304 0 0.55 0.246 0.55 0.55v10.5c0 0.304-0.246 0.55-0.55 0.55h-10.5c-0.304 0-0.55-0.246-0.55-0.55v-10.5c0-0.304 0.246-0.55 0.55-0.55z"></path>
<path fill="currentColor" d="M7.25 13.75c-0.414 0-0.75 0.336-0.75 0.75 0 0.012 0 0.025 0.001 0.037l-1.38 0.811c-0.109-0.063-0.236-0.098-0.371-0.098-0.414 0-0.75 0.336-0.75 0.75s0.336 0.75 0.75 0.75c0.414 0 0.75-0.336 0.75-0.75v-0.005l1.408-0.828c0.103 0.053 0.219 0.082 0.342 0.082 0.12 0 0.233-0.028 0.333-0.078l1.669 1.387c0.030 0.387 0.353 0.691 0.748 0.691 0.346 0 0.637-0.234 0.723-0.552l2.033-1.489c0.076 0.026 0.158 0.040 0.243 0.040 0.414 0 0.75-0.336 0.75-0.75s-0.336-0.75-0.75-0.75c-0.414 0-0.75 0.336-0.75 0.75 0 0.048 0.005 0.096 0.013 0.141l-1.769 1.295c-0.132-0.116-0.305-0.186-0.495-0.186-0.149 0-0.288 0.044-0.405 0.119l-1.596-1.326c0.001-0.014 0.001-0.028 0.001-0.042 0-0.414-0.336-0.75-0.75-0.75z"></path>
</svg>
