<svg version="1.1" xmlns="http://www.w3.org/2000/svg" width="24" height="24" viewBox="0 0 24 24">
<path fill="currentColor" d="M8.096 4.905c0.098 0.056 0.175 0.132 0.231 0.229 0.028 0.048 0.049 0.099 0.063 0.151s0.021 0.107 0.021 0.163v0.103h3.657c0.163-0.577 0.694-1 1.323-1 0.759 0 1.375 0.616 1.375 1.375 0 0.589-0.371 1.092-0.892 1.288v3.64l1.221 0.695c0.098 0.056 0.175 0.132 0.231 0.229 0.028 0.048 0.049 0.099 0.064 0.151s0.021 0.107 0.021 0.163v1.459c0 0.112-0.028 0.217-0.085 0.314-0.028 0.049-0.062 0.092-0.1 0.13s-0.082 0.071-0.131 0.099l-1.287 0.733c-0.048 0.027-0.098 0.048-0.149 0.061s-0.105 0.020-0.16 0.020c-0.11 0-0.213-0.027-0.309-0.082l-1.287-0.733c-0.049-0.028-0.092-0.061-0.131-0.099s-0.072-0.081-0.1-0.13c-0.028-0.049-0.049-0.099-0.064-0.151s-0.021-0.107-0.021-0.163v-0.251h-3.765c-0.163 0.577-0.694 1-1.323 1-0.759 0-1.375-0.616-1.375-1.375 0-0.629 0.423-1.16 1-1.323v-3.457l-1.221-0.695c-0.049-0.028-0.092-0.061-0.131-0.099s-0.072-0.081-0.1-0.13-0.049-0.099-0.063-0.151c-0.014-0.052-0.021-0.107-0.021-0.163v-1.459c0-0.056 0.007-0.11 0.021-0.163s0.035-0.103 0.063-0.151c0.028-0.049 0.062-0.092 0.1-0.13s0.082-0.071 0.131-0.099l1.287-0.733c0.048-0.027 0.098-0.048 0.149-0.061l0-0q0.077-0.020 0.16-0.020c0.055 0 0.109 0.007 0.16 0.021s0.101 0.034 0.149 0.061l1.287 0.733zM8.411 6.301v0.606c0 0.112-0.028 0.217-0.085 0.314-0.028 0.049-0.062 0.092-0.1 0.13s-0.082 0.071-0.131 0.099l-1.221 0.695v3.457c0.458 0.129 0.819 0.49 0.948 0.948h3.765v-0.459c0-0.056 0.007-0.11 0.021-0.163s0.035-0.103 0.064-0.151c0.028-0.049 0.062-0.092 0.1-0.13s0.082-0.071 0.131-0.099l1.221-0.695v-3.579c-0.509-0.1-0.917-0.481-1.057-0.974h-3.657zM7.311 5.322l-0.811-0.462-0.811 0.462 0.502 0.286c0.048 0.027 0.098 0.048 0.149 0.061l0 0q0.077 0.020 0.16 0.020t0.159-0.020l0.001-0c0.052-0.014 0.101-0.034 0.149-0.061l0.502-0.286zM5.338 5.985v0.85l0.786 0.442v-0.89c-0.047-0.013-0.093-0.029-0.138-0.047-0.057-0.023-0.113-0.050-0.167-0.081l-0.481-0.274zM6.875 7.277l0.787-0.442v-0.85l-0.481 0.274c-0.054 0.031-0.11 0.058-0.167 0.081-0.045 0.018-0.091 0.034-0.138 0.047v0.89zM13.391 5.301c-0.345 0-0.625 0.28-0.625 0.625s0.28 0.625 0.625 0.625c0.345 0 0.625-0.28 0.625-0.625s-0.28-0.625-0.625-0.625zM14.311 11.966l-0.811-0.462-0.811 0.462 0.502 0.286c0.048 0.027 0.098 0.048 0.149 0.061l0 0q0.077 0.020 0.16 0.020t0.159-0.020l0.001-0c0.052-0.014 0.101-0.034 0.149-0.061l0.502-0.286zM12.338 12.629v0.85l0.786 0.448v-0.896c-0.047-0.013-0.093-0.029-0.138-0.047-0.057-0.023-0.113-0.050-0.167-0.081l-0.481-0.274zM13.875 13.927l0.787-0.448v-0.85l-0.481 0.274c-0.054 0.031-0.11 0.058-0.167 0.081-0.045 0.018-0.091 0.034-0.138 0.047v0.896zM6.5 12.301c-0.345 0-0.625 0.28-0.625 0.625s0.28 0.625 0.625 0.625c0.345 0 0.625-0.28 0.625-0.625s-0.28-0.625-0.625-0.625z"></path>
<path fill="currentColor" d="M17.057 2.156c-0.171-0.071-0.356-0.106-0.557-0.106h-13c-0.2 0-0.386 0.035-0.557 0.106s-0.327 0.177-0.469 0.318c-0.142 0.142-0.248 0.298-0.319 0.469s-0.106 0.356-0.106 0.557v17c0 0.2 0.035 0.386 0.106 0.557s0.177 0.327 0.319 0.469c0.142 0.142 0.298 0.248 0.469 0.319s0.356 0.106 0.557 0.106h13c0.095 0 0.186-0.008 0.274-0.024 0.046 0.015 0.095 0.024 0.146 0.024h3.58c0.105 0 0.209-0.011 0.309-0.033 0.087-0.019 0.172-0.046 0.255-0.081s0.162-0.077 0.236-0.126c0.081-0.053 0.156-0.115 0.225-0.184 0.134-0.134 0.237-0.287 0.311-0.461 0.076-0.18 0.114-0.368 0.114-0.564v-10c0-0.197-0.038-0.385-0.114-0.565-0.073-0.174-0.177-0.327-0.311-0.461s-0.287-0.237-0.461-0.31c-0.18-0.076-0.368-0.114-0.565-0.114h-1.080c-0.252 0-0.45 0.198-0.45 0.45s0.198 0.45 0.45 0.45h1.080c0.075 0 0.146 0.014 0.214 0.043 0.066 0.028 0.124 0.067 0.175 0.118s0.090 0.109 0.118 0.175c0.029 0.068 0.043 0.139 0.043 0.214v10c0 0.045-0.005 0.088-0.015 0.13-0.007 0.028-0.016 0.056-0.028 0.084-0.028 0.066-0.067 0.124-0.118 0.175s-0.109 0.090-0.175 0.118c-0.027 0.011-0.055 0.021-0.084 0.028-0.042 0.010-0.086 0.015-0.13 0.015h-2.653c0.069-0.169 0.103-0.352 0.103-0.55v-17c0-0.2-0.035-0.386-0.106-0.557s-0.177-0.327-0.319-0.469c-0.142-0.142-0.298-0.248-0.469-0.318zM3.5 2.95h13c0.076 0 0.146 0.013 0.211 0.040s0.124 0.067 0.178 0.121c0.054 0.054 0.094 0.113 0.121 0.178s0.040 0.135 0.040 0.211v17c0 0.183-0.046 0.321-0.137 0.413s-0.229 0.137-0.413 0.137h-13c-0.183 0-0.321-0.046-0.412-0.137s-0.138-0.229-0.138-0.413v-17c0-0.183 0.046-0.321 0.138-0.412s0.229-0.137 0.412-0.137zM5 16.751h7c0.252 0 0.45 0.198 0.45 0.45s-0.198 0.45-0.45 0.45h-7c-0.252 0-0.45-0.198-0.45-0.45s0.198-0.45 0.45-0.45zM10 18.751h-5c-0.252 0-0.45 0.198-0.45 0.45s0.198 0.45 0.45 0.45h5c0.252 0 0.45-0.198 0.45-0.45s-0.198-0.45-0.45-0.45z"></path>
</svg>
