<svg version="1.1" xmlns="http://www.w3.org/2000/svg" width="24" height="24" viewBox="0 0 24 24">
<path opacity="0.8" fill="currentColor" d="M12.708 5.281c0-0.322-0.261-0.583-0.583-0.583h-5.856c-0.92 0-1.667 0.746-1.667 1.667v11.145c0 0.921 0.746 1.667 1.667 1.667h11.354c0.921 0 1.667-0.746 1.667-1.667v-5.798c0-0.322-0.261-0.583-0.583-0.583s-0.583 0.261-0.583 0.583v5.798c0 0.276-0.224 0.5-0.5 0.5h-11.354c-0.276 0-0.5-0.224-0.5-0.5v-11.145c0-0.276 0.224-0.5 0.5-0.5h5.856c0.322 0 0.583-0.261 0.583-0.583zM17.422 4.701c0.921 0 1.667 0.746 1.667 1.667v3.292c0 0.322-0.261 0.583-0.583 0.583s-0.583-0.261-0.583-0.583v-2.928l-4.11 4.072c-0.229 0.227-0.598 0.225-0.825-0.004s-0.225-0.598 0.004-0.825l4.146-4.108h-3.006c-0.322 0-0.583-0.261-0.583-0.583s0.261-0.583 0.583-0.583h3.292z"></path>
</svg>
