<svg version="1.1" xmlns="http://www.w3.org/2000/svg" width="32" height="32" viewBox="0 0 32 32">
<path class="path-fill" d="M23 18.067c3.277 0 5.933 2.656 5.933 5.933s-2.656 5.933-5.933 5.933c-3.277 0-5.933-2.656-5.933-5.933s2.656-5.933 5.933-5.933zM23 19.267c-2.614 0-4.733 2.119-4.733 4.733s2.119 4.733 4.733 4.733c2.614 0 4.733-2.119 4.733-4.733s-2.119-4.733-4.733-4.733zM25.145 21.203c0.405-0.164 0.811 0.233 0.655 0.641l-1.294 3.394c-0.051 0.134-0.157 0.239-0.291 0.29l-3.373 1.273c-0.41 0.155-0.806-0.255-0.638-0.66l1.387-3.335c0.051-0.123 0.15-0.221 0.274-0.271zM24.457 22.562l-2.022 0.821-0.862 2.074 2.080-0.785 0.804-2.11z"></path>
<path fill="currentColor" d="M18.333 2.733c0.028 0 0.056 0.002 0.083 0.006l-0.083-0.006c0.045 0 0.089 0.005 0.131 0.014 0.009 0.002 0.018 0.005 0.028 0.007 0.013 0.003 0.025 0.007 0.037 0.011 0.038 0.013 0.074 0.030 0.109 0.051 0.020 0.012 0.039 0.024 0.057 0.038 0.009 0.007 0.018 0.014 0.026 0.021l0.024 0.022 6.333 6.010c0.106 0.101 0.171 0.236 0.184 0.381l0.002 0.055v7.537c0 0.331-0.269 0.6-0.6 0.6-0.315 0-0.573-0.242-0.598-0.551l-0.002-0.049-0.001-6.615-4.466 0.001c-1.006 0-1.827-0.796-1.865-1.793l-0.001-0.073v-4.467h-13.133c-0.351 0-0.639 0.272-0.665 0.617l-0.002 0.050v22.8c0 0.351 0.272 0.639 0.617 0.665l0.050 0.002h10.733c0.331 0 0.6 0.269 0.6 0.6 0 0.315-0.242 0.573-0.551 0.598l-0.049 0.002h-10.733c-1.006 0-1.827-0.796-1.865-1.793l-0.001-0.073v-22.8c0-1.006 0.796-1.827 1.793-1.865l0.073-0.001h13.733zM15.333 20.233c0.331 0 0.6 0.269 0.6 0.6 0 0.315-0.242 0.573-0.551 0.598l-0.049 0.002h-8c-0.331 0-0.6-0.269-0.6-0.6 0-0.315 0.242-0.573 0.551-0.598l0.049-0.002h8zM15.333 15.233c0.331 0 0.6 0.269 0.6 0.6 0 0.315-0.242 0.573-0.551 0.598l-0.049 0.002h-8c-0.331 0-0.6-0.269-0.6-0.6 0-0.315 0.242-0.573 0.551-0.598l0.049-0.002h8zM12.167 10.233c0.331 0 0.6 0.269 0.6 0.6 0 0.315-0.242 0.573-0.551 0.598l-0.049 0.002h-4.833c-0.331 0-0.6-0.269-0.6-0.6 0-0.315 0.242-0.573 0.551-0.598l0.049-0.002h4.833zM18.933 4.73v3.67c0 0.351 0.272 0.639 0.617 0.665l0.050 0.002 3.902-0.001-4.569-4.336z"></path>
</svg>
