<svg version="1.1" xmlns="http://www.w3.org/2000/svg" width="32" height="32" viewBox="0 0 32 32">
<path fill="currentColor" d="M12.234 14.917c0.23-0.239 0.61-0.246 0.848-0.016 0.225 0.217 0.244 0.568 0.052 0.807l-0.036 0.041-8.667 9c-0.23 0.239-0.61 0.246-0.848 0.016-0.225-0.217-0.244-0.568-0.052-0.807l0.036-0.041 8.667-9z"></path>
<path fill="currentColor" d="M19.766 14.917c-0.23-0.239-0.61-0.246-0.848-0.016-0.225 0.217-0.244 0.568-0.052 0.807l0.036 0.041 8.667 9c0.23 0.239 0.61 0.246 0.848 0.016 0.225-0.217 0.244-0.568 0.052-0.807l-0.036-0.041-8.667-9z"></path>
<path class="path-fill" d="M3.552 6.934c0.208-0.234 0.558-0.266 0.805-0.083l0.042 0.035 11.087 9.887c0.262 0.234 0.65 0.247 0.927 0.041l0.048-0.039 11.141-9.863c0.248-0.22 0.627-0.197 0.847 0.052 0.207 0.234 0.198 0.586-0.012 0.809l-0.039 0.038-11.141 9.863c-0.711 0.63-1.77 0.647-2.501 0.053l-0.067-0.058-11.087-9.887c-0.247-0.221-0.269-0.6-0.049-0.847z"></path>
<path fill="currentColor" d="M27.667 6.4c1.043 0 1.893 0.826 1.932 1.859l0.001 0.074v9.452c0 0.331-0.269 0.6-0.6 0.6-0.315 0-0.573-0.242-0.598-0.551l-0.002-0.049v-9.451c0-0.387-0.3-0.705-0.681-0.732l-0.052-0.002h-23.333c-0.387 0-0.705 0.3-0.732 0.681l-0.002 0.052v15.333c0 0.387 0.3 0.705 0.681 0.732l0.052 0.002h23.333c0.387 0 0.705-0.3 0.732-0.681l0.002-0.052v-2.452c0-0.331 0.269-0.6 0.6-0.6 0.315 0 0.573 0.242 0.598 0.551l0.002 0.049v2.452c0 1.043-0.826 1.893-1.859 1.932l-0.074 0.001h-23.333c-1.043 0-1.893-0.826-1.932-1.859l-0.001-0.074v-15.333c0-1.043 0.826-1.893 1.859-1.932l0.074-0.001h23.333z"></path>
</svg>
