<svg version="1.1" xmlns="http://www.w3.org/2000/svg" width="24" height="24" viewBox="0 0 24 24">
<path d="M12 2.1c-5.467 0-9.9 4.433-9.9 9.9s4.433 9.9 9.9 9.9c5.468 0 9.9-4.432 9.9-9.9s-4.432-9.9-9.9-9.9zM12 3.263c4.825 0 8.736 3.911 8.736 8.737s-3.911 8.736-8.737 8.736c-4.825 0-8.737-3.911-8.737-8.737s3.911-8.737 8.737-8.737zM16.837 13.769c-0.278-0.161-0.634-0.066-0.795 0.212-0.835 1.443-2.369 2.333-4.042 2.333s-3.207-0.89-4.042-2.333c-0.161-0.278-0.517-0.373-0.795-0.212s-0.373 0.517-0.212 0.795c1.043 1.802 2.959 2.914 5.049 2.914s4.007-1.112 5.049-2.915c0.145-0.25 0.082-0.564-0.134-0.741l-0.078-0.054zM7.682 8.464c-0.572 0-1.036 0.464-1.036 1.036s0.464 1.037 1.036 1.037c0.572 0 1.036-0.464 1.036-1.037s-0.464-1.036-1.036-1.036zM16.319 8.464c-0.572 0-1.037 0.464-1.037 1.036s0.464 1.037 1.037 1.037c0.572 0 1.037-0.464 1.037-1.037s-0.464-1.036-1.037-1.036z"></path>
</svg>
