<svg version="1.1" xmlns="http://www.w3.org/2000/svg" width="24" height="24" viewBox="0 0 24 24">
<path d="M4.627 18.137l0.019-0.063 0.088-0.274 0.023-0.065 0.024-0.067 0.037-0.101 0.078-0.197 0.050-0.118 0.034-0.078 0.076-0.165 0.065-0.133 0.066-0.13 0.059-0.11 0.059-0.107 0.088-0.151 0.078-0.129 0.065-0.103 0.038-0.059 0.077-0.115 0.080-0.115 0.080-0.111c0.091-0.124 0.186-0.245 0.285-0.364l0.101-0.119 0.109-0.122 0.11-0.119c0.090-0.095 0.182-0.188 0.277-0.279l0.101-0.095 0.095-0.086 0.066-0.058 0.005-0.001 0.142-0.122c0.055-0.046 0.112-0.091 0.169-0.136l0.087-0.067 0.182-0.134 0.13-0.091 0.093-0.063 0.092-0.061 0.128-0.080 0.076-0.046 0.077-0.046 0.142-0.081 0.008-0.003 0.017-0.011 0.064-0.034 0.125-0.065 0.108-0.055 0.112-0.054 0.121-0.057 0.098-0.043 0.115-0.049 0.168-0.068 0.102-0.039 0.181-0.064c0.749-0.258 1.537-0.4 2.342-0.416l0.245-0.002c2.566-0.043 4.627-2.138 4.627-4.708 0-2.601-2.108-4.709-4.709-4.709s-4.709 2.108-4.709 4.709c0 1.498 0.704 2.878 1.875 3.761l0.079 0.058 0.314 0.226-0.366 0.125c-0.257 0.088-0.51 0.188-0.757 0.299l-0.249 0.117-0.203 0.103-0.178 0.096-0.152 0.086-0.184 0.11-0.138 0.086-0.126 0.082-0.096 0.064-0.053 0.037c-0.117 0.081-0.232 0.165-0.345 0.252-0.062 0.047-0.122 0.095-0.182 0.144l-0.080 0.066-0.11 0.093-0.080 0.070-0.115 0.104-0.061 0.056c-0.049 0.045-0.096 0.091-0.144 0.137l-0.123 0.122-0.162 0.169c-0.082 0.087-0.161 0.176-0.239 0.267l-0.061 0.072-0.131 0.16-0.109 0.138-0.139 0.187c-0.040 0.056-0.081 0.112-0.12 0.169-0.034 0.049-0.067 0.098-0.099 0.146l-0.063 0.097-0.061 0.097-0.059 0.096-0.031 0.052-0.058 0.098-0.085 0.149-0.056 0.104c-0.052 0.096-0.101 0.193-0.149 0.29l-0.115 0.244-0.032 0.072c-0.092 0.211-0.176 0.425-0.252 0.642l-0.023 0.068-0.058 0.178-0.053 0.173-0.038 0.136-0.045 0.173-0.015 0.059-0.017 0.071c-0.012 0.051-0.023 0.101-0.035 0.152l-0.029 0.136-0.032 0.172-0.018 0.107-0.025 0.164-0.017 0.127-0.019 0.161-0.012 0.114-0.013 0.142-0.008 0.113-0.007 0.103-0.010 0.213-0.005 0.167v0.117c0 0.264 0.205 0.481 0.459 0.5l0.037 0.002 0.037-0.001c0.263-0.016 0.47-0.235 0.47-0.5 0-0.090 0.002-0.179 0.005-0.269l0.006-0.135 0.006-0.102 0.008-0.101c0.009-0.112 0.019-0.223 0.033-0.333l0.023-0.176 0.024-0.154 0.022-0.122 0.023-0.12c0.013-0.064 0.026-0.128 0.041-0.192l0.029-0.125 0.024-0.097 0.010 0.002-0.010-0.005 0.064-0.232zM15.5 12.875c-0.137 0.206-0.082 0.484 0.125 0.621 0.001 0.001 0.001 0.001 0.002 0.002l0.308 0.203c0.039 0.023 0.068 0.041 0.088 0.053 2.167 1.333 3.581 3.692 3.655 6.328l0.002 0.109 0.001 0.107c0 0.277 0.224 0.501 0.501 0.501s0.501-0.224 0.501-0.501c0-2.954-1.488-5.639-3.864-7.225-0.024-0.016-0.061-0.040-0.109-0.071l-0.561-0.293c-0.227-0.119-0.507-0.047-0.649 0.166zM12 4.202c2.047 0 3.707 1.66 3.707 3.707s-1.66 3.707-3.707 3.707c-2.047 0-3.707-1.66-3.707-3.707s1.66-3.707 3.707-3.707z"></path>
</svg>
