<!-- Generated by IcoMoon.io -->
<svg version="1.1" xmlns="http://www.w3.org/2000/svg" width="24" height="24" viewBox="0 0 24 24">
<path opacity="0.8" d="M19.724 4.238c1.105 0 2 0.895 2 2v6.772c0 0.387-0.313 0.7-0.7 0.7s-0.7-0.313-0.7-0.7v-0.816l-3.544 3.84c-0.248 0.268-0.661 0.301-0.948 0.075l-4.13-3.256-3.925 3.843c-0.249 0.243-0.632 0.264-0.904 0.064l-0.086-0.075c-0.27-0.276-0.266-0.72 0.011-0.99l4.365-4.273c0.251-0.246 0.647-0.267 0.923-0.050l4.104 3.235 4.134-4.478v-3.892c0-0.331-0.269-0.6-0.6-0.6h-15.45c-0.331 0-0.6 0.269-0.6 0.6v11.501c0 0.331 0.269 0.6 0.6 0.6h9.781c0.387 0 0.7 0.313 0.7 0.7s-0.313 0.7-0.7 0.7h-9.781c-1.105 0-2-0.895-2-2v-11.501c0-1.105 0.895-2 2-2h15.45zM9.532 8.878c0-0.695-0.579-1.259-1.294-1.259s-1.294 0.564-1.294 1.259c0 0.695 0.579 1.259 1.294 1.259s1.294-0.564 1.294-1.259zM16.561 18.645c-0.195-0.195-0.195-0.512 0-0.707l2.090-2.090c0.010-0.011 0.020-0.021 0.030-0.030l0.001-0.001c0.195-0.195 0.512-0.195 0.707 0l2.121 2.121c0.195 0.195 0.195 0.512 0 0.707s-0.512 0.195-0.707 0l-1.284-1.284v3.57c0 0.276-0.224 0.5-0.5 0.5s-0.5-0.224-0.5-0.5v-3.538l-1.251 1.251c-0.174 0.174-0.443 0.193-0.638 0.058l-0.069-0.058z"></path>
</svg>
