<!-- Generated by IcoMoon.io -->
<svg version="1.1" xmlns="http://www.w3.org/2000/svg" width="32" height="32" viewBox="0 0 32 32">
    <path
        d="M26.307 5.012c1.473 0 2.667 1.194 2.667 2.667v7.321c0 0.515-0.418 0.933-0.933 0.933s-0.933-0.418-0.933-0.933l-0.001-6.998-9.461 7.829c-0.998 0.826-2.445 0.815-3.431-0.026l-9.466-8.075v16.67c0 0.442 0.358 0.8 0.8 0.8h20.758c0.442 0 0.8-0.358 0.8-0.8v-5.395c0-0.515 0.418-0.933 0.933-0.933s0.933 0.418 0.933 0.933v5.395c0 1.473-1.194 2.667-2.667 2.667h-20.758c-1.473 0-2.667-1.194-2.667-2.667v-16.721c0-1.473 1.194-2.667 2.667-2.667h20.758zM25.535 6.877h-18.909l8.8 7.507c0.296 0.252 0.73 0.255 1.029 0.008l9.080-7.514z">
    </path>
</svg>