<svg viewBox="0 0 32 31.0303" xmlns="http://www.w3.org/2000/svg" width="32" height="31.0303">
  <rect width="32" height="31.0303" fill="transparent" />
  <path d="M14.9413 28.8319C12.436 28.5468 9.72062 27.4817 8.05541 26.1465C7.11029 25.3964 5.5501 23.6862 4.96503 22.7861C3.1798 20.0258 2.45971 16.6053 2.99978 13.4999C3.52485 10.5146 4.755 8.17428 6.93027 6.04401C10.7107 2.33855 16.7565 1.16841 21.6021 3.20866C23.1923 3.88374 24.7225 4.82886 25.3526 5.51895C26.5827 6.88412 26.1327 9.1044 24.4825 9.9295C23.7774 10.2745 22.4722 10.2895 21.9621 9.9595C21.4521 9.62946 20.987 8.72935 20.867 7.81424C20.807 7.37918 20.732 7.01914 20.717 7.01914C20.687 7.01914 20.3119 7.22916 19.8919 7.46919C18.5117 8.27929 18.1067 8.39931 15.9914 8.53433C14.8813 8.59433 13.6511 8.69935 13.2761 8.75935C12.586 8.84937 11.7459 8.72935 10.4107 8.3093L9.70562 8.08427L9.73562 9.53945C9.75062 10.9496 9.73562 11.0246 9.13555 12.2698C8.35545 13.89 8.07041 14.8651 7.95040 16.3053C7.66536 19.7707 9.55560 22.3511 13.141 23.3712C15.4663 24.0313 19.3068 23.8962 21.3921 23.0711C23.3873 22.276 25.1425 20.4308 25.1425 19.1106C25.1425 18.5706 24.4525 17.8805 23.7024 17.7005C23.3873 17.6105 22.1872 17.5054 21.047 17.4604C18.6317 17.3554 16.9515 17.1304 16.4865 16.8304C16.0214 16.5303 15.7814 15.6902 15.9914 15.0601C16.2014 14.4001 16.5315 14.115 17.5066 13.755C18.1667 13.4999 18.6467 13.4549 20.567 13.4549C24.6475 13.4549 26.5677 13.965 28.0679 15.4652C29.7931 17.2054 29.9731 19.8457 28.518 22.186C26.3727 25.6215 23.8374 27.5867 20.402 28.4718C19.2468 28.7869 16.1864 28.9819 14.9413 28.8319Z" fill="rgb(214,34,64)" fill-rule="nonzero"/>
</svg>