<!-- Generated by IcoMoon.io -->
<svg version="1.1" xmlns="http://www.w3.org/2000/svg" width="32" height="32" viewBox="0 0 32 32">
<path fill="currentColor" d="M13.278 17.427c-0.095 0.048-0.203 0.072-0.323 0.072-0.089 0-0.174-0.014-0.254-0.041-0.063-0.022-0.124-0.052-0.182-0.091-0.006-0.004-0.012-0.008-0.017-0.012-0.121-0.087-0.218-0.209-0.29-0.365-0.075-0.163-0.113-0.356-0.113-0.578s0.037-0.414 0.111-0.578c0.067-0.149 0.158-0.265 0.272-0.349 0.011-0.008 0.023-0.017 0.035-0.024 0.059-0.039 0.121-0.069 0.186-0.090 0.080-0.026 0.164-0.039 0.252-0.039 0.12 0 0.227 0.024 0.323 0.072 0.152 0.077 0.274 0.214 0.365 0.413l0.605-0.356c-0.005-0.015-0.010-0.030-0.016-0.045-0.050-0.13-0.129-0.249-0.236-0.357-0.119-0.12-0.266-0.216-0.441-0.287s-0.369-0.106-0.582-0.106c-0.199 0-0.386 0.031-0.562 0.094-0.091 0.033-0.179 0.074-0.265 0.123-0.086 0.050-0.167 0.107-0.241 0.171-0.14 0.121-0.258 0.268-0.354 0.44-0.146 0.263-0.219 0.569-0.219 0.917s0.073 0.655 0.219 0.919c0.097 0.176 0.217 0.325 0.36 0.448 0.072 0.062 0.15 0.118 0.234 0.166s0.17 0.089 0.26 0.121c0.178 0.064 0.367 0.096 0.567 0.096 0.213 0 0.407-0.035 0.582-0.106s0.322-0.166 0.441-0.285c0.104-0.105 0.181-0.221 0.232-0.348 0.007-0.018 0.014-0.036 0.020-0.055l-0.605-0.355c-0.091 0.199-0.213 0.337-0.365 0.413z"></path>
<path fill="currentColor" d="M16.58 14.865c-0.205-0.092-0.444-0.139-0.719-0.139h-1.197v3.382h0.73v-1.122h0.467c0.277 0 0.518-0.046 0.721-0.139 0.164-0.075 0.298-0.175 0.402-0.3 0.024-0.029 0.047-0.060 0.068-0.093 0.017-0.026 0.033-0.053 0.048-0.081 0.079-0.151 0.119-0.322 0.119-0.514s-0.039-0.364-0.118-0.515c-0.015-0.029-0.031-0.056-0.049-0.084-0.022-0.034-0.046-0.066-0.071-0.097-0.104-0.124-0.238-0.224-0.401-0.298zM16.265 16.247c-0.125 0.083-0.287 0.124-0.487 0.124h-0.383v-1.030h0.383c0.2 0 0.363 0.043 0.487 0.127 0.041 0.028 0.075 0.060 0.102 0.098 0.056 0.077 0.085 0.175 0.085 0.293s-0.028 0.214-0.084 0.29c-0.028 0.038-0.062 0.070-0.103 0.098z"></path>
<path fill="currentColor" d="M20.542 14.727h-0.73v1.83c0 0.323-0.064 0.562-0.192 0.716-0.039 0.047-0.084 0.088-0.133 0.12-0.11 0.074-0.245 0.111-0.405 0.111-0.167 0-0.307-0.039-0.42-0.117-0.046-0.032-0.087-0.070-0.123-0.114-0.127-0.154-0.191-0.393-0.191-0.716v-1.83h-0.727v2.015c0 0.29 0.058 0.541 0.174 0.756 0.051 0.094 0.112 0.179 0.183 0.254 0.090 0.095 0.197 0.175 0.32 0.239 0.22 0.116 0.482 0.174 0.784 0.174s0.562-0.058 0.781-0.174c0.12-0.063 0.224-0.141 0.314-0.233 0.074-0.076 0.137-0.163 0.189-0.259 0.117-0.214 0.176-0.466 0.176-0.756v-2.015z"></path>
<path fill="currentColor" d="M10.777 3.124l0.002 0.049v1.539h4.638v-1.531c0-0.331 0.269-0.6 0.6-0.6 0.315 0 0.573 0.242 0.598 0.551l0.002 0.049v1.531h4.8v-1.531c0-0.331 0.269-0.6 0.6-0.6 0.315 0 0.573 0.242 0.598 0.551l0.002 0.049v1.531h2.729c1.068 0 1.933 0.866 1.933 1.933v2.67h1.721c0.331 0 0.6 0.269 0.6 0.6 0 0.315-0.242 0.573-0.551 0.598l-0.049 0.002h-1.721v4.564h1.712c0.331 0 0.6 0.269 0.6 0.6 0 0.315-0.242 0.573-0.551 0.598l-0.049 0.002h-1.712v4.724h1.712c0.331 0 0.6 0.269 0.6 0.6 0 0.315-0.242 0.573-0.551 0.598l-0.049 0.002h-1.712v2.839c0 1.068-0.866 1.933-1.933 1.933h-2.729v1.547c0 0.331-0.269 0.6-0.6 0.6-0.315 0-0.573-0.242-0.598-0.551l-0.002-0.049v-1.547h-4.8v1.547c0 0.331-0.269 0.6-0.6 0.6-0.315 0-0.573-0.242-0.598-0.551l-0.002-0.049v-1.547h-4.637v1.539c0 0.331-0.269 0.6-0.6 0.6-0.315 0-0.573-0.242-0.598-0.551l-0.002-0.049v-1.539h-2.9c-1.068 0-1.933-0.866-1.933-1.933v-2.839h-1.421c-0.331 0-0.6-0.269-0.6-0.6 0-0.315 0.242-0.573 0.551-0.598l0.049-0.002h1.421v-4.724h-1.421c-0.331 0-0.6-0.269-0.6-0.6 0-0.315 0.242-0.573 0.551-0.598l0.049-0.002h1.421v-4.564h-1.413c-0.331 0-0.6-0.269-0.6-0.6 0-0.315 0.242-0.573 0.551-0.598l0.049-0.002h1.413v-2.67c0-1.068 0.866-1.933 1.933-1.933h2.9v-1.539c0-0.331 0.269-0.6 0.6-0.6 0.315 0 0.573 0.242 0.598 0.551zM25.346 5.912h-18.667c-0.405 0-0.733 0.328-0.733 0.733v18.397c0 0.405 0.328 0.733 0.733 0.733h18.667c0.405 0 0.733-0.328 0.733-0.733v-18.397c0-0.405-0.328-0.733-0.733-0.733zM24.4 12.136c0 0.221-0.179 0.4-0.4 0.4s-0.4-0.179-0.4-0.4v-3.136c0-0.331-0.267-0.599-0.597-0.6h-3.459c-0.221 0-0.4-0.179-0.4-0.4s0.179-0.4 0.4-0.4h3.456c0.773 0 1.4 0.627 1.4 1.4v3.136zM17.277 8c0-0.221-0.179-0.4-0.4-0.4h-4.667c-0.221 0-0.4 0.179-0.4 0.4s0.179 0.4 0.4 0.4h4.667c0.221 0 0.4-0.179 0.4-0.4zM9.544 7.6c0.221 0 0.4 0.179 0.4 0.4s-0.179 0.4-0.4 0.4h-0.544c-0.331 0-0.6 0.269-0.6 0.6v2.592c0 0.221-0.179 0.4-0.4 0.4s-0.4-0.179-0.4-0.4v-2.592c0-0.773 0.627-1.4 1.4-1.4h0.544zM8 13.859c-0.221 0-0.4 0.179-0.4 0.4v4.667c0 0.221 0.179 0.4 0.4 0.4s0.4-0.179 0.4-0.4v-4.667c0-0.221-0.179-0.4-0.4-0.4zM24 19.869c0.221 0 0.4-0.179 0.4-0.4v-4.667c0-0.221-0.179-0.4-0.4-0.4s-0.4 0.179-0.4 0.4v4.667c0 0.221 0.179 0.4 0.4 0.4zM7.6 21.592c0-0.221 0.179-0.4 0.4-0.4s0.4 0.179 0.4 0.4v1.408c0 0.331 0.269 0.6 0.6 0.6h1.728c0.221 0 0.4 0.179 0.4 0.4s-0.179 0.4-0.4 0.4h-1.728c-0.773 0-1.4-0.627-1.4-1.4v-1.408zM20.728 24.4c-0.221 0-0.4-0.179-0.4-0.4s0.179-0.4 0.4-0.4h2.272c0.331 0 0.6-0.269 0.6-0.6v-0.864c0-0.221 0.179-0.4 0.4-0.4s0.4 0.179 0.4 0.4v0.864c0 0.773-0.627 1.4-1.4 1.4h-2.272zM12.995 24c0 0.221 0.179 0.4 0.4 0.4h4.667c0.221 0 0.4-0.179 0.4-0.4s-0.179-0.4-0.4-0.4h-4.667c-0.221 0-0.4 0.179-0.4 0.4z"></path>
</svg>
