<svg version="1.1" xmlns="http://www.w3.org/2000/svg" width="24" height="24" viewBox="0 0 24 24">
<path d="M11.875 3.050c2.771 0 5.186 1.797 6.020 4.378l0.004 0.001c2.881 0.588 5.006 3.115 5.051 6.1l0.001 0.096c0 3.493-2.832 6.325-6.325 6.325-0.249 0-0.45-0.201-0.45-0.45s0.201-0.45 0.45-0.45c2.996 0 5.425-2.429 5.425-5.425 0-2.643-1.903-4.885-4.468-5.341-0.212 0.018-0.413-0.118-0.47-0.331l-0.012-0.041-0.023-0.061c-0.013-0.034-0.022-0.069-0.026-0.104-0.701-2.236-2.784-3.798-5.176-3.798-2.415 0-4.513 1.591-5.195 3.857l-0.002 0.011-0.009 0.036-0.040 0.133c-0.001 0.005-0.003 0.010-0.004 0.015-0.055 0.212-0.252 0.348-0.462 0.336-2.443 0.556-4.213 2.741-4.213 5.289 0 2.996 2.429 5.425 5.425 5.425 0.249 0 0.45 0.201 0.45 0.45s-0.201 0.45-0.45 0.45c-3.493 0-6.325-2.832-6.325-6.325 0-2.89 1.952-5.378 4.681-6.109l0.105-0.027c0.814-2.611 3.244-4.439 6.039-4.439z"></path>
<path fill="#36f" d="M12 9.625c-3.107 0-5.625 2.518-5.625 5.625s2.518 5.625 5.625 5.625c3.107 0 5.625-2.518 5.625-5.625s-2.518-5.625-5.625-5.625zM12 10.375c2.692 0 4.875 2.183 4.875 4.875s-2.183 4.875-4.875 4.875c-2.692 0-4.875-2.183-4.875-4.875s2.183-4.875 4.875-4.875z"></path>
<path fill="#36f" d="M7.371 13.267c0.946 2.173 3.093 3.608 5.504 3.608 1.563 0 3.029-0.6 4.136-1.654l0.082-0.080 0.527 0.533c-1.255 1.241-2.945 1.95-4.746 1.95-2.676 0-5.064-1.572-6.149-3.962l-0.043-0.097 0.688-0.299z"></path>
<path fill="#36f" d="M13.625 11.375c1.012 0 1.951 0.16 2.737 0.494l0.111 0.049-0.31 0.683c-0.702-0.318-1.578-0.476-2.539-0.476-3.091 0-5.663 2.346-5.97 5.392l-0.009 0.093-0.747-0.064c0.296-3.478 3.213-6.171 6.725-6.171z"></path>
<path fill="#36f" d="M13.231 17.83c0.163 0.128 0.192 0.363 0.064 0.526-0.752 0.959-1.762 1.696-2.916 2.121-0.194 0.072-0.41-0.028-0.481-0.222s0.028-0.41 0.222-0.481c1.023-0.376 1.918-1.030 2.584-1.879 0.128-0.163 0.363-0.192 0.526-0.064zM12.766 9.86c1.185 1.188 1.859 2.768 1.859 4.45 0 0.663-0.104 1.312-0.307 1.932-0.064 0.197-0.276 0.304-0.473 0.24s-0.304-0.276-0.24-0.473c0.178-0.545 0.27-1.116 0.27-1.699 0-1.48-0.594-2.87-1.641-3.92-0.146-0.147-0.146-0.384 0.001-0.53s0.384-0.146 0.53 0.001z"></path>
</svg>
