<svg version="1.1" xmlns="http://www.w3.org/2000/svg" width="24" height="24" viewBox="0 0 24 24">
<path d="M17.25 2c2.21 0 4 1.791 4 4v12c0 2.21-1.791 4-4 4h-10.25c-2.21 0-4-1.791-4-4v-12c0-2.209 1.791-4 4-4h10.25zM7 3.5c-1.381 0-2.5 1.119-2.5 2.5v12c0 1.381 1.119 2.5 2.5 2.5h10.25c1.381 0 2.5-1.119 2.5-2.5v-12c0-1.381-1.119-2.5-2.5-2.5h-10.25z"></path>
<path d="M7.582 8.696c-0.474 0-0.859-0.384-0.859-0.859s0.384-0.859 0.859-0.859c0.474 0 0.859 0.384 0.859 0.859s-0.384 0.859-0.859 0.859z"></path>
<path d="M7.582 12.717c-0.474 0-0.859-0.384-0.859-0.859s0.384-0.859 0.859-0.859c0.474 0 0.859 0.384 0.859 0.859s-0.384 0.859-0.859 0.859z"></path>
<path d="M7.582 17.205c-0.474 0-0.859-0.384-0.859-0.859s0.384-0.859 0.859-0.859c0.474 0 0.859 0.384 0.859 0.859s-0.384 0.859-0.859 0.859z"></path>
<path d="M10.322 6.979h6.071c0.414 0 0.75 0.336 0.75 0.75s-0.336 0.75-0.75 0.75h-6.071c-0.414 0-0.75-0.336-0.75-0.75s0.336-0.75 0.75-0.75z"></path>
<path d="M10.322 11h6.071c0.414 0 0.75 0.336 0.75 0.75s-0.336 0.75-0.75 0.75h-6.071c-0.414 0-0.75-0.336-0.75-0.75s0.336-0.75 0.75-0.75z"></path>
<path d="M10.322 15.488h6.071c0.414 0 0.75 0.336 0.75 0.75s-0.336 0.75-0.75 0.75h-6.071c-0.414 0-0.75-0.336-0.75-0.75s0.336-0.75 0.75-0.75z"></path>
</svg>
