<svg version="1.1" xmlns="http://www.w3.org/2000/svg" width="24" height="24" viewBox="0 0 24 24">
<path d="M12.037 0.42c1.958 0 3.847 0.484 5.532 1.396 0.408 0.221 0.56 0.731 0.339 1.139s-0.731 0.56-1.139 0.339c-1.441-0.78-3.056-1.194-4.733-1.194-5.501 0-9.96 4.459-9.96 9.96s4.459 9.96 9.96 9.96c5.501 0 9.96-4.459 9.96-9.96 0-2.475-0.905-4.807-2.517-6.618-0.308-0.347-0.277-0.878 0.069-1.186s0.878-0.277 1.186 0.069c1.883 2.116 2.942 4.844 2.942 7.735 0 6.429-5.211 11.64-11.64 11.64s-11.64-5.211-11.64-11.64c0-6.429 5.211-11.64 11.64-11.64zM12.018 8.867c0.425 0.002 0.776 0.319 0.83 0.729l0.007 0.114-0.030 8.116c-0.002 0.464-0.379 0.839-0.843 0.837-0.425-0.002-0.776-0.319-0.83-0.729l-0.007-0.114 0.030-8.116c0.002-0.464 0.379-0.839 0.843-0.837zM12 5.424c0.751 0 1.36 0.609 1.36 1.36s-0.609 1.36-1.36 1.36c-0.751 0-1.36-0.609-1.36-1.36s0.609-1.36 1.36-1.36z"></path>
</svg>
