<svg version="1.1" xmlns="http://www.w3.org/2000/svg" width="24" height="24" viewBox="0 0 24 24"><path d="M12 5.9a.61.61 0 0 1 .183.027.538.538 0 0 1 .163.08l.083.069 5 5a.6.6 0 0 1-.766.918l-.083-.07-3.981-3.98L12.6 20.5l-.008.097A.6.6 0 0 1 11.4 20.5l-.001-12.548-3.97 3.972a.6.6 0 0 1-.766.07l-.083-.07a.6.6 0 0 1-.07-.765l.07-.083 4.964-4.966a.6.6 0 0 1 .303-.19l.011-.002A.546.546 0 0 1 12 5.9l-.06.004a.603.603 0 0 1 .031-.003Zm5-3a.6.6 0 0 1 .097 1.192L17 4.1H7a.6.6 0 0 1-.097-1.192L7 2.9h10Z"></path></svg>