<svg version="1.1" xmlns="http://www.w3.org/2000/svg" width="24" height="24" viewBox="0 0 24 24">
<path d="M13.25 2.5h-2.75c-0.967 0-1.75 0.784-1.75 1.75v5c0 0.414 0.336 0.75 0.75 0.75h4.75c0.414 0 0.75-0.336 0.75-0.75v-5c0-0.967-0.784-1.75-1.75-1.75zM13.25 4l0.079 0.013c0.099 0.033 0.171 0.127 0.171 0.237v4.249h-3.251l0.001-4.249c0-0.138 0.112-0.25 0.25-0.25h2.75z"></path>
<path d="M20.25 8.5h-16.5c-0.967 0-1.75 0.784-1.75 1.75v0.5c0 0.967 0.784 1.75 1.75 1.75h16.5c0.967 0 1.75-0.784 1.75-1.75v-0.5c0-0.967-0.784-1.75-1.75-1.75zM20.25 10c0.138 0 0.25 0.112 0.25 0.25v0.5c0 0.138-0.112 0.25-0.25 0.25h-16.5c-0.138 0-0.25-0.112-0.25-0.25v-0.5c0-0.138 0.112-0.25 0.25-0.25h16.5z"></path>
<path d="M4 11c0.414 0 0.75 0.336 0.75 0.75v8c0 0.138 0.112 0.25 0.25 0.25h14c0.138 0 0.25-0.112 0.25-0.25v-5.499c0-0.414 0.336-0.75 0.75-0.75s0.75 0.336 0.75 0.75v5.499c0 0.967-0.784 1.75-1.75 1.75h-14c-0.967 0-1.75-0.784-1.75-1.75v-8c0-0.414 0.336-0.75 0.75-0.75z"></path>
<path d="M8.19 16.991c0.414 0 0.75 0.336 0.75 0.75v3c0 0.414-0.336 0.75-0.75 0.75s-0.75-0.336-0.75-0.75v-3c0-0.414 0.336-0.75 0.75-0.75z"></path>
<path d="M11.94 15.991c0.414 0 0.75 0.336 0.75 0.75v4c0 0.414-0.336 0.75-0.75 0.75s-0.75-0.336-0.75-0.75v-4c0-0.414 0.336-0.75 0.75-0.75z"></path>
<path d="M15.69 16.991c0.414 0 0.75 0.336 0.75 0.75v3c0 0.414-0.336 0.75-0.75 0.75s-0.75-0.336-0.75-0.75v-3c0-0.414 0.336-0.75 0.75-0.75z"></path>
</svg>
