<!-- Generated by IcoMoon.io -->
<svg version="1.1" xmlns="http://www.w3.org/2000/svg" width="32" height="32" viewBox="0 0 32 32">
<path fill="currentColor" d="M13.176 16.815l-1.589-2.149h-0.587v3.382h0.67v-2.152l1.589 2.152h0.587v-3.382h-0.67v2.149z"></path>
<path fill="currentColor" d="M16.45 14.805c-0.205-0.092-0.444-0.139-0.719-0.139h-1.197v3.382h0.73v-1.122h0.467c0.277 0 0.518-0.046 0.721-0.139 0.164-0.075 0.298-0.175 0.402-0.3 0.024-0.029 0.047-0.060 0.068-0.093 0.017-0.026 0.033-0.053 0.048-0.081 0.079-0.151 0.119-0.322 0.119-0.514s-0.039-0.364-0.118-0.515c-0.015-0.029-0.031-0.056-0.049-0.084-0.022-0.034-0.046-0.066-0.071-0.097-0.104-0.124-0.237-0.224-0.401-0.298zM16.135 16.187c-0.125 0.083-0.287 0.124-0.487 0.124h-0.384v-1.030h0.384c0.2 0 0.362 0.043 0.487 0.127 0.041 0.027 0.075 0.060 0.102 0.097 0.056 0.077 0.085 0.175 0.085 0.293 0 0.117-0.028 0.214-0.084 0.29-0.028 0.038-0.062 0.070-0.103 0.098z"></path>
<path fill="currentColor" d="M20.412 14.666h-0.73v1.83c0 0.323-0.064 0.562-0.192 0.716-0.039 0.047-0.084 0.088-0.133 0.121-0.11 0.074-0.245 0.111-0.405 0.111-0.167 0-0.307-0.039-0.42-0.117-0.046-0.032-0.087-0.070-0.124-0.114-0.127-0.154-0.191-0.393-0.191-0.716v-1.83h-0.727v2.015c0 0.29 0.058 0.541 0.174 0.756 0.051 0.094 0.112 0.179 0.183 0.254 0.090 0.095 0.197 0.175 0.32 0.239 0.22 0.116 0.482 0.174 0.784 0.174s0.562-0.058 0.781-0.174c0.12-0.063 0.224-0.141 0.314-0.233 0.074-0.076 0.137-0.163 0.189-0.259 0.117-0.214 0.176-0.466 0.176-0.756v-2.015z"></path>
<path fill="currentColor" d="M10.777 3.124l0.002 0.049v1.539h4.638v-1.531c0-0.331 0.269-0.6 0.6-0.6 0.315 0 0.573 0.242 0.598 0.551l0.002 0.049v1.531h4.8v-1.531c0-0.331 0.269-0.6 0.6-0.6 0.315 0 0.573 0.242 0.598 0.551l0.002 0.049v1.531h2.729c1.068 0 1.933 0.866 1.933 1.933v2.67h1.721c0.331 0 0.6 0.269 0.6 0.6 0 0.315-0.242 0.573-0.551 0.598l-0.049 0.002h-1.721v4.564h1.712c0.331 0 0.6 0.269 0.6 0.6 0 0.315-0.242 0.573-0.551 0.598l-0.049 0.002h-1.712v4.724h1.712c0.331 0 0.6 0.269 0.6 0.6 0 0.315-0.242 0.573-0.551 0.598l-0.049 0.002h-1.712v2.839c0 1.068-0.866 1.933-1.933 1.933h-2.729v1.547c0 0.331-0.269 0.6-0.6 0.6-0.315 0-0.573-0.242-0.598-0.551l-0.002-0.049v-1.547h-4.8v1.547c0 0.331-0.269 0.6-0.6 0.6-0.315 0-0.573-0.242-0.598-0.551l-0.002-0.049v-1.547h-4.637v1.539c0 0.331-0.269 0.6-0.6 0.6-0.315 0-0.573-0.242-0.598-0.551l-0.002-0.049v-1.539h-2.9c-1.068 0-1.933-0.866-1.933-1.933v-2.839h-1.421c-0.331 0-0.6-0.269-0.6-0.6 0-0.315 0.242-0.573 0.551-0.598l0.049-0.002h1.421v-4.724h-1.421c-0.331 0-0.6-0.269-0.6-0.6 0-0.315 0.242-0.573 0.551-0.598l0.049-0.002h1.421v-4.564h-1.413c-0.331 0-0.6-0.269-0.6-0.6 0-0.315 0.242-0.573 0.551-0.598l0.049-0.002h1.413v-2.67c0-1.068 0.866-1.933 1.933-1.933h2.9v-1.539c0-0.331 0.269-0.6 0.6-0.6 0.315 0 0.573 0.242 0.598 0.551zM25.346 5.912h-18.667c-0.405 0-0.733 0.328-0.733 0.733v18.397c0 0.405 0.328 0.733 0.733 0.733h18.667c0.405 0 0.733-0.328 0.733-0.733v-18.397c0-0.405-0.328-0.733-0.733-0.733zM24.4 12.136c0 0.221-0.179 0.4-0.4 0.4s-0.4-0.179-0.4-0.4v-3.136c0-0.331-0.267-0.599-0.597-0.6h-3.459c-0.221 0-0.4-0.179-0.4-0.4s0.179-0.4 0.4-0.4h3.456c0.773 0 1.4 0.627 1.4 1.4v3.136zM17.277 8c0-0.221-0.179-0.4-0.4-0.4h-4.667c-0.221 0-0.4 0.179-0.4 0.4s0.179 0.4 0.4 0.4h4.667c0.221 0 0.4-0.179 0.4-0.4zM9.544 7.6c0.221 0 0.4 0.179 0.4 0.4s-0.179 0.4-0.4 0.4h-0.544c-0.331 0-0.6 0.269-0.6 0.6v2.592c0 0.221-0.179 0.4-0.4 0.4s-0.4-0.179-0.4-0.4v-2.592c0-0.773 0.627-1.4 1.4-1.4h0.544zM8 13.859c-0.221 0-0.4 0.179-0.4 0.4v4.667c0 0.221 0.179 0.4 0.4 0.4s0.4-0.179 0.4-0.4v-4.667c0-0.221-0.179-0.4-0.4-0.4zM24 19.869c0.221 0 0.4-0.179 0.4-0.4v-4.667c0-0.221-0.179-0.4-0.4-0.4s-0.4 0.179-0.4 0.4v4.667c0 0.221 0.179 0.4 0.4 0.4zM7.6 21.592c0-0.221 0.179-0.4 0.4-0.4s0.4 0.179 0.4 0.4v1.408c0 0.331 0.269 0.6 0.6 0.6h1.728c0.221 0 0.4 0.179 0.4 0.4s-0.179 0.4-0.4 0.4h-1.728c-0.773 0-1.4-0.627-1.4-1.4v-1.408zM20.728 24.4c-0.221 0-0.4-0.179-0.4-0.4s0.179-0.4 0.4-0.4h2.272c0.331 0 0.6-0.269 0.6-0.6v-0.864c0-0.221 0.179-0.4 0.4-0.4s0.4 0.179 0.4 0.4v0.864c0 0.773-0.627 1.4-1.4 1.4h-2.272zM12.995 24c0 0.221 0.179 0.4 0.4 0.4h4.667c0.221 0 0.4-0.179 0.4-0.4s-0.179-0.4-0.4-0.4h-4.667c-0.221 0-0.4 0.179-0.4 0.4z"></path>
</svg>
