<svg version="1.1" xmlns="http://www.w3.org/2000/svg" width="32" height="32" viewBox="0 0 32 32">
<path fill="currentColor" d="M23.901 4c0.921 0 1.709 0.643 1.865 1.522l0.756 4.247c0.057 0.321-0.165 0.627-0.497 0.682s-0.647-0.16-0.704-0.482l-0.756-4.247c-0.053-0.296-0.306-0.516-0.61-0.54l-0.054-0.002h-15.803c-0.31 0-0.577 0.204-0.653 0.49l-0.011 0.051-2.687 15.090c0.112-0.020 0.227-0.030 0.345-0.030h21.814c0.118 0 0.233 0.010 0.345 0.030l-1.421-7.979c-0.057-0.321 0.165-0.627 0.497-0.682 0.298-0.050 0.582 0.119 0.679 0.386l0.015 0.048 0.011 0.047 1.677 9.421c0.044 0.133 0.073 0.272 0.085 0.416l0.004 0.124v-0.008l0.001 0.009 0 4.371c0 1.013-0.847 1.834-1.893 1.834h-21.814c-1.045 0-1.893-0.821-1.893-1.834v-4.351c0-0.196 0.032-0.385 0.091-0.562l2.943-16.532c0.152-0.854 0.898-1.484 1.784-1.52l0.081-0.002h15.803zM26.907 21.963h-21.814c-0.279 0-0.518 0.164-0.62 0.398l-0.054 0.305 0.001 4.301c0 0.333 0.257 0.607 0.589 0.648l0.085 0.005h21.814c0.372 0 0.674-0.292 0.674-0.653l-0-4.301-0.053-0.305c-0.092-0.21-0.294-0.364-0.536-0.393l-0.084-0.005zM23.084 15.814c0.337 0 0.61 0.264 0.61 0.59 0 0.31-0.246 0.564-0.56 0.589l-0.050 0.002h-14.154c-0.337 0-0.61-0.264-0.61-0.59 0-0.31 0.246-0.564 0.56-0.589l0.050-0.002h14.154zM21.159 10.842c0.337 0 0.61 0.264 0.61 0.59 0 0.31-0.246 0.564-0.56 0.589l-0.050 0.002h-10.304c-0.337 0-0.61-0.264-0.61-0.59 0-0.31 0.246-0.564 0.56-0.589l0.050-0.002h10.304z"></path>
<path class="path-fill" d="M20.702 24.297c0.333 0 0.603 0.227 0.603 0.507 0 0.266-0.244 0.484-0.553 0.505l-0.049 0.002h-4.1c-0.333 0-0.603-0.227-0.603-0.507 0-0.266 0.244-0.484 0.553-0.505l0.049-0.002h4.1zM23.848 25.6c0.526 0 0.952-0.358 0.952-0.8s-0.426-0.8-0.952-0.8c-0.526 0-0.952 0.358-0.952 0.8s0.426 0.8 0.952 0.8z"></path>
</svg>
