<svg version="1.1" xmlns="http://www.w3.org/2000/svg" width="24" height="24" viewBox="0 0 24 24">
<path d="M4.804 5.34l0.097 0.008c0.287 0.049 0.502 0.295 0.502 0.592 0 0.331-0.268 0.6-0.599 0.6h-0.9l-0.070 0.008c-0.135 0.033-0.234 0.153-0.234 0.297 0 0 0 0 0 0v-0 9.045l0.008 0.070c0.033 0.136 0.153 0.235 0.297 0.235 0 0 0 0 0 0h1.362l0.097 0.007c0.287 0.048 0.503 0.295 0.503 0.592 0 0 0 0.001 0 0.001v-0 2.203l2.728-2.635 0.071-0.059c0.096-0.069 0.216-0.11 0.346-0.11h6.196l0.097 0.008c0.287 0.048 0.503 0.295 0.503 0.592 0 0 0 0.001 0 0.001v-0l-0.008 0.097c-0.048 0.287-0.295 0.503-0.592 0.503l-5.953-0.001-3.188 3.080-0.098 0.082c-0.132 0.094-0.297 0.15-0.475 0.15-0 0-0.001 0-0.001 0h0l-0.104-0.006c-0.409-0.053-0.722-0.4-0.722-0.819 0-0 0-0 0-0.001v0-2.486h-0.762l-0.137-0.006c-0.77-0.072-1.368-0.715-1.368-1.498v-9.045l0.006-0.137c0.072-0.77 0.716-1.368 1.499-1.368 0 0 0 0 0 0h0.899zM19.283 2.4c0.83 0 1.505 0.674 1.505 1.505v9.045c0 0.831-0.674 1.505-1.505 1.505l-0.763-0.001v2.487c0 0 0 0 0 0.001 0 0.42-0.313 0.766-0.718 0.819l-0.004 0-0.103 0.006c0 0-0 0-0 0-0.223 0-0.426-0.088-0.574-0.232l0 0-3.189-3.081h-6.409c-0.785 0-1.43-0.6-1.498-1.367l-0.007-0.137v-9.045c0-0.831 0.674-1.505 1.505-1.505zM19.283 3.6h-11.76c-0.168 0-0.305 0.137-0.305 0.305v9.045c0 0.168 0.137 0.305 0.305 0.305h6.653c0 0 0 0 0.001 0 0.162 0 0.309 0.064 0.417 0.168l-0-0 2.727 2.635v-2.203c0-0 0-0 0-0.001 0-0.297 0.216-0.544 0.5-0.592l0.004-0 0.097-0.007h1.362c0.168-0.001 0.304-0.137 0.304-0.305 0 0 0 0 0 0v0-9.045c0 0 0 0 0 0 0-0.168-0.136-0.304-0.304-0.305h-0zM13.529 11.34c0.393 0 0.711 0.318 0.711 0.711s-0.318 0.711-0.711 0.711v0c-0.392 0-0.711-0.318-0.711-0.711s0.318-0.711 0.711-0.711v0zM13.508 4.128c1.633 0 2.968 1.269 2.968 2.849 0 0.904-0.52 1.727-1.332 2.273l-0.167 0.106c-0.618 0.369-0.844 0.62-0.872 0.962l-0.003 0.088c0 0.002 0 0.004 0 0.006 0 0.331-0.269 0.6-0.6 0.6-0.329 0-0.596-0.265-0.6-0.593v-0c-0.010-0.911 0.462-1.497 1.46-2.094 0.571-0.34 0.914-0.847 0.914-1.348 0-0.903-0.785-1.649-1.768-1.649s-1.769 0.746-1.769 1.649c0 0.331-0.269 0.6-0.6 0.6s-0.6-0.269-0.6-0.6v0c0-1.58 1.336-2.849 2.969-2.849z"></path>
</svg>
