<svg version="1.1" xmlns="http://www.w3.org/2000/svg" width="24" height="24" viewBox="0 0 24 24">
<path d="M8.434 19.196v-1.13h0.663c0.803 0 1.205-0.341 1.205-1.024-0.040-0.622-0.427-0.944-1.16-0.965v0h-1.311v3.119h0.603zM9.037 17.614h-0.603v-1.069h0.603c0.412 0.010 0.628 0.181 0.648 0.512 0 0.361-0.216 0.547-0.648 0.557v0zM12.025 19.196c0.999-0.027 1.484-0.554 1.456-1.582-0.020-1.004-0.572-1.516-1.658-1.537v0h-1.009v3.119h1.211zM11.809 18.744h-0.406v-2.185h0.406c0.673 0.020 1.019 0.377 1.040 1.070 0 0.743-0.346 1.115-1.039 1.115v0zM14.641 19.196v-1.281h1.416v-0.497h-1.416v-0.859h1.612v-0.482h-2.215v3.119h0.603z"></path>
<path d="M14.338 1.4c0.129 0 0.253 0.041 0.355 0.117l0.072 0.063 4.662 4.745c0.088 0.090 0.145 0.204 0.165 0.327l0.008 0.093v9.626c0 0.332-0.268 0.6-0.6 0.6-0.299 0-0.546-0.217-0.592-0.503l-0.008-0.098v-9.381l-4.313-4.39h-8.087c-0.193 0-0.355 0.137-0.391 0.32l-0.008 0.081v18c0 0.194 0.137 0.355 0.32 0.392l0.080 0.008h12c0.194 0 0.355-0.137 0.392-0.319l0.008-0.081v-2.256c0-0.332 0.268-0.6 0.6-0.6 0.299 0 0.546 0.217 0.593 0.503l0.008 0.098v2.256c0 0.835-0.639 1.52-1.454 1.594l-0.146 0.007h-12c-0.835 0-1.52-0.639-1.594-1.454l-0.007-0.145v-18c0-0.835 0.639-1.52 1.454-1.594l0.146-0.007h8.338z"></path>
<path d="M14 1.4c0.299 0 0.546 0.218 0.592 0.502l0.008 0.097v4c0 0.193 0.137 0.355 0.319 0.392l0.081 0.008h4c0.331 0 0.6 0.269 0.6 0.6 0 0.298-0.218 0.546-0.503 0.592l-0.098 0.007h-4c-0.835 0-1.52-0.639-1.594-1.454l-0.007-0.146v-4c0-0.332 0.268-0.6 0.6-0.6z"></path>
</svg>
