<svg version="1.1" xmlns="http://www.w3.org/2000/svg" width="32" height="32" viewBox="0 0 32 32">
<path fill="#fff" d="M10.858 22.41c-0.349 0.349-0.915 0.349-1.263 0-0.314-0.314-0.345-0.804-0.094-1.153l0.094-0.111 5.146-5.15-5.177-5.178c-0.274-0.305-0.3-0.755-0.077-1.087l0.111-0.135c0.347-0.347 0.91-0.347 1.257 0l5.142 5.143 5.15-5.146c0.349-0.349 0.915-0.349 1.263 0 0.314 0.314 0.345 0.804 0.094 1.153l-0.094 0.111-11.552 11.552zM17.89 16.634l4.551 4.552c0.313 0.349 0.302 0.886-0.034 1.222-0.347 0.347-0.91 0.347-1.257 0l-4.516-4.518 1.256-1.256z"></path>
</svg>
