<!-- Generated by IcoMoon.io -->
<svg version="1.1" xmlns="http://www.w3.org/2000/svg" width="24" height="24" viewBox="0 0 24 24">
<path fill="#fff" d="M3.398 10.877c0-4.099 3.323-7.423 7.423-7.423s7.423 3.323 7.423 7.423c0 4.099-3.323 7.423-7.423 7.423s-7.423-3.323-7.423-7.423zM16.774 10.877c0-3.326-2.657-6.023-5.935-6.023s-5.935 2.696-5.935 6.023c0 3.326 2.657 6.023 5.935 6.023s5.935-2.696 5.935-6.023zM11.499 13.369c0 0.365-0.296 0.661-0.661 0.661s-0.661-0.296-0.661-0.661v-1.821h-1.775c-0.371 0-0.671-0.3-0.671-0.671s0.3-0.671 0.671-0.671h1.775v-1.821c0-0.365 0.296-0.661 0.661-0.661s0.661 0.296 0.661 0.661v1.821h1.775c0.371 0 0.671 0.3 0.671 0.671s-0.3 0.671-0.671 0.671h-1.775v1.821zM16.579 16.598c0.242-0.246 0.62-0.271 0.89-0.075l0.086 0.074 2.72 2.754c0.27 0.273 0.27 0.716 0.001 0.99-0.242 0.246-0.62 0.271-0.89 0.075l-0.086-0.074-2.72-2.754c-0.27-0.273-0.27-0.716-0.001-0.99z"></path>
</svg>
