<svg version="1.1" xmlns="http://www.w3.org/2000/svg" width="24" height="24" viewBox="0 0 24 24">
<path d="M12 12.662c0.276 0 0.5-0.224 0.5-0.5s-0.224-0.5-0.5-0.5c-0.276 0-0.5 0.224-0.5 0.5s0.224 0.5 0.5 0.5zM14 12.662c0.276 0 0.5-0.224 0.5-0.5s-0.224-0.5-0.5-0.5c-0.276 0-0.5 0.224-0.5 0.5s0.224 0.5 0.5 0.5zM10 12.662c0.276 0 0.5-0.224 0.5-0.5s-0.224-0.5-0.5-0.5c-0.276 0-0.5 0.224-0.5 0.5s0.224 0.5 0.5 0.5z"></path>
<path d="M17.75 2.050c0.782 0 1.42 0.619 1.449 1.394l0.001 0.056v5.271c0 0.249-0.201 0.45-0.45 0.45-0.236 0-0.43-0.182-0.448-0.413l-0.002-0.037v-5.271c0-0.291-0.225-0.528-0.511-0.549l-0.039-0.001h-14.25c-0.291 0-0.528 0.225-0.549 0.511l-0.001 0.039v14.75c0 0.291 0.225 0.528 0.511 0.549l0.039 0.001h2.528c0.249 0 0.45 0.201 0.45 0.45 0 0.236-0.182 0.43-0.413 0.448l-0.037 0.002h-2.528c-0.782 0-1.42-0.619-1.449-1.394l-0.001-0.056v-14.75c0-0.782 0.619-1.42 1.394-1.449l0.056-0.001h14.25z"></path>
<path d="M21.875 13.175c0.249 0 0.45 0.201 0.45 0.45 0 0.236-0.182 0.43-0.413 0.448l-0.037 0.002h-13.875c-0.249 0-0.45-0.201-0.45-0.45 0-0.236 0.182-0.43 0.413-0.448l0.037-0.001h13.875z"></path>
<path d="M21 10.3h-12c-0.801 0-1.45 0.649-1.45 1.45v9.5c0 0.801 0.649 1.45 1.45 1.45h12c0.801 0 1.45-0.649 1.45-1.45v-9.5c0-0.801-0.649-1.45-1.45-1.45zM9 11.2h12c0.304 0 0.55 0.246 0.55 0.55v9.5c0 0.304-0.246 0.55-0.55 0.55h-12c-0.304 0-0.55-0.246-0.55-0.55v-9.5c0-0.304 0.246-0.55 0.55-0.55z"></path>
<path fill="#36f" d="M17.479 15.953c-0.164-0.126-0.4-0.096-0.526 0.069-0.119 0.155-0.099 0.372 0.041 0.502l0.028 0.023 1.838 1.413-1.819 1.229c-0.162 0.109-0.211 0.322-0.12 0.49l0.019 0.031c0.109 0.162 0.322 0.211 0.49 0.12l0.031-0.019 2.25-1.52c0.201-0.136 0.22-0.422 0.048-0.584l-0.029-0.025-2.25-1.73z"></path>
<path fill="#36f" d="M12.771 15.953c0.164-0.126 0.4-0.096 0.526 0.069 0.119 0.155 0.099 0.372-0.041 0.502l-0.028 0.023-1.838 1.413 1.819 1.229c0.162 0.109 0.211 0.322 0.12 0.49l-0.019 0.031c-0.109 0.162-0.322 0.211-0.49 0.12l-0.031-0.019-2.25-1.52c-0.201-0.136-0.22-0.422-0.048-0.584l0.029-0.025 2.25-1.73z"></path>
<path fill="#36f" d="M15.658 15.346c0.085-0.189 0.307-0.273 0.496-0.188 0.178 0.080 0.263 0.281 0.201 0.462l-0.013 0.034-2.25 5c-0.085 0.189-0.307 0.273-0.496 0.188-0.178-0.080-0.263-0.281-0.201-0.462l0.013-0.034 2.25-5z"></path>
</svg>
