<svg version="1.1" xmlns="http://www.w3.org/2000/svg" width="32" height="32" viewBox="0 0 32 32">
    <path
        d="M21.427 3.333l-1.599 1.599-14.495 0.001c-0.189 0-0.348 0.132-0.389 0.308l-0.011 0.092v21.333c0 0.189 0.132 0.348 0.308 0.389l0.092 0.011h21.333c0.189 0 0.348-0.132 0.389-0.308l0.011-0.092v-14.495l1.6-1.6v16.095c0 1.105-0.895 2-2 2h-21.333c-1.105 0-2-0.895-2-2v-21.333c0-1.105 0.895-2 2-2h16.093z">
    </path>
    <path fill="none" stroke="currentColor" stroke-linejoin="miter" stroke-linecap="round" stroke-miterlimit="4"
        stroke-width="1.6" d="M9.333 22.456h13.333"></path>
    <path fill="none" stroke="currentColor" stroke-linejoin="miter" stroke-linecap="butt" stroke-miterlimit="4"
        stroke-width="1.6"
        d="M24.59 4.13l3.277 2.088-10.608 11.803-2.841 0.467c-0.271-0.009-0.505-0.092-0.672-0.243v0l-0.028-2.947 10.872-11.168z">
    </path>
</svg>