<svg version="1.1" xmlns="http://www.w3.org/2000/svg" width="24" height="24" viewBox="0 0 24 24">
<path d="M3.707 5.827c0.39 0 0.707 0.316 0.707 0.707v14.135c0 0.39-0.316 0.707-0.707 0.707s-0.707-0.317-0.707-0.707v-14.134c0-0.39 0.316-0.707 0.707-0.707zM8.896 11.481c0.39 0 0.707 0.316 0.707 0.707v8.481c0 0.39-0.316 0.706-0.707 0.706s-0.707-0.317-0.707-0.706v-8.481c0-0.39 0.317-0.707 0.707-0.707zM14.065 3c0.39 0 0.707 0.316 0.707 0.707v16.961c0 0.39-0.316 0.707-0.707 0.707s-0.707-0.317-0.707-0.707v-16.961c0-0.39 0.316-0.707 0.707-0.707zM19.255 8.654c0.39 0 0.707 0.316 0.707 0.706v11.308c0 0.39-0.317 0.707-0.707 0.707s-0.706-0.317-0.706-0.707v-11.308c0-0.39 0.317-0.707 0.706-0.707z"></path>
</svg>
