<svg version="1.1" xmlns="http://www.w3.org/2000/svg" width="24" height="24" viewBox="0 0 24 24">
<path fill="#c71d23" d="M12 24c-6.628 0-12-5.372-12-12s5.372-12 12-12c6.628 0 12 5.372 12 12s-5.372 12-12 12zM18.074 10.667h-6.814c-0.327 0-0.593 0.265-0.593 0.592l-0.001 1.481c0 0.327 0.265 0.592 0.593 0.592h4.149c0.327 0 0.592 0.265 0.592 0.593v0 0.296c0 0.982-0.796 1.778-1.777 1.778h-5.63c-0.327 0-0.593-0.265-0.593-0.593v-5.63c0-0.982 0.796-1.777 1.778-1.777h8.295c0.327 0 0.593-0.265 0.593-0.592l0.002-1.481c0-0.327-0.265-0.593-0.593-0.593 0 0 0 0 0 0l-8.296 0.001c-2.455 0-4.445 1.99-4.445 4.445v8.296c0 0.327 0.266 0.592 0.593 0.592h8.74c2.209 0 4-1.791 4-4v-3.407c0-0.327-0.265-0.592-0.592-0.592v0z"></path>
</svg>