<!-- Generated by IcoMoon.io -->
<svg version="1.1" xmlns="http://www.w3.org/2000/svg" width="32" height="32" viewBox="0 0 32 32">
    <path fill="currentColor"
        d="M16 2.976c1.352 0 2.678 0.206 3.943 0.608 0.491 0.156 0.763 0.681 0.607 1.172s-0.681 0.763-1.172 0.607c-1.083-0.343-2.218-0.52-3.378-0.52-6.162 0-11.157 4.995-11.157 11.157s4.995 11.157 11.157 11.157c6.162 0 11.157-4.995 11.157-11.157 0-3.573-1.69-6.862-4.502-8.956-0.413-0.308-0.499-0.893-0.191-1.306s0.893-0.499 1.306-0.191c3.281 2.442 5.254 6.284 5.254 10.453 0 7.193-5.831 13.024-13.024 13.024s-13.024-5.831-13.024-13.024c0-7.193 5.831-13.024 13.024-13.024zM16 21.68c0.835 0 1.511 0.677 1.511 1.511s-0.677 1.511-1.511 1.511c-0.835 0-1.511-0.677-1.511-1.511s0.677-1.511 1.511-1.511zM16.291 8.359c2.853 0 5.165 2.313 5.165 5.165 0 2.572-1.89 4.741-4.33 5.095-0.071 0.017-0.213 0.232-0.252 0.399l-0.010 0.079v1.098c0 0.515-0.418 0.933-0.933 0.933-0.473 0-0.863-0.351-0.925-0.807l-0.009-0.127v-1.098c0-0.962 0.678-2.051 1.777-2.309 1.607-0.236 2.815-1.621 2.815-3.263 0-1.822-1.477-3.298-3.298-3.298s-3.298 1.477-3.298 3.298c0 0.515-0.418 0.933-0.933 0.933s-0.933-0.418-0.933-0.933c0-2.853 2.313-5.165 5.165-5.165z">
    </path>
</svg>