<svg version="1.1" xmlns="http://www.w3.org/2000/svg" width="32" height="32" viewBox="0 0 32 32">
<path opacity="0.8" fill="currentColor" d="M7.94 12.379c0-4.429 3.612-8.016 8.064-8.016s8.063 3.588 8.063 8.016c0 1.41-0.963 3.49-2.243 5.498l-0.393 0.599-0.408 0.591c-0.138 0.195-0.278 0.388-0.419 0.577l-0.426 0.56c-0.071 0.092-0.143 0.182-0.215 0.272l-0.43 0.525c-0.215 0.256-0.428 0.501-0.639 0.732l-0.417 0.445-0.405 0.405c-0.86 0.831-1.608 1.35-2.065 1.352-0.527 0.003-1.443-0.684-2.472-1.747l-0.417-0.445c-0.211-0.232-0.425-0.477-0.64-0.732l-0.431-0.525c-0.215-0.269-0.43-0.547-0.642-0.832l-0.42-0.578-0.408-0.591c-0.335-0.497-0.653-1.004-0.946-1.507l-0.339-0.603c-0.812-1.5-1.355-2.937-1.355-3.996zM22.2 12.379c0-3.395-2.773-6.149-6.197-6.149s-6.197 2.755-6.197 6.149c0 1.46 1.204 3.746 3.139 6.203 0.771 0.979 1.611 1.921 2.346 2.65 0.064 0.064 0.127 0.125 0.188 0.184l0.343 0.32 0.177 0.155 0.182-0.158 0.343-0.32 0.188-0.184c0.736-0.73 1.576-1.672 2.347-2.65 1.936-2.457 3.139-4.74 3.139-6.2zM16.003 9.286c-1.75 0-3.177 1.394-3.177 3.122s1.426 3.122 3.177 3.122 3.177-1.394 3.177-3.122c0-1.729-1.426-3.122-3.177-3.122zM16.003 10.886c0.875 0 1.577 0.686 1.577 1.522s-0.702 1.522-1.577 1.522-1.577-0.686-1.577-1.522c0-0.836 0.702-1.522 1.577-1.522zM7.865 20.695c-0.453-0.246-1.020-0.079-1.266 0.374l-1.79 3.291-0.098 0.204c-0.117 0.278-0.177 0.576-0.177 0.879 0 1.252 1.015 2.267 2.267 2.267l18.631-0.011c0.3-0.030 0.591-0.119 0.857-0.264 1.1-0.598 1.507-1.974 0.908-3.074l-1.79-3.291-0.075-0.116c-0.274-0.363-0.779-0.482-1.191-0.258-0.453 0.246-0.62 0.813-0.374 1.266l1.79 3.292 0.034 0.086c0.048 0.175-0.028 0.366-0.195 0.457-0.059 0.032-0.124 0.049-0.191 0.049l-18.497-0.011c-0.177-0.041-0.308-0.2-0.308-0.389 0-0.067 0.017-0.132 0.049-0.191l1.79-3.292 0.057-0.126c0.156-0.427-0.019-0.916-0.431-1.14z"></path>
</svg>
