<svg version="1.1" xmlns="http://www.w3.org/2000/svg" width="24" height="24" viewBox="0 0 24 24">
<path d="M11.122 9.9c-0.243-0.249-0.627-0.277-0.902-0.083l-0.088 0.073-0.554 0.543-0.142 0.147c-1.175 1.285-1.217 3.186-0.113 4.412l0.138 0.144 4.972 4.867 0.154 0.142c1.447 1.26 3.705 1.144 5.147-0.268 1.456-1.425 1.564-3.66 0.274-5.080l-0.144-0.149-1.921-1.881-0.085-0.072c-0.279-0.202-0.667-0.171-0.911 0.078s-0.264 0.632-0.064 0.904l0.075 0.086 1.929 1.889 0.115 0.123c0.753 0.872 0.651 2.222-0.249 3.103-0.914 0.895-2.322 0.986-3.216 0.24l-0.124-0.112-4.977-4.873-0.11-0.119c-0.576-0.686-0.527-1.715 0.103-2.444l0.125-0.133 0.541-0.53 0.083-0.093c0.208-0.274 0.185-0.663-0.058-0.912zM9.303 3.945c-1.447-1.26-3.705-1.144-5.147 0.268-1.456 1.425-1.564 3.66-0.274 5.080l0.144 0.149 1.921 1.881 0.085 0.072c0.279 0.202 0.667 0.171 0.911-0.078s0.264-0.632 0.064-0.904l-0.075-0.086-1.929-1.889-0.115-0.123c-0.753-0.872-0.651-2.222 0.249-3.103 0.914-0.895 2.322-0.986 3.216-0.24l0.124 0.112 4.977 4.873 0.11 0.119c0.576 0.686 0.527 1.715-0.103 2.444l-0.125 0.133-0.541 0.53-0.083 0.093c-0.208 0.274-0.185 0.663 0.058 0.912s0.627 0.277 0.902 0.083l0.088-0.073 0.554-0.543 0.142-0.147c1.175-1.285 1.217-3.186 0.113-4.412l-0.138-0.144-4.972-4.867-0.154-0.142z"></path>
</svg>
