<svg version="1.1" xmlns="http://www.w3.org/2000/svg" width="24" height="24" viewBox="0 0 24 24">
<path d="M16.923 1.951l-13.5 0.653c-0.853 0.041-1.522 0.745-1.522 1.598v15.595c0 0.853 0.67 1.557 1.522 1.598l13.577 0.655c0.884 0 1.6-0.716 1.6-1.6v-16.901l-0.002-0.063c-0.044-0.897-0.794-1.578-1.676-1.535zM16.981 3.15c0.22-0.011 0.408 0.16 0.418 0.38l0.001 16.92c0 0.193-0.137 0.355-0.319 0.392l-0.090 0.008-13.51-0.653c-0.213-0.010-0.381-0.186-0.381-0.4v-15.595c0-0.214 0.167-0.389 0.381-0.4l13.5-0.653z"></path>
<path d="M20.373 3.488c0.881-0.070 1.651 0.587 1.722 1.469l0.005 0.127v13.835c0 0.884-0.716 1.6-1.6 1.6l-0.126-0.005-0.427-0.034c-0.33-0.026-0.577-0.315-0.551-0.645s0.315-0.577 0.645-0.551l0.458 0.034c0.221 0 0.4-0.179 0.4-0.4v-13.835l-0.001-0.031c-0.017-0.221-0.21-0.385-0.431-0.367l-0.402 0.032c-0.33 0.026-0.619-0.22-0.646-0.55s0.22-0.62 0.55-0.646l0.402-0.032z"></path>
<path d="M14.515 11.311l-5.823-4.205c-0.145-0.104-0.319-0.161-0.498-0.161-0.469 0-0.85 0.38-0.85 0.85v8.411c0 0.178 0.056 0.352 0.161 0.498 0.274 0.38 0.806 0.466 1.186 0.191l5.823-4.205c0.073-0.053 0.138-0.118 0.191-0.191 0.274-0.38 0.189-0.912-0.191-1.187zM13.42 11.999l-4.876 3.522v-7.044l4.876 3.522z"></path>
</svg>
