<svg version="1.1" xmlns="http://www.w3.org/2000/svg" width="24" height="24" viewBox="0 0 24 24">
<path opacity="0.8" fill="currentColor" d="M12.066 3.3c4.775 0.035 8.634 3.917 8.634 8.7s-3.859 8.664-8.633 8.699c-0.024 0.003-0.049 0.004-0.073 0.004-0.019 0-0.038-0.001-0.057-0.003l-0.005-0c-4.774-0.036-8.633-3.918-8.633-8.7s3.859-8.664 8.634-8.7h0.005c0.022-0.002 0.045-0.003 0.067-0.003 0.020 0 0.040 0.001 0.060 0.003zM4.733 11.3h2.589c0.021-0.33 0.058-0.658 0.109-0.984 0.045-0.288 0.103-0.573 0.172-0.857 0.096-0.393 0.213-0.778 0.352-1.155 0.146-0.398 0.317-0.787 0.511-1.168 0.171-0.336 0.36-0.661 0.564-0.975 0.239-0.366 0.501-0.718 0.785-1.055 0.028-0.033 0.056-0.066 0.084-0.099-2.793 0.837-4.882 3.302-5.167 6.293zM4.733 12.7c0.284 2.991 2.374 5.456 5.167 6.293l-0.084-0.099c-0.284-0.337-0.546-0.689-0.785-1.055-0.205-0.314-0.393-0.639-0.564-0.975-0.195-0.38-0.365-0.77-0.511-1.168-0.139-0.377-0.256-0.762-0.352-1.155-0.069-0.284-0.126-0.57-0.172-0.857-0.052-0.326-0.088-0.654-0.109-0.984h-2.589zM8.726 12.7c0.020 0.274 0.053 0.547 0.097 0.817 0.038 0.232 0.085 0.464 0.141 0.693 0.171 0.702 0.42 1.374 0.749 2.017 0.147 0.288 0.309 0.567 0.484 0.837 0.21 0.322 0.439 0.631 0.689 0.927 0.242 0.287 0.5 0.558 0.774 0.812l0.071 0.065q0.132 0.121 0.27 0.237 0.137-0.116 0.27-0.237l0.071-0.065c0.273-0.254 0.531-0.525 0.774-0.812 0.25-0.296 0.479-0.605 0.689-0.927 0.175-0.27 0.337-0.549 0.484-0.837 0.329-0.643 0.578-1.316 0.749-2.017 0.056-0.23 0.103-0.461 0.141-0.693 0.044-0.27 0.077-0.543 0.097-0.817h-6.548zM15.274 11.3c-0.020-0.274-0.053-0.547-0.097-0.817-0.038-0.233-0.085-0.464-0.141-0.694-0.082-0.34-0.184-0.673-0.304-0.999-0.128-0.347-0.276-0.687-0.445-1.018-0.147-0.288-0.309-0.567-0.484-0.837-0.209-0.322-0.439-0.631-0.689-0.927-0.242-0.287-0.501-0.558-0.774-0.813l-0.071-0.065q-0.132-0.121-0.27-0.237-0.137 0.116-0.27 0.237l-0.071 0.065c-0.273 0.254-0.531 0.525-0.774 0.813-0.25 0.296-0.479 0.605-0.689 0.927-0.176 0.27-0.337 0.549-0.484 0.837-0.169 0.332-0.318 0.671-0.445 1.018-0.12 0.326-0.221 0.659-0.304 0.999-0.056 0.23-0.103 0.461-0.141 0.694-0.044 0.27-0.077 0.543-0.097 0.817h6.548zM16.677 11.3h2.589c-0.284-2.991-2.374-5.456-5.167-6.293l0.084 0.099c0.284 0.337 0.546 0.689 0.785 1.055 0.205 0.314 0.393 0.639 0.564 0.975 0.195 0.381 0.365 0.77 0.511 1.168 0.139 0.377 0.256 0.762 0.351 1.155 0.069 0.284 0.126 0.57 0.172 0.857 0.051 0.326 0.088 0.654 0.109 0.984zM16.677 12.7c-0.021 0.33-0.058 0.658-0.109 0.984-0.045 0.288-0.103 0.573-0.172 0.857-0.096 0.393-0.213 0.778-0.351 1.155-0.147 0.398-0.317 0.788-0.511 1.168-0.171 0.336-0.36 0.661-0.564 0.975-0.239 0.366-0.501 0.718-0.785 1.055l-0.084 0.099c2.793-0.838 4.882-3.302 5.167-6.293h-2.589z"></path>
</svg>
