<svg version="1.1" xmlns="http://www.w3.org/2000/svg" width="32" height="32" viewBox="0 0 32 32">
<path class="path-fill" d="M10.903 12.249c0.218-0.225 0.569-0.242 0.808-0.049l0.041 0.036 4.667 4.531c0.103 0.1 0.167 0.234 0.18 0.377l0.002 0.054v7.469c0 0.331-0.269 0.6-0.6 0.6-0.315 0-0.573-0.242-0.598-0.551l-0.002-0.049v-7.215l-4.485-4.354c-0.225-0.218-0.242-0.569-0.049-0.808l0.036-0.041z"></path>
<path  class="path-fill"  d="M21.097 12.249c-0.218-0.225-0.569-0.242-0.808-0.049l-0.041 0.036-4.667 4.531c-0.103 0.1-0.167 0.234-0.18 0.377l-0.002 0.054v7.469c0 0.331 0.269 0.6 0.6 0.6 0.315 0 0.573-0.242 0.598-0.551l0.002-0.049v-7.215l4.485-4.354c0.225-0.218 0.242-0.569 0.049-0.808l-0.036-0.041z"></path>
<path  class="path-fill"  d="M20.667 16.9c0.331 0 0.6 0.269 0.6 0.6 0 0.315-0.242 0.573-0.551 0.598l-0.049 0.002h-9.333c-0.331 0-0.6-0.269-0.6-0.6 0-0.315 0.242-0.573 0.551-0.598l0.049-0.002h9.333z"></path>
<path  class="path-fill"  d="M20.667 20.233c0.331 0 0.6 0.269 0.6 0.6 0 0.315-0.242 0.573-0.551 0.598l-0.049 0.002h-9.333c-0.331 0-0.6-0.269-0.6-0.6 0-0.315 0.242-0.573 0.551-0.598l0.049-0.002h9.333z"></path>
<path fill="currentColor" d="M27.333 7.4c1.043 0 1.893 0.826 1.932 1.859l0.001 0.074v7.078c0 0.331-0.269 0.6-0.6 0.6-0.315 0-0.573-0.242-0.598-0.551l-0.002-0.049v-7.078c0-0.387-0.3-0.705-0.681-0.732l-0.052-0.002h-23c-0.387 0-0.705 0.3-0.732 0.681l-0.002 0.052v17.667c0 0.387 0.3 0.705 0.681 0.732l0.052 0.002h23c0.387 0 0.705-0.3 0.732-0.681l0.002-0.052v-7.35c0-0.331 0.269-0.6 0.6-0.6 0.315 0 0.573 0.242 0.598 0.551l0.002 0.049v7.35c0 1.043-0.826 1.893-1.859 1.932l-0.074 0.001h-23c-1.043 0-1.893-0.826-1.932-1.859l-0.001-0.074v-17.667c0-1.043 0.826-1.893 1.859-1.932l0.074-0.001h23z"></path>
<path fill="currentColor" d="M26.396 5.067c0.331 0 0.6 0.269 0.6 0.6 0 0.315-0.242 0.573-0.551 0.598l-0.049 0.002h-20.609c-0.331 0-0.6-0.269-0.6-0.6 0-0.315 0.242-0.573 0.551-0.598l0.049-0.002h20.609z"></path>
<path fill="currentColor" d="M23.872 2.733c0.331 0 0.6 0.269 0.6 0.6 0 0.315-0.242 0.573-0.551 0.598l-0.049 0.002h-15.854c-0.331 0-0.6-0.269-0.6-0.6 0-0.315 0.242-0.573 0.551-0.598l0.049-0.002h15.854z"></path>
</svg>
