<svg version="1.1" xmlns="http://www.w3.org/2000/svg" width="24" height="24" viewBox="0 0 24 24">
<path fill="currentColor" d="M19.045 3.125c0.994 0 1.8 0.806 1.8 1.8v3.095c0 0.331-0.269 0.6-0.6 0.6s-0.6-0.269-0.6-0.6v-2.65l-6.429 6.356c-0.275 0.272-0.718 0.269-0.99-0.006s-0.269-0.718 0.006-0.99l6.479-6.405h-2.712c-0.331 0-0.6-0.269-0.6-0.6s0.269-0.6 0.6-0.6h3.046zM13.034 5c0-0.387-0.313-0.7-0.7-0.7h-7.139c-1.049 0-1.9 0.851-1.9 1.9v12.6c0 1.049 0.851 1.9 1.9 1.9h12.6c1.049 0 1.9-0.851 1.9-1.9v-7.12c0-0.387-0.313-0.7-0.7-0.7s-0.7 0.313-0.7 0.7v7.12c0 0.276-0.224 0.5-0.5 0.5h-12.6c-0.276 0-0.5-0.224-0.5-0.5v-12.6c0-0.276 0.224-0.5 0.5-0.5h7.139c0.387 0 0.7-0.313 0.7-0.7z"></path>
</svg>
