<svg version="1.1" xmlns="http://www.w3.org/2000/svg" width="32" height="32" viewBox="0 0 32 32">
    <path fill="currentColor"
        d="M8.266 18.012c0.737 0 1.334-0.597 1.334-1.334v0-9.97c0-0.737-0.597-1.334-1.334-1.334v0h-2.709c-0.737 0-1.334 0.597-1.334 1.334v0 9.97c0 0.737 0.597 1.334 1.334 1.334v0zM15.865 25.069c1.011 2.71 3.921 2.424 4.86 0.012v0l0.1-0.275c0.495-1.502 0.389-3.561-0.279-6.2v0l-0.047-0.174 4.45-0c1.551 0 2.822-1.203 2.929-2.727v0l0.007-0.21c0-0.217-0.024-0.434-0.072-0.646v0l-1.688-7.49c-0.261-1.157-1.288-1.978-2.474-1.978v0h-11.591c-0.737 0-1.334 0.597-1.334 1.334v0 10.388c0 0.573 0.331 1.091 0.928 1.368v0l0.184 0.061c1.222 0.31 2.211 1.365 2.962 2.982 0.34 0.733 0.605 1.526 0.802 2.321v0l0.089 0.379 0.066 0.317 0.058 0.34zM7.732 16.147h-1.643v-8.904h1.643v8.904zM18.985 24.405c-0.359 0.923-1.008 0.987-1.372 0.012l0.032 0.079-0.088-0.478-0.089-0.405-0.054-0.226c-0.224-0.903-0.526-1.807-0.921-2.658-0.964-2.076-2.327-3.53-4.11-3.979l0.209 0.060v-9.563l11.059-0c0.274 0 0.516 0.166 0.618 0.412v0l0.035 0.11 1.688 7.49c0.017 0.077 0.026 0.156 0.026 0.235 0 0.591-0.479 1.070-1.070 1.070v0h-5.681c-0.626 0-1.075 0.604-0.893 1.203 0.943 3.119 1.123 5.347 0.611 6.636z">
    </path>
</svg>