<svg version="1.1" xmlns="http://www.w3.org/2000/svg" width="24" height="24" viewBox="0 0 24 24">
<path d="M11.966 1.837c4.35 0 7.879 3.47 7.879 7.754 0 2.782-1.502 5.302-3.878 6.682l-0.080 0.046 0 0.749c0 0.216-0.166 0.393-0.377 0.411l-0.036 0.002c-0.216 0-0.393-0.166-0.411-0.377l-0.002-0.036v-0.994c0-0.154 0.085-0.294 0.221-0.366 2.283-1.196 3.738-3.531 3.738-6.117 0-3.825-3.156-6.928-7.053-6.928s-7.053 3.103-7.053 6.928c0 2.593 1.463 4.932 3.755 6.126 0.125 0.065 0.208 0.189 0.22 0.328l0.002 0.038v0.985c0 0.228-0.185 0.413-0.413 0.413-0.216 0-0.393-0.166-0.411-0.377l-0.002-0.036-0-0.739-0.077-0.044c-2.356-1.358-3.858-3.835-3.899-6.58l-0.001-0.115c0-4.284 3.529-7.754 7.879-7.754z"></path>
<path d="M11.363 4.63l-3.393 1.832c-0.41 0.221-0.665 0.65-0.665 1.116v3.568c0 0.466 0.256 0.894 0.665 1.116l3.393 1.832c0.376 0.203 0.829 0.203 1.205 0l3.393-1.832c0.41-0.221 0.665-0.65 0.665-1.116v-3.568c0-0.466-0.256-0.894-0.665-1.116l-3.393-1.832c-0.376-0.203-0.829-0.203-1.205 0zM12.176 5.356l3.393 1.832c0.143 0.077 0.232 0.227 0.232 0.389v3.568c0 0.162-0.089 0.312-0.232 0.389l-3.393 1.832c-0.131 0.071-0.289 0.071-0.42 0l-3.393-1.832c-0.143-0.077-0.232-0.227-0.232-0.389v-3.568c0-0.162 0.089-0.312 0.232-0.389l3.393-1.832c0.131-0.071 0.289-0.071 0.42 0z"></path>
<path d="M15.416 17.688c0.228 0 0.413 0.185 0.413 0.413 0 0.216-0.166 0.393-0.377 0.411l-0.036 0.002h-6.884c-0.228 0-0.413-0.185-0.413-0.413 0-0.216 0.166-0.393 0.377-0.411l0.036-0.002h6.884z"></path>
<path d="M9.883 20.441c0.077 0 0.152 0.022 0.217 0.062l0.032 0.022 0.799 0.605h2.061l0.843-0.61c0.059-0.042 0.127-0.069 0.199-0.076l0.043-0.002h1.338c0.228 0 0.413 0.185 0.413 0.413 0 0.216-0.166 0.393-0.377 0.411l-0.036 0.002-1.204-0-0.843 0.61c-0.059 0.042-0.127 0.069-0.199 0.076l-0.043 0.002h-2.334c-0.077 0-0.152-0.022-0.217-0.062l-0.032-0.022-0.8-0.605-1.212 0c-0.216 0-0.393-0.166-0.411-0.377l-0.002-0.036c0-0.216 0.166-0.393 0.377-0.411l0.036-0.002h1.351z"></path>
<path d="M15.416 19.065c0.228 0 0.413 0.185 0.413 0.413 0 0.216-0.166 0.393-0.377 0.411l-0.036 0.002h-3.384c-0.228 0-0.413-0.185-0.413-0.413 0-0.216 0.166-0.393 0.377-0.411l0.036-0.002h3.384z"></path>
<path d="M10.050 19.065c0.228 0 0.413 0.185 0.413 0.413 0 0.216-0.166 0.393-0.377 0.411l-0.036 0.002h-1.518c-0.228 0-0.413-0.185-0.413-0.413 0-0.216 0.166-0.393 0.377-0.411l0.036-0.002h1.518z"></path>
<path fill="#36f" d="M14.616 7.485c0.213-0.082 0.452 0.024 0.534 0.236 0.078 0.201-0.012 0.425-0.202 0.519l-0.034 0.015-2.554 0.986 0 3.102c0 0.216-0.166 0.393-0.377 0.411l-0.036 0.002c-0.216 0-0.393-0.166-0.411-0.377l-0.002-0.036v-3.385c0-0.158 0.091-0.302 0.231-0.371l0.033-0.015 2.818-1.089z"></path>
<path fill="#36f" d="M9.087 7.484c-0.214-0.079-0.451 0.029-0.531 0.243-0.075 0.202 0.018 0.425 0.208 0.516l0.035 0.015 2.927 1.089c0.214 0.079 0.451-0.029 0.531-0.243 0.075-0.202-0.018-0.425-0.208-0.516l-0.035-0.015-2.927-1.089z"></path>
</svg>
