<!-- Generated by IcoMoon.io -->
<svg version="1.1" xmlns="http://www.w3.org/2000/svg" width="24" height="24" viewBox="0 0 24 24">
<path d="M22.5 12c0 5.799-4.701 10.5-10.5 10.5s-10.5-4.701-10.5-10.5c0-5.799 4.701-10.5 10.5-10.5s10.5 4.701 10.5 10.5z"></path>
<path fill="#fff" d="M15.3 7.631c0.274-0.197 0.657-0.172 0.903 0.074 0.273 0.273 0.273 0.717 0 0.99l-3.259 3.259 3.259 3.259c0.273 0.273 0.273 0.717 0 0.99-0.246 0.246-0.63 0.271-0.903 0.074l-0.087-0.074-3.259-3.259-3.259 3.259-0.087 0.074c-0.274 0.197-0.657 0.172-0.903-0.074-0.273-0.273-0.273-0.717 0-0.99l3.259-3.259-3.259-3.259c-0.273-0.273-0.273-0.717 0-0.99 0.246-0.246 0.63-0.271 0.903-0.074l0.087 0.074 3.259 3.259 3.259-3.259 0.087-0.074z"></path>
</svg>
