<svg version="1.1" xmlns="http://www.w3.org/2000/svg" width="24" height="24" viewBox="0 0 24 24">
<path fill="currentColor" d="M4.010 5.306h12.6c1.049 0 1.9 0.851 1.9 1.9v1.768l1.748-1.178c0.504-0.339 1.188-0.206 1.527 0.298 0.122 0.182 0.188 0.396 0.188 0.615v6.496c0 0.607-0.492 1.1-1.1 1.1-0.219 0-0.433-0.065-0.615-0.188l-1.748-1.178v1.867c0 1.049-0.851 1.9-1.9 1.9h-12.6c-1.049 0-1.9-0.851-1.9-1.9v-9.6c0-1.049 0.851-1.9 1.9-1.9zM17.11 13.623v-6.417c0-0.276-0.224-0.5-0.5-0.5h-12.6c-0.276 0-0.5 0.224-0.5 0.5v9.6c0 0.276 0.224 0.5 0.5 0.5h12.6c0.276 0 0.5-0.224 0.5-0.5v-3.183zM18.51 13.25l2.062 1.39v-5.369l-2.062 1.39v2.589zM13.036 11.235c0.398 0.298 0.478 0.862 0.18 1.26-0.051 0.068-0.112 0.129-0.18 0.18l-3.2 2.4c-0.398 0.298-0.962 0.218-1.26-0.18-0.117-0.156-0.18-0.345-0.18-0.54v-4.8c0-0.497 0.403-0.9 0.9-0.9 0.195 0 0.384 0.063 0.54 0.18l3.2 2.4zM9.596 13.755l2.401-1.8-2.401-1.801v3.601z"></path>
</svg>
