<svg version="1.1" xmlns="http://www.w3.org/2000/svg" width="32" height="32" viewBox="0 0 32 32">
<path class="path-fill" d="M18.291 17.524c0.222-0.22 0.574-0.231 0.808-0.033l0.040 0.037 3.070 3.103c0.233 0.236 0.231 0.615-0.005 0.849-0.222 0.22-0.574 0.231-0.808 0.033l-0.040-0.037-3.070-3.103c-0.233-0.236-0.231-0.615 0.005-0.849z"></path>
<path class="path-fill" d="M15.624 20.191c0.222-0.22 0.574-0.231 0.808-0.033l0.040 0.037 3.070 3.103c0.233 0.236 0.231 0.615-0.005 0.849-0.222 0.22-0.574 0.231-0.808 0.033l-0.040-0.037-3.070-3.103c-0.233-0.236-0.231-0.615 0.005-0.849z"></path>
<path fill="currentColor" d="M4.915 7.082c2.838-2.838 7.439-2.838 10.277 0 0.234 0.234 0.234 0.614 0 0.849s-0.614 0.234-0.849 0c-2.369-2.369-6.21-2.369-8.58 0-2.343 2.343-2.369 6.125-0.078 8.5l0.078 0.079 9.192 9.192c0.53 0.53 1.38 0.546 1.929 0.048l0.051-0.048 7.59-7.59-4.936-4.936c-0.223-0.223-0.234-0.577-0.033-0.812l0.033-0.036c0.223-0.223 0.577-0.234 0.812-0.033l0.036 0.033 5.36 5.36c0.223 0.223 0.234 0.577 0.033 0.812l-0.033 0.036-8.014 8.014c-0.996 0.996-2.598 1.015-3.618 0.057l-0.059-0.057-9.192-9.192c-2.838-2.838-2.838-7.439 0-10.277z"></path>
<path fill="currentColor" d="M27.085 7.082c-2.809-2.809-7.347-2.838-10.191-0.084l-0.086 0.084-3.25 3.25c-1.298 1.298-1.32 3.389-0.065 4.713l0.088 0.089c1.322 1.297 3.429 1.312 4.769 0.048l0.067-0.065 1.96-1.951c0.235-0.234 0.236-0.614 0.002-0.849-0.222-0.223-0.576-0.235-0.812-0.035l-0.036 0.033-1.96 1.951c-0.851 0.847-2.214 0.87-3.093 0.065l-0.071-0.068c-0.833-0.833-0.851-2.172-0.054-3.026l0.054-0.056 3.25-3.25c2.369-2.369 6.21-2.369 8.58 0 2.343 2.343 2.369 6.125 0.078 8.5l-0.078 0.079-9.192 9.192c-0.53 0.53-1.38 0.546-1.929 0.048l-0.051-0.048-8.014-8.014c-0.234-0.234-0.614-0.234-0.849 0-0.223 0.223-0.234 0.577-0.033 0.812l0.033 0.036 8.014 8.014c0.996 0.996 2.599 1.015 3.618 0.057l0.059-0.057 9.192-9.192c2.838-2.838 2.838-7.439 0-10.277z"></path>
</svg>
