<svg version="1.1" xmlns="http://www.w3.org/2000/svg" width="32" height="32" viewBox="0 0 32 32">
<path fill="currentColor" d="M16.944 3.283l0.078 0.044 10.645 6.436c0.555 0.336 0.903 0.926 0.931 1.57l0.002 0.084v15.915c0 0.331-0.269 0.6-0.6 0.6-0.315 0-0.573-0.242-0.598-0.551l-0.002-0.049v-15.915c0-0.237-0.114-0.458-0.305-0.595l-0.049-0.032-10.645-6.436c-0.215-0.13-0.48-0.14-0.703-0.031l-0.055 0.030-10.688 6.438c-0.203 0.122-0.334 0.335-0.353 0.569l-0.002 0.059v15.913c0 0.331-0.269 0.6-0.6 0.6-0.315 0-0.573-0.242-0.598-0.551l-0.002-0.049v-15.913c0-0.65 0.326-1.254 0.864-1.611l0.071-0.045 10.688-6.438c0.589-0.355 1.32-0.369 1.92-0.043zM19.606 19.132c2.231 1.139 3.66 3.38 3.66 5.868 0 0.331-0.269 0.6-0.6 0.6s-0.6-0.269-0.6-0.6c0-2.028-1.169-3.861-3.006-4.799-0.295-0.151-0.412-0.512-0.261-0.807s0.512-0.412 0.807-0.261zM16.333 11.067c2.356 0 4.267 1.91 4.267 4.267s-1.91 4.267-4.267 4.267c-3.173 0-5.733 2.425-5.733 5.4 0 0.331-0.269 0.6-0.6 0.6s-0.6-0.269-0.6-0.6c0-2.828 1.865-5.233 4.481-6.175-1.098-0.771-1.815-2.047-1.815-3.491 0-2.356 1.91-4.267 4.267-4.267zM16.333 12.267c-1.694 0-3.067 1.373-3.067 3.067s1.373 3.067 3.067 3.067c1.694 0 3.067-1.373 3.067-3.067s-1.373-3.067-3.067-3.067z"></path>
<path class="path-fill" d="M21.333 11.833c1.763 0 3.167 1.579 3.167 3.5 0 1.221-0.567 2.304-1.433 2.931 1.825 0.796 3.1 2.617 3.1 4.736 0 0.276-0.224 0.5-0.5 0.5s-0.5-0.224-0.5-0.5c0-2.301-1.865-4.167-4.167-4.167-0.276 0-0.5-0.224-0.5-0.5s0.224-0.5 0.5-0.5c0.085 0 0.17 0.002 0.254 0.006 0.026-0.004 0.052-0.006 0.080-0.006 1.183 0 2.167-1.107 2.167-2.5s-0.984-2.5-2.167-2.5c-0.276 0-0.5-0.224-0.5-0.5s0.224-0.5 0.5-0.5zM11.333 12.167c0.276 0 0.5 0.224 0.5 0.5s-0.224 0.5-0.5 0.5c-1.183 0-2.167 1.107-2.167 2.5s0.984 2.5 2.167 2.5c0.010 0 0.019 0 0.029 0.001l0.111-0.004 0.164-0.003c0.276 0 0.5 0.224 0.5 0.5s-0.224 0.5-0.5 0.5c-2.301 0-4.167 1.865-4.167 4.167 0 0.276-0.224 0.5-0.5 0.5s-0.5-0.224-0.5-0.5c0-2.124 1.281-3.948 3.113-4.742-0.857-0.628-1.417-1.705-1.417-2.919 0-1.921 1.404-3.5 3.167-3.5z"></path>
</svg>
