<svg version="1.1" xmlns="http://www.w3.org/2000/svg" width="24" height="24" viewBox="0 0 24 24">
<path opacity="0.8" fill="currentColor" d="M12 2.3c5.357 0 9.7 4.343 9.7 9.7s-4.343 9.7-9.7 9.7c-4.651 0-8.622-3.298-9.515-7.806-0.101-0.509 0.369-0.948 0.87-0.812 0.531 0.144 1.082 0.218 1.645 0.218 3.479 0 6.3-2.82 6.3-6.3 0-1.276-0.379-2.494-1.079-3.527-0.291-0.43-0.029-1.016 0.486-1.086 0.425-0.057 0.857-0.086 1.293-0.086zM12 3.7l-0.042 0.001 0.058 0.121c0.402 0.887 0.634 1.85 0.677 2.845l0.007 0.333c0 4.253-3.447 7.7-7.7 7.7-0.229 0-0.457-0.010-0.682-0.030l-0.186-0.021 0.076 0.218c1.147 3.123 4.102 5.321 7.528 5.429l0.264 0.004c4.584 0 8.3-3.716 8.3-8.3s-3.716-8.3-8.3-8.3z"></path>
</svg>
