<svg version="1.1" xmlns="http://www.w3.org/2000/svg" width="24" height="24" viewBox="0 0 24 24">
<path opacity="0.8" fill="currentColor" d="M12 1.992c0.387 0 0.7 0.313 0.7 0.7v1.2c0 0.387-0.313 0.7-0.7 0.7s-0.7-0.313-0.7-0.7v-1.2c0-0.387 0.313-0.7 0.7-0.7zM6.769 6.747c-0.273 0.273-0.717 0.273-0.99 0l-0.849-0.849c-0.137-0.137-0.205-0.316-0.205-0.495s0.068-0.358 0.205-0.495c0.273-0.273 0.717-0.273 0.99 0l0.849 0.849c0.136 0.137 0.205 0.316 0.205 0.495s-0.068 0.358-0.205 0.495zM18.192 6.747c-0.273 0.273-0.717 0.273-0.99 0-0.137-0.137-0.205-0.316-0.205-0.495s0.068-0.358 0.205-0.495l0.849-0.849c0.273-0.273 0.717-0.273 0.99 0 0.137 0.137 0.205 0.316 0.205 0.495s-0.068 0.358-0.205 0.495l-0.849 0.849zM5.3 12c0-3.7 3-6.7 6.7-6.7s6.7 3 6.7 6.7-3 6.7-6.7 6.7c-3.7 0-6.7-3-6.7-6.7zM17.3 12c0-2.927-2.373-5.3-5.3-5.3s-5.3 2.373-5.3 5.3c0 2.927 2.373 5.3 5.3 5.3s5.3-2.373 5.3-5.3zM4.594 11.969c0 0.387-0.313 0.7-0.7 0.7h-1.2c-0.387 0-0.7-0.313-0.7-0.7s0.313-0.7 0.7-0.7h1.2c0.386 0 0.7 0.313 0.7 0.7zM21.977 11.999c0 0.387-0.314 0.7-0.7 0.7h-1.2c-0.387 0-0.7-0.313-0.7-0.7s0.313-0.7 0.7-0.7h1.2c0.387 0 0.7 0.313 0.7 0.7zM5.921 19.060c-0.273 0.273-0.717 0.273-0.99 0-0.137-0.137-0.205-0.316-0.205-0.495s0.068-0.358 0.205-0.495l0.849-0.849c0.273-0.273 0.717-0.273 0.99 0 0.137 0.137 0.205 0.316 0.205 0.495s-0.068 0.358-0.205 0.495l-0.849 0.849zM19.041 19.060c-0.273 0.273-0.717 0.273-0.99 0l-0.849-0.849c-0.137-0.137-0.205-0.316-0.205-0.495s0.068-0.358 0.205-0.495c0.273-0.273 0.717-0.273 0.99 0l0.849 0.849c0.137 0.137 0.205 0.316 0.205 0.495s-0.068 0.358-0.205 0.495zM11.971 19.376c0.387 0 0.7 0.313 0.7 0.7v1.2c0 0.387-0.313 0.7-0.7 0.7s-0.7-0.313-0.7-0.7v-1.2c0-0.387 0.313-0.7 0.7-0.7z"></path>
</svg>
