<svg version="1.1" xmlns="http://www.w3.org/2000/svg" width="32" height="32" viewBox="0 0 32 32">
<path opacity="0.8" fill="currentColor" d="M13.215 0.524c-7.048 0-12.762 5.714-12.762 12.762s5.714 12.762 12.762 12.762c7.048 0 12.762-5.714 12.762-12.762s-5.714-12.762-12.762-12.762zM13.215 2.809c5.786 0 10.476 4.69 10.476 10.476s-4.69 10.476-10.476 10.476c-5.786 0-10.476-4.69-10.476-10.476s4.69-10.476 10.476-10.476z"></path>
<path opacity="0.8" fill="currentColor" d="M23.33 23.22c0.446-0.447 1.169-0.448 1.616-0.002l4.771 4.759c0.447 0.446 0.448 1.169 0.002 1.616s-1.169 0.448-1.616 0.002l-4.771-4.759c-0.447-0.446-0.448-1.169-0.002-1.616z"></path>
</svg>
