<svg version="1.1" xmlns="http://www.w3.org/2000/svg" width="32" height="32" viewBox="0 0 32 32">
<path class="path-fill" d="M15.922 4.757c2.007-1.98 5.245-0.54 5.245 2.352 0 1.458-1.006 3.030-2.992 4.752l-0.253 0.216c-0.345 0.289-0.716 0.582-1.115 0.88l-0.304 0.224c-0.103 0.075-0.208 0.15-0.314 0.226-0.176 0.125-0.413 0.123-0.587-0.006-3.16-2.341-4.767-4.415-4.767-6.292 0-2.909 2.921-4.316 5.004-2.362l0.048 0.047zM20.167 7.11c0-2.174-2.52-3.137-3.862-1.264-0.194 0.271-0.594 0.28-0.8 0.017-1.47-1.876-3.671-0.968-3.671 1.247 0 1.29 1.11 2.878 3.368 4.717l0.271 0.217c0.138 0.109 0.28 0.219 0.426 0.331l0.16-0.108c0.197-0.145 0.387-0.289 0.569-0.431l0.268-0.212c0.044-0.035 0.087-0.070 0.13-0.105l0.252-0.209c0.206-0.173 0.401-0.343 0.584-0.511l0.215-0.2c1.364-1.295 2.054-2.441 2.087-3.416zM14.623 5.568c0.273 0.040 0.462 0.294 0.422 0.567s-0.294 0.462-0.567 0.422c-0.331-0.048-0.591 0.029-0.823 0.24-0.223 0.203-0.304 0.421-0.264 0.704 0.038 0.274-0.153 0.526-0.427 0.564s-0.526-0.153-0.564-0.427c-0.085-0.613 0.117-1.157 0.581-1.581 0.456-0.415 1.017-0.582 1.641-0.491z"></path>
<path fill="currentColor" d="M28.169 8.512l0.073 0.002c0.923 0.048 1.656 0.793 1.69 1.716l0.073 2.087 0.035 1.132 0.031 1.232 0.014 0.785 0.004 0.553-0.001 0.352-0.003 0.18-0.007 0.225c-0.001 0.022-0.002 0.043-0.003 0.063-0.003 0.052-0.012 0.109-0.027 0.17l-0.021 0.076c-0.004 0.013-0.008 0.026-0.013 0.040l-0.030 0.082-0.036 0.087c-0.013 0.030-0.027 0.060-0.042 0.091l-0.048 0.096c-0.008 0.016-0.017 0.033-0.026 0.050l-0.057 0.103-0.031 0.053-0.066 0.11-0.072 0.114-0.078 0.119-0.084 0.123-0.090 0.128-0.147 0.201-0.105 0.14-0.112 0.145-0.179 0.226-0.127 0.157-0.202 0.244-0.216 0.255-0.23 0.266-0.244 0.278-0.258 0.289-0.367 0.403-0.292 0.316-0.518 0.552-0.558 0.584-0.598 0.617-0.508 0.518-0.671 0.677-0.712 0.711-0.178 0.176c0.215 0.235 0.336 0.557 0.311 0.905l-0.108 1.49c-0.049 0.667-0.616 1.189-1.28 1.168l-5.432-0.172c-0.248-0.008-0.474-0.090-0.658-0.225-0.183 0.135-0.408 0.217-0.656 0.225l-5.432 0.172c-0.664 0.021-1.231-0.501-1.28-1.168l-0.108-1.49c-0.025-0.348 0.096-0.67 0.311-0.905l-0.468-0.465-0.695-0.698-0.398-0.402-0.63-0.644-0.475-0.491-0.449-0.47-0.32-0.339-0.405-0.434-0.379-0.413-0.18-0.199-0.258-0.289-0.244-0.278-0.23-0.266-0.216-0.255-0.136-0.164-0.193-0.237-0.179-0.226-0.112-0.145-0.105-0.14-0.147-0.201-0.090-0.128-0.084-0.123-0.078-0.119-0.072-0.114-0.066-0.11-0.060-0.105-0.054-0.1-0.048-0.096-0.042-0.091-0.036-0.087-0.016-0.042-0.027-0.080-0.021-0.076-0.015-0.071c-0.006-0.035-0.010-0.067-0.012-0.099-0.001-0.020-0.002-0.041-0.003-0.063l-0.005-0.144-0.003-0.168-0.002-0.191 0-0.426 0.007-0.59 0.016-0.828 0.017-0.684 0.043-1.427 0.073-2.087c0.034-0.923 0.767-1.668 1.69-1.716l0.073-0.002 0.074 0.001c0.858 0.029 1.565 0.711 1.611 1.584l0.255 4.868 0.287 0.307c0.084-0.219 0.215-0.424 0.393-0.598 0.642-0.631 1.674-0.622 2.309 0.019l4.902 4.955c0.365 0.396 0.636 0.87 0.792 1.387l1.051 3.495c0.201 0.058 0.383 0.166 0.53 0.311 0.147-0.145 0.328-0.253 0.529-0.311l1.050-3.495c0.155-0.517 0.426-0.991 0.792-1.387l0.086-0.090 4.817-4.865c0.635-0.641 1.667-0.65 2.309-0.019 0.177 0.174 0.308 0.379 0.392 0.597l0.287-0.307 0.255-4.867c0.046-0.873 0.753-1.555 1.611-1.584l0.074-0.001zM16.84 25.459c-0.136-0.004-0.265 0.114-0.276 0.264l-0.108 1.49c-0.010 0.134 0.079 0.235 0.2 0.239l5.432 0.172c0.136 0.004 0.265-0.114 0.276-0.264l0.108-1.49c0.010-0.134-0.079-0.235-0.2-0.239l-5.432-0.172zM15.094 25.459l-5.432 0.172c-0.12 0.004-0.209 0.105-0.2 0.239l0.108 1.49c0.011 0.149 0.14 0.268 0.276 0.264l5.432-0.172c0.12-0.004 0.209-0.105 0.2-0.239l-0.108-1.49c-0.011-0.149-0.14-0.268-0.276-0.264zM3.742 9.489c-0.418 0.022-0.75 0.359-0.766 0.778l-0.015 0.403-0.073 2.163-0.027 0.915-0.028 1.164-0.012 0.824-0.002 0.472 0.002 0.255 0.005 0.209 0.005 0.114c0.001 0.026 0.007 0.056 0.017 0.090l0.018 0.054c0.004 0.009 0.007 0.019 0.011 0.029l0.028 0.062 0.034 0.068 0.040 0.074 0.047 0.079 0.053 0.085 0.091 0.138 0.105 0.151 0.119 0.163 0.087 0.116 0.143 0.184 0.157 0.196 0.171 0.208 0.184 0.22 0.267 0.312 0.292 0.333 0.399 0.445 0.346 0.379 0.37 0.4 0.394 0.42 0.635 0.667 0.688 0.711 0.613 0.626 0.65 0.655 0.827 0.825 0.177 0.175 4.614-0.146-0.957-3.188-0.035-0.109c-0.126-0.361-0.331-0.69-0.601-0.962l-4.858-4.904c-0.259-0.221-0.645-0.211-0.89 0.029-0.271 0.266-0.286 0.701-0.032 0.988l0.417 0.471 2.395 2.554 0.032 0.038c0.15 0.197 0.13 0.479-0.054 0.651-0.197 0.184-0.505 0.174-0.689-0.022l-1.915-2.040c-0.038-0.024-0.074-0.054-0.105-0.090l-0.384-0.434-1.861-1.985-0.032-0.037c-0.059-0.078-0.094-0.172-0.1-0.271l-0.264-5.046-0.004-0.050c-0.044-0.36-0.36-0.629-0.728-0.61zM28.191 9.489c-0.368-0.019-0.684 0.25-0.728 0.61l-0.004 0.050-0.264 5.046c-0.005 0.099-0.040 0.193-0.1 0.271l-0.032 0.037-1.862 1.985-0.383 0.434c-0.032 0.036-0.067 0.066-0.105 0.090l-1.915 2.040c-0.184 0.197-0.493 0.206-0.689 0.022-0.184-0.173-0.204-0.455-0.054-0.651l0.032-0.038 2.405-2.565 0.407-0.46c0.254-0.287 0.239-0.722-0.032-0.988-0.245-0.241-0.631-0.25-0.89-0.029l-0.042 0.039-4.817 4.865c-0.27 0.272-0.475 0.601-0.601 0.962l-0.035 0.109-0.958 3.188 4.614 0.146 0.459-0.454 0.81-0.811 0.758-0.769 0.592-0.608 0.555-0.577 0.518-0.547 0.573-0.615 0.266-0.29 0.334-0.369 0.384-0.432 0.279-0.322 0.194-0.228 0.18-0.216 0.166-0.204 0.2-0.253 0.134-0.175 0.119-0.163 0.105-0.151 0.091-0.138 0.053-0.085 0.047-0.079 0.040-0.074 0.034-0.068 0.028-0.062 0.021-0.057 0.015-0.051c0.006-0.024 0.009-0.046 0.010-0.065l0.005-0.114 0.005-0.209 0.002-0.165 0-0.388-0.004-0.461-0.011-0.655-0.029-1.192-0.033-1.1-0.042-1.251-0.035-0.985c-0.015-0.418-0.348-0.756-0.766-0.778z"></path>
</svg>
