<svg width="40.000000" height="40.000000" viewBox="0 0 40 40" fill="none" xmlns="http://www.w3.org/2000/svg" xmlns:xlink="http://www.w3.org/1999/xlink">
	<desc>
			Created with Pixso.
	</desc>
	<defs/>
	<rect id="矩形" width="40.000000" height="40.000000" fill="#D8D8D8" fill-opacity="0"/>
	<rect id="矩形" x="0.500000" y="0.500000" width="39.000000" height="39.000000" stroke="#979797" stroke-opacity="0" stroke-width="1.000000"/>
	<path id="形状结合" d="M30.9407 7.46915C29.7498 5.25845 27.4312 3.83398 24.8533 3.83398C22.3555 3.83398 20.0901 5.17047 18.864 7.29367C18.6567 7.65237 18.7795 8.11108 19.1382 8.31824C19.4971 8.52539 19.9558 8.40253 20.1628 8.04382C21.1238 6.38004 22.897 5.33398 24.8533 5.33398C26.9998 5.33398 28.9165 6.59503 29.7864 8.517C29.9204 8.81299 30.2227 8.97983 30.5291 8.9556C30.5442 8.95651 30.5596 8.957 30.575 8.957C32.6172 8.957 34.2266 10.5143 34.2266 12.5058C34.2266 14.5224 32.5916 16.1572 30.575 16.1572L23.5154 16.1572L23.4539 16.1597C23.0686 16.1909 22.7654 16.5137 22.7654 16.9072C22.7654 17.3214 23.1013 17.6572 23.5154 17.6572L30.575 17.6572L30.7021 17.6556C33.4885 17.5882 35.7266 15.3083 35.7266 12.5058C35.7266 9.79642 33.6277 7.64877 30.9407 7.46915ZM5.927 9.99481L18.6912 9.99481C20.0776 9.99481 21.2017 11.1188 21.2017 12.5054L21.2017 29.8807L21.2019 29.8915L21.2017 29.9024L21.2017 34.0723C21.2017 35.4588 20.0776 36.5829 18.6912 36.5829L5.927 36.5829C4.54053 36.5829 3.4165 35.4588 3.4165 34.0723L3.4165 12.5054C3.4165 11.1188 4.54053 9.99481 5.927 9.99481ZM19.7017 29.1415L19.7017 12.5054C19.7017 11.9473 19.2493 11.4948 18.6912 11.4948L5.927 11.4948C5.3689 11.4948 4.9165 11.9473 4.9165 12.5054L4.9165 29.1415L19.7017 29.1415ZM14.5415 12.9892C14.9558 12.9892 15.2915 13.325 15.2915 13.7392C15.2915 14.1327 14.9885 14.4554 14.603 14.4867L14.5415 14.4892L10.0498 14.4892C9.63574 14.4892 9.2998 14.1534 9.2998 13.7392C9.2998 13.3457 9.60303 13.023 9.98828 12.9917L10.0498 12.9892L14.5415 12.9892ZM4.9165 30.6415L19.7017 30.6415L19.7017 34.0723C19.7017 34.6304 19.2493 35.0829 18.6912 35.0829L5.927 35.0829C5.3689 35.0829 4.9165 34.6304 4.9165 34.0723L4.9165 30.6415ZM12.3035 33.9376C13.0322 33.9376 13.624 33.3457 13.624 32.6171C13.624 31.8885 13.0322 31.2967 12.3035 31.2967C11.575 31.2967 10.9832 31.8885 10.9832 32.6171C10.9832 33.3457 11.575 33.9376 12.3035 33.9376Z" clip-rule="evenodd" fill="#000000" fill-opacity="1.000000" fill-rule="evenodd"/>
	<path id="形状结合" d="M36.2717 23.926C36.5181 23.6841 36.5215 23.2884 36.2795 23.0422L33.6167 20.3315L33.5696 20.2882C33.3262 20.0859 32.9641 20.0969 32.7332 20.3233L29.9695 23.034L29.926 23.081C29.7236 23.3246 29.7344 23.6868 29.9609 23.9178L30.0081 23.9612C30.2515 24.1638 30.6138 24.153 30.8447 23.9264L32.5449 22.2584L32.5449 31.3088L32.543 31.378C32.5073 31.973 32.0134 32.4444 31.4094 32.4444L25.8972 32.4444L27.5178 30.8525L27.5613 30.8054C27.7637 30.5617 27.7524 30.1995 27.5256 29.9687C27.2839 29.7224 26.8882 29.7189 26.6418 29.9608L23.9409 32.6143C23.8198 32.7283 23.7441 32.89 23.7441 33.0694C23.7441 33.1644 23.7654 33.2544 23.8032 33.335C23.8323 33.3971 23.8723 33.4554 23.9231 33.5072L26.6335 36.2709L26.6807 36.3143C26.9243 36.5169 27.2864 36.5061 27.5176 36.2795L27.5608 36.2325C27.7634 35.9889 27.7527 35.6267 27.5261 35.3957L25.8577 33.6944L31.4094 33.6944L31.501 33.6927C32.7761 33.6446 33.7949 32.5957 33.7949 31.3088L33.7949 22.2964L35.3879 23.9182L35.4351 23.9615C35.6787 24.1639 36.0408 24.1528 36.2717 23.926Z" clip-rule="evenodd" fill="#000000" fill-opacity="1.000000" fill-rule="evenodd"/>
</svg>
