<svg width="40.000000" height="40.000000" viewBox="0 0 40 40" fill="none" xmlns="http://www.w3.org/2000/svg" xmlns:xlink="http://www.w3.org/1999/xlink">
	<desc>
			Created with Pixso.
	</desc>
	<defs/>
	<rect id="镜像" width="40.000000" height="40.000000" fill="#FFFFFF" fill-opacity="0"/>
	<rect id="矩形" width="40.000000" height="40.000000" fill="#D8D8D8" fill-opacity="0"/>
	<rect id="矩形" x="0.500000" y="0.500000" width="39.000000" height="39.000000" stroke="#979797" stroke-opacity="0" stroke-width="1.000000"/>
	<path id="形状结合" d="M19.9644 4.24866C20.3579 4.24866 20.6807 4.55171 20.7119 4.93715L20.7144 4.99866L20.7144 35.0664C20.7144 35.4806 20.3787 35.8164 19.9644 35.8164C19.571 35.8164 19.2483 35.5134 19.217 35.1279L19.2144 35.0664L19.2144 4.99866C19.2144 4.58444 19.5503 4.24866 19.9644 4.24866ZM14.8306 7.26704L6.49731 4.88609C5.21387 4.51942 3.87646 5.26253 3.50977 6.54587C3.448 6.76178 3.41675 6.98523 3.41675 7.20978L3.41675 32.7907C3.41675 34.1254 4.49878 35.2073 5.8335 35.2073C6.05786 35.2073 6.28149 35.176 6.49731 35.1143L14.8306 32.7334C15.8682 32.437 16.5835 31.4887 16.5835 30.4097L16.5835 9.59073C16.5835 8.51173 15.8682 7.56346 14.8306 7.26704ZM33.5029 4.88609L25.1694 7.26704C24.1321 7.56346 23.4167 8.51173 23.4167 9.59073L23.4167 30.4097C23.4167 31.4887 24.1321 32.437 25.1694 32.7334L33.5029 35.1143C33.7188 35.176 33.9421 35.2073 34.1667 35.2073C35.5015 35.2073 36.5835 34.1254 36.5835 32.7907L36.5835 7.20978C36.5835 6.98523 36.552 6.76178 36.4905 6.54587C36.1238 5.26253 34.7861 4.51942 33.5029 4.88609ZM4.9519 6.95628C4.92871 7.03818 4.91675 7.12294 4.91675 7.20811L4.91675 32.789C4.91675 33.2953 5.32715 33.7057 5.8335 33.7057C5.9187 33.7057 6.00342 33.6938 6.08521 33.6704L14.4185 31.2895C14.812 31.177 15.0835 30.8173 15.0835 30.4081L15.0835 9.58907C15.0835 9.17979 14.812 8.82011 14.4185 8.70767L6.08521 6.32672C5.61963 6.19368 5.13525 6.44579 4.97217 6.89398L4.9519 6.95628ZM35.0835 7.20811C35.0835 7.12294 35.0715 7.03818 35.0481 6.95628L35.0278 6.89398C34.865 6.44579 34.3806 6.19368 33.915 6.32672L25.5815 8.70767C25.188 8.82011 24.9167 9.17979 24.9167 9.58907L24.9167 30.4081C24.9167 30.8173 25.188 31.177 25.5815 31.2895L33.915 33.6704C33.9968 33.6938 34.0815 33.7057 34.1667 33.7057C34.6731 33.7057 35.0835 33.2953 35.0835 32.789L35.0835 7.20811ZM11.875 16.75C12.2686 16.75 12.5913 17.0531 12.6226 17.4385L12.625 17.5L12.625 22.7545C12.625 23.1687 12.2893 23.5045 11.875 23.5045C11.4814 23.5045 11.1589 23.2014 11.1274 22.816L11.125 22.7545L11.125 17.5C11.125 17.0858 11.4609 16.75 11.875 16.75ZM28.8726 17.4385C28.8413 17.0531 28.5186 16.75 28.125 16.75C27.7109 16.75 27.375 17.0858 27.375 17.5L27.375 22.7545L27.3774 22.816C27.4089 23.2014 27.7314 23.5045 28.125 23.5045C28.5393 23.5045 28.875 23.1687 28.875 22.7545L28.875 17.5L28.8726 17.4385Z" clip-rule="evenodd" fill="#000000" fill-opacity="1.000000" fill-rule="evenodd"/>
</svg>
