<svg width="40.000000" height="40.000000" viewBox="0 0 40 40" fill="none" xmlns="http://www.w3.org/2000/svg" xmlns:xlink="http://www.w3.org/1999/xlink">
	<desc>
			Created with Pixso.
	</desc>
	<defs/>
	<rect id="矩形" width="40.000000" height="40.000000" fill="#D8D8D8" fill-opacity="0"/>
	<rect id="矩形" x="0.500000" y="0.500000" width="39.000000" height="39.000000" stroke="#979797" stroke-opacity="0" stroke-width="1.000000"/>
	<path id="形状" d="M12.6616 11.3161L12.5994 11.3204L12.5388 11.3306C12.2612 11.3918 12.0532 11.6372 12.0491 11.932L11.981 16.6604L11.9834 16.7243C11.9963 16.8722 12.062 17.0115 12.1692 17.1163L19.5771 24.3567L19.6223 24.3967C19.8701 24.5966 20.2339 24.5789 20.4609 24.3465L20.501 24.3015C20.7009 24.0536 20.6831 23.6898 20.4509 23.4627L13.2344 16.4099L13.29 12.554L17.2256 12.4774L24.9839 20.1296L25.0288 20.1699C25.2759 20.3709 25.6396 20.3549 25.8679 20.1236C26.1104 19.8778 26.1074 19.4821 25.8618 19.2397L17.916 11.4023L17.8691 11.3605C17.7554 11.2689 17.6125 11.2196 17.4651 11.2224L12.6616 11.3161ZM20.7681 24.6487C20.9954 24.4163 21.3591 24.3987 21.6069 24.5985L21.6521 24.6385L23.0786 26.0329C23.3257 26.2742 23.3301 26.6699 23.0889 26.9168C22.8618 27.1491 22.4978 27.1668 22.25 26.9669L22.2051 26.9269L20.7783 25.5325C20.5315 25.2912 20.5269 24.8955 20.7681 24.6487ZM27.0671 20.4341C26.8203 20.2331 26.4563 20.2491 26.2283 20.4804C25.9858 20.7262 25.9885 21.1219 26.2341 21.3643L27.7512 22.8606L27.7961 22.9008C28.043 23.1018 28.407 23.0858 28.635 22.8546C28.8774 22.6088 28.8748 22.2131 28.6292 21.9707L27.1121 20.4743L27.0671 20.4341Z" clip-rule="evenodd" fill="#000000" fill-opacity="1.000000" fill-rule="evenodd"/>
	<path id="路径" d="M14.3 18.97C14.3 18.63 14.58 18.35 14.93 18.34C15.25 18.34 15.52 18.59 15.55 18.9L15.55 18.97L15.56 24.28L16.24 24.95L18.27 22.94C18.51 22.71 18.87 22.7 19.11 22.9L19.16 22.94C19.39 23.17 19.4 23.54 19.19 23.78L19.15 23.82L16.68 26.28C16.45 26.5 16.09 26.52 15.84 26.32L15.8 26.28L14.5 24.99C14.4 24.89 14.33 24.75 14.32 24.61L14.31 24.55L14.3 18.97Z" fill="#000000" fill-opacity="1.000000" fill-rule="evenodd"/>
	<path id="路径" d="M19.17 14.14C19.18 13.82 19.42 13.55 19.74 13.52L19.8 13.52L25.44 13.53C25.58 13.53 25.72 13.58 25.83 13.67L25.87 13.71L27.17 15C27.41 15.23 27.42 15.6 27.21 15.85L27.17 15.89L24.7 18.34C24.45 18.58 24.05 18.58 23.81 18.33C23.58 18.1 23.57 17.74 23.78 17.49L23.82 17.45L25.84 15.44L25.18 14.78L19.8 14.77C19.48 14.77 19.21 14.52 19.18 14.21L19.17 14.14Z" fill="#000000" fill-opacity="1.000000" fill-rule="evenodd"/>
	<path id="路径" d="M16.79 16.01C17.02 15.77 17.38 15.75 17.63 15.95L17.68 15.99L28.31 26.24C28.56 26.48 28.56 26.88 28.32 27.12C28.1 27.36 27.74 27.38 27.49 27.18L27.44 27.14L16.81 16.89C16.56 16.65 16.55 16.25 16.79 16.01Z" fill="#000000" fill-opacity="1.000000" fill-rule="evenodd"/>
	<path id="路径" d="M33.42 4.25C34.67 4.25 35.7 5.24 35.74 6.48L35.75 6.57L35.75 12.89C35.75 13.3 35.41 13.64 35 13.64C34.6 13.64 34.28 13.34 34.25 12.95L34.25 12.89L34.25 6.57C34.25 6.14 33.91 5.78 33.48 5.75L33.42 5.75L27.1 5.75C26.69 5.75 26.35 5.41 26.35 5C26.35 4.6 26.65 4.28 27.04 4.25L27.1 4.25L33.42 4.25Z" fill="#000000" fill-opacity="1.000000" fill-rule="evenodd"/>
	<path id="路径" d="M35 26.35C35.39 26.35 35.71 26.65 35.74 27.04L35.75 27.1L35.75 33.42C35.75 34.67 34.75 35.7 33.51 35.74L33.42 35.75L27.1 35.75C26.69 35.75 26.35 35.41 26.35 35C26.35 34.6 26.65 34.28 27.04 34.25L27.1 34.25L33.42 34.25C33.85 34.25 34.21 33.91 34.24 33.48L34.25 33.42L34.25 27.1C34.25 26.69 34.58 26.35 35 26.35Z" fill="#000000" fill-opacity="1.000000" fill-rule="evenodd"/>
	<path id="路径" d="M5 26.35C5.39 26.35 5.71 26.65 5.74 27.04L5.75 27.1L5.75 33.42C5.75 33.85 6.08 34.21 6.51 34.24L6.57 34.25L12.89 34.25C13.3 34.25 13.64 34.58 13.64 35C13.64 35.39 13.34 35.71 12.95 35.74L12.89 35.75L6.57 35.75C5.32 35.75 4.29 34.75 4.25 33.51L4.25 33.42L4.25 27.1C4.25 26.69 4.58 26.35 5 26.35Z" fill="#000000" fill-opacity="1.000000" fill-rule="evenodd"/>
	<path id="路径" d="M12.89 4.25C13.3 4.25 13.64 4.58 13.64 5C13.64 5.39 13.34 5.71 12.95 5.74L12.89 5.75L6.57 5.75C6.14 5.75 5.78 6.08 5.75 6.51L5.75 6.57L5.75 12.89C5.75 13.3 5.41 13.64 5 13.64C4.6 13.64 4.28 13.34 4.25 12.95L4.25 12.89L4.25 6.57C4.25 5.32 5.24 4.29 6.48 4.25L6.57 4.25L12.89 4.25Z" fill="#000000" fill-opacity="1.000000" fill-rule="evenodd"/>
</svg>
