<svg width="40.000000" height="40.000000" viewBox="0 0 40 40" fill="none" xmlns="http://www.w3.org/2000/svg" xmlns:xlink="http://www.w3.org/1999/xlink">
	<desc>
			Created with Pixso.
	</desc>
	<defs/>
	<rect id="插件运维管理" width="40.000000" height="40.000000" fill="#FFFFFF" fill-opacity="0"/>
	<rect id="矩形" width="40.000000" height="40.000000" fill="#D8D8D8" fill-opacity="0"/>
	<rect id="矩形" x="0.500000" y="0.500000" width="39.000000" height="39.000000" stroke="#979797" stroke-opacity="0" stroke-width="1.000000"/>
	<path id="形状结合" d="M22.3303 6.6225C23.0095 6.3959 23.0154 5.4375 22.3391 5.20258L22.2192 5.16092C17.6548 3.57513 12.5845 4.85287 9.31641 8.41238L5.34619 12.7368C4.4707 13.6905 4.5022 15.1646 5.41772 16.08L6.05615 16.7186C7 17.6623 8.53003 17.6623 9.47388 16.7186L11.0928 15.0998L14.0549 18.0619C14.3477 18.3548 14.8228 18.3548 15.1155 18.0619C15.4084 17.769 15.4084 17.2942 15.1155 17.0013L11.6543 13.54C11.3687 13.2544 10.9099 13.2473 10.6157 13.5189C10.5386 13.5549 10.4666 13.6046 10.4028 13.6682L8.41333 15.6579C8.05518 16.0159 7.47485 16.0159 7.11694 15.6579L6.47827 15.0194C6.1311 14.6721 6.11914 14.113 6.45117 13.7513L10.4214 9.42682L10.5435 9.29623C12.8774 6.83762 16.2112 5.67224 19.4978 6.06384L19.6514 6.08334L19.3516 6.22821C17.3896 7.19394 15.5938 8.47748 14.0388 10.0323L13.6189 10.4523C13.457 10.614 13.3848 10.8313 13.4016 11.0427C13.354 11.2804 13.4224 11.5367 13.6067 11.7209L17.0103 15.1246C17.3032 15.4175 17.7781 15.4175 18.071 15.1246C18.3638 14.8317 18.3638 14.3568 18.071 14.0639L15.0996 11.0927C17.1306 9.06195 19.606 7.53152 22.3303 6.6225ZM29.6001 5.08325C26.2026 5.08325 23.45 7.84894 23.45 11.2588L23.4534 11.4675C23.4648 11.8146 23.5051 12.1575 23.573 12.4936L23.6013 12.622L12.3967 22.8983L12.3835 22.894C11.751 22.6776 11.083 22.5655 10.3999 22.5655C7.00269 22.5655 4.25 25.3312 4.25 28.7411C4.25 29.6672 4.45361 30.5659 4.84106 31.3856L4.86987 31.4407C5.10498 31.8496 5.66455 31.9449 6.02222 31.6214L8.86499 29.0495L10.032 30.3516L7.21851 32.8971C6.84082 33.2388 6.90625 33.8495 7.3479 34.1035C8.26953 34.6335 9.31519 34.9166 10.3999 34.9166C13.7974 34.9166 16.55 32.1509 16.55 28.7411L16.5469 28.5435C16.5325 28.0835 16.4678 27.6308 16.3547 27.1921L16.3401 27.1387L27.3762 17.0174L27.4087 17.0305C28.1013 17.2959 28.8413 17.4343 29.6001 17.4343C32.9973 17.4343 35.75 14.6686 35.75 11.2588C35.75 10.3326 35.5464 9.43393 35.1589 8.61423L35.1301 8.55911C34.895 8.15024 34.3354 8.05499 33.9778 8.37845L31.1345 10.9499L29.9675 9.64783L32.7815 7.10275C33.1592 6.76108 33.0938 6.15027 32.6521 5.89636C31.7305 5.36633 30.6848 5.08325 29.6001 5.08325ZM29.7637 6.58609L29.6001 6.58325C27.0327 6.58325 24.95 8.67578 24.95 11.2588C24.95 11.7358 25.0208 12.2023 25.1584 12.6478C25.2439 12.9247 25.1624 13.226 24.9487 13.4219L13.2642 24.1385C13.24 24.1608 13.2192 24.1843 13.2026 24.2083L13.1619 24.2614C12.9487 24.5157 12.5901 24.6014 12.2822 24.4642C11.6951 24.2025 11.0579 24.0655 10.3999 24.0655C7.83276 24.0655 5.75 26.1581 5.75 28.7411C5.75 29.0657 5.78271 29.3854 5.84692 29.6965L5.85791 29.7466L8.41797 27.4319C8.70898 27.1686 9.1499 27.1763 9.43164 27.4387L9.47949 27.4876L11.6475 29.9068C11.9231 30.2142 11.8982 30.6866 11.592 30.9635L9.08887 33.2274L9.12378 33.2386C9.48267 33.3412 9.85547 33.4005 10.2363 33.4138L10.3999 33.4166C12.9673 33.4166 15.05 31.3241 15.05 28.7411C15.05 28.1894 14.9553 27.6517 14.7725 27.1458C14.6548 26.8194 14.7761 26.4549 15.0659 26.2643L15.0962 26.2426L15.125 26.2182L26.7224 15.5821C26.9502 15.3732 27.283 15.3254 27.5603 15.4618C28.1897 15.7713 28.8826 15.9343 29.6001 15.9343C32.1672 15.9343 34.25 13.8418 34.25 11.2588C34.25 10.9341 34.2173 10.6145 34.1531 10.3034L34.1416 10.2528L31.582 12.5679C31.291 12.8312 30.8501 12.8235 30.5684 12.5612L30.5205 12.5122L28.3525 10.093C28.0769 9.78561 28.1018 9.31326 28.408 9.03632L30.9109 6.772L30.8762 6.76129C30.5173 6.6586 30.1445 6.5993 29.7637 6.58609ZM21.7173 25.7242C21.4243 25.4313 21.4243 24.9565 21.7173 24.6635C22.0103 24.3707 22.4851 24.3707 22.7778 24.6635L23.0061 24.8922C24.1216 26.0117 25.5769 27.5005 27.3726 29.3591L29.8689 31.9525C30.2158 32.2994 30.7964 32.2994 31.1543 31.9414L31.8452 31.2536C32.2021 30.8969 32.2021 30.3164 31.844 29.9585L24.7891 22.8569C24.4973 22.5631 24.4988 22.0882 24.7927 21.7963C25.0864 21.5044 25.5613 21.5059 25.8533 21.7998L32.9065 28.8995C33.8484 29.8416 33.8484 31.3717 32.9048 32.3155L32.2136 33.0033C31.2712 33.9459 29.741 33.9459 28.7974 33.0021C26.1096 30.2012 23.9929 28.0198 22.4407 26.4517L21.7173 25.7242Z" clip-rule="evenodd" fill="#000000" fill-opacity="1.000000" fill-rule="evenodd"/>
</svg>
