<svg width="40.000000" height="40.000000" viewBox="0 0 40 40" fill="none" xmlns="http://www.w3.org/2000/svg" xmlns:xlink="http://www.w3.org/1999/xlink">
	<desc>
			Created with Pixso.
	</desc>
	<defs/>
	<rect id="矩形" width="40.000000" height="40.000000" fill="#D8D8D8" fill-opacity="0"/>
	<rect id="矩形" x="0.500000" y="0.500000" width="39.000000" height="39.000000" stroke="#979797" stroke-opacity="0" stroke-width="1.000000"/>
	<mask id="mask_48_2741" fill="white">
		<path id="形状结合" d="M24.4998 11.5538C24.7778 11.8321 24.7917 12.2746 24.5415 12.5692L24.4998 12.6145L20.9504 16.1638C20.6575 16.4567 20.1826 16.4567 19.8896 16.1638C19.6116 15.8856 19.5977 15.4431 19.8479 15.1484L19.8896 15.1032L22.9084 12.0839L18.1357 7.31119C15.2073 4.38263 10.4792 4.3501 7.51074 7.21356L7.41138 7.31119C4.48267 10.2398 4.4502 14.9677 7.31372 17.9362L7.41138 18.0356L12.1841 22.8084L14.939 20.054C15.217 19.7758 15.6597 19.7618 15.9543 20.0123L15.9995 20.054C16.2778 20.3323 16.2917 20.7747 16.0413 21.0694L15.9995 21.1147L12.7146 24.3996C12.4363 24.6779 11.9939 24.6918 11.6992 24.4413L11.6541 24.3996L6.35059 19.0963C2.80347 15.549 2.80347 9.79779 6.35059 6.25055C9.8623 2.73874 15.5344 2.70361 19.0894 6.14517L19.1963 6.25055L24.4998 11.5538ZM15.833 28.0204C15.5825 28.315 15.5964 28.7575 15.8748 29.0358L21.178 34.3391L21.2852 34.4444C24.8401 37.886 30.512 37.8509 34.0239 34.3391C37.571 30.7918 37.571 25.0406 34.0239 21.4933L28.7205 16.19L28.6753 16.1483C28.3806 15.8979 27.938 15.9118 27.6599 16.19L24.375 19.4749L24.3333 19.5202C24.0828 19.8149 24.0967 20.2574 24.375 20.5356L24.4202 20.5773C24.7148 20.8278 25.1572 20.8138 25.4355 20.5356L28.1904 17.7812L32.9631 22.554L33.0608 22.6534C35.9243 25.6219 35.8916 30.3499 32.9631 33.2784L32.8638 33.376C29.8953 36.2395 25.1672 36.207 22.2388 33.2784L17.4658 28.5057L20.4846 25.4865L20.5264 25.4412C20.7769 25.1465 20.7629 24.704 20.4846 24.4258C20.1919 24.1329 19.717 24.1329 19.4241 24.4258L15.8748 27.9751L15.833 28.0204Z" clip-rule="evenodd" fill="" fill-opacity="1.000000" fill-rule="evenodd"/>
	</mask>
	<path id="形状结合" d="M24.4998 11.5538C24.7778 11.8321 24.7917 12.2746 24.5415 12.5692L24.4998 12.6145L20.9504 16.1638C20.6575 16.4567 20.1826 16.4567 19.8896 16.1638C19.6116 15.8856 19.5977 15.4431 19.8479 15.1484L19.8896 15.1032L22.9084 12.0839L18.1357 7.31119C15.2073 4.38263 10.4792 4.3501 7.51074 7.21356L7.41138 7.31119C4.48267 10.2398 4.4502 14.9677 7.31372 17.9362L7.41138 18.0356L12.1841 22.8084L14.939 20.054C15.217 19.7758 15.6597 19.7618 15.9543 20.0123L15.9995 20.054C16.2778 20.3323 16.2917 20.7747 16.0413 21.0694L15.9995 21.1147L12.7146 24.3996C12.4363 24.6779 11.9939 24.6918 11.6992 24.4413L11.6541 24.3996L6.35059 19.0963C2.80347 15.549 2.80347 9.79779 6.35059 6.25055C9.8623 2.73874 15.5344 2.70361 19.0894 6.14517L19.1963 6.25055L24.4998 11.5538ZM15.833 28.0204C15.5825 28.315 15.5964 28.7575 15.8748 29.0358L21.178 34.3391L21.2852 34.4444C24.8401 37.886 30.512 37.8509 34.0239 34.3391C37.571 30.7918 37.571 25.0406 34.0239 21.4933L28.7205 16.19L28.6753 16.1483C28.3806 15.8979 27.938 15.9118 27.6599 16.19L24.375 19.4749L24.3333 19.5202C24.0828 19.8149 24.0967 20.2574 24.375 20.5356L24.4202 20.5773C24.7148 20.8278 25.1572 20.8138 25.4355 20.5356L28.1904 17.7812L32.9631 22.554L33.0608 22.6534C35.9243 25.6219 35.8916 30.3499 32.9631 33.2784L32.8638 33.376C29.8953 36.2395 25.1672 36.207 22.2388 33.2784L17.4658 28.5057L20.4846 25.4865L20.5264 25.4412C20.7769 25.1465 20.7629 24.704 20.4846 24.4258C20.1919 24.1329 19.717 24.1329 19.4241 24.4258L15.8748 27.9751L15.833 28.0204Z" clip-rule="evenodd" fill="#303030" fill-opacity="1.000000" fill-rule="evenodd" mask="url(#mask_48_2741)"/>
	<path id="形状结合" d="M22.9084 12.0839L19.8896 15.1032L19.8479 15.1484C19.5977 15.4431 19.6116 15.8856 19.8896 16.1638C20.1826 16.4567 20.6575 16.4567 20.9504 16.1638L24.4998 12.6145L24.5415 12.5692C24.7917 12.2746 24.7778 11.8321 24.4998 11.5538L19.1963 6.25055L19.0894 6.14517C15.5344 2.70361 9.8623 2.73874 6.35059 6.25055C2.80347 9.79779 2.80347 15.549 6.35059 19.0963L11.6541 24.3996L11.6992 24.4413C11.9939 24.6918 12.4363 24.6779 12.7146 24.3996L15.9995 21.1147L16.0413 21.0694C16.2917 20.7747 16.2778 20.3323 15.9995 20.054L15.9543 20.0123C15.6597 19.7618 15.217 19.7758 14.939 20.054L12.1841 22.8084L7.41138 18.0356L7.31372 17.9362C4.4502 14.9677 4.48267 10.2398 7.41138 7.31119L7.51074 7.21356C10.4792 4.3501 15.2073 4.38263 18.1357 7.31119L22.2014 11.3769L22.9084 12.0839ZM17.4658 28.5057L20.4846 25.4865L20.5264 25.4412C20.7769 25.1465 20.7629 24.704 20.4846 24.4258C20.1919 24.1329 19.717 24.1329 19.4241 24.4258L15.8748 27.9751L15.833 28.0204C15.5825 28.315 15.5964 28.7575 15.8748 29.0358L21.178 34.3391L21.2852 34.4444C24.8401 37.886 30.512 37.8509 34.0239 34.3391C37.571 30.7918 37.571 25.0406 34.0239 21.4933L28.7205 16.19L28.6753 16.1483C28.3806 15.8979 27.938 15.9118 27.6599 16.19L24.375 19.4749L24.3333 19.5202C24.0828 19.8149 24.0967 20.2574 24.375 20.5356L24.4202 20.5773C24.7148 20.8278 25.1572 20.8138 25.4355 20.5356L27.4832 18.4884L28.1904 17.7812L32.9631 22.554L33.0608 22.6534C35.9243 25.6219 35.8916 30.3499 32.9631 33.2784L32.8638 33.376C29.8953 36.2395 25.1672 36.207 22.2388 33.2784L17.4658 28.5057ZM20.2432 15.4567L20.2432 15.4567L20.2432 15.4567Z" clip-rule="evenodd" fill="#000000" fill-opacity="1.000000" fill-rule="evenodd"/>
	<mask id="mask_48_2744" fill="white">
		<path id="形状结合" d="M27.3589 4.87354C27.6836 4.87354 27.9507 5.1214 27.981 5.43835L27.9839 5.49854L27.9839 9.66519C27.9839 10.0104 27.7039 10.2902 27.3589 10.2902C27.0339 10.2902 26.7668 10.0423 26.7366 9.7254L26.7339 9.66519L26.7339 5.49854C26.7339 5.15335 27.0137 4.87354 27.3589 4.87354ZM32.8096 7.8497C32.9316 7.97174 32.9924 8.13168 32.9924 8.29163C32.9924 8.43277 32.9451 8.57391 32.8501 8.689L32.8096 8.73358L29.2739 12.2691C29.0298 12.5132 28.634 12.5132 28.3901 12.2691C28.2681 12.1471 28.207 11.9871 28.207 11.8272C28.207 11.686 28.2546 11.5449 28.3496 11.4298L28.3901 11.3852L31.9255 7.8497C32.1697 7.60562 32.5654 7.60562 32.8096 7.8497ZM35.665 13.1795C35.665 13.5247 35.3853 13.8045 35.04 13.8045L30.8733 13.8045L30.8132 13.8017C30.4963 13.7714 30.2483 13.5044 30.2483 13.1795C30.2483 12.8344 30.5281 12.5545 30.8733 12.5545L35.04 12.5545L35.1001 12.5574C35.4172 12.5877 35.665 12.8546 35.665 13.1795ZM13.3625 13.7126C13.5923 13.4829 13.9563 13.4694 14.2019 13.6721L14.2463 13.7126L27.1841 26.6502C27.3062 26.7723 27.3672 26.9322 27.3672 27.0922C27.3672 27.2521 27.3062 27.4121 27.1841 27.5341C26.9543 27.7638 26.5903 27.7773 26.3447 27.5746L26.3 27.5341L13.3625 14.5965C13.2405 14.4745 13.1794 14.3145 13.1794 14.1546C13.1794 13.9946 13.2405 13.8347 13.3625 13.7126ZM4.5791 27.2367C4.5791 26.8915 4.85889 26.6117 5.2041 26.6117L9.37085 26.6117L9.43091 26.6145C9.7478 26.6448 9.99585 26.9118 9.99585 27.2367C9.99585 27.5818 9.71606 27.8617 9.37085 27.8617L5.2041 27.8617L5.1438 27.8588C4.8269 27.8285 4.5791 27.5615 4.5791 27.2367ZM7.43457 32.565C7.3125 32.443 7.25146 32.283 7.25146 32.1231C7.25146 31.9819 7.29907 31.8408 7.39404 31.7257L7.43457 31.6811L10.9702 28.1456C11.2144 27.9015 11.6099 27.9015 11.854 28.1456C11.9761 28.2676 12.0371 28.4276 12.0371 28.5875C12.0371 28.7287 11.9895 28.8698 11.8945 28.9849L11.854 29.0295L8.3186 32.565C8.07446 32.8091 7.67871 32.8091 7.43457 32.565ZM12.8853 35.5417C12.5605 35.5417 12.2935 35.2938 12.2632 34.9769L12.2603 34.9167L12.2603 30.75C12.2603 30.4048 12.5403 30.125 12.8853 30.125C13.2102 30.125 13.4773 30.3729 13.5076 30.6898L13.5103 30.75L13.5103 34.9167C13.5103 35.2618 13.2305 35.5417 12.8853 35.5417Z" clip-rule="evenodd" fill="" fill-opacity="1.000000" fill-rule="evenodd"/>
	</mask>
	<path id="形状结合" d="M27.3589 4.87354C27.6836 4.87354 27.9507 5.1214 27.981 5.43835L27.9839 5.49854L27.9839 9.66519C27.9839 10.0104 27.7039 10.2902 27.3589 10.2902C27.0339 10.2902 26.7668 10.0423 26.7366 9.7254L26.7339 9.66519L26.7339 5.49854C26.7339 5.15335 27.0137 4.87354 27.3589 4.87354ZM32.8096 7.8497C32.9316 7.97174 32.9924 8.13168 32.9924 8.29163C32.9924 8.43277 32.9451 8.57391 32.8501 8.689L32.8096 8.73358L29.2739 12.2691C29.0298 12.5132 28.634 12.5132 28.3901 12.2691C28.2681 12.1471 28.207 11.9871 28.207 11.8272C28.207 11.686 28.2546 11.5449 28.3496 11.4298L28.3901 11.3852L31.9255 7.8497C32.1697 7.60562 32.5654 7.60562 32.8096 7.8497ZM35.665 13.1795C35.665 13.5247 35.3853 13.8045 35.04 13.8045L30.8733 13.8045L30.8132 13.8017C30.4963 13.7714 30.2483 13.5044 30.2483 13.1795C30.2483 12.8344 30.5281 12.5545 30.8733 12.5545L35.04 12.5545L35.1001 12.5574C35.4172 12.5877 35.665 12.8546 35.665 13.1795ZM13.3625 13.7126C13.5923 13.4829 13.9563 13.4694 14.2019 13.6721L14.2463 13.7126L27.1841 26.6502C27.3062 26.7723 27.3672 26.9322 27.3672 27.0922C27.3672 27.2521 27.3062 27.4121 27.1841 27.5341C26.9543 27.7638 26.5903 27.7773 26.3447 27.5746L26.3 27.5341L13.3625 14.5965C13.2405 14.4745 13.1794 14.3145 13.1794 14.1546C13.1794 13.9946 13.2405 13.8347 13.3625 13.7126ZM4.5791 27.2367C4.5791 26.8915 4.85889 26.6117 5.2041 26.6117L9.37085 26.6117L9.43091 26.6145C9.7478 26.6448 9.99585 26.9118 9.99585 27.2367C9.99585 27.5818 9.71606 27.8617 9.37085 27.8617L5.2041 27.8617L5.1438 27.8588C4.8269 27.8285 4.5791 27.5615 4.5791 27.2367ZM7.43457 32.565C7.3125 32.443 7.25146 32.283 7.25146 32.1231C7.25146 31.9819 7.29907 31.8408 7.39404 31.7257L7.43457 31.6811L10.9702 28.1456C11.2144 27.9015 11.6099 27.9015 11.854 28.1456C11.9761 28.2676 12.0371 28.4276 12.0371 28.5875C12.0371 28.7287 11.9895 28.8698 11.8945 28.9849L11.854 29.0295L8.3186 32.565C8.07446 32.8091 7.67871 32.8091 7.43457 32.565ZM12.8853 35.5417C12.5605 35.5417 12.2935 35.2938 12.2632 34.9769L12.2603 34.9167L12.2603 30.75C12.2603 30.4048 12.5403 30.125 12.8853 30.125C13.2102 30.125 13.4773 30.3729 13.5076 30.6898L13.5103 30.75L13.5103 34.9167C13.5103 35.2618 13.2305 35.5417 12.8853 35.5417Z" clip-rule="evenodd" fill="#C7000B" fill-opacity="1.000000" fill-rule="evenodd" mask="url(#mask_48_2744)"/>
	<path id="形状结合" d="M27.981 5.43835C27.9507 5.1214 27.6836 4.87354 27.3589 4.87354C27.0137 4.87354 26.7339 5.15335 26.7339 5.49854L26.7339 9.66519L26.7366 9.7254C26.7668 10.0423 27.0339 10.2902 27.3589 10.2902C27.7039 10.2902 27.9839 10.0104 27.9839 9.66519L27.9839 5.49854L27.981 5.43835ZM32.9924 8.29163C32.9924 8.13168 32.9316 7.97174 32.8096 7.8497C32.5654 7.60562 32.1697 7.60562 31.9255 7.8497L28.3901 11.3852L28.3496 11.4298C28.2546 11.5449 28.207 11.686 28.207 11.8272C28.207 11.9871 28.2681 12.1471 28.3901 12.2691C28.634 12.5132 29.0298 12.5132 29.2739 12.2691L32.8096 8.73358L32.8501 8.689C32.9451 8.57391 32.9924 8.43277 32.9924 8.29163ZM35.04 13.8045C35.3853 13.8045 35.665 13.5247 35.665 13.1795C35.665 12.8546 35.4172 12.5877 35.1001 12.5574L35.04 12.5545L30.8733 12.5545C30.5281 12.5545 30.2483 12.8344 30.2483 13.1795C30.2483 13.5044 30.4963 13.7714 30.8132 13.8017L30.8733 13.8045L35.04 13.8045ZM14.2019 13.6721C13.9563 13.4694 13.5923 13.4829 13.3625 13.7126C13.2405 13.8347 13.1794 13.9946 13.1794 14.1546C13.1794 14.3145 13.2405 14.4745 13.3625 14.5965L26.3 27.5341L26.3447 27.5746C26.5903 27.7773 26.9543 27.7638 27.1841 27.5341C27.3062 27.4121 27.3672 27.2521 27.3672 27.0922C27.3672 26.9322 27.3062 26.7723 27.1841 26.6502L14.2463 13.7126L14.2019 13.6721ZM5.2041 26.6117C4.85889 26.6117 4.5791 26.8915 4.5791 27.2367C4.5791 27.5615 4.8269 27.8285 5.1438 27.8588L5.2041 27.8617L9.37085 27.8617C9.71606 27.8617 9.99585 27.5818 9.99585 27.2367C9.99585 26.9118 9.7478 26.6448 9.43091 26.6145L9.37085 26.6117L5.2041 26.6117ZM7.25146 32.1231C7.25146 32.283 7.3125 32.443 7.43457 32.565C7.67871 32.8091 8.07446 32.8091 8.3186 32.565L11.854 29.0295L11.8945 28.9849C11.9895 28.8698 12.0371 28.7287 12.0371 28.5875C12.0371 28.4276 11.9761 28.2676 11.854 28.1456C11.6099 27.9015 11.2144 27.9015 10.9702 28.1456L7.43457 31.6811L7.39404 31.7257C7.29907 31.8408 7.25146 31.9819 7.25146 32.1231ZM12.2632 34.9769C12.2935 35.2938 12.5605 35.5417 12.8853 35.5417C13.2305 35.5417 13.5103 35.2618 13.5103 34.9167L13.5103 30.75L13.5076 30.6898C13.4773 30.3729 13.2102 30.125 12.8853 30.125C12.5403 30.125 12.2603 30.4048 12.2603 30.75L12.2603 34.9167L12.2632 34.9769Z" clip-rule="evenodd" fill="#000000" fill-opacity="1.000000" fill-rule="evenodd"/>
</svg>
