<svg width="40.000000" height="40.000000" viewBox="0 0 40 40" fill="none" xmlns="http://www.w3.org/2000/svg" xmlns:xlink="http://www.w3.org/1999/xlink">
	<desc>
			Created with Pixso.
	</desc>
	<defs/>
	<rect id="矩形" width="40.000000" height="40.000000" fill="#D8D8D8" fill-opacity="0"/>
	<rect id="矩形" x="0.500000" y="0.500000" width="39.000000" height="39.000000" stroke="#979797" stroke-opacity="0" stroke-width="1.000000"/>
	<path id="形状结合" d="M21.4214 3.67218L21.5322 3.72966L34.9412 11.0089C35.3054 11.2065 35.4402 11.6618 35.2427 12.0258C35.0554 12.3707 34.637 12.5099 34.2839 12.3556L34.2256 12.3271L20.8167 5.04794C20.3333 4.78552 19.7566 4.76653 19.259 4.99207L19.1667 5.03722L6.63843 11.6288C6.09082 11.917 5.73804 12.4716 5.70557 13.0851L5.70337 13.1776L5.70337 22.5197L7.03833 21.2101C7.31763 20.9362 7.75684 20.9251 8.04907 21.1738L8.09912 21.2204C8.37305 21.4997 8.38403 21.9388 8.13525 22.231L8.08862 22.281L5.42993 24.8887C5.15088 25.1625 4.71191 25.1738 4.41968 24.9254L4.36987 24.8789L1.80811 22.2712C1.51782 21.9757 1.52197 21.5008 1.81738 21.2105C2.09644 20.9364 2.53564 20.9249 2.82812 21.1734L2.87793 21.22L4.20337 22.5692L4.20337 13.1776C4.20337 12.0097 4.82959 10.9348 5.83789 10.3574L5.93994 10.3014L18.4685 3.70973C19.355 3.24324 20.4026 3.21373 21.3088 3.61923L21.4214 3.67218ZM31.3914 18.4097C31.1011 18.7052 31.1052 19.1801 31.4006 19.4703C31.6797 19.7445 32.1189 19.756 32.4114 19.5074L32.4614 19.4609L33.8335 18.064L33.8335 26.8459L33.8311 26.9372C33.7996 27.5431 33.4553 28.0923 32.9182 28.3839L20.8167 34.9534L20.7249 34.9998C20.2305 35.2318 19.6536 35.2203 19.1667 34.9642L5.30249 27.6696L5.2439 27.6419C4.88892 27.4922 4.47217 27.6369 4.28955 27.9841C4.09668 28.3507 4.23755 28.8042 4.604 28.9971L18.4685 36.2916L18.5801 36.3477C19.5171 36.7957 20.615 36.7696 21.5322 36.2717L33.634 29.7022L33.7373 29.6436C34.7241 29.0605 35.3335 27.9978 35.3335 26.8459L35.3335 18.2071L36.6218 19.4708C36.9011 19.7447 37.3401 19.7558 37.6323 19.507L37.6824 19.4605C37.9563 19.1812 37.9673 18.7421 37.7188 18.4498L37.6721 18.3999L35.0132 15.7921C34.7341 15.5184 34.2954 15.5071 34.0032 15.7555L33.9531 15.802L31.3914 18.4097Z" clip-rule="evenodd" fill="#000000" fill-opacity="1.000000" fill-rule="evenodd"/>
	<path id="形状结合" d="M12.209 14.7786L19.2947 10.8094C19.7336 10.5635 20.2668 10.5635 20.7056 10.8094L27.7913 14.7786C28.2554 15.0385 28.5417 15.5324 28.5417 16.0668L28.5417 23.9332C28.5417 24.4676 28.2554 24.9615 27.7913 25.2214L20.7056 29.1906C20.4529 29.3322 20.1687 29.3923 19.8894 29.3707C19.8652 29.3736 19.8403 29.3751 19.8154 29.3751C19.6924 29.3751 19.5779 29.3396 19.4812 29.2783C19.4175 29.2538 19.3552 29.2245 19.2947 29.1906L12.209 25.2214C11.7449 24.9615 11.4585 24.4676 11.4585 23.9332L11.4585 16.0668C11.4585 15.5324 11.7449 15.0385 12.209 14.7786ZM20.4404 27.9064L27.1804 24.1309C27.2478 24.093 27.2917 24.0173 27.2917 23.9332L27.2917 17.2628L20.4404 21.1218L20.4404 27.9064ZM27.1987 15.8807C27.1929 15.8765 27.1868 15.8727 27.1804 15.8691L20.0947 11.8999C20.0354 11.8667 19.9648 11.8667 19.9055 11.8999L12.8198 15.8691C12.7573 15.9042 12.7151 15.9718 12.7092 16.0485L19.8149 20.0394L27.1987 15.8807ZM12.7085 17.4818L19.1904 21.1223L19.1904 27.6994L12.8198 24.1309C12.7524 24.093 12.7085 24.0173 12.7085 23.9332L12.7085 17.4818Z" clip-rule="evenodd" fill="#000000" fill-opacity="1.000000" fill-rule="evenodd"/>
</svg>
