<svg version="1.1" xmlns="http://www.w3.org/2000/svg" width="24" height="24" viewBox="0 0 24 24">
<path fill="currentColor" d="M12.862 2.208l7.318 3.971c0.608 0.33 0.993 0.955 1.018 1.642l0.001 0.072v0.968c0.721 0.196 1.25 0.855 1.25 1.639 0 0.939-0.761 1.701-1.7 1.701s-1.7-0.762-1.7-1.701c0-0.784 0.53-1.443 1.25-1.639v-0.968c0-0.366-0.191-0.706-0.502-0.895l-7.297-3.964c-0.294-0.16-0.645-0.168-0.946-0.028l-7.306 3.964c-0.322 0.174-0.529 0.504-0.548 0.869l-0.001 0.054v8.215c0 0.366 0.191 0.706 0.501 0.895l7.297 3.964c0.294 0.16 0.645 0.168 0.946 0.028l7.306-3.964c0.322-0.174 0.529-0.504 0.548-0.867l0.001-0.056v-2.232c0-0.249 0.201-0.45 0.45-0.45 0.236 0 0.43 0.182 0.449 0.413l0.001 0.037v2.232c0 0.691-0.365 1.329-0.958 1.679l-7.312 3.971c-0.558 0.303-1.227 0.315-1.793 0.035l-7.318-3.971c-0.607-0.33-0.993-0.955-1.018-1.642l-0.001-0.072v-8.215c0-0.691 0.365-1.329 0.958-1.679l7.312-3.971c0.558-0.302 1.227-0.313 1.793-0.035zM21.55 10.5c0-0.442-0.358-0.8-0.8-0.8s-0.8 0.357-0.8 0.8 0.358 0.8 0.8 0.8c0.442 0 0.8-0.357 0.8-0.8z"></path>
<path fill="#002fa7" d="M18.375 12c0 3.521-2.854 6.375-6.375 6.375-3.015 0-5.6-2.109-6.23-5.019-0.044-0.202 0.085-0.401 0.287-0.445s0.402 0.084 0.446 0.287c0.556 2.565 2.837 4.427 5.497 4.427 3.107 0 5.625-2.518 5.625-5.625s-2.518-5.625-5.625-5.625c-2.111 0-4.008 1.173-4.972 2.991 0.36 0.248 0.597 0.664 0.597 1.134 0 0.759-0.616 1.375-1.375 1.375s-1.375-0.617-1.375-1.375 0.616-1.376 1.375-1.376c0.019 0 0.038 0.002 0.058 0.002 1.073-2.123 3.257-3.501 5.692-3.501 3.521 0 6.375 2.854 6.375 6.375zM6.875 10.5c0-0.346-0.28-0.625-0.625-0.625s-0.625 0.28-0.625 0.625 0.28 0.625 0.625 0.625c0.345 0 0.625-0.28 0.625-0.625z"></path>
</svg>
