<svg version="1.1" xmlns="http://www.w3.org/2000/svg" width="24" height="24" viewBox="0 0 24 24">
<path fill="currentColor" d="M5 5.785h10.572v-1.609c0-0.131 0.021-0.254 0.063-0.369v0c0.035-0.096 0.084-0.186 0.148-0.271 0.060-0.080 0.128-0.148 0.205-0.207 0.087-0.068 0.186-0.121 0.294-0.16s0.218-0.061 0.329-0.064c0.096-0.002 0.193 0.008 0.291 0.031 0.103 0.025 0.198 0.064 0.286 0.117 0.105 0.063 0.2 0.143 0.283 0.244l4.032 4.904c0.103 0.125 0.152 0.268 0.147 0.43s-0.062 0.303-0.172 0.422l-4.046 4.396c-0.086 0.092-0.182 0.168-0.287 0.223-0.088 0.047-0.183 0.080-0.285 0.102-0.097 0.020-0.192 0.027-0.287 0.020-0.107-0.008-0.213-0.031-0.318-0.072s-0.199-0.096-0.283-0.162c-0.074-0.059-0.14-0.129-0.197-0.209-0.061-0.084-0.108-0.174-0.141-0.268-0.040-0.113-0.060-0.232-0.060-0.359v-1.816h-2.1c-0.364 0-0.65-0.287-0.65-0.65s0.286-0.65 0.65-0.65h2.329c0.076 0 0.149 0.008 0.222 0.023 0.066 0.014 0.131 0.035 0.195 0.061 0.062 0.027 0.121 0.059 0.177 0.096 0.059 0.039 0.113 0.084 0.163 0.135s0.095 0.105 0.134 0.162c0.037 0.057 0.069 0.115 0.095 0.178 0.027 0.064 0.047 0.129 0.061 0.195 0.015 0.072 0.023 0.147 0.023 0.223v1.459l3.266-3.547-3.266-3.975v1.199c0 0.076-0.008 0.15-0.023 0.223-0.014 0.066-0.035 0.131-0.061 0.195-0.026 0.063-0.058 0.121-0.095 0.176-0.039 0.059-0.084 0.113-0.134 0.164s-0.105 0.096-0.163 0.135c-0.055 0.035-0.114 0.068-0.177 0.094-0.064 0.027-0.129 0.049-0.195 0.063-0.073 0.016-0.146 0.021-0.222 0.021h-10.801c-0.364 0-0.65-0.285-0.65-0.648 0-0.365 0.286-0.65 0.65-0.65zM8.428 18.217h10.572c0.364 0 0.65-0.285 0.65-0.65 0-0.363-0.286-0.65-0.65-0.65h-10.801c-0.076 0-0.149 0.008-0.222 0.024-0.066 0.014-0.132 0.035-0.195 0.063-0.063 0.025-0.122 0.057-0.177 0.094-0.058 0.039-0.113 0.084-0.163 0.135s-0.095 0.105-0.134 0.164c-0.037 0.055-0.069 0.113-0.095 0.176-0.027 0.064-0.048 0.129-0.062 0.195-0.016 0.072-0.023 0.147-0.023 0.223v1.197l-3.267-3.973 3.267-3.547v1.459c0 0.076 0.007 0.15 0.023 0.223 0.014 0.066 0.034 0.131 0.062 0.195 0.026 0.063 0.058 0.121 0.095 0.178 0.039 0.057 0.083 0.111 0.134 0.162s0.105 0.096 0.163 0.135c0.056 0.037 0.115 0.068 0.177 0.094 0.063 0.027 0.129 0.049 0.195 0.063v0c0.072 0.016 0.146 0.024 0.222 0.024h5.080c0.364 0 0.65-0.287 0.65-0.65s-0.286-0.65-0.65-0.65h-4.851v-1.816c0-0.127-0.020-0.246-0.060-0.359-0.033-0.094-0.080-0.184-0.141-0.268-0.058-0.080-0.124-0.15-0.198-0.209-0.084-0.066-0.178-0.121-0.283-0.162s-0.211-0.064-0.318-0.072v0c-0.095-0.008-0.19 0-0.287 0.020-0.102 0.019-0.197 0.055-0.285 0.102-0.105 0.055-0.201 0.131-0.287 0.223l-4.047 4.397c-0.11 0.119-0.167 0.26-0.171 0.422s0.044 0.305 0.147 0.43l4.031 4.904c0.083 0.102 0.177 0.182 0.283 0.244 0.087 0.053 0.183 0.092 0.286 0.117 0.097 0.023 0.194 0.033 0.291 0.031 0.11-0.004 0.219-0.025 0.328-0.064s0.207-0.092 0.294-0.16c0.077-0.059 0.145-0.127 0.205-0.209 0.063-0.084 0.113-0.174 0.147-0.27 0.042-0.115 0.063-0.238 0.063-0.369v-1.609z"></path>
</svg>
