<svg version="1.1" xmlns="http://www.w3.org/2000/svg" width="24" height="24" viewBox="0 0 24 24">
<path opacity="0.8" fill="currentColor" d="M6.3 7.125c0-2.941 2.384-5.325 5.325-5.325s5.325 2.384 5.325 5.325c0 2.068-1.179 3.861-2.902 4.743 0.937 0.251 1.827 0.647 2.644 1.177 0.209 0.136 0.268 0.414 0.133 0.622s-0.414 0.269-0.623 0.133c-1.353-0.877-2.929-1.35-4.577-1.35-4.653 0-8.425 3.771-8.425 8.425 0 0.248-0.201 0.45-0.45 0.45s-0.45-0.202-0.45-0.45c0-4.313 2.927-7.94 6.902-9.007-1.723-0.882-2.902-2.675-2.902-4.743zM16.050 7.125c0-2.444-1.981-4.425-4.425-4.425s-4.425 1.98-4.425 4.425c0 2.443 1.981 4.425 4.425 4.425s4.425-1.981 4.425-4.425z"></path>
<path opacity="0.8" fill="currentColor" d="M17.917 14.583c-0.231-0.092-0.493 0.020-0.585 0.251l-2.5 6.25-0.013 0.036c-0.067 0.222 0.045 0.461 0.263 0.549 0.231 0.092 0.493-0.021 0.585-0.251l2.5-6.25 0.013-0.036c0.067-0.222-0.045-0.461-0.264-0.549zM13.708 15.658c0.189-0.161 0.473-0.139 0.634 0.051 0.152 0.179 0.141 0.442-0.021 0.606l-0.030 0.028-2.071 1.764 2.049 1.533c0.188 0.141 0.234 0.399 0.114 0.596l-0.023 0.034c-0.141 0.188-0.4 0.234-0.596 0.113l-0.034-0.023-2.5-1.87c-0.221-0.165-0.241-0.485-0.051-0.677l0.028-0.026 2.5-2.13zM18.657 15.709c0.161-0.189 0.445-0.212 0.634-0.051l2.529 2.156c0.189 0.191 0.17 0.512-0.051 0.677l-2.5 1.87-0.034 0.023c-0.196 0.121-0.455 0.074-0.596-0.113l-0.023-0.034c-0.121-0.196-0.074-0.455 0.114-0.596l2.049-1.533-2.071-1.764-0.030-0.028c-0.161-0.164-0.173-0.428-0.021-0.606z"></path>
</svg>
