<svg version="1.1" xmlns="http://www.w3.org/2000/svg" width="24" height="24" viewBox="0 0 24 24">
<path fill="currentColor" d="M12 2.050c1.84 0 3.61 0.5 5.16 1.44 0.21 0.13 0.28 0.4 0.15 0.62-0.13 0.21-0.41 0.28-0.62 0.15-1.4-0.86-3.020-1.31-4.69-1.31-5 0-9.060 4.050-9.060 9.050 0 4.99 4.060 9.050 9.060 9.050 4.99 0 9.050-4.060 9.050-9.050 0-1.66-0.45-3.25-1.28-4.65-0.13-0.21-0.060-0.49 0.15-0.61 0.21-0.13 0.49-0.060 0.62 0.15 0.91 1.53 1.41 3.28 1.41 5.11 0 5.49-4.46 9.95-9.95 9.95-5.5 0-9.95-4.46-9.95-9.95 0-5.5 4.45-9.95 9.95-9.95z"></path>
<path fill="currentColor" d="M13.872 12.678c-0.69 0.676-1.806 0.676-2.495-0.002s-0.69-1.777 0-2.455l0.002 0.002 7.981-5.535-5.488 7.99z"></path>
</svg>
