<svg version="1.1" xmlns="http://www.w3.org/2000/svg" width="24" height="24" viewBox="0 0 24 24">
<path fill="currentColor" d="M21.69 18.17c0.010 0.21-0.040 0.41-0.12 0.6-0.030 0.080-0.080 0.16-0.12 0.23-0.060 0.090-0.14 0.18-0.22 0.26-0.14 0.14-0.31 0.24-0.49 0.32-0.19 0.080-0.39 0.12-0.6 0.12h-16.29c-0.11 0-0.23-0.020-0.34-0.040-0.080-0.020-0.17-0.050-0.26-0.080-0.18-0.080-0.35-0.18-0.49-0.32-0.15-0.14-0.26-0.3-0.34-0.49s-0.13-0.39-0.13-0.6v-12.35c0-0.11 0.020-0.21 0.040-0.31s0.050-0.2 0.090-0.29c0.040-0.080 0.080-0.16 0.12-0.23 0.070-0.090 0.14-0.18 0.22-0.26 0.070-0.060 0.14-0.12 0.21-0.17 0.090-0.060 0.18-0.11 0.28-0.15 0.090-0.030 0.18-0.060 0.26-0.080 0.11-0.020 0.23-0.030 0.34-0.030h6.69c0.2 0 0.4 0.030 0.59 0.11 0.14 0.050 0.26 0.13 0.38 0.22h7.67c0.23 0 0.45 0.040 0.66 0.13 0.2 0.090 0.38 0.21 0.54 0.36 0.080 0.090 0.15 0.17 0.22 0.27 0.050 0.080 0.1 0.18 0.15 0.27 0.040 0.1 0.070 0.2 0.090 0.31 0.030 0.11 0.040 0.23 0.040 0.36v0.74c0.12 0.060 0.22 0.14 0.32 0.24 0.090 0.070 0.16 0.16 0.22 0.25 0.050 0.070 0.090 0.15 0.12 0.23 0.040 0.090 0.080 0.19 0.1 0.29s0.030 0.2 0.030 0.31l0.010 4.040c0.010 0.39-0.3 0.7-0.69 0.7s-0.7-0.3-0.71-0.7l-0.050-4.11c-0.010-0.010-0.1-0.040-0.12-0.050h-6.17c-0.21 0-0.4-0.040-0.59-0.11-0.1-0.040-0.2-0.090-0.29-0.16-0.080-0.050-0.15-0.1-0.21-0.17l-2.19-2.090c-0.030-0.030-0.070-0.040-0.12-0.040h-6.69c-0.050 0-0.12 0.090-0.16 0.12l0.040 12.43c0.030 0.030 0.070 0.050 0.12 0.050l16.38-0.030c0.010 0 0.050-0.090 0.060-0.1l-0.010-3.7c0-0.39 0.31-0.7 0.7-0.7s0.7 0.31 0.7 0.7l0.010 3.7zM12.98 6.030l0.84 0.79c0.030 0.030 0.070 0.050 0.12 0.050h5.54v-0.54c0-0.050-0.010-0.080-0.020-0.12-0.060-0.060-0.2-0.18-0.28-0.18h-6.2zM10 16.7h-4c-0.4 0-0.71-0.31-0.71-0.7 0-0.4 0.31-0.7 0.71-0.7h4c0.39 0 0.69 0.3 0.69 0.7 0 0.39-0.3 0.7-0.69 0.7zM13 15.3h-1c-0.4 0-0.71 0.3-0.71 0.7 0 0.39 0.31 0.7 0.71 0.7h1c0.39 0 0.69-0.31 0.69-0.7 0-0.4-0.3-0.7-0.69-0.7z"></path>
</svg>
