<svg version="1.1" xmlns="http://www.w3.org/2000/svg" width="24" height="24" viewBox="0 0 24 24">
<path fill="currentColor" d="M12.316 4.707l8.051 0.014c0.132 0.031 0.231 0.149 0.231 0.292v7.92l-0.006 0.030-0 0.001v1.444c0.783-0.037 1.407-0.684 1.407-1.476v-7.92l-0.006-0.146c-0.075-0.87-0.804-1.554-1.694-1.554l-14.332 0.006c-0.683 0.065-1.216 0.641-1.216 1.34 0 0.017 0 0.033 0.001 0.049h7.564zM3.452 6.019c-0.801 0-1.45 0.649-1.45 1.45v9.201c0 0.801 0.649 1.45 1.45 1.45h1.587c0.028 0 0.050 0.023 0.050 0.050v1.066c0 0.289 0.086 0.57 0.248 0.81 0.447 0.665 1.348 0.841 2.012 0.394l3.432-2.311c0.008-0.006 0.018-0.009 0.028-0.009h6.718c0.801 0 1.45-0.649 1.45-1.45v-9.201c0-0.801-0.65-1.45-1.45-1.45h-14.075zM3.452 7.418h14.075c0.027 0 0.050 0.022 0.050 0.051v9.201c0 0.028-0.023 0.051-0.050 0.051h-6.718c-0.289 0-0.57 0.086-0.81 0.247l-3.432 2.31c-0.023 0.016-0.054 0.009-0.069-0.014-0.005-0.009-0.008-0.018-0.008-0.028v-1.066c0-0.801-0.649-1.449-1.45-1.449h-1.587c-0.028 0-0.050-0.023-0.050-0.051v-9.201c0-0.028 0.022-0.051 0.050-0.051zM14.859 10.379c0-0.387-0.313-0.7-0.7-0.7l-7.436 0.007c-0.342 0.046-0.605 0.339-0.605 0.693 0 0.387 0.313 0.7 0.7 0.7l7.436-0.007c0.342-0.046 0.605-0.339 0.605-0.693zM14.859 14.091c0-0.387-0.313-0.7-0.7-0.7l-7.436 0.007c-0.342 0.046-0.605 0.339-0.605 0.693 0 0.387 0.313 0.7 0.7 0.7l7.436-0.007c0.342-0.046 0.605-0.339 0.605-0.693z"></path>
</svg>
