<svg version="1.1" xmlns="http://www.w3.org/2000/svg" width="24" height="24" viewBox="0 0 24 24">
<path fill="currentColor" d="M10.375 3.754c0-1.035 0.839-1.875 1.875-1.875s1.875 0.84 1.875 1.875c0 1.035-0.839 1.875-1.875 1.875s-1.875-0.84-1.875-1.875zM13.375 3.752c0-0.621-0.504-1.125-1.125-1.125s-1.125 0.504-1.125 1.125c0 0.621 0.504 1.125 1.125 1.125s1.125-0.504 1.125-1.125zM12 7.625c-2.692 0-4.875 2.182-4.875 4.875s2.183 4.875 4.875 4.875 4.875-2.182 4.875-4.875c0-2.693-2.183-4.875-4.875-4.875zM12 8.375c2.278 0 4.125 1.848 4.125 4.125s-1.847 4.125-4.125 4.125c-2.278 0-4.125-1.848-4.125-4.125s1.847-4.125 4.125-4.125zM4 15.228c-1.036 0-1.875 0.84-1.875 1.875s0.839 1.875 1.875 1.875 1.875-0.84 1.875-1.875c0-1.035-0.839-1.875-1.875-1.875zM18.125 17.103c0-1.035 0.839-1.875 1.875-1.875s1.875 0.84 1.875 1.875c0 1.035-0.839 1.875-1.875 1.875s-1.875-0.84-1.875-1.875zM4 15.978c0.621 0 1.125 0.504 1.125 1.125s-0.504 1.125-1.125 1.125c-0.621 0-1.125-0.504-1.125-1.125s0.504-1.125 1.125-1.125zM21.125 17.103c0-0.621-0.504-1.125-1.125-1.125s-1.125 0.504-1.125 1.125c0 0.621 0.504 1.125 1.125 1.125s1.125-0.504 1.125-1.125z"></path>
<path fill="currentColor" d="M9.672 3.602c0.081 0.234-0.045 0.49-0.28 0.57-3.526 1.211-5.943 4.537-5.943 8.326 0 0.654 0.071 1.297 0.211 1.924 0.054 0.242-0.099 0.482-0.341 0.537-0.243 0.053-0.483-0.1-0.537-0.342-0.154-0.691-0.232-1.4-0.232-2.119 0-4.176 2.663-7.844 6.551-9.176 0.235-0.082 0.491 0.043 0.572 0.279zM21.95 12.498c0-4.168-2.652-7.828-6.527-9.17-0.235-0.080-0.491 0.043-0.572 0.279-0.081 0.234 0.043 0.49 0.278 0.572 3.515 1.215 5.921 4.537 5.921 8.318 0 0.65-0.070 1.293-0.209 1.916-0.054 0.244 0.099 0.484 0.342 0.537 0.243 0.055 0.483-0.1 0.537-0.342 0.153-0.687 0.231-1.395 0.231-2.111zM18.584 19.848c0.188-0.162 0.209-0.445 0.047-0.635-0.162-0.188-0.447-0.209-0.635-0.047-1.587 1.369-3.606 2.135-5.746 2.135-2.012 0-3.92-0.676-5.464-1.9-0.094-0.074-0.187-0.152-0.278-0.231-0.188-0.162-0.472-0.141-0.635 0.047-0.162 0.189-0.141 0.473 0.047 0.635 0.1 0.088 0.202 0.172 0.306 0.254 1.701 1.35 3.806 2.096 6.023 2.096 2.357 0 4.585-0.844 6.334-2.353z"></path>
</svg>
