<svg version="1.1" xmlns="http://www.w3.org/2000/svg" width="24" height="24" viewBox="0 0 24 24">
<path fill="currentColor" d="M20.047 2.55c0.758 0 1.373 0.592 1.395 1.335v3.847c0 0.247-0.195 0.45-0.442 0.45-0.24 0-0.435-0.18-0.45-0.413l-0.008-0.037v-3.788c0-0.262-0.203-0.48-0.457-0.495l-0.037-0.007h-3.788c-0.247 0-0.45-0.195-0.45-0.442 0-0.24 0.18-0.435 0.413-0.45h3.825z"></path>
<path fill="currentColor" d="M21 15.81c0.232 0 0.428 0.18 0.442 0.413v3.825c0 0.758-0.592 1.372-1.342 1.395h-3.84c-0.247 0-0.45-0.195-0.45-0.442 0-0.24 0.18-0.435 0.413-0.45h3.825c0.262 0 0.48-0.21 0.495-0.465v-3.825c0-0.247 0.203-0.45 0.457-0.45z"></path>
<path fill="currentColor" d="M3 15.81c0.232 0 0.428 0.18 0.442 0.413l0.007 0.037v3.788c0 0.263 0.202 0.48 0.458 0.495l0.038 0.008h3.787c0.247 0 0.45 0.195 0.45 0.45 0 0.232-0.18 0.427-0.413 0.442h-3.825c-0.757 0-1.373-0.593-1.395-1.335l-0.007-0.060v-3.788c0-0.247 0.202-0.45 0.457-0.45z"></path>
<path fill="currentColor" d="M7.732 2.55c0.248 0 0.45 0.195 0.45 0.45 0 0.232-0.18 0.428-0.413 0.442h-3.825c-0.262 0-0.48 0.21-0.495 0.465v3.825c0 0.247-0.202 0.45-0.45 0.45-0.24 0-0.435-0.18-0.45-0.413l-0.008-0.037v-3.788c0-0.757 0.6-1.372 1.343-1.395h3.847z"></path>
<path fill="currentColor" d="M13.050 7.178c0.068-0.383 0.592-0.413 0.72-0.067l0.015 0.038 1.755 6.585 1.343-3.855c0.097-0.285 0.472-0.337 0.652-0.105l0.015 0.030 1.29 2.070h2.16c0.188 0 0.352 0.15 0.367 0.345l0.008 0.030c0 0.195-0.15 0.36-0.345 0.375h-2.4c-0.12 0-0.225-0.053-0.3-0.143l-0.023-0.030-0.975-1.582-1.485 4.268c-0.112 0.338-0.585 0.338-0.705 0.015l-0.008-0.037-1.643-6.143-0.78 4.35c-0.060 0.345-0.518 0.42-0.69 0.12l-0.015-0.030-1.103-2.393-1.853 5.61c-0.12 0.36-0.615 0.337-0.72 0l-0.008-0.038-1.508-7.185-1.103 2.977c-0.053 0.135-0.173 0.225-0.315 0.24h-2.4c-0.21 0-0.375-0.165-0.375-0.375 0-0.188 0.143-0.353 0.338-0.368l0.037-0.007h2.108l1.462-3.945c0.128-0.345 0.608-0.315 0.705 0.015l0.015 0.038 1.485 7.095 1.717-5.19c0.098-0.315 0.518-0.345 0.675-0.075l0.022 0.037 0.997 2.16 0.862-4.83z"></path>
</svg>
