<svg version="1.1" xmlns="http://www.w3.org/2000/svg" width="24" height="24" viewBox="0 0 24 24">
<path fill="#497af8" d="M8.499 7.998c0.276 0 0.5 0.224 0.5 0.499 0 0.277-0.224 0.501-0.5 0.501s-0.5-0.224-0.5-0.501c0-0.275 0.224-0.499 0.5-0.499zM15 8.124c0.467 0 0.849 0.366 0.874 0.826l0.001 0.048v5.127c0 0.207-0.168 0.375-0.375 0.375-0.195 0-0.355-0.149-0.374-0.34l-0.001-0.035v-5.127c0-0.062-0.044-0.113-0.103-0.123l-0.023-0.002h-5.182c-0.207 0-0.375-0.168-0.375-0.375 0-0.195 0.149-0.356 0.339-0.373l0.036-0.002h5.182zM8.873 9.886c-0.018-0.19-0.178-0.34-0.373-0.34-0.207 0-0.375 0.168-0.375 0.375v5.079l0.001 0.047c0.025 0.461 0.407 0.828 0.874 0.828l5.155-0.001c0.19-0.019 0.339-0.179 0.339-0.374 0-0.207-0.168-0.375-0.375-0.375l-5.141-0.001c-0.058-0.012-0.103-0.062-0.103-0.123v-5.079l-0.002-0.035zM15.5 14.998c0.276 0 0.5 0.224 0.5 0.5 0 0.277-0.224 0.501-0.5 0.501s-0.5-0.224-0.5-0.501c0-0.275 0.224-0.5 0.5-0.5z"></path>
<path fill="currentColor" d="M16.958 15.501c0 0.249 0.201 0.45 0.45 0.45h2.897c0.775-0.029 1.395-0.667 1.395-1.449v-10.75l-0.001-0.056c-0.029-0.775-0.667-1.395-1.449-1.395l-10.805 0.001c-0.775 0.029-1.395 0.666-1.395 1.449v3.161l0.002 0.038c0.019 0.23 0.212 0.413 0.449 0.413 0.248 0 0.45-0.202 0.45-0.451v-3.161l0.001-0.040c0.020-0.286 0.258-0.511 0.549-0.511l10.789 0.001c0.286 0.021 0.511 0.259 0.511 0.549v10.75l-0.001 0.038c-0.020 0.286-0.258 0.511-0.549 0.511l-2.879 0.001c-0.231 0.019-0.413 0.212-0.413 0.448zM6.941 8.049c0.249 0 0.45 0.202 0.45 0.45 0 0.236-0.182 0.431-0.413 0.448l-0.037 0.001h-3.191c-0.29 0-0.528 0.226-0.549 0.511l-0.001 0.040v10.751c0 0.29 0.225 0.527 0.51 0.548l0.039 0.001h10.75c0.291 0 0.528-0.226 0.549-0.511l0.001-0.038v-3.019c0-0.248 0.201-0.45 0.45-0.45 0.236 0 0.43 0.182 0.449 0.413l0.001 0.037v3.019c0 0.782-0.62 1.419-1.395 1.449h-10.806c-0.782 0-1.419-0.618-1.449-1.393l-0.001-0.056v-10.75c0-0.782 0.619-1.419 1.395-1.449l0.055-0.002h3.191z"></path>
</svg>
