<svg version="1.1" xmlns="http://www.w3.org/2000/svg" width="24" height="24" viewBox="0 0 24 24">
<path opacity="0.8" fill="currentColor" d="M14.125 15.625c0-1.381 1.119-2.5 2.5-2.5s2.5 1.119 2.5 2.5c0 1.381-1.119 2.5-2.5 2.5-0.030 0-0.060-0.001-0.090-0.002-0.012 0.001-0.023 0.002-0.035 0.002-1.726 0-3.125 1.399-3.125 3.125 0 0.207-0.168 0.375-0.375 0.375s-0.375-0.168-0.375-0.375c0-1.656 1.039-3.069 2.501-3.624-0.607-0.456-1.001-1.183-1.001-2.001zM19.5 13.875c1.043 0 1.875 0.901 1.875 2 0 0.606-0.253 1.152-0.656 1.521 0.978 0.458 1.656 1.452 1.656 2.604 0 0.207-0.168 0.375-0.375 0.375s-0.375-0.168-0.375-0.375c0-1.174-0.951-2.125-2.125-2.125-0.207 0-0.375-0.168-0.375-0.375 0-0.195 0.149-0.355 0.339-0.373 0.012-0.001 0.024-0.002 0.036-0.002 0.614 0 1.125-0.554 1.125-1.25 0-0.697-0.511-1.25-1.125-1.25-0.207 0-0.375-0.168-0.375-0.375s0.168-0.375 0.375-0.375zM18.375 15.625c0-0.967-0.784-1.75-1.75-1.75s-1.75 0.783-1.75 1.75c0 0.967 0.784 1.75 1.75 1.75s1.75-0.783 1.75-1.75zM18.313 17.824c-0.183-0.097-0.41-0.027-0.507 0.156-0.097 0.183-0.027 0.409 0.155 0.507 1.015 0.538 1.664 1.593 1.664 2.763 0 0.207 0.168 0.375 0.375 0.375s0.375-0.168 0.375-0.375c0-1.45-0.804-2.759-2.062-3.426z"></path>
<path opacity="0.8" fill="currentColor" d="M11.234 3.741c0.142 0.29 0.216 0.609 0.216 0.932v2.174l4.755 2.148c0.758 0.343 1.245 1.098 1.245 1.93v1.2c0 0.248-0.201 0.45-0.45 0.45s-0.45-0.202-0.45-0.45v-1.2c0-0.479-0.28-0.912-0.716-1.109l-4.384-1.981v12.966h10.55c0.249 0 0.45 0.201 0.45 0.45 0 0.248-0.201 0.45-0.45 0.45h-20c-0.249 0-0.45-0.202-0.45-0.45s0.202-0.45 0.45-0.45h0.55v-13.841c0-0.808 0.46-1.545 1.186-1.9l4.666-2.286c1.050-0.515 2.318-0.081 2.833 0.969zM10.55 20.8v-16.127c0-0.186-0.042-0.368-0.124-0.535-0.296-0.604-1.025-0.854-1.628-0.558l-4.666 2.286c-0.417 0.205-0.682 0.629-0.682 1.093v13.841h7.1zM8.7 8.25c0-0.249-0.201-0.45-0.45-0.45s-0.45 0.201-0.45 0.45v3.75c0 0.248 0.202 0.45 0.45 0.45s0.45-0.202 0.45-0.45v-3.75z"></path>
</svg>
