<svg version="1.1" xmlns="http://www.w3.org/2000/svg" width="24" height="24" viewBox="0 0 24 24">
<path fill="currentColor" d="M10.736 1.052l0.264-0.001 0.264 0.001 0.262 0.003c0.044 0.001 0.087 0.001 0.13 0.003l0.259 0.006c0.043 0.001 0.086 0.003 0.128 0.004l0.255 0.010 0.252 0.012 0.249 0.015c0.041 0.003 0.082 0.006 0.123 0.007l0.244 0.018 0.241 0.021c0.040 0.003 0.080 0.006 0.119 0.010l0.236 0.022 0.232 0.025c0.038 0.004 0.077 0.009 0.115 0.013l0.227 0.028c0.037 0.006 0.075 0.010 0.112 0.015l0.221 0.031c0.037 0.006 0.073 0.012 0.109 0.016l0.215 0.034 0.211 0.037 0.206 0.038c0.034 0.006 0.068 0.013 0.101 0.019l0.2 0.041c0.098 0.021 0.195 0.042 0.29 0.064l0.188 0.045 0.183 0.047c0.060 0.016 0.119 0.032 0.177 0.048l0.172 0.051 0.167 0.053c0.027 0.009 0.055 0.018 0.081 0.026l0.159 0.056c1.14 0.412 1.823 0.967 1.823 1.63v7.507c0 0.249-0.201 0.45-0.45 0.45-0.236 0-0.43-0.182-0.449-0.413l-0.001-0.037v-2.55c-0.259 0.154-0.569 0.296-0.923 0.423l-0.159 0.056c-0.027 0.009-0.054 0.018-0.081 0.026l-0.167 0.053-0.172 0.051c-0.058 0.016-0.118 0.034-0.177 0.048l-0.183 0.048-0.188 0.045c-0.095 0.022-0.192 0.043-0.29 0.065l-0.2 0.040c-0.034 0.007-0.067 0.013-0.101 0.021l-0.206 0.037-0.211 0.037-0.215 0.034c-0.036 0.006-0.073 0.010-0.109 0.016l-0.221 0.031c-0.037 0.004-0.075 0.010-0.112 0.015l-0.227 0.028c-0.038 0.004-0.077 0.009-0.115 0.013l-0.232 0.025-0.236 0.022c-0.040 0.004-0.079 0.007-0.119 0.012l-0.241 0.019-0.244 0.018c-0.041 0.003-0.082 0.006-0.123 0.007l-0.249 0.015-0.252 0.012-0.255 0.010c-0.042 0.002-0.085 0.003-0.128 0.004l-0.259 0.007c-0.043 0-0.087 0.002-0.13 0.002l-0.262 0.004h-0.529l-0.262-0.004c-0.044 0-0.087-0.002-0.13-0.002l-0.259-0.007-0.256-0.009-0.253-0.012c-0.042-0.001-0.084-0.003-0.126-0.006l-0.249-0.015-0.246-0.016-0.242-0.018c-0.040-0.004-0.080-0.007-0.12-0.010l-0.238-0.022c-0.040-0.004-0.078-0.007-0.118-0.012l-0.233-0.025-0.229-0.026c-0.038-0.004-0.075-0.010-0.113-0.015l-0.223-0.029c-0.037-0.006-0.074-0.010-0.11-0.016l-0.217-0.032c-0.036-0.006-0.071-0.012-0.107-0.018l-0.211-0.037-0.206-0.037-0.202-0.040c-0.133-0.028-0.263-0.056-0.39-0.085l-0.187-0.045-0.183-0.048c-0.060-0.015-0.119-0.032-0.177-0.048l-0.172-0.051-0.167-0.053c-0.027-0.009-0.055-0.018-0.081-0.026l-0.159-0.056c-0.354-0.127-0.664-0.269-0.923-0.423v3.419c0.001 0.066 0.068 0.168 0.24 0.299 0.223 0.171 0.573 0.343 1.027 0.498 0.956 0.33 2.309 0.571 3.848 0.683 0.248 0.018 0.434 0.233 0.416 0.482-0.018 0.248-0.234 0.434-0.482 0.416l-0.471-0.038-0.23-0.022-0.227-0.023-0.443-0.053-0.216-0.029-0.212-0.031-0.207-0.032-0.204-0.034-0.199-0.037c-0.033-0.006-0.066-0.012-0.098-0.018l-0.192-0.038c-0.032-0.007-0.063-0.013-0.095-0.020l-0.186-0.041c-0.061-0.013-0.122-0.028-0.181-0.042l-0.177-0.044c-0.029-0.007-0.058-0.015-0.086-0.023l-0.169-0.047c-0.028-0.007-0.055-0.015-0.083-0.023l-0.162-0.050-0.156-0.050-0.151-0.053-0.146-0.054c-0.286-0.11-0.54-0.229-0.757-0.357l-0.003-0.001v3.284c0.001 0.066 0.068 0.168 0.24 0.299 0.223 0.171 0.573 0.343 1.027 0.498 0.956 0.33 2.309 0.571 3.848 0.683 0.248 0.018 0.434 0.233 0.416 0.482-0.018 0.248-0.234 0.434-0.482 0.416l-0.471-0.038-0.23-0.022-0.227-0.023-0.443-0.053-0.216-0.029-0.212-0.031-0.207-0.032-0.204-0.034-0.199-0.037c-0.033-0.006-0.066-0.012-0.098-0.018l-0.192-0.038c-0.032-0.007-0.063-0.013-0.095-0.020l-0.186-0.041c-0.061-0.013-0.122-0.028-0.181-0.042l-0.177-0.044c-0.029-0.007-0.058-0.015-0.086-0.023l-0.169-0.047c-0.028-0.007-0.055-0.015-0.083-0.023l-0.162-0.050-0.156-0.050-0.151-0.053-0.146-0.054c-0.286-0.11-0.54-0.229-0.757-0.357l-0.003-0.001v2.534c0.001 0.066 0.068 0.168 0.24 0.299 0.223 0.171 0.573 0.343 1.027 0.498 0.956 0.33 2.309 0.571 3.848 0.683 0.248 0.018 0.434 0.233 0.416 0.482-0.018 0.248-0.234 0.434-0.482 0.416l-0.471-0.038-0.23-0.022-0.227-0.023-0.443-0.053-0.216-0.029-0.212-0.031-0.207-0.032-0.204-0.034-0.199-0.037c-0.033-0.006-0.066-0.012-0.098-0.018l-0.192-0.038c-0.032-0.007-0.063-0.013-0.095-0.020l-0.186-0.041c-0.061-0.013-0.122-0.028-0.181-0.042l-0.177-0.044c-0.029-0.007-0.058-0.015-0.086-0.023l-0.169-0.047c-0.028-0.007-0.055-0.015-0.083-0.023l-0.162-0.050-0.156-0.050-0.151-0.053-0.146-0.054c-0.286-0.11-0.54-0.229-0.757-0.357l-0.105-0.066c-0.365-0.233-0.613-0.497-0.727-0.785-0.038-0.060-0.063-0.13-0.069-0.205l-0.001-0.037v-16.75c0-0.664 0.682-1.217 1.823-1.63l0.159-0.056c0.027-0.009 0.054-0.018 0.081-0.026l0.167-0.053 0.172-0.051c0.058-0.016 0.117-0.032 0.177-0.048l0.183-0.047 0.187-0.045c0.127-0.029 0.257-0.059 0.39-0.085l0.202-0.040 0.206-0.038 0.211-0.037c0.035-0.004 0.071-0.010 0.107-0.016l0.217-0.034c0.036-0.004 0.073-0.010 0.11-0.015l0.223-0.031c0.037-0.004 0.075-0.009 0.113-0.013l0.229-0.028 0.232-0.025c0.039-0.003 0.078-0.007 0.118-0.010l0.238-0.022c0.040-0.004 0.080-0.007 0.12-0.010l0.242-0.019 0.246-0.016 0.249-0.015c0.042-0.001 0.083-0.004 0.126-0.006l0.253-0.012 0.256-0.009 0.259-0.006c0.043-0.001 0.087-0.001 0.13-0.003l0.262-0.003zM3.95 4.708v2.542c0 0.085 0.109 0.227 0.379 0.397 0.333 0.211 0.84 0.41 1.483 0.582 1.357 0.362 3.208 0.571 5.187 0.571s3.831-0.209 5.187-0.571c0.643-0.171 1.15-0.371 1.483-0.582 0.27-0.17 0.379-0.312 0.379-0.397v-2.542c-0.259 0.154-0.569 0.296-0.923 0.423l-0.159 0.056c-0.027 0.009-0.054 0.018-0.081 0.026l-0.167 0.053-0.172 0.051c-0.058 0.016-0.118 0.032-0.177 0.048l-0.183 0.047-0.188 0.045c-0.126 0.031-0.256 0.059-0.389 0.085l-0.202 0.040-0.206 0.038-0.211 0.037c-0.035 0.006-0.071 0.010-0.107 0.016l-0.217 0.034c-0.037 0.004-0.073 0.010-0.11 0.015l-0.223 0.031c-0.037 0.004-0.075 0.009-0.113 0.013l-0.229 0.028-0.232 0.025c-0.039 0.003-0.078 0.007-0.118 0.012l-0.238 0.021c-0.040 0.004-0.080 0.007-0.12 0.010l-0.242 0.019-0.246 0.016-0.249 0.015c-0.042 0.001-0.083 0.004-0.126 0.006l-0.253 0.012-0.256 0.009-0.259 0.006c-0.043 0.001-0.087 0.001-0.13 0.003l-0.262 0.003-0.264 0.001-0.264-0.001-0.262-0.003c-0.044-0.001-0.087-0.001-0.13-0.003l-0.259-0.006c-0.043-0.001-0.086-0.003-0.128-0.004l-0.255-0.010-0.252-0.012-0.249-0.015c-0.041-0.003-0.082-0.006-0.123-0.007l-0.244-0.018-0.241-0.021c-0.040-0.003-0.080-0.006-0.119-0.010l-0.236-0.022-0.232-0.025c-0.038-0.004-0.077-0.009-0.115-0.013l-0.227-0.028c-0.038-0.006-0.075-0.010-0.112-0.015l-0.221-0.031c-0.037-0.006-0.073-0.012-0.109-0.016l-0.215-0.034-0.211-0.037-0.206-0.038c-0.034-0.006-0.068-0.012-0.101-0.019l-0.2-0.041c-0.099-0.021-0.195-0.042-0.29-0.064l-0.187-0.045-0.183-0.047c-0.060-0.016-0.119-0.032-0.177-0.048l-0.172-0.051-0.167-0.053c-0.027-0.009-0.055-0.018-0.081-0.026l-0.159-0.056c-0.354-0.127-0.664-0.27-0.923-0.423zM18.050 3.5v0-0.001c-0-0.085-0.11-0.227-0.379-0.397-0.333-0.209-0.84-0.41-1.483-0.582-1.357-0.362-3.208-0.571-5.187-0.571s-3.831 0.209-5.187 0.571c-0.643 0.171-1.15 0.372-1.483 0.582-0.27 0.17-0.379 0.312-0.379 0.398 0 0.085 0.109 0.227 0.379 0.397 0.333 0.209 0.84 0.41 1.483 0.582 1.357 0.362 3.208 0.571 5.187 0.571s3.831-0.209 5.187-0.571c0.643-0.171 1.15-0.372 1.483-0.582 0.269-0.17 0.379-0.312 0.379-0.397z"></path>
<path fill="#002fa7" d="M15.417 13.498v-1.5c0-0.206 0.168-0.375 0.375-0.375s0.375 0.169 0.375 0.375v1.5c0 0.207-0.168 0.375-0.375 0.375s-0.375-0.168-0.375-0.375zM11.665 13.994c-0.018-0.19-0.178-0.338-0.373-0.338-0.207 0-0.375 0.167-0.375 0.375v7.433l-0.883-0.749-0.030-0.023c-0.157-0.108-0.372-0.082-0.498 0.067-0.134 0.157-0.115 0.394 0.044 0.527l1.529 1.295c0.138 0.095 0.326 0.088 0.456-0.023l1.5-1.271 0.028-0.026c0.132-0.136 0.141-0.353 0.015-0.501-0.134-0.158-0.371-0.179-0.528-0.044l-0.883 0.749v-7.433l-0.002-0.037zM20.665 13.994c-0.018-0.19-0.178-0.338-0.373-0.338-0.207 0-0.375 0.167-0.375 0.375v7.433l-0.883-0.749-0.030-0.023c-0.157-0.108-0.372-0.082-0.498 0.067-0.134 0.157-0.115 0.394 0.044 0.527l1.529 1.295c0.138 0.095 0.326 0.088 0.456-0.023l1.5-1.271 0.028-0.026c0.132-0.136 0.141-0.353 0.015-0.501-0.134-0.158-0.371-0.179-0.528-0.044l-0.883 0.749v-7.433l-0.002-0.037zM15.417 16.498v-1.5c0-0.206 0.168-0.375 0.375-0.375s0.375 0.169 0.375 0.375v1.5c0 0.207-0.168 0.375-0.375 0.375s-0.375-0.168-0.375-0.375zM15.417 17.998v1.5c0 0.207 0.168 0.375 0.375 0.375s0.375-0.168 0.375-0.375v-1.5c0-0.206-0.168-0.375-0.375-0.375s-0.375 0.169-0.375 0.375zM15.417 21.463v-0.464c0-0.208 0.168-0.375 0.375-0.375s0.375 0.167 0.375 0.375v0.464l0.883-0.749c0.158-0.135 0.394-0.114 0.528 0.044 0.126 0.148 0.116 0.365-0.015 0.501l-0.028 0.026-1.5 1.271c-0.13 0.111-0.318 0.119-0.456 0.023l-0.029-0.023-1.5-1.271c-0.158-0.133-0.178-0.371-0.044-0.527 0.126-0.149 0.341-0.176 0.498-0.067l0.030 0.023 0.883 0.749z"></path>
</svg>
