<svg version="1.1" xmlns="http://www.w3.org/2000/svg" width="24" height="24" viewBox="0 0 24 24">
<path fill="currentColor" d="M20.199 3.445l0.001 0.056v4.619c0 0.249-0.201 0.45-0.45 0.45-0.236 0-0.43-0.182-0.449-0.413l-0.002-0.037v-4.619c0-0.29-0.225-0.529-0.511-0.549l-14.29-0.001c-0.29 0-0.528 0.226-0.549 0.511l-0.001 0.040v14.75c0 0.292 0.225 0.529 0.51 0.549l1.97 0.001c0.249 0 0.45 0.201 0.45 0.45 0 0.236-0.182 0.429-0.413 0.448l-1.968 0.002c-0.782 0-1.419-0.62-1.449-1.395l-0.001-0.056v-14.75c0-0.782 0.619-1.419 1.395-1.449l14.305-0.001c0.782 0 1.42 0.62 1.449 1.395zM19.5 9.551c0.801 0 1.45 0.65 1.45 1.45v9.501c0 0.8-0.649 1.45-1.45 1.45h-11c-0.801 0-1.45-0.65-1.45-1.45v-9.501c0-0.8 0.649-1.45 1.45-1.45h11zM7.95 13.326v7.176c0 0.303 0.246 0.549 0.55 0.549h11c0.304 0 0.55-0.246 0.55-0.549v-7.176h-12.1zM20.050 12.426v-1.425c0-0.303-0.246-0.549-0.55-0.549h-11c-0.304 0-0.55 0.246-0.55 0.549v1.425h12.1zM9.5 10.913c-0.276 0-0.5 0.223-0.5 0.499s0.224 0.5 0.5 0.5c0.276 0 0.5-0.223 0.5-0.5s-0.224-0.499-0.5-0.499zM11 11.413c0-0.277 0.224-0.499 0.5-0.499s0.5 0.223 0.5 0.499c0 0.277-0.224 0.5-0.5 0.5s-0.5-0.223-0.5-0.5zM13 11.413c0-0.277 0.224-0.499 0.5-0.499s0.5 0.223 0.5 0.499c0 0.277-0.224 0.5-0.5 0.5s-0.5-0.223-0.5-0.5z"></path>
<path fill="#497af8" d="M14.898 15.157c-0.19-0.082-0.411 0.006-0.493 0.196l-1.5 3.501-0.012 0.034c-0.058 0.182 0.030 0.381 0.209 0.458 0.19 0.081 0.411-0.007 0.493-0.198l1.5-3.5 0.012-0.034c0.058-0.182-0.030-0.382-0.209-0.458zM12.016 15.708c0.162-0.129 0.398-0.103 0.527 0.060 0.121 0.151 0.105 0.368-0.030 0.501l-0.029 0.025-1.109 0.886 1.090 0.765c0.16 0.111 0.205 0.325 0.111 0.491l-0.019 0.031c-0.112 0.16-0.326 0.205-0.492 0.111l-0.030-0.019-1.5-1.052c-0.194-0.138-0.213-0.415-0.046-0.576l0.028-0.025 1.5-1.198zM15.457 15.768c0.129-0.163 0.365-0.189 0.527-0.060l1.5 1.198 0.028 0.025c0.166 0.161 0.148 0.438-0.047 0.576l-1.5 1.052-0.031 0.019c-0.166 0.094-0.38 0.048-0.491-0.111l-0.019-0.031c-0.094-0.166-0.049-0.379 0.111-0.491l1.090-0.765-1.109-0.886-0.029-0.025c-0.136-0.133-0.151-0.35-0.030-0.501z"></path>
</svg>
