<svg version="1.1" xmlns="http://www.w3.org/2000/svg" width="24" height="24" viewBox="0 0 24 24">
<path fill="currentColor" d="M19.995 2.55c0.78 0 1.418 0.615 1.447 1.388l0.008 0.060v10.012c0 0.247-0.203 0.45-0.45 0.45-0.24 0-0.435-0.18-0.45-0.413l-0.008-0.037v-10.012c0-0.292-0.225-0.533-0.51-0.548l-0.038-0.007h-15.997c-0.292 0-0.532 0.232-0.548 0.517v16.035c0 0.293 0.225 0.532 0.51 0.547l0.037 0.008h15.997c0.293 0 0.532-0.232 0.547-0.517v-3.818c0-0.247 0.203-0.45 0.457-0.45 0.232 0 0.428 0.18 0.442 0.413l0.008 0.037v3.78c0 0.788-0.622 1.425-1.395 1.447h-16.058c-0.78 0-1.417-0.615-1.447-1.387l-0.007-0.060v-15.997c0-0.78 0.623-1.417 1.395-1.447h16.058z"></path>
<path fill="currentColor" d="M2.677 4.897c0.165-0.165 0.427-0.173 0.608-0.022l0.030 0.022 9.998 10.035c0.18 0.172 0.18 0.457 0 0.63-0.165 0.165-0.428 0.18-0.607 0.030l-0.030-0.030-9.997-10.027c-0.172-0.172-0.172-0.465 0-0.637z"></path>
<path fill="currentColor" d="M15.045 17.19c0.158-0.172 0.42-0.188 0.607-0.045l0.030 0.023 3.473 3.293c0.18 0.165 0.188 0.45 0.015 0.637-0.157 0.165-0.42 0.18-0.607 0.038l-0.030-0.023-3.473-3.293c-0.18-0.165-0.188-0.45-0.015-0.63z"></path>
<path fill="currentColor" d="M12.81 17.168c0.18-0.165 0.465-0.158 0.638 0.023 0.165 0.165 0.165 0.435 0.015 0.607l-0.030 0.023-3.465 3.293c-0.18 0.173-0.465 0.165-0.63-0.015-0.165-0.173-0.165-0.435-0.015-0.608l0.030-0.030 3.457-3.293z"></path>
<path fill="currentColor" d="M18.54 2.67c0.18-0.172 0.465-0.165 0.63 0.015 0.165 0.172 0.165 0.435 0.008 0.608l-0.023 0.030-3.48 3.255c-0.18 0.165-0.465 0.158-0.63-0.022-0.165-0.172-0.165-0.435-0.008-0.607l0.023-0.030 3.48-3.247z"></path>
<path fill="currentColor" d="M12.683 8.175c0.18-0.173 0.465-0.173 0.637 0.008 0.165 0.172 0.165 0.435 0.015 0.607l-0.030 0.030-3.33 3.21c-0.18 0.173-0.465 0.165-0.638-0.015-0.165-0.165-0.165-0.435-0.015-0.608l0.022-0.030 3.338-3.202z"></path>
<path fill="currentColor" d="M10.387 3.743c0.165-0.173 0.428-0.195 0.608-0.053l0.030 0.023 2.4 2.205c0.18 0.165 0.195 0.45 0.030 0.637-0.158 0.173-0.42 0.188-0.607 0.053l-0.030-0.030-2.4-2.197c-0.18-0.172-0.195-0.45-0.030-0.637z"></path>
<path fill="currentColor" d="M15.143 8.242c0.157-0.172 0.42-0.195 0.6-0.053l0.037 0.022 2.393 2.205c0.188 0.165 0.195 0.45 0.030 0.638-0.157 0.172-0.42 0.188-0.607 0.052l-0.030-0.030-2.393-2.198c-0.188-0.172-0.203-0.45-0.030-0.637z"></path>
<path fill="currentColor" d="M13.625 14.801h1.25c0.525 0 0.95 0.425 0.95 0.951v1.249c0 0.524-0.426 0.949-0.95 0.949h-1.25c-0.525 0-0.95-0.425-0.95-0.949v-1.249c0-0.526 0.425-0.951 0.95-0.951zM14.875 15.7h-1.25c-0.027 0-0.050 0.023-0.050 0.051v1.249c0 0.028 0.022 0.050 0.050 0.050h1.25c0.028 0 0.050-0.022 0.050-0.050v-1.249c0-0.028-0.022-0.051-0.050-0.051z"></path>
<path fill="currentColor" d="M13.625 5.801h1.25c0.525 0 0.95 0.425 0.95 0.951v1.25c0 0.524-0.426 0.949-0.95 0.949h-1.25c-0.525 0-0.95-0.425-0.95-0.949v-1.25c0-0.526 0.425-0.951 0.95-0.951zM14.875 6.7h-1.25c-0.027 0-0.050 0.023-0.050 0.051v1.25c0 0.028 0.022 0.050 0.050 0.050h1.25c0.028 0 0.050-0.022 0.050-0.050v-1.25c0-0.028-0.022-0.051-0.050-0.051z"></path>
</svg>
