<svg version="1.1" xmlns="http://www.w3.org/2000/svg" width="24" height="24" viewBox="0 0 24 24">
<path fill="currentColor" d="M20.117 2.48c0.776 0 1.405 0.629 1.405 1.404v9.549c0 0.775-0.629 1.404-1.405 1.404h-0.988v2.809c0 0.365-0.286 0.664-0.647 0.687h-0.042c-0.178 0-0.35-0.068-0.479-0.193l-3.418-3.303h-6.841c-0.757 0-1.375-0.6-1.404-1.35l-0.001-0.055v-9.549c0-0.775 0.629-1.404 1.405-1.404h12.413zM20.621 3.885c0-0.279-0.226-0.504-0.505-0.504h-12.413c-0.279 0-0.505 0.225-0.505 0.504v9.549c0 0.279 0.226 0.504 0.505 0.504h7.022c0.117 0 0.229 0.045 0.313 0.127l3.19 3.082 0-2.758c0-0.236 0.182-0.43 0.413-0.449l0.037-0.002h1.438c0.279 0 0.505-0.225 0.505-0.504v-9.549zM2.479 6.986c0-0.775 0.629-1.404 1.405-1.404h0.949c0.249 0 0.45 0.201 0.45 0.449 0 0.25-0.201 0.451-0.45 0.451h-0.949c-0.279 0-0.505 0.227-0.505 0.504v9.549c0 0.279 0.226 0.504 0.505 0.504h1.438l0.037 0.002c0.231 0.020 0.413 0.213 0.413 0.449l0 2.76 3.19-3.084c0.084-0.080 0.196-0.127 0.313-0.127h6.54c0.249 0 0.45 0.201 0.45 0.451l-0.002 0.037c-0.019 0.231-0.212 0.412-0.448 0.412h-6.359l-3.418 3.303c-0.128 0.125-0.3 0.193-0.479 0.193h-0.042c-0.361-0.023-0.647-0.322-0.647-0.687v-2.808h-0.988c-0.776 0-1.405-0.629-1.405-1.404v-9.549z"></path>
<path fill="currentColor" d="M11.249 6.301c-1.215 0-2.2 0.984-2.2 2.199s0.985 2.201 2.2 2.201c0.425 0 0.822-0.121 1.158-0.33l0.577 0.51c0.186 0.164 0.471 0.146 0.635-0.039 0.164-0.188 0.147-0.471-0.040-0.637l-0.519-0.457c0.244-0.354 0.387-0.783 0.387-1.248 0-1.215-0.985-2.199-2.2-2.199zM17.062 6.553c-0.169-0.344-0.661-0.332-0.815 0.018l-1.658 3.75c-0.1 0.227 0.002 0.492 0.23 0.592l0.036 0.016c0.219 0.074 0.462-0.029 0.557-0.244l1.269-2.871 1.416 2.865c0.11 0.223 0.38 0.315 0.603 0.203 0.223-0.109 0.314-0.379 0.204-0.602l-1.842-3.727zM11.25 7.199c0.718 0 1.3 0.582 1.3 1.299 0 0.719-0.582 1.301-1.3 1.301s-1.3-0.582-1.3-1.301c0-0.717 0.582-1.299 1.3-1.299z"></path>
</svg>
