<svg version="1.1" xmlns="http://www.w3.org/2000/svg" width="24" height="24" viewBox="0 0 24 24">
<path fill="currentColor" opacity="0.2" d="M21.444 11.722c0 5.369-4.353 9.722-9.722 9.722s-9.722-4.353-9.722-9.722c0-5.369 4.353-9.722 9.722-9.722s9.722 4.353 9.722 9.722z"></path>
<path fill="currentColor" opacity="0.8" d="M14.88 12.53l-4.26 2.35c-0.47 0.26-1.060 0.1-1.33-0.34-0.080-0.15-0.13-0.31-0.13-0.47v-4.71c0-0.51 0.44-0.93 0.97-0.93 0.17 0 0.34 0.040 0.49 0.12l4.26 2.36c0.47 0.25 0.63 0.83 0.36 1.27-0.090 0.15-0.21 0.26-0.36 0.35z"></path>
</svg>
